%TF.GenerationSoftware,KiCad,Pcbnew,(5.1.9-0-10_14)*%
%TF.CreationDate,2021-02-22T19:48:58+01:00*%
%TF.ProjectId,DMXBox PCB,444d5842-6f78-4205-9043-422e6b696361,0.1*%
%TF.SameCoordinates,Original*%
%TF.FileFunction,Legend,Top*%
%TF.FilePolarity,Positive*%
%FSLAX46Y46*%
G04 Gerber Fmt 4.6, Leading zero omitted, Abs format (unit mm)*
G04 Created by KiCad (PCBNEW (5.1.9-0-10_14)) date 2021-02-22 19:48:58*
%MOMM*%
%LPD*%
G01*
G04 APERTURE LIST*
%ADD10C,0.150000*%
%ADD11C,0.010000*%
%ADD12C,0.120000*%
G04 APERTURE END LIST*
D10*
X72398380Y-125284095D02*
X71398380Y-125284095D01*
X71398380Y-125046000D01*
X71446000Y-124903142D01*
X71541238Y-124807904D01*
X71636476Y-124760285D01*
X71826952Y-124712666D01*
X71969809Y-124712666D01*
X72160285Y-124760285D01*
X72255523Y-124807904D01*
X72350761Y-124903142D01*
X72398380Y-125046000D01*
X72398380Y-125284095D01*
X72398380Y-124284095D02*
X71398380Y-124284095D01*
X72112666Y-123950761D01*
X71398380Y-123617428D01*
X72398380Y-123617428D01*
X71398380Y-123236476D02*
X72398380Y-122569809D01*
X71398380Y-122569809D02*
X72398380Y-123236476D01*
X71874571Y-121093619D02*
X71922190Y-120950761D01*
X71969809Y-120903142D01*
X72065047Y-120855523D01*
X72207904Y-120855523D01*
X72303142Y-120903142D01*
X72350761Y-120950761D01*
X72398380Y-121046000D01*
X72398380Y-121426952D01*
X71398380Y-121426952D01*
X71398380Y-121093619D01*
X71446000Y-120998380D01*
X71493619Y-120950761D01*
X71588857Y-120903142D01*
X71684095Y-120903142D01*
X71779333Y-120950761D01*
X71826952Y-120998380D01*
X71874571Y-121093619D01*
X71874571Y-121426952D01*
X72398380Y-120284095D02*
X72350761Y-120379333D01*
X72303142Y-120426952D01*
X72207904Y-120474571D01*
X71922190Y-120474571D01*
X71826952Y-120426952D01*
X71779333Y-120379333D01*
X71731714Y-120284095D01*
X71731714Y-120141238D01*
X71779333Y-120046000D01*
X71826952Y-119998380D01*
X71922190Y-119950761D01*
X72207904Y-119950761D01*
X72303142Y-119998380D01*
X72350761Y-120046000D01*
X72398380Y-120141238D01*
X72398380Y-120284095D01*
X72398380Y-119617428D02*
X71731714Y-119093619D01*
X71731714Y-119617428D02*
X72398380Y-119093619D01*
X71731714Y-118046000D02*
X72398380Y-117855523D01*
X71922190Y-117665047D01*
X72398380Y-117474571D01*
X71731714Y-117284095D01*
X72303142Y-116903142D02*
X72350761Y-116855523D01*
X72398380Y-116903142D01*
X72350761Y-116950761D01*
X72303142Y-116903142D01*
X72398380Y-116903142D01*
X71350761Y-115712666D02*
X72636476Y-116569809D01*
X72398380Y-114046000D02*
X71922190Y-114379333D01*
X72398380Y-114617428D02*
X71398380Y-114617428D01*
X71398380Y-114236476D01*
X71446000Y-114141238D01*
X71493619Y-114093619D01*
X71588857Y-114046000D01*
X71731714Y-114046000D01*
X71826952Y-114093619D01*
X71874571Y-114141238D01*
X71922190Y-114236476D01*
X71922190Y-114617428D01*
X72398380Y-113474571D02*
X72350761Y-113569809D01*
X72303142Y-113617428D01*
X72207904Y-113665047D01*
X71922190Y-113665047D01*
X71826952Y-113617428D01*
X71779333Y-113569809D01*
X71731714Y-113474571D01*
X71731714Y-113331714D01*
X71779333Y-113236476D01*
X71826952Y-113188857D01*
X71922190Y-113141238D01*
X72207904Y-113141238D01*
X72303142Y-113188857D01*
X72350761Y-113236476D01*
X72398380Y-113331714D01*
X72398380Y-113474571D01*
X71731714Y-112855523D02*
X71731714Y-112474571D01*
X71398380Y-112712666D02*
X72255523Y-112712666D01*
X72350761Y-112665047D01*
X72398380Y-112569809D01*
X72398380Y-112474571D01*
X72398380Y-111712666D02*
X71874571Y-111712666D01*
X71779333Y-111760285D01*
X71731714Y-111855523D01*
X71731714Y-112046000D01*
X71779333Y-112141238D01*
X72350761Y-111712666D02*
X72398380Y-111807904D01*
X72398380Y-112046000D01*
X72350761Y-112141238D01*
X72255523Y-112188857D01*
X72160285Y-112188857D01*
X72065047Y-112141238D01*
X72017428Y-112046000D01*
X72017428Y-111807904D01*
X71969809Y-111712666D01*
X72398380Y-111236476D02*
X71731714Y-111236476D01*
X71922190Y-111236476D02*
X71826952Y-111188857D01*
X71779333Y-111141238D01*
X71731714Y-111046000D01*
X71731714Y-110950761D01*
X71731714Y-110712666D02*
X72398380Y-110474571D01*
X71731714Y-110236476D02*
X72398380Y-110474571D01*
X72636476Y-110569809D01*
X72684095Y-110617428D01*
X72731714Y-110712666D01*
X71874571Y-109093619D02*
X71874571Y-108760285D01*
X72398380Y-108617428D02*
X72398380Y-109093619D01*
X71398380Y-109093619D01*
X71398380Y-108617428D01*
X71731714Y-108188857D02*
X72398380Y-108188857D01*
X71826952Y-108188857D02*
X71779333Y-108141238D01*
X71731714Y-108046000D01*
X71731714Y-107903142D01*
X71779333Y-107807904D01*
X71874571Y-107760285D01*
X72398380Y-107760285D01*
X72350761Y-106855523D02*
X72398380Y-106950761D01*
X72398380Y-107141238D01*
X72350761Y-107236476D01*
X72303142Y-107284095D01*
X72207904Y-107331714D01*
X71922190Y-107331714D01*
X71826952Y-107284095D01*
X71779333Y-107236476D01*
X71731714Y-107141238D01*
X71731714Y-106950761D01*
X71779333Y-106855523D01*
X72398380Y-106284095D02*
X72350761Y-106379333D01*
X72303142Y-106426952D01*
X72207904Y-106474571D01*
X71922190Y-106474571D01*
X71826952Y-106426952D01*
X71779333Y-106379333D01*
X71731714Y-106284095D01*
X71731714Y-106141238D01*
X71779333Y-106046000D01*
X71826952Y-105998380D01*
X71922190Y-105950761D01*
X72207904Y-105950761D01*
X72303142Y-105998380D01*
X72350761Y-106046000D01*
X72398380Y-106141238D01*
X72398380Y-106284095D01*
X72398380Y-105093619D02*
X71398380Y-105093619D01*
X72350761Y-105093619D02*
X72398380Y-105188857D01*
X72398380Y-105379333D01*
X72350761Y-105474571D01*
X72303142Y-105522190D01*
X72207904Y-105569809D01*
X71922190Y-105569809D01*
X71826952Y-105522190D01*
X71779333Y-105474571D01*
X71731714Y-105379333D01*
X71731714Y-105188857D01*
X71779333Y-105093619D01*
X72350761Y-104236476D02*
X72398380Y-104331714D01*
X72398380Y-104522190D01*
X72350761Y-104617428D01*
X72255523Y-104665047D01*
X71874571Y-104665047D01*
X71779333Y-104617428D01*
X71731714Y-104522190D01*
X71731714Y-104331714D01*
X71779333Y-104236476D01*
X71874571Y-104188857D01*
X71969809Y-104188857D01*
X72065047Y-104665047D01*
X72398380Y-103760285D02*
X71731714Y-103760285D01*
X71922190Y-103760285D02*
X71826952Y-103712666D01*
X71779333Y-103665047D01*
X71731714Y-103569809D01*
X71731714Y-103474571D01*
X72350761Y-103188857D02*
X72398380Y-103093619D01*
X72398380Y-102903142D01*
X72350761Y-102807904D01*
X72255523Y-102760285D01*
X72207904Y-102760285D01*
X72112666Y-102807904D01*
X72065047Y-102903142D01*
X72065047Y-103046000D01*
X72017428Y-103141238D01*
X71922190Y-103188857D01*
X71874571Y-103188857D01*
X71779333Y-103141238D01*
X71731714Y-103046000D01*
X71731714Y-102903142D01*
X71779333Y-102807904D01*
X73381714Y-122403142D02*
X74048380Y-122165047D01*
X73381714Y-121926952D01*
X74000761Y-121165047D02*
X74048380Y-121260285D01*
X74048380Y-121450761D01*
X74000761Y-121546000D01*
X73905523Y-121593619D01*
X73524571Y-121593619D01*
X73429333Y-121546000D01*
X73381714Y-121450761D01*
X73381714Y-121260285D01*
X73429333Y-121165047D01*
X73524571Y-121117428D01*
X73619809Y-121117428D01*
X73715047Y-121593619D01*
X74048380Y-120688857D02*
X73381714Y-120688857D01*
X73572190Y-120688857D02*
X73476952Y-120641238D01*
X73429333Y-120593619D01*
X73381714Y-120498380D01*
X73381714Y-120403142D01*
X73048380Y-119117428D02*
X73048380Y-119022190D01*
X73096000Y-118926952D01*
X73143619Y-118879333D01*
X73238857Y-118831714D01*
X73429333Y-118784095D01*
X73667428Y-118784095D01*
X73857904Y-118831714D01*
X73953142Y-118879333D01*
X74000761Y-118926952D01*
X74048380Y-119022190D01*
X74048380Y-119117428D01*
X74000761Y-119212666D01*
X73953142Y-119260285D01*
X73857904Y-119307904D01*
X73667428Y-119355523D01*
X73429333Y-119355523D01*
X73238857Y-119307904D01*
X73143619Y-119260285D01*
X73096000Y-119212666D01*
X73048380Y-119117428D01*
X73953142Y-118355523D02*
X74000761Y-118307904D01*
X74048380Y-118355523D01*
X74000761Y-118403142D01*
X73953142Y-118355523D01*
X74048380Y-118355523D01*
X74048380Y-117355523D02*
X74048380Y-117926952D01*
X74048380Y-117641238D02*
X73048380Y-117641238D01*
X73191238Y-117736476D01*
X73286476Y-117831714D01*
X73334095Y-117926952D01*
X73143619Y-115450761D02*
X73096000Y-115403142D01*
X73048380Y-115307904D01*
X73048380Y-115069809D01*
X73096000Y-114974571D01*
X73143619Y-114926952D01*
X73238857Y-114879333D01*
X73334095Y-114879333D01*
X73476952Y-114926952D01*
X74048380Y-115498380D01*
X74048380Y-114879333D01*
X73048380Y-114260285D02*
X73048380Y-114165047D01*
X73096000Y-114069809D01*
X73143619Y-114022190D01*
X73238857Y-113974571D01*
X73429333Y-113926952D01*
X73667428Y-113926952D01*
X73857904Y-113974571D01*
X73953142Y-114022190D01*
X74000761Y-114069809D01*
X74048380Y-114165047D01*
X74048380Y-114260285D01*
X74000761Y-114355523D01*
X73953142Y-114403142D01*
X73857904Y-114450761D01*
X73667428Y-114498380D01*
X73429333Y-114498380D01*
X73238857Y-114450761D01*
X73143619Y-114403142D01*
X73096000Y-114355523D01*
X73048380Y-114260285D01*
X73143619Y-113546000D02*
X73096000Y-113498380D01*
X73048380Y-113403142D01*
X73048380Y-113165047D01*
X73096000Y-113069809D01*
X73143619Y-113022190D01*
X73238857Y-112974571D01*
X73334095Y-112974571D01*
X73476952Y-113022190D01*
X74048380Y-113593619D01*
X74048380Y-112974571D01*
X74048380Y-112022190D02*
X74048380Y-112593619D01*
X74048380Y-112307904D02*
X73048380Y-112307904D01*
X73191238Y-112403142D01*
X73286476Y-112498380D01*
X73334095Y-112593619D01*
X73667428Y-111593619D02*
X73667428Y-110831714D01*
X73048380Y-110165047D02*
X73048380Y-110069809D01*
X73096000Y-109974571D01*
X73143619Y-109926952D01*
X73238857Y-109879333D01*
X73429333Y-109831714D01*
X73667428Y-109831714D01*
X73857904Y-109879333D01*
X73953142Y-109926952D01*
X74000761Y-109974571D01*
X74048380Y-110069809D01*
X74048380Y-110165047D01*
X74000761Y-110260285D01*
X73953142Y-110307904D01*
X73857904Y-110355523D01*
X73667428Y-110403142D01*
X73429333Y-110403142D01*
X73238857Y-110355523D01*
X73143619Y-110307904D01*
X73096000Y-110260285D01*
X73048380Y-110165047D01*
X73143619Y-109450761D02*
X73096000Y-109403142D01*
X73048380Y-109307904D01*
X73048380Y-109069809D01*
X73096000Y-108974571D01*
X73143619Y-108926952D01*
X73238857Y-108879333D01*
X73334095Y-108879333D01*
X73476952Y-108926952D01*
X74048380Y-109498380D01*
X74048380Y-108879333D01*
X73667428Y-108450761D02*
X73667428Y-107688857D01*
X73143619Y-107260285D02*
X73096000Y-107212666D01*
X73048380Y-107117428D01*
X73048380Y-106879333D01*
X73096000Y-106784095D01*
X73143619Y-106736476D01*
X73238857Y-106688857D01*
X73334095Y-106688857D01*
X73476952Y-106736476D01*
X74048380Y-107307904D01*
X74048380Y-106688857D01*
X73143619Y-106307904D02*
X73096000Y-106260285D01*
X73048380Y-106165047D01*
X73048380Y-105926952D01*
X73096000Y-105831714D01*
X73143619Y-105784095D01*
X73238857Y-105736476D01*
X73334095Y-105736476D01*
X73476952Y-105784095D01*
X74048380Y-106355523D01*
X74048380Y-105736476D01*
D11*
%TO.C,REF\u002A\u002A*%
G36*
X75594054Y-110896400D02*
G01*
X75707993Y-110885535D01*
X75815616Y-110853918D01*
X75914615Y-110803015D01*
X76002684Y-110734293D01*
X76077516Y-110649219D01*
X76135384Y-110552232D01*
X76175005Y-110445964D01*
X76193573Y-110338950D01*
X76192434Y-110233300D01*
X76172930Y-110131125D01*
X76136406Y-110034534D01*
X76084205Y-109945638D01*
X76017673Y-109866546D01*
X75938152Y-109799369D01*
X75846987Y-109746217D01*
X75745523Y-109709199D01*
X75635102Y-109690427D01*
X75585206Y-109688489D01*
X75497267Y-109688489D01*
X75497267Y-109636560D01*
X75500111Y-109600253D01*
X75511911Y-109573355D01*
X75535649Y-109546249D01*
X75574031Y-109507867D01*
X77765602Y-109507867D01*
X78027739Y-109507876D01*
X78268241Y-109507908D01*
X78488048Y-109507972D01*
X78688101Y-109508076D01*
X78869344Y-109508227D01*
X79032716Y-109508434D01*
X79179160Y-109508706D01*
X79309617Y-109509050D01*
X79425029Y-109509474D01*
X79526338Y-109509987D01*
X79614484Y-109510597D01*
X79690410Y-109511312D01*
X79755057Y-109512140D01*
X79809367Y-109513089D01*
X79854280Y-109514167D01*
X79890740Y-109515383D01*
X79919687Y-109516745D01*
X79942063Y-109518261D01*
X79958809Y-109519938D01*
X79970868Y-109521786D01*
X79979180Y-109523813D01*
X79984687Y-109526025D01*
X79986537Y-109527108D01*
X79993549Y-109531271D01*
X79999996Y-109534805D01*
X80005900Y-109538635D01*
X80011286Y-109543682D01*
X80016178Y-109550871D01*
X80020598Y-109561123D01*
X80024572Y-109575364D01*
X80028121Y-109594514D01*
X80031270Y-109619499D01*
X80034042Y-109651240D01*
X80036461Y-109690662D01*
X80038551Y-109738686D01*
X80040335Y-109796237D01*
X80041837Y-109864237D01*
X80043080Y-109943610D01*
X80044089Y-110035279D01*
X80044885Y-110140166D01*
X80045494Y-110259196D01*
X80045939Y-110393290D01*
X80046243Y-110543373D01*
X80046430Y-110710367D01*
X80046524Y-110895196D01*
X80046548Y-111098783D01*
X80046525Y-111322050D01*
X80046480Y-111565922D01*
X80046437Y-111831321D01*
X80046432Y-111869704D01*
X80046389Y-112136682D01*
X80046318Y-112382002D01*
X80046213Y-112606583D01*
X80046066Y-112811345D01*
X80045869Y-112997206D01*
X80045616Y-113165088D01*
X80045300Y-113315908D01*
X80044913Y-113450587D01*
X80044447Y-113570044D01*
X80043897Y-113675199D01*
X80043253Y-113766971D01*
X80042511Y-113846279D01*
X80041661Y-113914043D01*
X80040697Y-113971182D01*
X80039611Y-114018617D01*
X80038397Y-114057266D01*
X80037047Y-114088049D01*
X80035555Y-114111885D01*
X80033911Y-114129694D01*
X80032111Y-114142395D01*
X80030145Y-114150908D01*
X80028477Y-114155266D01*
X80024906Y-114163728D01*
X80022270Y-114171497D01*
X80019634Y-114178602D01*
X80016062Y-114185073D01*
X80010621Y-114190939D01*
X80002375Y-114196229D01*
X79990390Y-114200974D01*
X79973731Y-114205202D01*
X79951463Y-114208943D01*
X79922652Y-114212227D01*
X79886363Y-114215083D01*
X79841661Y-114217540D01*
X79787611Y-114219629D01*
X79723279Y-114221378D01*
X79647730Y-114222817D01*
X79560030Y-114223976D01*
X79459243Y-114224883D01*
X79344434Y-114225569D01*
X79214670Y-114226063D01*
X79069015Y-114226395D01*
X78906535Y-114226593D01*
X78726295Y-114226687D01*
X78527360Y-114226708D01*
X78308796Y-114226685D01*
X78069668Y-114226646D01*
X77809040Y-114226622D01*
X77766889Y-114226622D01*
X77503992Y-114226636D01*
X77262732Y-114226661D01*
X77042165Y-114226671D01*
X76841352Y-114226642D01*
X76659349Y-114226548D01*
X76495216Y-114226362D01*
X76348011Y-114226059D01*
X76216792Y-114225614D01*
X76106867Y-114225034D01*
X76106867Y-113922197D01*
X76164711Y-113882407D01*
X76180479Y-113871236D01*
X76194441Y-113861166D01*
X76207784Y-113852138D01*
X76221693Y-113844097D01*
X76237356Y-113836986D01*
X76255958Y-113830747D01*
X76278686Y-113825325D01*
X76306727Y-113820662D01*
X76341267Y-113816701D01*
X76383492Y-113813385D01*
X76434589Y-113810659D01*
X76495744Y-113808464D01*
X76568144Y-113806745D01*
X76652975Y-113805444D01*
X76751422Y-113804505D01*
X76864674Y-113803870D01*
X76993916Y-113803484D01*
X77140334Y-113803288D01*
X77305116Y-113803227D01*
X77489447Y-113803243D01*
X77694513Y-113803280D01*
X77817133Y-113803289D01*
X78034082Y-113803265D01*
X78229642Y-113803231D01*
X78404999Y-113803243D01*
X78561341Y-113803358D01*
X78699857Y-113803630D01*
X78821734Y-113804118D01*
X78928160Y-113804876D01*
X79020322Y-113805962D01*
X79099409Y-113807431D01*
X79166608Y-113809340D01*
X79223107Y-113811744D01*
X79270093Y-113814701D01*
X79308755Y-113818266D01*
X79340280Y-113822495D01*
X79365855Y-113827446D01*
X79386670Y-113833173D01*
X79403911Y-113839733D01*
X79418765Y-113847183D01*
X79432422Y-113855579D01*
X79446069Y-113864976D01*
X79460893Y-113875432D01*
X79469783Y-113881523D01*
X79527400Y-113920296D01*
X79527400Y-113388732D01*
X79527365Y-113265483D01*
X79527215Y-113162987D01*
X79526878Y-113079420D01*
X79526286Y-113012956D01*
X79525367Y-112961771D01*
X79524051Y-112924041D01*
X79522269Y-112897940D01*
X79519951Y-112881644D01*
X79517026Y-112873328D01*
X79513424Y-112871168D01*
X79509075Y-112873339D01*
X79507645Y-112874535D01*
X79470573Y-112899685D01*
X79417772Y-112925583D01*
X79355770Y-112949192D01*
X79329357Y-112957461D01*
X79311416Y-112962078D01*
X79290355Y-112965979D01*
X79264089Y-112969248D01*
X79230532Y-112971966D01*
X79187599Y-112974215D01*
X79133204Y-112976077D01*
X79065262Y-112977636D01*
X78981688Y-112978972D01*
X78880395Y-112980169D01*
X78759300Y-112981308D01*
X78714600Y-112981685D01*
X78589449Y-112982702D01*
X78485082Y-112983460D01*
X78399707Y-112983903D01*
X78331533Y-112983970D01*
X78278765Y-112983605D01*
X78239614Y-112982748D01*
X78212285Y-112981341D01*
X78194986Y-112979325D01*
X78185926Y-112976643D01*
X78183312Y-112973236D01*
X78185351Y-112969044D01*
X78189667Y-112964571D01*
X78202602Y-112954216D01*
X78231676Y-112932158D01*
X78274759Y-112899957D01*
X78329718Y-112859174D01*
X78394423Y-112811370D01*
X78466742Y-112758105D01*
X78544544Y-112700940D01*
X78625698Y-112641437D01*
X78708072Y-112581155D01*
X78789536Y-112521655D01*
X78867957Y-112464498D01*
X78941204Y-112411245D01*
X79007147Y-112363457D01*
X79063654Y-112322693D01*
X79108593Y-112290516D01*
X79139834Y-112268485D01*
X79146466Y-112263917D01*
X79183369Y-112240996D01*
X79231359Y-112214188D01*
X79280897Y-112188789D01*
X79287577Y-112185568D01*
X79335772Y-112163890D01*
X79373334Y-112151304D01*
X79409160Y-112145574D01*
X79451200Y-112144456D01*
X79527400Y-112145090D01*
X79527400Y-110990651D01*
X79433669Y-111081815D01*
X79383775Y-111128612D01*
X79327295Y-111178899D01*
X79273026Y-111224944D01*
X79247673Y-111245369D01*
X79208128Y-111275807D01*
X79154916Y-111315862D01*
X79089667Y-111364361D01*
X79014011Y-111420135D01*
X78929577Y-111482011D01*
X78837994Y-111548819D01*
X78740892Y-111619387D01*
X78639901Y-111692545D01*
X78536650Y-111767121D01*
X78432768Y-111841944D01*
X78329885Y-111915843D01*
X78229631Y-111987646D01*
X78133636Y-112056184D01*
X78043527Y-112120284D01*
X77960936Y-112178775D01*
X77887492Y-112230486D01*
X77824824Y-112274247D01*
X77774561Y-112308885D01*
X77738334Y-112333230D01*
X77717771Y-112346111D01*
X77713668Y-112347869D01*
X77702342Y-112339910D01*
X77675162Y-112319115D01*
X77633829Y-112286847D01*
X77580044Y-112244470D01*
X77515506Y-112193347D01*
X77441918Y-112134841D01*
X77360978Y-112070314D01*
X77274388Y-112001131D01*
X77183848Y-111928653D01*
X77091060Y-111854246D01*
X77016702Y-111794517D01*
X77016702Y-110783511D01*
X77029659Y-110777602D01*
X77051908Y-110763272D01*
X77053391Y-110762225D01*
X77083544Y-110743438D01*
X77120375Y-110723791D01*
X77128511Y-110719892D01*
X77136940Y-110716356D01*
X77147059Y-110713230D01*
X77160260Y-110710486D01*
X77177938Y-110708092D01*
X77201484Y-110706019D01*
X77232293Y-110704235D01*
X77271757Y-110702712D01*
X77321269Y-110701419D01*
X77382223Y-110700326D01*
X77456011Y-110699403D01*
X77544028Y-110698619D01*
X77647665Y-110697945D01*
X77768316Y-110697350D01*
X77907374Y-110696805D01*
X78066232Y-110696279D01*
X78245089Y-110695745D01*
X78430207Y-110695206D01*
X78594145Y-110694772D01*
X78738303Y-110694509D01*
X78864079Y-110694484D01*
X78972871Y-110694765D01*
X79066077Y-110695419D01*
X79145097Y-110696514D01*
X79211328Y-110698118D01*
X79266170Y-110700297D01*
X79311021Y-110703119D01*
X79347278Y-110706651D01*
X79376341Y-110710961D01*
X79399609Y-110716117D01*
X79418479Y-110722185D01*
X79434351Y-110729233D01*
X79448622Y-110737329D01*
X79462691Y-110746540D01*
X79475158Y-110755040D01*
X79501452Y-110772176D01*
X79519037Y-110782322D01*
X79522257Y-110783511D01*
X79523334Y-110772604D01*
X79524335Y-110741411D01*
X79525235Y-110692223D01*
X79526010Y-110627333D01*
X79526637Y-110549030D01*
X79527091Y-110459607D01*
X79527349Y-110361356D01*
X79527400Y-110292445D01*
X79527180Y-110187452D01*
X79526548Y-110090610D01*
X79525549Y-110004107D01*
X79524227Y-109930132D01*
X79522626Y-109870874D01*
X79520791Y-109828520D01*
X79518765Y-109805260D01*
X79517493Y-109801378D01*
X79502591Y-109809076D01*
X79494560Y-109817074D01*
X79477434Y-109830246D01*
X79447183Y-109847485D01*
X79422622Y-109859407D01*
X79363711Y-109886045D01*
X78186845Y-109889120D01*
X77009978Y-109892195D01*
X77009978Y-110337853D01*
X77010142Y-110435670D01*
X77010611Y-110526064D01*
X77011347Y-110606630D01*
X77012316Y-110674962D01*
X77013480Y-110728656D01*
X77014803Y-110765305D01*
X77016249Y-110782504D01*
X77016702Y-110783511D01*
X77016702Y-111794517D01*
X76997722Y-111779270D01*
X76905537Y-111705090D01*
X76816204Y-111633069D01*
X76731424Y-111564569D01*
X76652898Y-111500955D01*
X76582326Y-111443588D01*
X76521409Y-111393833D01*
X76471847Y-111353052D01*
X76451178Y-111335888D01*
X76350516Y-111249596D01*
X76267259Y-111172997D01*
X76199438Y-111104183D01*
X76145089Y-111041248D01*
X76137722Y-111031867D01*
X76107117Y-110992356D01*
X76106867Y-112124116D01*
X76154844Y-112118827D01*
X76212188Y-112122130D01*
X76280463Y-112143661D01*
X76360212Y-112183635D01*
X76432495Y-112228943D01*
X76455140Y-112245161D01*
X76492696Y-112273214D01*
X76543021Y-112311430D01*
X76603973Y-112358137D01*
X76673411Y-112411661D01*
X76749194Y-112470331D01*
X76829180Y-112532475D01*
X76911228Y-112596421D01*
X76993196Y-112660495D01*
X77072943Y-112723027D01*
X77148327Y-112782343D01*
X77217207Y-112836771D01*
X77277442Y-112884639D01*
X77326889Y-112924275D01*
X77363408Y-112954006D01*
X77384858Y-112972161D01*
X77388156Y-112975220D01*
X77380149Y-112978079D01*
X77349855Y-112980293D01*
X77297556Y-112981857D01*
X77223531Y-112982767D01*
X77128063Y-112983020D01*
X77011434Y-112982613D01*
X76891445Y-112981704D01*
X76759333Y-112980382D01*
X76647594Y-112978857D01*
X76554025Y-112976881D01*
X76476419Y-112974206D01*
X76412574Y-112970582D01*
X76360283Y-112965761D01*
X76317344Y-112959494D01*
X76281551Y-112951532D01*
X76250700Y-112941627D01*
X76222586Y-112929531D01*
X76195005Y-112914993D01*
X76169966Y-112900311D01*
X76106867Y-112862314D01*
X76106867Y-113922197D01*
X76106867Y-114225034D01*
X76100617Y-114225001D01*
X75998544Y-114224195D01*
X75909633Y-114223170D01*
X75832941Y-114221900D01*
X75767527Y-114220360D01*
X75712449Y-114218524D01*
X75666765Y-114216367D01*
X75629534Y-114213863D01*
X75599813Y-114210987D01*
X75576662Y-114207713D01*
X75559139Y-114204015D01*
X75546301Y-114199869D01*
X75537208Y-114195247D01*
X75530918Y-114190126D01*
X75526488Y-114184478D01*
X75522978Y-114178279D01*
X75519445Y-114171504D01*
X75515876Y-114165508D01*
X75513300Y-114160275D01*
X75510972Y-114152099D01*
X75508878Y-114139886D01*
X75507007Y-114122541D01*
X75505347Y-114098969D01*
X75503884Y-114068077D01*
X75502608Y-114028768D01*
X75501504Y-113979950D01*
X75500561Y-113920527D01*
X75499767Y-113849404D01*
X75499109Y-113765488D01*
X75498575Y-113667683D01*
X75498153Y-113554894D01*
X75497829Y-113426029D01*
X75497592Y-113279991D01*
X75497430Y-113115686D01*
X75497330Y-112932020D01*
X75497280Y-112727897D01*
X75497267Y-112516753D01*
X75497267Y-110896400D01*
X75594054Y-110896400D01*
G37*
X75594054Y-110896400D02*
X75707993Y-110885535D01*
X75815616Y-110853918D01*
X75914615Y-110803015D01*
X76002684Y-110734293D01*
X76077516Y-110649219D01*
X76135384Y-110552232D01*
X76175005Y-110445964D01*
X76193573Y-110338950D01*
X76192434Y-110233300D01*
X76172930Y-110131125D01*
X76136406Y-110034534D01*
X76084205Y-109945638D01*
X76017673Y-109866546D01*
X75938152Y-109799369D01*
X75846987Y-109746217D01*
X75745523Y-109709199D01*
X75635102Y-109690427D01*
X75585206Y-109688489D01*
X75497267Y-109688489D01*
X75497267Y-109636560D01*
X75500111Y-109600253D01*
X75511911Y-109573355D01*
X75535649Y-109546249D01*
X75574031Y-109507867D01*
X77765602Y-109507867D01*
X78027739Y-109507876D01*
X78268241Y-109507908D01*
X78488048Y-109507972D01*
X78688101Y-109508076D01*
X78869344Y-109508227D01*
X79032716Y-109508434D01*
X79179160Y-109508706D01*
X79309617Y-109509050D01*
X79425029Y-109509474D01*
X79526338Y-109509987D01*
X79614484Y-109510597D01*
X79690410Y-109511312D01*
X79755057Y-109512140D01*
X79809367Y-109513089D01*
X79854280Y-109514167D01*
X79890740Y-109515383D01*
X79919687Y-109516745D01*
X79942063Y-109518261D01*
X79958809Y-109519938D01*
X79970868Y-109521786D01*
X79979180Y-109523813D01*
X79984687Y-109526025D01*
X79986537Y-109527108D01*
X79993549Y-109531271D01*
X79999996Y-109534805D01*
X80005900Y-109538635D01*
X80011286Y-109543682D01*
X80016178Y-109550871D01*
X80020598Y-109561123D01*
X80024572Y-109575364D01*
X80028121Y-109594514D01*
X80031270Y-109619499D01*
X80034042Y-109651240D01*
X80036461Y-109690662D01*
X80038551Y-109738686D01*
X80040335Y-109796237D01*
X80041837Y-109864237D01*
X80043080Y-109943610D01*
X80044089Y-110035279D01*
X80044885Y-110140166D01*
X80045494Y-110259196D01*
X80045939Y-110393290D01*
X80046243Y-110543373D01*
X80046430Y-110710367D01*
X80046524Y-110895196D01*
X80046548Y-111098783D01*
X80046525Y-111322050D01*
X80046480Y-111565922D01*
X80046437Y-111831321D01*
X80046432Y-111869704D01*
X80046389Y-112136682D01*
X80046318Y-112382002D01*
X80046213Y-112606583D01*
X80046066Y-112811345D01*
X80045869Y-112997206D01*
X80045616Y-113165088D01*
X80045300Y-113315908D01*
X80044913Y-113450587D01*
X80044447Y-113570044D01*
X80043897Y-113675199D01*
X80043253Y-113766971D01*
X80042511Y-113846279D01*
X80041661Y-113914043D01*
X80040697Y-113971182D01*
X80039611Y-114018617D01*
X80038397Y-114057266D01*
X80037047Y-114088049D01*
X80035555Y-114111885D01*
X80033911Y-114129694D01*
X80032111Y-114142395D01*
X80030145Y-114150908D01*
X80028477Y-114155266D01*
X80024906Y-114163728D01*
X80022270Y-114171497D01*
X80019634Y-114178602D01*
X80016062Y-114185073D01*
X80010621Y-114190939D01*
X80002375Y-114196229D01*
X79990390Y-114200974D01*
X79973731Y-114205202D01*
X79951463Y-114208943D01*
X79922652Y-114212227D01*
X79886363Y-114215083D01*
X79841661Y-114217540D01*
X79787611Y-114219629D01*
X79723279Y-114221378D01*
X79647730Y-114222817D01*
X79560030Y-114223976D01*
X79459243Y-114224883D01*
X79344434Y-114225569D01*
X79214670Y-114226063D01*
X79069015Y-114226395D01*
X78906535Y-114226593D01*
X78726295Y-114226687D01*
X78527360Y-114226708D01*
X78308796Y-114226685D01*
X78069668Y-114226646D01*
X77809040Y-114226622D01*
X77766889Y-114226622D01*
X77503992Y-114226636D01*
X77262732Y-114226661D01*
X77042165Y-114226671D01*
X76841352Y-114226642D01*
X76659349Y-114226548D01*
X76495216Y-114226362D01*
X76348011Y-114226059D01*
X76216792Y-114225614D01*
X76106867Y-114225034D01*
X76106867Y-113922197D01*
X76164711Y-113882407D01*
X76180479Y-113871236D01*
X76194441Y-113861166D01*
X76207784Y-113852138D01*
X76221693Y-113844097D01*
X76237356Y-113836986D01*
X76255958Y-113830747D01*
X76278686Y-113825325D01*
X76306727Y-113820662D01*
X76341267Y-113816701D01*
X76383492Y-113813385D01*
X76434589Y-113810659D01*
X76495744Y-113808464D01*
X76568144Y-113806745D01*
X76652975Y-113805444D01*
X76751422Y-113804505D01*
X76864674Y-113803870D01*
X76993916Y-113803484D01*
X77140334Y-113803288D01*
X77305116Y-113803227D01*
X77489447Y-113803243D01*
X77694513Y-113803280D01*
X77817133Y-113803289D01*
X78034082Y-113803265D01*
X78229642Y-113803231D01*
X78404999Y-113803243D01*
X78561341Y-113803358D01*
X78699857Y-113803630D01*
X78821734Y-113804118D01*
X78928160Y-113804876D01*
X79020322Y-113805962D01*
X79099409Y-113807431D01*
X79166608Y-113809340D01*
X79223107Y-113811744D01*
X79270093Y-113814701D01*
X79308755Y-113818266D01*
X79340280Y-113822495D01*
X79365855Y-113827446D01*
X79386670Y-113833173D01*
X79403911Y-113839733D01*
X79418765Y-113847183D01*
X79432422Y-113855579D01*
X79446069Y-113864976D01*
X79460893Y-113875432D01*
X79469783Y-113881523D01*
X79527400Y-113920296D01*
X79527400Y-113388732D01*
X79527365Y-113265483D01*
X79527215Y-113162987D01*
X79526878Y-113079420D01*
X79526286Y-113012956D01*
X79525367Y-112961771D01*
X79524051Y-112924041D01*
X79522269Y-112897940D01*
X79519951Y-112881644D01*
X79517026Y-112873328D01*
X79513424Y-112871168D01*
X79509075Y-112873339D01*
X79507645Y-112874535D01*
X79470573Y-112899685D01*
X79417772Y-112925583D01*
X79355770Y-112949192D01*
X79329357Y-112957461D01*
X79311416Y-112962078D01*
X79290355Y-112965979D01*
X79264089Y-112969248D01*
X79230532Y-112971966D01*
X79187599Y-112974215D01*
X79133204Y-112976077D01*
X79065262Y-112977636D01*
X78981688Y-112978972D01*
X78880395Y-112980169D01*
X78759300Y-112981308D01*
X78714600Y-112981685D01*
X78589449Y-112982702D01*
X78485082Y-112983460D01*
X78399707Y-112983903D01*
X78331533Y-112983970D01*
X78278765Y-112983605D01*
X78239614Y-112982748D01*
X78212285Y-112981341D01*
X78194986Y-112979325D01*
X78185926Y-112976643D01*
X78183312Y-112973236D01*
X78185351Y-112969044D01*
X78189667Y-112964571D01*
X78202602Y-112954216D01*
X78231676Y-112932158D01*
X78274759Y-112899957D01*
X78329718Y-112859174D01*
X78394423Y-112811370D01*
X78466742Y-112758105D01*
X78544544Y-112700940D01*
X78625698Y-112641437D01*
X78708072Y-112581155D01*
X78789536Y-112521655D01*
X78867957Y-112464498D01*
X78941204Y-112411245D01*
X79007147Y-112363457D01*
X79063654Y-112322693D01*
X79108593Y-112290516D01*
X79139834Y-112268485D01*
X79146466Y-112263917D01*
X79183369Y-112240996D01*
X79231359Y-112214188D01*
X79280897Y-112188789D01*
X79287577Y-112185568D01*
X79335772Y-112163890D01*
X79373334Y-112151304D01*
X79409160Y-112145574D01*
X79451200Y-112144456D01*
X79527400Y-112145090D01*
X79527400Y-110990651D01*
X79433669Y-111081815D01*
X79383775Y-111128612D01*
X79327295Y-111178899D01*
X79273026Y-111224944D01*
X79247673Y-111245369D01*
X79208128Y-111275807D01*
X79154916Y-111315862D01*
X79089667Y-111364361D01*
X79014011Y-111420135D01*
X78929577Y-111482011D01*
X78837994Y-111548819D01*
X78740892Y-111619387D01*
X78639901Y-111692545D01*
X78536650Y-111767121D01*
X78432768Y-111841944D01*
X78329885Y-111915843D01*
X78229631Y-111987646D01*
X78133636Y-112056184D01*
X78043527Y-112120284D01*
X77960936Y-112178775D01*
X77887492Y-112230486D01*
X77824824Y-112274247D01*
X77774561Y-112308885D01*
X77738334Y-112333230D01*
X77717771Y-112346111D01*
X77713668Y-112347869D01*
X77702342Y-112339910D01*
X77675162Y-112319115D01*
X77633829Y-112286847D01*
X77580044Y-112244470D01*
X77515506Y-112193347D01*
X77441918Y-112134841D01*
X77360978Y-112070314D01*
X77274388Y-112001131D01*
X77183848Y-111928653D01*
X77091060Y-111854246D01*
X77016702Y-111794517D01*
X77016702Y-110783511D01*
X77029659Y-110777602D01*
X77051908Y-110763272D01*
X77053391Y-110762225D01*
X77083544Y-110743438D01*
X77120375Y-110723791D01*
X77128511Y-110719892D01*
X77136940Y-110716356D01*
X77147059Y-110713230D01*
X77160260Y-110710486D01*
X77177938Y-110708092D01*
X77201484Y-110706019D01*
X77232293Y-110704235D01*
X77271757Y-110702712D01*
X77321269Y-110701419D01*
X77382223Y-110700326D01*
X77456011Y-110699403D01*
X77544028Y-110698619D01*
X77647665Y-110697945D01*
X77768316Y-110697350D01*
X77907374Y-110696805D01*
X78066232Y-110696279D01*
X78245089Y-110695745D01*
X78430207Y-110695206D01*
X78594145Y-110694772D01*
X78738303Y-110694509D01*
X78864079Y-110694484D01*
X78972871Y-110694765D01*
X79066077Y-110695419D01*
X79145097Y-110696514D01*
X79211328Y-110698118D01*
X79266170Y-110700297D01*
X79311021Y-110703119D01*
X79347278Y-110706651D01*
X79376341Y-110710961D01*
X79399609Y-110716117D01*
X79418479Y-110722185D01*
X79434351Y-110729233D01*
X79448622Y-110737329D01*
X79462691Y-110746540D01*
X79475158Y-110755040D01*
X79501452Y-110772176D01*
X79519037Y-110782322D01*
X79522257Y-110783511D01*
X79523334Y-110772604D01*
X79524335Y-110741411D01*
X79525235Y-110692223D01*
X79526010Y-110627333D01*
X79526637Y-110549030D01*
X79527091Y-110459607D01*
X79527349Y-110361356D01*
X79527400Y-110292445D01*
X79527180Y-110187452D01*
X79526548Y-110090610D01*
X79525549Y-110004107D01*
X79524227Y-109930132D01*
X79522626Y-109870874D01*
X79520791Y-109828520D01*
X79518765Y-109805260D01*
X79517493Y-109801378D01*
X79502591Y-109809076D01*
X79494560Y-109817074D01*
X79477434Y-109830246D01*
X79447183Y-109847485D01*
X79422622Y-109859407D01*
X79363711Y-109886045D01*
X78186845Y-109889120D01*
X77009978Y-109892195D01*
X77009978Y-110337853D01*
X77010142Y-110435670D01*
X77010611Y-110526064D01*
X77011347Y-110606630D01*
X77012316Y-110674962D01*
X77013480Y-110728656D01*
X77014803Y-110765305D01*
X77016249Y-110782504D01*
X77016702Y-110783511D01*
X77016702Y-111794517D01*
X76997722Y-111779270D01*
X76905537Y-111705090D01*
X76816204Y-111633069D01*
X76731424Y-111564569D01*
X76652898Y-111500955D01*
X76582326Y-111443588D01*
X76521409Y-111393833D01*
X76471847Y-111353052D01*
X76451178Y-111335888D01*
X76350516Y-111249596D01*
X76267259Y-111172997D01*
X76199438Y-111104183D01*
X76145089Y-111041248D01*
X76137722Y-111031867D01*
X76107117Y-110992356D01*
X76106867Y-112124116D01*
X76154844Y-112118827D01*
X76212188Y-112122130D01*
X76280463Y-112143661D01*
X76360212Y-112183635D01*
X76432495Y-112228943D01*
X76455140Y-112245161D01*
X76492696Y-112273214D01*
X76543021Y-112311430D01*
X76603973Y-112358137D01*
X76673411Y-112411661D01*
X76749194Y-112470331D01*
X76829180Y-112532475D01*
X76911228Y-112596421D01*
X76993196Y-112660495D01*
X77072943Y-112723027D01*
X77148327Y-112782343D01*
X77217207Y-112836771D01*
X77277442Y-112884639D01*
X77326889Y-112924275D01*
X77363408Y-112954006D01*
X77384858Y-112972161D01*
X77388156Y-112975220D01*
X77380149Y-112978079D01*
X77349855Y-112980293D01*
X77297556Y-112981857D01*
X77223531Y-112982767D01*
X77128063Y-112983020D01*
X77011434Y-112982613D01*
X76891445Y-112981704D01*
X76759333Y-112980382D01*
X76647594Y-112978857D01*
X76554025Y-112976881D01*
X76476419Y-112974206D01*
X76412574Y-112970582D01*
X76360283Y-112965761D01*
X76317344Y-112959494D01*
X76281551Y-112951532D01*
X76250700Y-112941627D01*
X76222586Y-112929531D01*
X76195005Y-112914993D01*
X76169966Y-112900311D01*
X76106867Y-112862314D01*
X76106867Y-113922197D01*
X76106867Y-114225034D01*
X76100617Y-114225001D01*
X75998544Y-114224195D01*
X75909633Y-114223170D01*
X75832941Y-114221900D01*
X75767527Y-114220360D01*
X75712449Y-114218524D01*
X75666765Y-114216367D01*
X75629534Y-114213863D01*
X75599813Y-114210987D01*
X75576662Y-114207713D01*
X75559139Y-114204015D01*
X75546301Y-114199869D01*
X75537208Y-114195247D01*
X75530918Y-114190126D01*
X75526488Y-114184478D01*
X75522978Y-114178279D01*
X75519445Y-114171504D01*
X75515876Y-114165508D01*
X75513300Y-114160275D01*
X75510972Y-114152099D01*
X75508878Y-114139886D01*
X75507007Y-114122541D01*
X75505347Y-114098969D01*
X75503884Y-114068077D01*
X75502608Y-114028768D01*
X75501504Y-113979950D01*
X75500561Y-113920527D01*
X75499767Y-113849404D01*
X75499109Y-113765488D01*
X75498575Y-113667683D01*
X75498153Y-113554894D01*
X75497829Y-113426029D01*
X75497592Y-113279991D01*
X75497430Y-113115686D01*
X75497330Y-112932020D01*
X75497280Y-112727897D01*
X75497267Y-112516753D01*
X75497267Y-110896400D01*
X75594054Y-110896400D01*
G36*
X76054071Y-107621571D02*
G01*
X76075245Y-107461430D01*
X76115385Y-107297490D01*
X76174889Y-107127687D01*
X76254154Y-106949957D01*
X76259699Y-106938690D01*
X76287725Y-106880995D01*
X76311802Y-106829448D01*
X76330249Y-106787809D01*
X76341386Y-106759838D01*
X76343933Y-106750267D01*
X76348941Y-106731050D01*
X76353147Y-106726439D01*
X76363580Y-106731542D01*
X76389868Y-106747582D01*
X76429257Y-106772712D01*
X76478991Y-106805086D01*
X76536315Y-106842857D01*
X76598476Y-106884178D01*
X76662718Y-106927202D01*
X76726285Y-106970083D01*
X76786425Y-107010974D01*
X76840380Y-107048029D01*
X76885397Y-107079400D01*
X76918721Y-107103241D01*
X76937597Y-107117706D01*
X76939787Y-107119691D01*
X76935138Y-107129809D01*
X76917962Y-107152150D01*
X76891440Y-107182720D01*
X76876964Y-107198464D01*
X76801682Y-107294953D01*
X76746241Y-107401664D01*
X76711141Y-107517168D01*
X76696880Y-107640038D01*
X76698051Y-107709439D01*
X76715212Y-107830577D01*
X76751094Y-107939795D01*
X76805959Y-108037418D01*
X76880070Y-108123772D01*
X76973688Y-108199185D01*
X77087076Y-108263982D01*
X77173667Y-108301399D01*
X77309366Y-108345252D01*
X77456850Y-108377572D01*
X77612314Y-108398443D01*
X77771956Y-108407949D01*
X77931973Y-108406173D01*
X78088561Y-108393197D01*
X78237918Y-108369106D01*
X78376240Y-108333982D01*
X78499724Y-108287908D01*
X78533978Y-108271627D01*
X78648064Y-108203380D01*
X78744557Y-108122921D01*
X78822670Y-108031430D01*
X78881617Y-107930089D01*
X78920612Y-107820080D01*
X78938868Y-107702585D01*
X78940211Y-107661117D01*
X78929290Y-107539559D01*
X78896474Y-107419122D01*
X78842439Y-107301334D01*
X78767865Y-107187723D01*
X78689539Y-107096315D01*
X78645008Y-107049785D01*
X78942271Y-106868517D01*
X79016433Y-106823420D01*
X79084646Y-106782181D01*
X79144459Y-106746265D01*
X79193420Y-106717134D01*
X79229079Y-106696250D01*
X79248984Y-106685076D01*
X79252079Y-106683625D01*
X79261718Y-106691854D01*
X79278999Y-106717433D01*
X79302283Y-106757127D01*
X79329934Y-106807703D01*
X79360315Y-106865926D01*
X79391790Y-106928563D01*
X79422722Y-106992379D01*
X79451473Y-107054140D01*
X79476408Y-107110612D01*
X79495889Y-107158562D01*
X79504318Y-107182014D01*
X79542133Y-107315779D01*
X79567136Y-107453673D01*
X79580140Y-107601378D01*
X79582468Y-107728167D01*
X79581373Y-107796122D01*
X79579275Y-107861723D01*
X79576434Y-107919153D01*
X79573106Y-107962597D01*
X79571422Y-107976702D01*
X79542587Y-108115716D01*
X79497468Y-108257243D01*
X79438750Y-108394725D01*
X79369120Y-108521606D01*
X79316441Y-108599111D01*
X79208239Y-108726519D01*
X79081671Y-108844822D01*
X78939866Y-108951828D01*
X78785951Y-109045348D01*
X78623053Y-109123190D01*
X78505756Y-109167044D01*
X78322128Y-109217292D01*
X78127581Y-109250791D01*
X77926325Y-109267551D01*
X77722568Y-109267584D01*
X77520521Y-109250899D01*
X77324392Y-109217507D01*
X77138391Y-109167420D01*
X77126803Y-109163603D01*
X76964750Y-109100719D01*
X76816832Y-109023972D01*
X76678865Y-108930758D01*
X76546661Y-108818473D01*
X76501399Y-108774608D01*
X76377457Y-108638466D01*
X76274915Y-108498509D01*
X76192656Y-108352589D01*
X76129564Y-108198558D01*
X76084523Y-108034268D01*
X76067033Y-107938711D01*
X76051466Y-107779977D01*
X76054071Y-107621571D01*
G37*
X76054071Y-107621571D02*
X76075245Y-107461430D01*
X76115385Y-107297490D01*
X76174889Y-107127687D01*
X76254154Y-106949957D01*
X76259699Y-106938690D01*
X76287725Y-106880995D01*
X76311802Y-106829448D01*
X76330249Y-106787809D01*
X76341386Y-106759838D01*
X76343933Y-106750267D01*
X76348941Y-106731050D01*
X76353147Y-106726439D01*
X76363580Y-106731542D01*
X76389868Y-106747582D01*
X76429257Y-106772712D01*
X76478991Y-106805086D01*
X76536315Y-106842857D01*
X76598476Y-106884178D01*
X76662718Y-106927202D01*
X76726285Y-106970083D01*
X76786425Y-107010974D01*
X76840380Y-107048029D01*
X76885397Y-107079400D01*
X76918721Y-107103241D01*
X76937597Y-107117706D01*
X76939787Y-107119691D01*
X76935138Y-107129809D01*
X76917962Y-107152150D01*
X76891440Y-107182720D01*
X76876964Y-107198464D01*
X76801682Y-107294953D01*
X76746241Y-107401664D01*
X76711141Y-107517168D01*
X76696880Y-107640038D01*
X76698051Y-107709439D01*
X76715212Y-107830577D01*
X76751094Y-107939795D01*
X76805959Y-108037418D01*
X76880070Y-108123772D01*
X76973688Y-108199185D01*
X77087076Y-108263982D01*
X77173667Y-108301399D01*
X77309366Y-108345252D01*
X77456850Y-108377572D01*
X77612314Y-108398443D01*
X77771956Y-108407949D01*
X77931973Y-108406173D01*
X78088561Y-108393197D01*
X78237918Y-108369106D01*
X78376240Y-108333982D01*
X78499724Y-108287908D01*
X78533978Y-108271627D01*
X78648064Y-108203380D01*
X78744557Y-108122921D01*
X78822670Y-108031430D01*
X78881617Y-107930089D01*
X78920612Y-107820080D01*
X78938868Y-107702585D01*
X78940211Y-107661117D01*
X78929290Y-107539559D01*
X78896474Y-107419122D01*
X78842439Y-107301334D01*
X78767865Y-107187723D01*
X78689539Y-107096315D01*
X78645008Y-107049785D01*
X78942271Y-106868517D01*
X79016433Y-106823420D01*
X79084646Y-106782181D01*
X79144459Y-106746265D01*
X79193420Y-106717134D01*
X79229079Y-106696250D01*
X79248984Y-106685076D01*
X79252079Y-106683625D01*
X79261718Y-106691854D01*
X79278999Y-106717433D01*
X79302283Y-106757127D01*
X79329934Y-106807703D01*
X79360315Y-106865926D01*
X79391790Y-106928563D01*
X79422722Y-106992379D01*
X79451473Y-107054140D01*
X79476408Y-107110612D01*
X79495889Y-107158562D01*
X79504318Y-107182014D01*
X79542133Y-107315779D01*
X79567136Y-107453673D01*
X79580140Y-107601378D01*
X79582468Y-107728167D01*
X79581373Y-107796122D01*
X79579275Y-107861723D01*
X79576434Y-107919153D01*
X79573106Y-107962597D01*
X79571422Y-107976702D01*
X79542587Y-108115716D01*
X79497468Y-108257243D01*
X79438750Y-108394725D01*
X79369120Y-108521606D01*
X79316441Y-108599111D01*
X79208239Y-108726519D01*
X79081671Y-108844822D01*
X78939866Y-108951828D01*
X78785951Y-109045348D01*
X78623053Y-109123190D01*
X78505756Y-109167044D01*
X78322128Y-109217292D01*
X78127581Y-109250791D01*
X77926325Y-109267551D01*
X77722568Y-109267584D01*
X77520521Y-109250899D01*
X77324392Y-109217507D01*
X77138391Y-109167420D01*
X77126803Y-109163603D01*
X76964750Y-109100719D01*
X76816832Y-109023972D01*
X76678865Y-108930758D01*
X76546661Y-108818473D01*
X76501399Y-108774608D01*
X76377457Y-108638466D01*
X76274915Y-108498509D01*
X76192656Y-108352589D01*
X76129564Y-108198558D01*
X76084523Y-108034268D01*
X76067033Y-107938711D01*
X76051466Y-107779977D01*
X76054071Y-107621571D01*
G36*
X76971552Y-105276426D02*
G01*
X76991567Y-105124508D01*
X77025202Y-104989244D01*
X77072725Y-104869761D01*
X77134405Y-104765185D01*
X77197965Y-104687576D01*
X77272099Y-104618735D01*
X77351871Y-104564994D01*
X77444091Y-104522090D01*
X77487161Y-104506616D01*
X77526142Y-104493756D01*
X77562289Y-104482554D01*
X77597434Y-104472880D01*
X77633410Y-104464604D01*
X77672050Y-104457597D01*
X77715185Y-104451728D01*
X77764649Y-104446869D01*
X77822273Y-104442890D01*
X77889891Y-104439660D01*
X77969334Y-104437051D01*
X78062436Y-104434933D01*
X78171027Y-104433176D01*
X78296942Y-104431651D01*
X78442012Y-104430228D01*
X78584778Y-104428975D01*
X78740968Y-104427649D01*
X78876239Y-104426444D01*
X78992246Y-104425234D01*
X79090645Y-104423894D01*
X79173093Y-104422300D01*
X79241246Y-104420325D01*
X79296760Y-104417844D01*
X79341292Y-104414731D01*
X79376498Y-104410862D01*
X79404034Y-104406111D01*
X79425556Y-104400352D01*
X79442722Y-104393461D01*
X79457186Y-104385311D01*
X79470606Y-104375777D01*
X79484638Y-104364734D01*
X79490071Y-104360434D01*
X79512910Y-104344614D01*
X79528463Y-104337578D01*
X79528922Y-104337556D01*
X79531121Y-104348433D01*
X79533147Y-104379418D01*
X79534942Y-104428043D01*
X79536451Y-104491837D01*
X79537616Y-104568331D01*
X79538380Y-104655056D01*
X79538686Y-104749543D01*
X79538689Y-104760450D01*
X79538689Y-105183343D01*
X79442622Y-105186605D01*
X79346556Y-105189867D01*
X79397543Y-105251956D01*
X79465057Y-105349286D01*
X79519749Y-105459187D01*
X79549978Y-105545651D01*
X79564666Y-105614722D01*
X79574659Y-105698075D01*
X79579646Y-105787841D01*
X79579313Y-105876155D01*
X79573351Y-105955149D01*
X79567638Y-105991378D01*
X79529776Y-106131397D01*
X79474932Y-106257822D01*
X79403924Y-106369740D01*
X79317568Y-106466238D01*
X79216679Y-106546400D01*
X79102076Y-106609313D01*
X78975984Y-106653688D01*
X78919401Y-106666022D01*
X78857202Y-106673632D01*
X78782363Y-106677261D01*
X78748467Y-106677755D01*
X78745282Y-106677690D01*
X78745282Y-105917752D01*
X78820333Y-105908459D01*
X78884160Y-105880272D01*
X78939798Y-105831803D01*
X78944211Y-105826746D01*
X78979037Y-105778452D01*
X79001620Y-105726743D01*
X79013540Y-105666011D01*
X79016383Y-105590648D01*
X79015978Y-105572541D01*
X79013325Y-105518722D01*
X79007909Y-105478692D01*
X78997745Y-105443676D01*
X78980850Y-105404897D01*
X78975672Y-105394255D01*
X78939844Y-105333604D01*
X78897212Y-105286785D01*
X78881973Y-105274048D01*
X78825462Y-105229378D01*
X78629586Y-105229378D01*
X78550939Y-105229914D01*
X78492988Y-105231604D01*
X78453875Y-105234572D01*
X78431741Y-105238943D01*
X78425274Y-105243028D01*
X78422111Y-105258953D01*
X78419488Y-105292736D01*
X78417655Y-105339660D01*
X78416857Y-105395007D01*
X78416842Y-105403894D01*
X78422096Y-105524670D01*
X78438263Y-105627340D01*
X78465961Y-105713894D01*
X78505808Y-105786319D01*
X78552758Y-105841249D01*
X78610645Y-105885796D01*
X78673693Y-105910520D01*
X78745282Y-105917752D01*
X78745282Y-106677690D01*
X78654712Y-106675822D01*
X78575812Y-106667478D01*
X78504590Y-106651232D01*
X78433864Y-106625595D01*
X78381493Y-106601599D01*
X78286196Y-106542980D01*
X78198170Y-106464883D01*
X78119017Y-106369685D01*
X78050340Y-106259762D01*
X77993741Y-106137490D01*
X77950821Y-106005245D01*
X77935882Y-105940578D01*
X77913777Y-105804396D01*
X77899194Y-105655951D01*
X77892813Y-105504495D01*
X77894445Y-105377936D01*
X77901224Y-105216050D01*
X77842245Y-105223470D01*
X77743092Y-105242762D01*
X77662372Y-105273896D01*
X77599466Y-105317731D01*
X77553756Y-105375129D01*
X77524622Y-105446952D01*
X77511447Y-105534059D01*
X77513611Y-105637314D01*
X77517612Y-105675289D01*
X77542780Y-105816480D01*
X77583814Y-105953293D01*
X77621815Y-106047822D01*
X77641190Y-106092982D01*
X77656760Y-106131415D01*
X77666405Y-106157766D01*
X77668452Y-106165454D01*
X77659374Y-106175198D01*
X77630405Y-106191917D01*
X77581217Y-106215768D01*
X77511484Y-106246907D01*
X77420879Y-106285493D01*
X77405089Y-106292090D01*
X77332772Y-106322147D01*
X77267425Y-106349126D01*
X77211906Y-106371864D01*
X77169072Y-106389194D01*
X77141781Y-106399952D01*
X77132942Y-106403059D01*
X77128187Y-106393060D01*
X77122910Y-106366783D01*
X77119231Y-106338511D01*
X77114474Y-106308354D01*
X77105028Y-106260567D01*
X77091820Y-106199388D01*
X77075776Y-106129054D01*
X77057820Y-106053806D01*
X77050797Y-106025245D01*
X77025209Y-105920184D01*
X77005147Y-105832520D01*
X76989969Y-105757932D01*
X76979035Y-105692097D01*
X76971704Y-105630693D01*
X76967335Y-105569398D01*
X76965287Y-105503890D01*
X76964889Y-105445872D01*
X76971552Y-105276426D01*
G37*
X76971552Y-105276426D02*
X76991567Y-105124508D01*
X77025202Y-104989244D01*
X77072725Y-104869761D01*
X77134405Y-104765185D01*
X77197965Y-104687576D01*
X77272099Y-104618735D01*
X77351871Y-104564994D01*
X77444091Y-104522090D01*
X77487161Y-104506616D01*
X77526142Y-104493756D01*
X77562289Y-104482554D01*
X77597434Y-104472880D01*
X77633410Y-104464604D01*
X77672050Y-104457597D01*
X77715185Y-104451728D01*
X77764649Y-104446869D01*
X77822273Y-104442890D01*
X77889891Y-104439660D01*
X77969334Y-104437051D01*
X78062436Y-104434933D01*
X78171027Y-104433176D01*
X78296942Y-104431651D01*
X78442012Y-104430228D01*
X78584778Y-104428975D01*
X78740968Y-104427649D01*
X78876239Y-104426444D01*
X78992246Y-104425234D01*
X79090645Y-104423894D01*
X79173093Y-104422300D01*
X79241246Y-104420325D01*
X79296760Y-104417844D01*
X79341292Y-104414731D01*
X79376498Y-104410862D01*
X79404034Y-104406111D01*
X79425556Y-104400352D01*
X79442722Y-104393461D01*
X79457186Y-104385311D01*
X79470606Y-104375777D01*
X79484638Y-104364734D01*
X79490071Y-104360434D01*
X79512910Y-104344614D01*
X79528463Y-104337578D01*
X79528922Y-104337556D01*
X79531121Y-104348433D01*
X79533147Y-104379418D01*
X79534942Y-104428043D01*
X79536451Y-104491837D01*
X79537616Y-104568331D01*
X79538380Y-104655056D01*
X79538686Y-104749543D01*
X79538689Y-104760450D01*
X79538689Y-105183343D01*
X79442622Y-105186605D01*
X79346556Y-105189867D01*
X79397543Y-105251956D01*
X79465057Y-105349286D01*
X79519749Y-105459187D01*
X79549978Y-105545651D01*
X79564666Y-105614722D01*
X79574659Y-105698075D01*
X79579646Y-105787841D01*
X79579313Y-105876155D01*
X79573351Y-105955149D01*
X79567638Y-105991378D01*
X79529776Y-106131397D01*
X79474932Y-106257822D01*
X79403924Y-106369740D01*
X79317568Y-106466238D01*
X79216679Y-106546400D01*
X79102076Y-106609313D01*
X78975984Y-106653688D01*
X78919401Y-106666022D01*
X78857202Y-106673632D01*
X78782363Y-106677261D01*
X78748467Y-106677755D01*
X78745282Y-106677690D01*
X78745282Y-105917752D01*
X78820333Y-105908459D01*
X78884160Y-105880272D01*
X78939798Y-105831803D01*
X78944211Y-105826746D01*
X78979037Y-105778452D01*
X79001620Y-105726743D01*
X79013540Y-105666011D01*
X79016383Y-105590648D01*
X79015978Y-105572541D01*
X79013325Y-105518722D01*
X79007909Y-105478692D01*
X78997745Y-105443676D01*
X78980850Y-105404897D01*
X78975672Y-105394255D01*
X78939844Y-105333604D01*
X78897212Y-105286785D01*
X78881973Y-105274048D01*
X78825462Y-105229378D01*
X78629586Y-105229378D01*
X78550939Y-105229914D01*
X78492988Y-105231604D01*
X78453875Y-105234572D01*
X78431741Y-105238943D01*
X78425274Y-105243028D01*
X78422111Y-105258953D01*
X78419488Y-105292736D01*
X78417655Y-105339660D01*
X78416857Y-105395007D01*
X78416842Y-105403894D01*
X78422096Y-105524670D01*
X78438263Y-105627340D01*
X78465961Y-105713894D01*
X78505808Y-105786319D01*
X78552758Y-105841249D01*
X78610645Y-105885796D01*
X78673693Y-105910520D01*
X78745282Y-105917752D01*
X78745282Y-106677690D01*
X78654712Y-106675822D01*
X78575812Y-106667478D01*
X78504590Y-106651232D01*
X78433864Y-106625595D01*
X78381493Y-106601599D01*
X78286196Y-106542980D01*
X78198170Y-106464883D01*
X78119017Y-106369685D01*
X78050340Y-106259762D01*
X77993741Y-106137490D01*
X77950821Y-106005245D01*
X77935882Y-105940578D01*
X77913777Y-105804396D01*
X77899194Y-105655951D01*
X77892813Y-105504495D01*
X77894445Y-105377936D01*
X77901224Y-105216050D01*
X77842245Y-105223470D01*
X77743092Y-105242762D01*
X77662372Y-105273896D01*
X77599466Y-105317731D01*
X77553756Y-105375129D01*
X77524622Y-105446952D01*
X77511447Y-105534059D01*
X77513611Y-105637314D01*
X77517612Y-105675289D01*
X77542780Y-105816480D01*
X77583814Y-105953293D01*
X77621815Y-106047822D01*
X77641190Y-106092982D01*
X77656760Y-106131415D01*
X77666405Y-106157766D01*
X77668452Y-106165454D01*
X77659374Y-106175198D01*
X77630405Y-106191917D01*
X77581217Y-106215768D01*
X77511484Y-106246907D01*
X77420879Y-106285493D01*
X77405089Y-106292090D01*
X77332772Y-106322147D01*
X77267425Y-106349126D01*
X77211906Y-106371864D01*
X77169072Y-106389194D01*
X77141781Y-106399952D01*
X77132942Y-106403059D01*
X77128187Y-106393060D01*
X77122910Y-106366783D01*
X77119231Y-106338511D01*
X77114474Y-106308354D01*
X77105028Y-106260567D01*
X77091820Y-106199388D01*
X77075776Y-106129054D01*
X77057820Y-106053806D01*
X77050797Y-106025245D01*
X77025209Y-105920184D01*
X77005147Y-105832520D01*
X76989969Y-105757932D01*
X76979035Y-105692097D01*
X76971704Y-105630693D01*
X76967335Y-105569398D01*
X76965287Y-105503890D01*
X76964889Y-105445872D01*
X76971552Y-105276426D01*
G36*
X77577245Y-101763493D02*
G01*
X77811662Y-101763474D01*
X78024603Y-101763448D01*
X78217168Y-101763375D01*
X78390459Y-101763218D01*
X78545576Y-101762936D01*
X78683620Y-101762491D01*
X78805692Y-101761844D01*
X78912894Y-101760955D01*
X79006326Y-101759787D01*
X79087090Y-101758299D01*
X79156286Y-101756454D01*
X79215015Y-101754211D01*
X79264379Y-101751531D01*
X79305478Y-101748377D01*
X79339413Y-101744708D01*
X79367286Y-101740487D01*
X79390198Y-101735673D01*
X79409249Y-101730227D01*
X79425540Y-101724112D01*
X79440173Y-101717288D01*
X79454249Y-101709715D01*
X79468868Y-101701355D01*
X79477974Y-101696161D01*
X79538689Y-101661896D01*
X79538689Y-102520045D01*
X79442733Y-102520045D01*
X79399370Y-102520776D01*
X79366205Y-102522728D01*
X79348424Y-102525537D01*
X79346778Y-102526779D01*
X79353662Y-102538201D01*
X79371505Y-102560916D01*
X79390879Y-102583615D01*
X79431614Y-102638200D01*
X79472617Y-102707679D01*
X79510123Y-102784730D01*
X79540364Y-102862035D01*
X79550012Y-102892887D01*
X79564578Y-102961384D01*
X79574539Y-103044236D01*
X79579583Y-103133629D01*
X79579396Y-103221752D01*
X79573666Y-103300793D01*
X79567858Y-103338489D01*
X79529797Y-103476586D01*
X79472073Y-103603887D01*
X79395211Y-103719708D01*
X79299739Y-103823363D01*
X79186179Y-103914167D01*
X79075381Y-103980969D01*
X78958625Y-104035836D01*
X78839276Y-104077837D01*
X78713283Y-104107833D01*
X78576594Y-104126689D01*
X78425158Y-104135268D01*
X78347711Y-104135994D01*
X78290934Y-104133900D01*
X78290934Y-103304783D01*
X78384002Y-103304576D01*
X78471692Y-103301663D01*
X78548772Y-103296000D01*
X78610009Y-103287545D01*
X78622350Y-103284962D01*
X78729633Y-103253160D01*
X78816658Y-103211502D01*
X78883642Y-103159637D01*
X78930805Y-103097219D01*
X78958365Y-103023900D01*
X78966541Y-102939331D01*
X78955551Y-102843165D01*
X78939829Y-102779689D01*
X78921639Y-102730546D01*
X78895791Y-102676417D01*
X78872089Y-102635756D01*
X78825721Y-102565200D01*
X77675530Y-102565200D01*
X77631962Y-102632608D01*
X77591040Y-102711133D01*
X77564389Y-102795319D01*
X77552465Y-102880443D01*
X77555722Y-102961784D01*
X77574615Y-103034620D01*
X77590184Y-103066574D01*
X77633181Y-103124499D01*
X77689953Y-103173456D01*
X77762575Y-103214610D01*
X77853121Y-103249126D01*
X77963666Y-103278167D01*
X77969533Y-103279448D01*
X78031788Y-103289619D01*
X78109594Y-103297261D01*
X78197720Y-103302330D01*
X78290934Y-103304783D01*
X78290934Y-104133900D01*
X78134895Y-104128143D01*
X77939059Y-104106198D01*
X77760332Y-104070214D01*
X77598845Y-104020241D01*
X77454726Y-103956332D01*
X77328106Y-103878538D01*
X77219115Y-103786911D01*
X77127883Y-103681503D01*
X77096932Y-103636338D01*
X77040785Y-103535389D01*
X77001174Y-103432099D01*
X76977014Y-103322011D01*
X76967219Y-103200670D01*
X76968265Y-103108164D01*
X76979231Y-102978510D01*
X77001046Y-102865916D01*
X77034714Y-102767125D01*
X77081236Y-102678879D01*
X77115448Y-102630014D01*
X77137362Y-102600647D01*
X77152333Y-102578957D01*
X77156733Y-102570747D01*
X77145904Y-102569132D01*
X77115251Y-102567841D01*
X77067526Y-102566862D01*
X77005479Y-102566183D01*
X76931862Y-102565790D01*
X76849427Y-102565670D01*
X76760925Y-102565812D01*
X76669107Y-102566203D01*
X76576724Y-102566829D01*
X76486528Y-102567680D01*
X76401271Y-102568740D01*
X76323703Y-102569999D01*
X76256576Y-102571444D01*
X76202641Y-102573062D01*
X76164650Y-102574839D01*
X76157667Y-102575331D01*
X76087251Y-102582908D01*
X76032102Y-102594469D01*
X75984981Y-102612208D01*
X75938647Y-102638318D01*
X75929067Y-102644585D01*
X75892378Y-102669017D01*
X75892378Y-101763689D01*
X77577245Y-101763493D01*
G37*
X77577245Y-101763493D02*
X77811662Y-101763474D01*
X78024603Y-101763448D01*
X78217168Y-101763375D01*
X78390459Y-101763218D01*
X78545576Y-101762936D01*
X78683620Y-101762491D01*
X78805692Y-101761844D01*
X78912894Y-101760955D01*
X79006326Y-101759787D01*
X79087090Y-101758299D01*
X79156286Y-101756454D01*
X79215015Y-101754211D01*
X79264379Y-101751531D01*
X79305478Y-101748377D01*
X79339413Y-101744708D01*
X79367286Y-101740487D01*
X79390198Y-101735673D01*
X79409249Y-101730227D01*
X79425540Y-101724112D01*
X79440173Y-101717288D01*
X79454249Y-101709715D01*
X79468868Y-101701355D01*
X79477974Y-101696161D01*
X79538689Y-101661896D01*
X79538689Y-102520045D01*
X79442733Y-102520045D01*
X79399370Y-102520776D01*
X79366205Y-102522728D01*
X79348424Y-102525537D01*
X79346778Y-102526779D01*
X79353662Y-102538201D01*
X79371505Y-102560916D01*
X79390879Y-102583615D01*
X79431614Y-102638200D01*
X79472617Y-102707679D01*
X79510123Y-102784730D01*
X79540364Y-102862035D01*
X79550012Y-102892887D01*
X79564578Y-102961384D01*
X79574539Y-103044236D01*
X79579583Y-103133629D01*
X79579396Y-103221752D01*
X79573666Y-103300793D01*
X79567858Y-103338489D01*
X79529797Y-103476586D01*
X79472073Y-103603887D01*
X79395211Y-103719708D01*
X79299739Y-103823363D01*
X79186179Y-103914167D01*
X79075381Y-103980969D01*
X78958625Y-104035836D01*
X78839276Y-104077837D01*
X78713283Y-104107833D01*
X78576594Y-104126689D01*
X78425158Y-104135268D01*
X78347711Y-104135994D01*
X78290934Y-104133900D01*
X78290934Y-103304783D01*
X78384002Y-103304576D01*
X78471692Y-103301663D01*
X78548772Y-103296000D01*
X78610009Y-103287545D01*
X78622350Y-103284962D01*
X78729633Y-103253160D01*
X78816658Y-103211502D01*
X78883642Y-103159637D01*
X78930805Y-103097219D01*
X78958365Y-103023900D01*
X78966541Y-102939331D01*
X78955551Y-102843165D01*
X78939829Y-102779689D01*
X78921639Y-102730546D01*
X78895791Y-102676417D01*
X78872089Y-102635756D01*
X78825721Y-102565200D01*
X77675530Y-102565200D01*
X77631962Y-102632608D01*
X77591040Y-102711133D01*
X77564389Y-102795319D01*
X77552465Y-102880443D01*
X77555722Y-102961784D01*
X77574615Y-103034620D01*
X77590184Y-103066574D01*
X77633181Y-103124499D01*
X77689953Y-103173456D01*
X77762575Y-103214610D01*
X77853121Y-103249126D01*
X77963666Y-103278167D01*
X77969533Y-103279448D01*
X78031788Y-103289619D01*
X78109594Y-103297261D01*
X78197720Y-103302330D01*
X78290934Y-103304783D01*
X78290934Y-104133900D01*
X78134895Y-104128143D01*
X77939059Y-104106198D01*
X77760332Y-104070214D01*
X77598845Y-104020241D01*
X77454726Y-103956332D01*
X77328106Y-103878538D01*
X77219115Y-103786911D01*
X77127883Y-103681503D01*
X77096932Y-103636338D01*
X77040785Y-103535389D01*
X77001174Y-103432099D01*
X76977014Y-103322011D01*
X76967219Y-103200670D01*
X76968265Y-103108164D01*
X76979231Y-102978510D01*
X77001046Y-102865916D01*
X77034714Y-102767125D01*
X77081236Y-102678879D01*
X77115448Y-102630014D01*
X77137362Y-102600647D01*
X77152333Y-102578957D01*
X77156733Y-102570747D01*
X77145904Y-102569132D01*
X77115251Y-102567841D01*
X77067526Y-102566862D01*
X77005479Y-102566183D01*
X76931862Y-102565790D01*
X76849427Y-102565670D01*
X76760925Y-102565812D01*
X76669107Y-102566203D01*
X76576724Y-102566829D01*
X76486528Y-102567680D01*
X76401271Y-102568740D01*
X76323703Y-102569999D01*
X76256576Y-102571444D01*
X76202641Y-102573062D01*
X76164650Y-102574839D01*
X76157667Y-102575331D01*
X76087251Y-102582908D01*
X76032102Y-102594469D01*
X75984981Y-102612208D01*
X75938647Y-102638318D01*
X75929067Y-102644585D01*
X75892378Y-102669017D01*
X75892378Y-101763689D01*
X77577245Y-101763493D01*
G36*
X75131571Y-110223043D02*
G01*
X75155809Y-110126768D01*
X75198641Y-110040184D01*
X75258419Y-109965373D01*
X75333494Y-109904418D01*
X75422220Y-109859399D01*
X75518530Y-109833136D01*
X75615795Y-109827286D01*
X75709654Y-109842140D01*
X75797511Y-109875840D01*
X75876770Y-109926528D01*
X75944836Y-109992345D01*
X75999112Y-110071434D01*
X76037002Y-110161934D01*
X76049426Y-110213200D01*
X76056947Y-110257698D01*
X76059919Y-110291999D01*
X76058094Y-110324960D01*
X76051225Y-110365434D01*
X76044250Y-110398531D01*
X76012741Y-110491947D01*
X75961617Y-110575619D01*
X75892429Y-110647665D01*
X75806728Y-110706200D01*
X75779489Y-110720148D01*
X75743122Y-110736586D01*
X75712582Y-110746894D01*
X75680450Y-110752460D01*
X75639307Y-110754669D01*
X75593222Y-110754948D01*
X75508865Y-110750861D01*
X75439586Y-110737446D01*
X75378961Y-110712256D01*
X75320567Y-110672846D01*
X75276302Y-110634298D01*
X75210484Y-110562406D01*
X75165053Y-110487313D01*
X75137850Y-110404562D01*
X75127576Y-110326928D01*
X75131571Y-110223043D01*
G37*
X75131571Y-110223043D02*
X75155809Y-110126768D01*
X75198641Y-110040184D01*
X75258419Y-109965373D01*
X75333494Y-109904418D01*
X75422220Y-109859399D01*
X75518530Y-109833136D01*
X75615795Y-109827286D01*
X75709654Y-109842140D01*
X75797511Y-109875840D01*
X75876770Y-109926528D01*
X75944836Y-109992345D01*
X75999112Y-110071434D01*
X76037002Y-110161934D01*
X76049426Y-110213200D01*
X76056947Y-110257698D01*
X76059919Y-110291999D01*
X76058094Y-110324960D01*
X76051225Y-110365434D01*
X76044250Y-110398531D01*
X76012741Y-110491947D01*
X75961617Y-110575619D01*
X75892429Y-110647665D01*
X75806728Y-110706200D01*
X75779489Y-110720148D01*
X75743122Y-110736586D01*
X75712582Y-110746894D01*
X75680450Y-110752460D01*
X75639307Y-110754669D01*
X75593222Y-110754948D01*
X75508865Y-110750861D01*
X75439586Y-110737446D01*
X75378961Y-110712256D01*
X75320567Y-110672846D01*
X75276302Y-110634298D01*
X75210484Y-110562406D01*
X75165053Y-110487313D01*
X75137850Y-110404562D01*
X75127576Y-110326928D01*
X75131571Y-110223043D01*
G36*
X80374066Y-114071371D02*
G01*
X80374467Y-114031889D01*
X80377259Y-113916200D01*
X80385550Y-113819311D01*
X80400232Y-113737919D01*
X80422193Y-113668723D01*
X80452322Y-113608420D01*
X80491510Y-113553708D01*
X80508532Y-113534167D01*
X80548363Y-113501750D01*
X80602413Y-113472520D01*
X80662323Y-113449991D01*
X80719739Y-113437679D01*
X80740956Y-113436400D01*
X80799769Y-113444417D01*
X80864013Y-113465899D01*
X80924821Y-113496999D01*
X80973330Y-113533866D01*
X80979182Y-113539854D01*
X81020321Y-113590579D01*
X81052435Y-113646125D01*
X81076365Y-113709696D01*
X81092953Y-113784494D01*
X81103041Y-113873722D01*
X81107469Y-113980582D01*
X81107845Y-114029528D01*
X81107545Y-114091762D01*
X81106292Y-114135528D01*
X81103554Y-114164931D01*
X81098801Y-114184079D01*
X81091501Y-114197077D01*
X81085267Y-114204045D01*
X81077694Y-114210626D01*
X81067924Y-114215788D01*
X81053340Y-114219703D01*
X81031326Y-114222543D01*
X80999264Y-114224480D01*
X80954536Y-114225684D01*
X80894526Y-114226328D01*
X80816617Y-114226583D01*
X80740956Y-114226622D01*
X80640041Y-114226870D01*
X80559427Y-114226817D01*
X80520822Y-114225857D01*
X80520822Y-114079867D01*
X80961089Y-114079867D01*
X80961004Y-113986734D01*
X80959396Y-113930693D01*
X80955256Y-113871999D01*
X80949464Y-113823028D01*
X80949226Y-113821538D01*
X80930090Y-113742392D01*
X80900287Y-113681002D01*
X80857878Y-113634305D01*
X80811961Y-113604635D01*
X80761026Y-113586353D01*
X80713200Y-113587771D01*
X80661933Y-113608988D01*
X80608899Y-113650489D01*
X80569600Y-113707998D01*
X80543331Y-113782750D01*
X80534035Y-113832708D01*
X80527507Y-113889416D01*
X80522782Y-113949519D01*
X80520817Y-114000639D01*
X80520808Y-114003667D01*
X80520822Y-114079867D01*
X80520822Y-114225857D01*
X80496851Y-114225260D01*
X80450055Y-114220998D01*
X80416778Y-114212830D01*
X80394759Y-114199556D01*
X80381739Y-114179974D01*
X80375457Y-114152883D01*
X80373653Y-114117082D01*
X80374066Y-114071371D01*
G37*
X80374066Y-114071371D02*
X80374467Y-114031889D01*
X80377259Y-113916200D01*
X80385550Y-113819311D01*
X80400232Y-113737919D01*
X80422193Y-113668723D01*
X80452322Y-113608420D01*
X80491510Y-113553708D01*
X80508532Y-113534167D01*
X80548363Y-113501750D01*
X80602413Y-113472520D01*
X80662323Y-113449991D01*
X80719739Y-113437679D01*
X80740956Y-113436400D01*
X80799769Y-113444417D01*
X80864013Y-113465899D01*
X80924821Y-113496999D01*
X80973330Y-113533866D01*
X80979182Y-113539854D01*
X81020321Y-113590579D01*
X81052435Y-113646125D01*
X81076365Y-113709696D01*
X81092953Y-113784494D01*
X81103041Y-113873722D01*
X81107469Y-113980582D01*
X81107845Y-114029528D01*
X81107545Y-114091762D01*
X81106292Y-114135528D01*
X81103554Y-114164931D01*
X81098801Y-114184079D01*
X81091501Y-114197077D01*
X81085267Y-114204045D01*
X81077694Y-114210626D01*
X81067924Y-114215788D01*
X81053340Y-114219703D01*
X81031326Y-114222543D01*
X80999264Y-114224480D01*
X80954536Y-114225684D01*
X80894526Y-114226328D01*
X80816617Y-114226583D01*
X80740956Y-114226622D01*
X80640041Y-114226870D01*
X80559427Y-114226817D01*
X80520822Y-114225857D01*
X80520822Y-114079867D01*
X80961089Y-114079867D01*
X80961004Y-113986734D01*
X80959396Y-113930693D01*
X80955256Y-113871999D01*
X80949464Y-113823028D01*
X80949226Y-113821538D01*
X80930090Y-113742392D01*
X80900287Y-113681002D01*
X80857878Y-113634305D01*
X80811961Y-113604635D01*
X80761026Y-113586353D01*
X80713200Y-113587771D01*
X80661933Y-113608988D01*
X80608899Y-113650489D01*
X80569600Y-113707998D01*
X80543331Y-113782750D01*
X80534035Y-113832708D01*
X80527507Y-113889416D01*
X80522782Y-113949519D01*
X80520817Y-114000639D01*
X80520808Y-114003667D01*
X80520822Y-114079867D01*
X80520822Y-114225857D01*
X80496851Y-114225260D01*
X80450055Y-114220998D01*
X80416778Y-114212830D01*
X80394759Y-114199556D01*
X80381739Y-114179974D01*
X80375457Y-114152883D01*
X80373653Y-114117082D01*
X80374066Y-114071371D01*
G36*
X80374146Y-112662794D02*
G01*
X80374518Y-112593386D01*
X80375385Y-112540997D01*
X80376946Y-112502847D01*
X80379403Y-112476159D01*
X80382957Y-112458153D01*
X80387810Y-112446049D01*
X80394161Y-112437069D01*
X80397084Y-112433818D01*
X80428142Y-112414043D01*
X80463828Y-112410482D01*
X80495510Y-112423491D01*
X80501913Y-112429506D01*
X80508121Y-112439235D01*
X80512910Y-112454901D01*
X80516514Y-112479408D01*
X80519164Y-112515661D01*
X80521095Y-112566565D01*
X80522539Y-112635026D01*
X80523418Y-112697617D01*
X80526467Y-112945334D01*
X80591378Y-112948719D01*
X80656289Y-112952105D01*
X80656289Y-112783958D01*
X80656919Y-112710959D01*
X80659553Y-112657517D01*
X80665309Y-112620628D01*
X80675304Y-112597288D01*
X80690656Y-112584494D01*
X80712482Y-112579242D01*
X80732738Y-112578445D01*
X80757592Y-112580923D01*
X80775906Y-112590277D01*
X80788637Y-112609383D01*
X80796741Y-112641118D01*
X80801176Y-112688359D01*
X80802899Y-112753983D01*
X80803045Y-112789801D01*
X80803045Y-112950978D01*
X80961089Y-112950978D01*
X80961089Y-112702622D01*
X80961202Y-112621213D01*
X80961712Y-112559342D01*
X80962870Y-112513968D01*
X80964930Y-112482054D01*
X80968146Y-112460559D01*
X80972772Y-112446443D01*
X80979059Y-112436668D01*
X80983667Y-112431689D01*
X81010560Y-112414610D01*
X81034467Y-112409111D01*
X81063667Y-112416963D01*
X81085267Y-112431689D01*
X81092066Y-112439546D01*
X81097346Y-112449688D01*
X81101298Y-112464844D01*
X81104113Y-112487741D01*
X81105982Y-112521109D01*
X81107098Y-112567675D01*
X81107651Y-112630167D01*
X81107833Y-112711314D01*
X81107845Y-112753422D01*
X81107765Y-112843598D01*
X81107398Y-112913924D01*
X81106552Y-112967129D01*
X81105036Y-113005940D01*
X81102659Y-113033087D01*
X81099229Y-113051298D01*
X81094554Y-113063300D01*
X81088444Y-113071822D01*
X81085267Y-113075156D01*
X81077670Y-113081755D01*
X81067870Y-113086927D01*
X81053239Y-113090846D01*
X81031152Y-113093684D01*
X80998982Y-113095615D01*
X80954103Y-113096812D01*
X80893889Y-113097448D01*
X80815713Y-113097697D01*
X80742923Y-113097734D01*
X80649707Y-113097700D01*
X80576431Y-113097465D01*
X80520458Y-113096830D01*
X80479151Y-113095594D01*
X80449872Y-113093556D01*
X80429984Y-113090517D01*
X80416850Y-113086277D01*
X80407832Y-113080635D01*
X80400293Y-113073391D01*
X80398612Y-113071606D01*
X80391172Y-113062945D01*
X80385409Y-113052882D01*
X80381112Y-113038625D01*
X80378064Y-113017383D01*
X80376051Y-112986364D01*
X80374860Y-112942777D01*
X80374275Y-112883831D01*
X80374083Y-112806734D01*
X80374067Y-112752001D01*
X80374146Y-112662794D01*
G37*
X80374146Y-112662794D02*
X80374518Y-112593386D01*
X80375385Y-112540997D01*
X80376946Y-112502847D01*
X80379403Y-112476159D01*
X80382957Y-112458153D01*
X80387810Y-112446049D01*
X80394161Y-112437069D01*
X80397084Y-112433818D01*
X80428142Y-112414043D01*
X80463828Y-112410482D01*
X80495510Y-112423491D01*
X80501913Y-112429506D01*
X80508121Y-112439235D01*
X80512910Y-112454901D01*
X80516514Y-112479408D01*
X80519164Y-112515661D01*
X80521095Y-112566565D01*
X80522539Y-112635026D01*
X80523418Y-112697617D01*
X80526467Y-112945334D01*
X80591378Y-112948719D01*
X80656289Y-112952105D01*
X80656289Y-112783958D01*
X80656919Y-112710959D01*
X80659553Y-112657517D01*
X80665309Y-112620628D01*
X80675304Y-112597288D01*
X80690656Y-112584494D01*
X80712482Y-112579242D01*
X80732738Y-112578445D01*
X80757592Y-112580923D01*
X80775906Y-112590277D01*
X80788637Y-112609383D01*
X80796741Y-112641118D01*
X80801176Y-112688359D01*
X80802899Y-112753983D01*
X80803045Y-112789801D01*
X80803045Y-112950978D01*
X80961089Y-112950978D01*
X80961089Y-112702622D01*
X80961202Y-112621213D01*
X80961712Y-112559342D01*
X80962870Y-112513968D01*
X80964930Y-112482054D01*
X80968146Y-112460559D01*
X80972772Y-112446443D01*
X80979059Y-112436668D01*
X80983667Y-112431689D01*
X81010560Y-112414610D01*
X81034467Y-112409111D01*
X81063667Y-112416963D01*
X81085267Y-112431689D01*
X81092066Y-112439546D01*
X81097346Y-112449688D01*
X81101298Y-112464844D01*
X81104113Y-112487741D01*
X81105982Y-112521109D01*
X81107098Y-112567675D01*
X81107651Y-112630167D01*
X81107833Y-112711314D01*
X81107845Y-112753422D01*
X81107765Y-112843598D01*
X81107398Y-112913924D01*
X81106552Y-112967129D01*
X81105036Y-113005940D01*
X81102659Y-113033087D01*
X81099229Y-113051298D01*
X81094554Y-113063300D01*
X81088444Y-113071822D01*
X81085267Y-113075156D01*
X81077670Y-113081755D01*
X81067870Y-113086927D01*
X81053239Y-113090846D01*
X81031152Y-113093684D01*
X80998982Y-113095615D01*
X80954103Y-113096812D01*
X80893889Y-113097448D01*
X80815713Y-113097697D01*
X80742923Y-113097734D01*
X80649707Y-113097700D01*
X80576431Y-113097465D01*
X80520458Y-113096830D01*
X80479151Y-113095594D01*
X80449872Y-113093556D01*
X80429984Y-113090517D01*
X80416850Y-113086277D01*
X80407832Y-113080635D01*
X80400293Y-113073391D01*
X80398612Y-113071606D01*
X80391172Y-113062945D01*
X80385409Y-113052882D01*
X80381112Y-113038625D01*
X80378064Y-113017383D01*
X80376051Y-112986364D01*
X80374860Y-112942777D01*
X80374275Y-112883831D01*
X80374083Y-112806734D01*
X80374067Y-112752001D01*
X80374146Y-112662794D01*
G36*
X80375351Y-111641703D02*
G01*
X80380581Y-111566888D01*
X80388750Y-111497306D01*
X80399550Y-111437002D01*
X80412673Y-111390020D01*
X80427813Y-111360406D01*
X80432269Y-111355860D01*
X80466850Y-111340054D01*
X80502351Y-111344847D01*
X80532725Y-111369364D01*
X80533596Y-111370534D01*
X80542954Y-111384954D01*
X80547876Y-111400008D01*
X80548473Y-111421005D01*
X80544861Y-111453257D01*
X80537154Y-111502073D01*
X80536505Y-111506000D01*
X80527569Y-111578739D01*
X80523161Y-111657217D01*
X80523119Y-111735927D01*
X80527279Y-111809361D01*
X80535479Y-111872011D01*
X80547557Y-111918370D01*
X80548771Y-111921416D01*
X80567615Y-111955048D01*
X80586685Y-111966864D01*
X80605439Y-111957614D01*
X80623337Y-111928047D01*
X80639837Y-111878911D01*
X80654396Y-111810957D01*
X80661406Y-111765645D01*
X80674889Y-111671456D01*
X80687214Y-111596544D01*
X80699449Y-111537717D01*
X80712661Y-111491785D01*
X80727917Y-111455555D01*
X80746285Y-111425838D01*
X80768831Y-111399442D01*
X80790971Y-111378230D01*
X80821819Y-111353065D01*
X80848345Y-111340681D01*
X80881026Y-111336808D01*
X80892995Y-111336667D01*
X80932712Y-111339576D01*
X80962259Y-111351202D01*
X80988486Y-111371323D01*
X81028576Y-111412216D01*
X81059149Y-111457817D01*
X81081203Y-111511513D01*
X81095735Y-111576692D01*
X81103741Y-111656744D01*
X81106218Y-111755057D01*
X81106177Y-111771289D01*
X81104818Y-111836849D01*
X81101730Y-111901866D01*
X81097356Y-111959252D01*
X81092140Y-112001922D01*
X81091541Y-112005372D01*
X81081491Y-112047796D01*
X81068796Y-112083780D01*
X81057190Y-112104150D01*
X81026572Y-112123107D01*
X80990918Y-112124427D01*
X80959144Y-112108085D01*
X80955551Y-112104429D01*
X80944876Y-112089315D01*
X80940276Y-112070415D01*
X80941059Y-112041162D01*
X80945127Y-112005651D01*
X80948762Y-111965970D01*
X80951828Y-111910345D01*
X80954053Y-111845406D01*
X80955164Y-111777785D01*
X80955237Y-111760000D01*
X80954964Y-111692128D01*
X80953646Y-111642454D01*
X80950827Y-111606610D01*
X80946050Y-111580224D01*
X80938857Y-111558926D01*
X80932867Y-111546126D01*
X80916233Y-111518000D01*
X80901168Y-111500068D01*
X80896897Y-111497447D01*
X80879263Y-111502976D01*
X80862192Y-111529260D01*
X80846458Y-111574478D01*
X80832838Y-111636808D01*
X80829804Y-111655171D01*
X80814738Y-111751090D01*
X80802146Y-111827641D01*
X80791111Y-111887780D01*
X80780720Y-111934460D01*
X80770056Y-111970637D01*
X80758205Y-111999265D01*
X80744251Y-112023298D01*
X80727281Y-112045692D01*
X80706378Y-112069402D01*
X80699049Y-112077380D01*
X80671699Y-112105353D01*
X80650029Y-112120160D01*
X80625232Y-112125952D01*
X80593983Y-112126889D01*
X80532705Y-112116575D01*
X80480640Y-112085752D01*
X80437958Y-112034595D01*
X80404825Y-111963283D01*
X80389964Y-111912400D01*
X80380366Y-111857100D01*
X80374936Y-111790853D01*
X80373367Y-111717706D01*
X80375351Y-111641703D01*
G37*
X80375351Y-111641703D02*
X80380581Y-111566888D01*
X80388750Y-111497306D01*
X80399550Y-111437002D01*
X80412673Y-111390020D01*
X80427813Y-111360406D01*
X80432269Y-111355860D01*
X80466850Y-111340054D01*
X80502351Y-111344847D01*
X80532725Y-111369364D01*
X80533596Y-111370534D01*
X80542954Y-111384954D01*
X80547876Y-111400008D01*
X80548473Y-111421005D01*
X80544861Y-111453257D01*
X80537154Y-111502073D01*
X80536505Y-111506000D01*
X80527569Y-111578739D01*
X80523161Y-111657217D01*
X80523119Y-111735927D01*
X80527279Y-111809361D01*
X80535479Y-111872011D01*
X80547557Y-111918370D01*
X80548771Y-111921416D01*
X80567615Y-111955048D01*
X80586685Y-111966864D01*
X80605439Y-111957614D01*
X80623337Y-111928047D01*
X80639837Y-111878911D01*
X80654396Y-111810957D01*
X80661406Y-111765645D01*
X80674889Y-111671456D01*
X80687214Y-111596544D01*
X80699449Y-111537717D01*
X80712661Y-111491785D01*
X80727917Y-111455555D01*
X80746285Y-111425838D01*
X80768831Y-111399442D01*
X80790971Y-111378230D01*
X80821819Y-111353065D01*
X80848345Y-111340681D01*
X80881026Y-111336808D01*
X80892995Y-111336667D01*
X80932712Y-111339576D01*
X80962259Y-111351202D01*
X80988486Y-111371323D01*
X81028576Y-111412216D01*
X81059149Y-111457817D01*
X81081203Y-111511513D01*
X81095735Y-111576692D01*
X81103741Y-111656744D01*
X81106218Y-111755057D01*
X81106177Y-111771289D01*
X81104818Y-111836849D01*
X81101730Y-111901866D01*
X81097356Y-111959252D01*
X81092140Y-112001922D01*
X81091541Y-112005372D01*
X81081491Y-112047796D01*
X81068796Y-112083780D01*
X81057190Y-112104150D01*
X81026572Y-112123107D01*
X80990918Y-112124427D01*
X80959144Y-112108085D01*
X80955551Y-112104429D01*
X80944876Y-112089315D01*
X80940276Y-112070415D01*
X80941059Y-112041162D01*
X80945127Y-112005651D01*
X80948762Y-111965970D01*
X80951828Y-111910345D01*
X80954053Y-111845406D01*
X80955164Y-111777785D01*
X80955237Y-111760000D01*
X80954964Y-111692128D01*
X80953646Y-111642454D01*
X80950827Y-111606610D01*
X80946050Y-111580224D01*
X80938857Y-111558926D01*
X80932867Y-111546126D01*
X80916233Y-111518000D01*
X80901168Y-111500068D01*
X80896897Y-111497447D01*
X80879263Y-111502976D01*
X80862192Y-111529260D01*
X80846458Y-111574478D01*
X80832838Y-111636808D01*
X80829804Y-111655171D01*
X80814738Y-111751090D01*
X80802146Y-111827641D01*
X80791111Y-111887780D01*
X80780720Y-111934460D01*
X80770056Y-111970637D01*
X80758205Y-111999265D01*
X80744251Y-112023298D01*
X80727281Y-112045692D01*
X80706378Y-112069402D01*
X80699049Y-112077380D01*
X80671699Y-112105353D01*
X80650029Y-112120160D01*
X80625232Y-112125952D01*
X80593983Y-112126889D01*
X80532705Y-112116575D01*
X80480640Y-112085752D01*
X80437958Y-112034595D01*
X80404825Y-111963283D01*
X80389964Y-111912400D01*
X80380366Y-111857100D01*
X80374936Y-111790853D01*
X80373367Y-111717706D01*
X80375351Y-111641703D01*
G36*
X80396645Y-110873822D02*
G01*
X80404218Y-110867242D01*
X80413987Y-110862079D01*
X80428571Y-110858164D01*
X80450585Y-110855324D01*
X80482648Y-110853387D01*
X80527375Y-110852183D01*
X80587385Y-110851539D01*
X80665294Y-110851284D01*
X80740956Y-110851245D01*
X80834802Y-110851314D01*
X80908689Y-110851638D01*
X80965232Y-110852386D01*
X81007049Y-110853732D01*
X81036757Y-110855846D01*
X81056973Y-110858900D01*
X81070314Y-110863066D01*
X81079398Y-110868516D01*
X81085267Y-110873822D01*
X81104947Y-110906826D01*
X81103181Y-110941991D01*
X81081717Y-110973455D01*
X81073337Y-110980684D01*
X81063614Y-110986334D01*
X81049861Y-110990599D01*
X81029389Y-110993673D01*
X80999512Y-110995752D01*
X80957541Y-110997030D01*
X80900789Y-110997701D01*
X80826567Y-110997959D01*
X80742537Y-110998000D01*
X80429485Y-110998000D01*
X80401776Y-110970291D01*
X80378463Y-110936137D01*
X80377623Y-110903006D01*
X80396645Y-110873822D01*
G37*
X80396645Y-110873822D02*
X80404218Y-110867242D01*
X80413987Y-110862079D01*
X80428571Y-110858164D01*
X80450585Y-110855324D01*
X80482648Y-110853387D01*
X80527375Y-110852183D01*
X80587385Y-110851539D01*
X80665294Y-110851284D01*
X80740956Y-110851245D01*
X80834802Y-110851314D01*
X80908689Y-110851638D01*
X80965232Y-110852386D01*
X81007049Y-110853732D01*
X81036757Y-110855846D01*
X81056973Y-110858900D01*
X81070314Y-110863066D01*
X81079398Y-110868516D01*
X81085267Y-110873822D01*
X81104947Y-110906826D01*
X81103181Y-110941991D01*
X81081717Y-110973455D01*
X81073337Y-110980684D01*
X81063614Y-110986334D01*
X81049861Y-110990599D01*
X81029389Y-110993673D01*
X80999512Y-110995752D01*
X80957541Y-110997030D01*
X80900789Y-110997701D01*
X80826567Y-110997959D01*
X80742537Y-110998000D01*
X80429485Y-110998000D01*
X80401776Y-110970291D01*
X80378463Y-110936137D01*
X80377623Y-110903006D01*
X80396645Y-110873822D01*
G36*
X80379599Y-109900081D02*
G01*
X80391095Y-109831565D01*
X80408967Y-109778943D01*
X80432499Y-109744708D01*
X80445924Y-109735379D01*
X80477148Y-109725893D01*
X80505395Y-109732277D01*
X80532182Y-109752430D01*
X80544713Y-109783745D01*
X80543696Y-109829183D01*
X80536906Y-109864326D01*
X80523971Y-109942419D01*
X80522742Y-110022226D01*
X80533241Y-110111555D01*
X80537690Y-110136229D01*
X80561108Y-110219291D01*
X80595945Y-110284273D01*
X80641604Y-110330461D01*
X80697494Y-110357145D01*
X80726388Y-110362663D01*
X80785012Y-110359051D01*
X80836879Y-110335729D01*
X80880978Y-110294824D01*
X80916299Y-110238459D01*
X80941829Y-110168760D01*
X80956559Y-110087852D01*
X80959478Y-109997860D01*
X80949575Y-109900910D01*
X80948641Y-109895436D01*
X80941459Y-109856875D01*
X80934521Y-109835494D01*
X80924227Y-109826227D01*
X80906976Y-109824006D01*
X80897841Y-109823956D01*
X80859489Y-109823956D01*
X80859489Y-109892431D01*
X80855347Y-109952900D01*
X80842147Y-109994165D01*
X80818730Y-110018175D01*
X80783936Y-110026877D01*
X80779394Y-110026983D01*
X80749654Y-110021892D01*
X80728419Y-110004433D01*
X80714366Y-109971939D01*
X80706173Y-109921743D01*
X80703161Y-109873123D01*
X80701433Y-109802456D01*
X80704070Y-109751198D01*
X80713800Y-109716239D01*
X80733353Y-109694470D01*
X80765456Y-109682780D01*
X80812838Y-109678060D01*
X80875071Y-109677200D01*
X80944535Y-109678609D01*
X80991786Y-109682848D01*
X81017012Y-109689936D01*
X81018988Y-109691311D01*
X81050508Y-109730228D01*
X81075470Y-109787286D01*
X81093340Y-109858869D01*
X81103586Y-109941358D01*
X81105673Y-110031139D01*
X81099068Y-110124592D01*
X81090956Y-110179556D01*
X81066554Y-110265766D01*
X81026662Y-110345892D01*
X80974887Y-110412977D01*
X80964539Y-110423173D01*
X80921035Y-110456302D01*
X80867118Y-110486194D01*
X80810592Y-110509357D01*
X80759259Y-110522298D01*
X80739544Y-110523858D01*
X80698419Y-110517218D01*
X80647252Y-110499568D01*
X80593394Y-110474297D01*
X80544195Y-110444789D01*
X80511334Y-110418719D01*
X80462452Y-110357765D01*
X80423545Y-110278969D01*
X80395494Y-110185157D01*
X80379179Y-110079150D01*
X80375192Y-109982000D01*
X80379599Y-109900081D01*
G37*
X80379599Y-109900081D02*
X80391095Y-109831565D01*
X80408967Y-109778943D01*
X80432499Y-109744708D01*
X80445924Y-109735379D01*
X80477148Y-109725893D01*
X80505395Y-109732277D01*
X80532182Y-109752430D01*
X80544713Y-109783745D01*
X80543696Y-109829183D01*
X80536906Y-109864326D01*
X80523971Y-109942419D01*
X80522742Y-110022226D01*
X80533241Y-110111555D01*
X80537690Y-110136229D01*
X80561108Y-110219291D01*
X80595945Y-110284273D01*
X80641604Y-110330461D01*
X80697494Y-110357145D01*
X80726388Y-110362663D01*
X80785012Y-110359051D01*
X80836879Y-110335729D01*
X80880978Y-110294824D01*
X80916299Y-110238459D01*
X80941829Y-110168760D01*
X80956559Y-110087852D01*
X80959478Y-109997860D01*
X80949575Y-109900910D01*
X80948641Y-109895436D01*
X80941459Y-109856875D01*
X80934521Y-109835494D01*
X80924227Y-109826227D01*
X80906976Y-109824006D01*
X80897841Y-109823956D01*
X80859489Y-109823956D01*
X80859489Y-109892431D01*
X80855347Y-109952900D01*
X80842147Y-109994165D01*
X80818730Y-110018175D01*
X80783936Y-110026877D01*
X80779394Y-110026983D01*
X80749654Y-110021892D01*
X80728419Y-110004433D01*
X80714366Y-109971939D01*
X80706173Y-109921743D01*
X80703161Y-109873123D01*
X80701433Y-109802456D01*
X80704070Y-109751198D01*
X80713800Y-109716239D01*
X80733353Y-109694470D01*
X80765456Y-109682780D01*
X80812838Y-109678060D01*
X80875071Y-109677200D01*
X80944535Y-109678609D01*
X80991786Y-109682848D01*
X81017012Y-109689936D01*
X81018988Y-109691311D01*
X81050508Y-109730228D01*
X81075470Y-109787286D01*
X81093340Y-109858869D01*
X81103586Y-109941358D01*
X81105673Y-110031139D01*
X81099068Y-110124592D01*
X81090956Y-110179556D01*
X81066554Y-110265766D01*
X81026662Y-110345892D01*
X80974887Y-110412977D01*
X80964539Y-110423173D01*
X80921035Y-110456302D01*
X80867118Y-110486194D01*
X80810592Y-110509357D01*
X80759259Y-110522298D01*
X80739544Y-110523858D01*
X80698419Y-110517218D01*
X80647252Y-110499568D01*
X80593394Y-110474297D01*
X80544195Y-110444789D01*
X80511334Y-110418719D01*
X80462452Y-110357765D01*
X80423545Y-110278969D01*
X80395494Y-110185157D01*
X80379179Y-110079150D01*
X80375192Y-109982000D01*
X80379599Y-109900081D01*
G36*
X80378448Y-109250114D02*
G01*
X80392273Y-109226548D01*
X80414881Y-109195735D01*
X80447338Y-109156078D01*
X80490708Y-109105980D01*
X80546058Y-109043843D01*
X80614451Y-108968072D01*
X80693084Y-108881334D01*
X80856878Y-108700711D01*
X80637029Y-108695067D01*
X80561351Y-108693029D01*
X80504994Y-108691063D01*
X80464706Y-108688734D01*
X80437235Y-108685606D01*
X80419329Y-108681245D01*
X80407737Y-108675216D01*
X80399208Y-108667084D01*
X80395623Y-108662772D01*
X80376670Y-108628241D01*
X80379441Y-108595383D01*
X80395633Y-108569318D01*
X80417199Y-108542667D01*
X80732151Y-108539352D01*
X80824779Y-108538435D01*
X80897544Y-108537968D01*
X80953161Y-108538113D01*
X80994342Y-108539032D01*
X81023803Y-108540887D01*
X81044255Y-108543839D01*
X81058413Y-108548050D01*
X81068991Y-108553682D01*
X81077474Y-108559927D01*
X81093207Y-108573439D01*
X81103636Y-108586883D01*
X81107639Y-108602124D01*
X81104094Y-108621026D01*
X81091879Y-108645455D01*
X81069871Y-108677273D01*
X81036949Y-108718348D01*
X80991991Y-108770542D01*
X80933875Y-108835722D01*
X80867099Y-108909556D01*
X80626458Y-109174845D01*
X80845589Y-109180489D01*
X80921128Y-109182531D01*
X80977354Y-109184502D01*
X81017524Y-109186839D01*
X81044896Y-109189981D01*
X81062728Y-109194364D01*
X81074279Y-109200424D01*
X81082807Y-109208600D01*
X81086282Y-109212784D01*
X81105372Y-109249765D01*
X81102493Y-109284708D01*
X81078100Y-109315136D01*
X81068286Y-109322097D01*
X81056826Y-109327523D01*
X81040968Y-109331603D01*
X81017963Y-109334529D01*
X80985062Y-109336492D01*
X80939516Y-109337683D01*
X80878573Y-109338292D01*
X80799486Y-109338511D01*
X80740956Y-109338534D01*
X80649407Y-109338460D01*
X80577687Y-109338113D01*
X80523045Y-109337301D01*
X80482732Y-109335833D01*
X80453998Y-109333519D01*
X80434093Y-109330167D01*
X80420268Y-109325588D01*
X80409772Y-109319589D01*
X80403811Y-109315136D01*
X80389691Y-109303850D01*
X80379029Y-109293301D01*
X80372892Y-109281893D01*
X80372343Y-109268030D01*
X80378448Y-109250114D01*
G37*
X80378448Y-109250114D02*
X80392273Y-109226548D01*
X80414881Y-109195735D01*
X80447338Y-109156078D01*
X80490708Y-109105980D01*
X80546058Y-109043843D01*
X80614451Y-108968072D01*
X80693084Y-108881334D01*
X80856878Y-108700711D01*
X80637029Y-108695067D01*
X80561351Y-108693029D01*
X80504994Y-108691063D01*
X80464706Y-108688734D01*
X80437235Y-108685606D01*
X80419329Y-108681245D01*
X80407737Y-108675216D01*
X80399208Y-108667084D01*
X80395623Y-108662772D01*
X80376670Y-108628241D01*
X80379441Y-108595383D01*
X80395633Y-108569318D01*
X80417199Y-108542667D01*
X80732151Y-108539352D01*
X80824779Y-108538435D01*
X80897544Y-108537968D01*
X80953161Y-108538113D01*
X80994342Y-108539032D01*
X81023803Y-108540887D01*
X81044255Y-108543839D01*
X81058413Y-108548050D01*
X81068991Y-108553682D01*
X81077474Y-108559927D01*
X81093207Y-108573439D01*
X81103636Y-108586883D01*
X81107639Y-108602124D01*
X81104094Y-108621026D01*
X81091879Y-108645455D01*
X81069871Y-108677273D01*
X81036949Y-108718348D01*
X80991991Y-108770542D01*
X80933875Y-108835722D01*
X80867099Y-108909556D01*
X80626458Y-109174845D01*
X80845589Y-109180489D01*
X80921128Y-109182531D01*
X80977354Y-109184502D01*
X81017524Y-109186839D01*
X81044896Y-109189981D01*
X81062728Y-109194364D01*
X81074279Y-109200424D01*
X81082807Y-109208600D01*
X81086282Y-109212784D01*
X81105372Y-109249765D01*
X81102493Y-109284708D01*
X81078100Y-109315136D01*
X81068286Y-109322097D01*
X81056826Y-109327523D01*
X81040968Y-109331603D01*
X81017963Y-109334529D01*
X80985062Y-109336492D01*
X80939516Y-109337683D01*
X80878573Y-109338292D01*
X80799486Y-109338511D01*
X80740956Y-109338534D01*
X80649407Y-109338460D01*
X80577687Y-109338113D01*
X80523045Y-109337301D01*
X80482732Y-109335833D01*
X80453998Y-109333519D01*
X80434093Y-109330167D01*
X80420268Y-109325588D01*
X80409772Y-109319589D01*
X80403811Y-109315136D01*
X80389691Y-109303850D01*
X80379029Y-109293301D01*
X80372892Y-109281893D01*
X80372343Y-109268030D01*
X80378448Y-109250114D01*
G36*
X80374260Y-107719657D02*
G01*
X80375174Y-107643299D01*
X80377311Y-107584783D01*
X80381175Y-107541745D01*
X80387267Y-107511817D01*
X80396090Y-107492632D01*
X80408146Y-107481824D01*
X80423939Y-107477027D01*
X80443970Y-107475873D01*
X80446335Y-107475867D01*
X80468992Y-107476869D01*
X80486503Y-107481604D01*
X80499574Y-107492667D01*
X80508913Y-107512652D01*
X80515227Y-107544154D01*
X80519222Y-107589768D01*
X80521606Y-107652087D01*
X80523086Y-107733707D01*
X80523414Y-107758723D01*
X80526467Y-108000800D01*
X80591378Y-108004186D01*
X80656289Y-108007571D01*
X80656289Y-107839424D01*
X80656531Y-107773734D01*
X80657556Y-107726828D01*
X80659811Y-107694917D01*
X80663742Y-107674209D01*
X80669798Y-107660916D01*
X80678424Y-107651245D01*
X80678493Y-107651183D01*
X80712112Y-107633644D01*
X80748448Y-107634278D01*
X80779423Y-107652686D01*
X80782607Y-107656329D01*
X80790812Y-107669259D01*
X80796521Y-107686976D01*
X80800162Y-107713430D01*
X80802167Y-107752568D01*
X80802964Y-107808338D01*
X80803045Y-107844006D01*
X80803045Y-108006445D01*
X80961089Y-108006445D01*
X80961089Y-107759839D01*
X80961231Y-107678420D01*
X80961814Y-107616590D01*
X80963068Y-107571363D01*
X80965227Y-107539752D01*
X80968523Y-107518769D01*
X80973189Y-107505427D01*
X80979457Y-107496739D01*
X80981733Y-107494550D01*
X81013280Y-107478386D01*
X81049168Y-107477203D01*
X81080285Y-107490464D01*
X81090271Y-107500957D01*
X81095769Y-107511871D01*
X81100022Y-107528783D01*
X81103180Y-107554367D01*
X81105392Y-107591299D01*
X81106806Y-107642254D01*
X81107572Y-107709906D01*
X81107838Y-107796931D01*
X81107845Y-107816606D01*
X81107787Y-107905089D01*
X81107467Y-107973773D01*
X81106667Y-108025436D01*
X81105167Y-108062855D01*
X81102749Y-108088810D01*
X81099194Y-108106078D01*
X81094282Y-108117438D01*
X81087795Y-108125668D01*
X81083138Y-108130183D01*
X81074889Y-108136979D01*
X81064669Y-108142288D01*
X81049800Y-108146294D01*
X81027602Y-108149179D01*
X80995393Y-108151126D01*
X80950496Y-108152319D01*
X80890228Y-108152939D01*
X80811911Y-108153171D01*
X80745994Y-108153200D01*
X80653628Y-108153129D01*
X80581117Y-108152792D01*
X80525737Y-108152002D01*
X80484765Y-108150574D01*
X80455478Y-108148321D01*
X80435153Y-108145057D01*
X80421066Y-108140596D01*
X80410495Y-108134752D01*
X80403811Y-108129803D01*
X80374067Y-108106406D01*
X80374067Y-107816226D01*
X80374260Y-107719657D01*
G37*
X80374260Y-107719657D02*
X80375174Y-107643299D01*
X80377311Y-107584783D01*
X80381175Y-107541745D01*
X80387267Y-107511817D01*
X80396090Y-107492632D01*
X80408146Y-107481824D01*
X80423939Y-107477027D01*
X80443970Y-107475873D01*
X80446335Y-107475867D01*
X80468992Y-107476869D01*
X80486503Y-107481604D01*
X80499574Y-107492667D01*
X80508913Y-107512652D01*
X80515227Y-107544154D01*
X80519222Y-107589768D01*
X80521606Y-107652087D01*
X80523086Y-107733707D01*
X80523414Y-107758723D01*
X80526467Y-108000800D01*
X80591378Y-108004186D01*
X80656289Y-108007571D01*
X80656289Y-107839424D01*
X80656531Y-107773734D01*
X80657556Y-107726828D01*
X80659811Y-107694917D01*
X80663742Y-107674209D01*
X80669798Y-107660916D01*
X80678424Y-107651245D01*
X80678493Y-107651183D01*
X80712112Y-107633644D01*
X80748448Y-107634278D01*
X80779423Y-107652686D01*
X80782607Y-107656329D01*
X80790812Y-107669259D01*
X80796521Y-107686976D01*
X80800162Y-107713430D01*
X80802167Y-107752568D01*
X80802964Y-107808338D01*
X80803045Y-107844006D01*
X80803045Y-108006445D01*
X80961089Y-108006445D01*
X80961089Y-107759839D01*
X80961231Y-107678420D01*
X80961814Y-107616590D01*
X80963068Y-107571363D01*
X80965227Y-107539752D01*
X80968523Y-107518769D01*
X80973189Y-107505427D01*
X80979457Y-107496739D01*
X80981733Y-107494550D01*
X81013280Y-107478386D01*
X81049168Y-107477203D01*
X81080285Y-107490464D01*
X81090271Y-107500957D01*
X81095769Y-107511871D01*
X81100022Y-107528783D01*
X81103180Y-107554367D01*
X81105392Y-107591299D01*
X81106806Y-107642254D01*
X81107572Y-107709906D01*
X81107838Y-107796931D01*
X81107845Y-107816606D01*
X81107787Y-107905089D01*
X81107467Y-107973773D01*
X81106667Y-108025436D01*
X81105167Y-108062855D01*
X81102749Y-108088810D01*
X81099194Y-108106078D01*
X81094282Y-108117438D01*
X81087795Y-108125668D01*
X81083138Y-108130183D01*
X81074889Y-108136979D01*
X81064669Y-108142288D01*
X81049800Y-108146294D01*
X81027602Y-108149179D01*
X80995393Y-108151126D01*
X80950496Y-108152319D01*
X80890228Y-108152939D01*
X80811911Y-108153171D01*
X80745994Y-108153200D01*
X80653628Y-108153129D01*
X80581117Y-108152792D01*
X80525737Y-108152002D01*
X80484765Y-108150574D01*
X80455478Y-108148321D01*
X80435153Y-108145057D01*
X80421066Y-108140596D01*
X80410495Y-108134752D01*
X80403811Y-108129803D01*
X80374067Y-108106406D01*
X80374067Y-107816226D01*
X80374260Y-107719657D01*
G36*
X80374275Y-106931691D02*
G01*
X80378636Y-106802712D01*
X80391861Y-106693009D01*
X80414741Y-106600774D01*
X80448070Y-106524198D01*
X80492638Y-106461473D01*
X80549236Y-106410788D01*
X80618658Y-106370337D01*
X80620351Y-106369541D01*
X80682483Y-106345399D01*
X80737509Y-106336797D01*
X80792887Y-106343769D01*
X80856073Y-106366346D01*
X80865689Y-106370628D01*
X80921966Y-106399828D01*
X80965451Y-106432644D01*
X81002417Y-106474998D01*
X81039135Y-106532810D01*
X81041052Y-106536169D01*
X81065227Y-106586496D01*
X81083282Y-106643379D01*
X81095839Y-106710473D01*
X81103522Y-106791435D01*
X81106953Y-106889918D01*
X81107251Y-106924714D01*
X81107845Y-107090406D01*
X81078100Y-107113803D01*
X81068319Y-107120743D01*
X81056897Y-107126158D01*
X81041095Y-107130235D01*
X81018175Y-107133163D01*
X80985396Y-107135133D01*
X80961089Y-107135775D01*
X80961089Y-106979156D01*
X80961089Y-106885274D01*
X80959483Y-106830336D01*
X80955255Y-106773940D01*
X80949292Y-106727655D01*
X80948790Y-106724861D01*
X80926736Y-106642652D01*
X80893600Y-106578886D01*
X80847847Y-106531548D01*
X80787939Y-106498618D01*
X80772061Y-106492892D01*
X80747333Y-106487279D01*
X80722902Y-106489709D01*
X80690400Y-106501533D01*
X80674434Y-106508660D01*
X80632006Y-106532000D01*
X80602240Y-106560120D01*
X80581511Y-106591060D01*
X80554537Y-106653034D01*
X80534998Y-106732349D01*
X80523746Y-106824747D01*
X80521270Y-106891667D01*
X80520822Y-106979156D01*
X80961089Y-106979156D01*
X80961089Y-107135775D01*
X80940021Y-107136332D01*
X80879311Y-107136950D01*
X80800526Y-107137175D01*
X80738920Y-107137200D01*
X80429485Y-107137200D01*
X80401776Y-107109491D01*
X80390544Y-107097194D01*
X80382853Y-107083897D01*
X80378040Y-107065328D01*
X80375446Y-107037214D01*
X80374410Y-106995283D01*
X80374270Y-106935263D01*
X80374275Y-106931691D01*
G37*
X80374275Y-106931691D02*
X80378636Y-106802712D01*
X80391861Y-106693009D01*
X80414741Y-106600774D01*
X80448070Y-106524198D01*
X80492638Y-106461473D01*
X80549236Y-106410788D01*
X80618658Y-106370337D01*
X80620351Y-106369541D01*
X80682483Y-106345399D01*
X80737509Y-106336797D01*
X80792887Y-106343769D01*
X80856073Y-106366346D01*
X80865689Y-106370628D01*
X80921966Y-106399828D01*
X80965451Y-106432644D01*
X81002417Y-106474998D01*
X81039135Y-106532810D01*
X81041052Y-106536169D01*
X81065227Y-106586496D01*
X81083282Y-106643379D01*
X81095839Y-106710473D01*
X81103522Y-106791435D01*
X81106953Y-106889918D01*
X81107251Y-106924714D01*
X81107845Y-107090406D01*
X81078100Y-107113803D01*
X81068319Y-107120743D01*
X81056897Y-107126158D01*
X81041095Y-107130235D01*
X81018175Y-107133163D01*
X80985396Y-107135133D01*
X80961089Y-107135775D01*
X80961089Y-106979156D01*
X80961089Y-106885274D01*
X80959483Y-106830336D01*
X80955255Y-106773940D01*
X80949292Y-106727655D01*
X80948790Y-106724861D01*
X80926736Y-106642652D01*
X80893600Y-106578886D01*
X80847847Y-106531548D01*
X80787939Y-106498618D01*
X80772061Y-106492892D01*
X80747333Y-106487279D01*
X80722902Y-106489709D01*
X80690400Y-106501533D01*
X80674434Y-106508660D01*
X80632006Y-106532000D01*
X80602240Y-106560120D01*
X80581511Y-106591060D01*
X80554537Y-106653034D01*
X80534998Y-106732349D01*
X80523746Y-106824747D01*
X80521270Y-106891667D01*
X80520822Y-106979156D01*
X80961089Y-106979156D01*
X80961089Y-107135775D01*
X80940021Y-107136332D01*
X80879311Y-107136950D01*
X80800526Y-107137175D01*
X80738920Y-107137200D01*
X80429485Y-107137200D01*
X80401776Y-107109491D01*
X80390544Y-107097194D01*
X80382853Y-107083897D01*
X80378040Y-107065328D01*
X80375446Y-107037214D01*
X80374410Y-106995283D01*
X80374270Y-106935263D01*
X80374275Y-106931691D01*
G36*
X80376034Y-104205335D02*
G01*
X80383035Y-104185745D01*
X80383377Y-104184990D01*
X80403678Y-104158387D01*
X80424561Y-104143730D01*
X80434352Y-104140862D01*
X80447361Y-104141004D01*
X80465895Y-104145039D01*
X80492257Y-104153854D01*
X80528752Y-104168331D01*
X80577687Y-104189355D01*
X80641365Y-104217812D01*
X80722093Y-104254585D01*
X80766216Y-104274825D01*
X80844985Y-104311375D01*
X80917423Y-104345685D01*
X80980880Y-104376448D01*
X81032708Y-104402352D01*
X81070259Y-104422090D01*
X81090884Y-104434350D01*
X81093733Y-104436776D01*
X81106302Y-104467817D01*
X81104619Y-104502879D01*
X81089332Y-104531000D01*
X81088089Y-104532146D01*
X81071154Y-104543332D01*
X81038170Y-104562096D01*
X80993380Y-104586125D01*
X80941032Y-104613103D01*
X80921742Y-104622799D01*
X80775150Y-104695986D01*
X80934393Y-104775760D01*
X80989415Y-104804233D01*
X81037132Y-104830650D01*
X81073893Y-104852852D01*
X81096044Y-104868681D01*
X81100741Y-104874046D01*
X81107102Y-104915743D01*
X81093733Y-104950151D01*
X81079446Y-104960272D01*
X81047692Y-104977786D01*
X81001597Y-105001265D01*
X80944285Y-105029280D01*
X80878880Y-105060401D01*
X80808507Y-105093201D01*
X80736291Y-105126250D01*
X80665355Y-105158119D01*
X80598825Y-105187381D01*
X80539826Y-105212605D01*
X80491481Y-105232364D01*
X80456915Y-105245228D01*
X80439253Y-105249769D01*
X80438613Y-105249723D01*
X80416388Y-105238674D01*
X80393753Y-105216590D01*
X80392768Y-105215290D01*
X80377425Y-105188147D01*
X80377574Y-105163042D01*
X80380466Y-105153632D01*
X80386718Y-105142166D01*
X80399014Y-105129990D01*
X80419908Y-105115643D01*
X80451949Y-105097664D01*
X80497688Y-105074593D01*
X80559677Y-105044970D01*
X80616898Y-105018255D01*
X80683226Y-104987520D01*
X80742874Y-104959979D01*
X80792725Y-104937062D01*
X80829664Y-104920202D01*
X80850573Y-104910827D01*
X80853845Y-104909460D01*
X80848497Y-104903311D01*
X80826109Y-104889178D01*
X80789946Y-104868943D01*
X80743277Y-104844485D01*
X80724022Y-104834752D01*
X80659004Y-104801783D01*
X80611654Y-104776357D01*
X80579219Y-104756388D01*
X80558946Y-104739790D01*
X80548082Y-104724476D01*
X80543875Y-104708360D01*
X80543400Y-104697857D01*
X80545042Y-104679330D01*
X80551831Y-104663096D01*
X80566566Y-104646965D01*
X80592044Y-104628749D01*
X80631061Y-104606261D01*
X80686414Y-104577311D01*
X80717903Y-104561338D01*
X80768087Y-104535430D01*
X80809704Y-104512833D01*
X80839242Y-104495542D01*
X80853189Y-104485550D01*
X80853770Y-104484191D01*
X80842793Y-104477739D01*
X80814290Y-104463292D01*
X80771244Y-104442297D01*
X80716638Y-104416203D01*
X80653454Y-104386454D01*
X80622071Y-104371820D01*
X80541078Y-104333750D01*
X80478756Y-104303095D01*
X80433071Y-104278263D01*
X80401989Y-104257663D01*
X80383478Y-104239702D01*
X80375504Y-104222790D01*
X80376034Y-104205335D01*
G37*
X80376034Y-104205335D02*
X80383035Y-104185745D01*
X80383377Y-104184990D01*
X80403678Y-104158387D01*
X80424561Y-104143730D01*
X80434352Y-104140862D01*
X80447361Y-104141004D01*
X80465895Y-104145039D01*
X80492257Y-104153854D01*
X80528752Y-104168331D01*
X80577687Y-104189355D01*
X80641365Y-104217812D01*
X80722093Y-104254585D01*
X80766216Y-104274825D01*
X80844985Y-104311375D01*
X80917423Y-104345685D01*
X80980880Y-104376448D01*
X81032708Y-104402352D01*
X81070259Y-104422090D01*
X81090884Y-104434350D01*
X81093733Y-104436776D01*
X81106302Y-104467817D01*
X81104619Y-104502879D01*
X81089332Y-104531000D01*
X81088089Y-104532146D01*
X81071154Y-104543332D01*
X81038170Y-104562096D01*
X80993380Y-104586125D01*
X80941032Y-104613103D01*
X80921742Y-104622799D01*
X80775150Y-104695986D01*
X80934393Y-104775760D01*
X80989415Y-104804233D01*
X81037132Y-104830650D01*
X81073893Y-104852852D01*
X81096044Y-104868681D01*
X81100741Y-104874046D01*
X81107102Y-104915743D01*
X81093733Y-104950151D01*
X81079446Y-104960272D01*
X81047692Y-104977786D01*
X81001597Y-105001265D01*
X80944285Y-105029280D01*
X80878880Y-105060401D01*
X80808507Y-105093201D01*
X80736291Y-105126250D01*
X80665355Y-105158119D01*
X80598825Y-105187381D01*
X80539826Y-105212605D01*
X80491481Y-105232364D01*
X80456915Y-105245228D01*
X80439253Y-105249769D01*
X80438613Y-105249723D01*
X80416388Y-105238674D01*
X80393753Y-105216590D01*
X80392768Y-105215290D01*
X80377425Y-105188147D01*
X80377574Y-105163042D01*
X80380466Y-105153632D01*
X80386718Y-105142166D01*
X80399014Y-105129990D01*
X80419908Y-105115643D01*
X80451949Y-105097664D01*
X80497688Y-105074593D01*
X80559677Y-105044970D01*
X80616898Y-105018255D01*
X80683226Y-104987520D01*
X80742874Y-104959979D01*
X80792725Y-104937062D01*
X80829664Y-104920202D01*
X80850573Y-104910827D01*
X80853845Y-104909460D01*
X80848497Y-104903311D01*
X80826109Y-104889178D01*
X80789946Y-104868943D01*
X80743277Y-104844485D01*
X80724022Y-104834752D01*
X80659004Y-104801783D01*
X80611654Y-104776357D01*
X80579219Y-104756388D01*
X80558946Y-104739790D01*
X80548082Y-104724476D01*
X80543875Y-104708360D01*
X80543400Y-104697857D01*
X80545042Y-104679330D01*
X80551831Y-104663096D01*
X80566566Y-104646965D01*
X80592044Y-104628749D01*
X80631061Y-104606261D01*
X80686414Y-104577311D01*
X80717903Y-104561338D01*
X80768087Y-104535430D01*
X80809704Y-104512833D01*
X80839242Y-104495542D01*
X80853189Y-104485550D01*
X80853770Y-104484191D01*
X80842793Y-104477739D01*
X80814290Y-104463292D01*
X80771244Y-104442297D01*
X80716638Y-104416203D01*
X80653454Y-104386454D01*
X80622071Y-104371820D01*
X80541078Y-104333750D01*
X80478756Y-104303095D01*
X80433071Y-104278263D01*
X80401989Y-104257663D01*
X80383478Y-104239702D01*
X80375504Y-104222790D01*
X80376034Y-104205335D01*
G36*
X80380877Y-103761386D02*
G01*
X80395647Y-103737673D01*
X80417227Y-103711022D01*
X80738773Y-103711022D01*
X80832830Y-103711107D01*
X80906932Y-103711471D01*
X80963704Y-103712276D01*
X81005768Y-103713687D01*
X81035748Y-103715867D01*
X81056267Y-103718979D01*
X81069949Y-103723186D01*
X81079416Y-103728652D01*
X81084082Y-103732528D01*
X81104575Y-103763966D01*
X81103739Y-103799767D01*
X81086264Y-103831127D01*
X81064684Y-103857778D01*
X80417227Y-103857778D01*
X80395647Y-103831127D01*
X80379949Y-103805406D01*
X80374067Y-103784400D01*
X80380877Y-103761386D01*
G37*
X80380877Y-103761386D02*
X80395647Y-103737673D01*
X80417227Y-103711022D01*
X80738773Y-103711022D01*
X80832830Y-103711107D01*
X80906932Y-103711471D01*
X80963704Y-103712276D01*
X81005768Y-103713687D01*
X81035748Y-103715867D01*
X81056267Y-103718979D01*
X81069949Y-103723186D01*
X81079416Y-103728652D01*
X81084082Y-103732528D01*
X81104575Y-103763966D01*
X81103739Y-103799767D01*
X81086264Y-103831127D01*
X81064684Y-103857778D01*
X80417227Y-103857778D01*
X80395647Y-103831127D01*
X80379949Y-103805406D01*
X80374067Y-103784400D01*
X80380877Y-103761386D01*
G36*
X80374163Y-102986935D02*
G01*
X80374542Y-102908228D01*
X80375333Y-102847137D01*
X80376670Y-102801183D01*
X80378683Y-102767886D01*
X80381506Y-102744764D01*
X80385269Y-102729338D01*
X80390105Y-102719129D01*
X80393822Y-102714187D01*
X80426358Y-102688543D01*
X80460138Y-102685441D01*
X80490826Y-102701289D01*
X80503089Y-102711652D01*
X80511450Y-102722804D01*
X80516657Y-102738965D01*
X80519457Y-102764358D01*
X80520596Y-102803202D01*
X80520821Y-102859720D01*
X80520822Y-102870820D01*
X80520822Y-103016756D01*
X80791756Y-103016756D01*
X80877154Y-103016852D01*
X80942864Y-103017289D01*
X80991774Y-103018288D01*
X81026773Y-103020072D01*
X81050749Y-103022863D01*
X81066593Y-103026883D01*
X81077191Y-103032355D01*
X81085267Y-103039334D01*
X81105112Y-103072266D01*
X81103548Y-103106646D01*
X81080906Y-103137824D01*
X81078100Y-103140114D01*
X81067492Y-103147571D01*
X81055081Y-103153253D01*
X81037850Y-103157399D01*
X81012784Y-103160250D01*
X80976867Y-103162046D01*
X80927083Y-103163028D01*
X80860417Y-103163436D01*
X80784589Y-103163511D01*
X80520822Y-103163511D01*
X80520822Y-103302873D01*
X80520418Y-103362678D01*
X80518840Y-103404082D01*
X80515547Y-103431252D01*
X80509992Y-103448354D01*
X80501631Y-103459557D01*
X80500178Y-103460917D01*
X80466939Y-103477275D01*
X80429362Y-103475828D01*
X80396645Y-103457022D01*
X80390298Y-103449750D01*
X80385266Y-103440373D01*
X80381396Y-103426391D01*
X80378537Y-103405304D01*
X80376535Y-103374611D01*
X80375239Y-103331811D01*
X80374498Y-103274405D01*
X80374158Y-103199890D01*
X80374068Y-103105767D01*
X80374067Y-103085740D01*
X80374163Y-102986935D01*
G37*
X80374163Y-102986935D02*
X80374542Y-102908228D01*
X80375333Y-102847137D01*
X80376670Y-102801183D01*
X80378683Y-102767886D01*
X80381506Y-102744764D01*
X80385269Y-102729338D01*
X80390105Y-102719129D01*
X80393822Y-102714187D01*
X80426358Y-102688543D01*
X80460138Y-102685441D01*
X80490826Y-102701289D01*
X80503089Y-102711652D01*
X80511450Y-102722804D01*
X80516657Y-102738965D01*
X80519457Y-102764358D01*
X80520596Y-102803202D01*
X80520821Y-102859720D01*
X80520822Y-102870820D01*
X80520822Y-103016756D01*
X80791756Y-103016756D01*
X80877154Y-103016852D01*
X80942864Y-103017289D01*
X80991774Y-103018288D01*
X81026773Y-103020072D01*
X81050749Y-103022863D01*
X81066593Y-103026883D01*
X81077191Y-103032355D01*
X81085267Y-103039334D01*
X81105112Y-103072266D01*
X81103548Y-103106646D01*
X81080906Y-103137824D01*
X81078100Y-103140114D01*
X81067492Y-103147571D01*
X81055081Y-103153253D01*
X81037850Y-103157399D01*
X81012784Y-103160250D01*
X80976867Y-103162046D01*
X80927083Y-103163028D01*
X80860417Y-103163436D01*
X80784589Y-103163511D01*
X80520822Y-103163511D01*
X80520822Y-103302873D01*
X80520418Y-103362678D01*
X80518840Y-103404082D01*
X80515547Y-103431252D01*
X80509992Y-103448354D01*
X80501631Y-103459557D01*
X80500178Y-103460917D01*
X80466939Y-103477275D01*
X80429362Y-103475828D01*
X80396645Y-103457022D01*
X80390298Y-103449750D01*
X80385266Y-103440373D01*
X80381396Y-103426391D01*
X80378537Y-103405304D01*
X80376535Y-103374611D01*
X80375239Y-103331811D01*
X80374498Y-103274405D01*
X80374158Y-103199890D01*
X80374068Y-103105767D01*
X80374067Y-103085740D01*
X80374163Y-102986935D01*
G36*
X80379533Y-101721177D02*
G01*
X80401776Y-101689798D01*
X80429485Y-101662089D01*
X80738920Y-101662089D01*
X80830799Y-101662162D01*
X80902840Y-101662505D01*
X80957780Y-101663308D01*
X80998360Y-101664759D01*
X81027317Y-101667048D01*
X81047391Y-101670364D01*
X81061321Y-101674895D01*
X81071845Y-101680831D01*
X81078100Y-101685486D01*
X81102673Y-101716217D01*
X81105341Y-101751504D01*
X81090271Y-101783755D01*
X81081374Y-101794412D01*
X81069557Y-101801536D01*
X81050526Y-101805833D01*
X81019992Y-101808009D01*
X80973662Y-101808772D01*
X80937871Y-101808845D01*
X80803045Y-101808845D01*
X80803045Y-102305556D01*
X80925700Y-102305556D01*
X80981787Y-102306069D01*
X81020333Y-102308124D01*
X81046361Y-102312492D01*
X81064897Y-102319944D01*
X81078100Y-102328953D01*
X81102604Y-102359856D01*
X81105506Y-102394804D01*
X81088089Y-102428262D01*
X81078959Y-102437396D01*
X81066855Y-102443848D01*
X81048001Y-102448103D01*
X81018620Y-102450648D01*
X80974937Y-102451971D01*
X80913175Y-102452557D01*
X80899000Y-102452625D01*
X80782631Y-102453109D01*
X80686727Y-102453359D01*
X80609177Y-102453277D01*
X80547869Y-102452769D01*
X80500690Y-102451738D01*
X80465530Y-102450087D01*
X80440276Y-102447721D01*
X80422817Y-102444543D01*
X80411041Y-102440456D01*
X80402835Y-102435366D01*
X80396645Y-102429734D01*
X80376844Y-102397872D01*
X80379533Y-102364643D01*
X80401776Y-102333265D01*
X80416126Y-102320567D01*
X80431978Y-102312474D01*
X80454554Y-102307958D01*
X80489078Y-102305994D01*
X80540776Y-102305556D01*
X80656289Y-102305556D01*
X80656289Y-101808845D01*
X80537756Y-101808845D01*
X80483148Y-101808338D01*
X80446275Y-101806302D01*
X80422307Y-101801965D01*
X80406415Y-101794553D01*
X80396645Y-101786267D01*
X80376844Y-101754406D01*
X80379533Y-101721177D01*
G37*
X80379533Y-101721177D02*
X80401776Y-101689798D01*
X80429485Y-101662089D01*
X80738920Y-101662089D01*
X80830799Y-101662162D01*
X80902840Y-101662505D01*
X80957780Y-101663308D01*
X80998360Y-101664759D01*
X81027317Y-101667048D01*
X81047391Y-101670364D01*
X81061321Y-101674895D01*
X81071845Y-101680831D01*
X81078100Y-101685486D01*
X81102673Y-101716217D01*
X81105341Y-101751504D01*
X81090271Y-101783755D01*
X81081374Y-101794412D01*
X81069557Y-101801536D01*
X81050526Y-101805833D01*
X81019992Y-101808009D01*
X80973662Y-101808772D01*
X80937871Y-101808845D01*
X80803045Y-101808845D01*
X80803045Y-102305556D01*
X80925700Y-102305556D01*
X80981787Y-102306069D01*
X81020333Y-102308124D01*
X81046361Y-102312492D01*
X81064897Y-102319944D01*
X81078100Y-102328953D01*
X81102604Y-102359856D01*
X81105506Y-102394804D01*
X81088089Y-102428262D01*
X81078959Y-102437396D01*
X81066855Y-102443848D01*
X81048001Y-102448103D01*
X81018620Y-102450648D01*
X80974937Y-102451971D01*
X80913175Y-102452557D01*
X80899000Y-102452625D01*
X80782631Y-102453109D01*
X80686727Y-102453359D01*
X80609177Y-102453277D01*
X80547869Y-102452769D01*
X80500690Y-102451738D01*
X80465530Y-102450087D01*
X80440276Y-102447721D01*
X80422817Y-102444543D01*
X80411041Y-102440456D01*
X80402835Y-102435366D01*
X80396645Y-102429734D01*
X80376844Y-102397872D01*
X80379533Y-102364643D01*
X80401776Y-102333265D01*
X80416126Y-102320567D01*
X80431978Y-102312474D01*
X80454554Y-102307958D01*
X80489078Y-102305994D01*
X80540776Y-102305556D01*
X80656289Y-102305556D01*
X80656289Y-101808845D01*
X80537756Y-101808845D01*
X80483148Y-101808338D01*
X80446275Y-101806302D01*
X80422307Y-101801965D01*
X80406415Y-101794553D01*
X80396645Y-101786267D01*
X80376844Y-101754406D01*
X80379533Y-101721177D01*
G36*
X80659918Y-121780256D02*
G01*
X80687568Y-121724799D01*
X80738480Y-121675852D01*
X80757338Y-121662371D01*
X80782015Y-121647686D01*
X80808816Y-121638158D01*
X80844587Y-121632707D01*
X80896169Y-121630253D01*
X80964267Y-121629714D01*
X81057588Y-121632148D01*
X81127657Y-121640606D01*
X81179931Y-121656826D01*
X81219869Y-121682546D01*
X81252929Y-121719503D01*
X81254886Y-121722218D01*
X81274908Y-121758640D01*
X81284815Y-121802498D01*
X81287257Y-121858276D01*
X81287257Y-121948952D01*
X81375283Y-121948990D01*
X81424308Y-121949834D01*
X81453065Y-121954976D01*
X81470311Y-121968413D01*
X81484808Y-121994142D01*
X81487769Y-122000321D01*
X81501648Y-122029236D01*
X81510414Y-122051624D01*
X81511171Y-122068271D01*
X81501023Y-122079964D01*
X81477073Y-122087490D01*
X81436426Y-122091634D01*
X81376186Y-122093185D01*
X81293455Y-122092929D01*
X81185339Y-122091651D01*
X81153000Y-122091252D01*
X81041524Y-122089815D01*
X80968603Y-122088528D01*
X80968603Y-121949029D01*
X81030499Y-121948245D01*
X81070997Y-121944760D01*
X81097708Y-121936876D01*
X81118244Y-121922895D01*
X81128260Y-121913403D01*
X81157567Y-121874596D01*
X81159952Y-121840237D01*
X81135750Y-121804784D01*
X81134857Y-121803886D01*
X81116153Y-121789461D01*
X81090732Y-121780687D01*
X81051584Y-121776261D01*
X80991697Y-121774882D01*
X80978430Y-121774857D01*
X80895901Y-121778188D01*
X80838691Y-121789031D01*
X80803766Y-121808660D01*
X80788094Y-121838350D01*
X80786514Y-121855509D01*
X80793926Y-121896234D01*
X80818330Y-121924168D01*
X80862980Y-121940983D01*
X80931130Y-121948350D01*
X80968603Y-121949029D01*
X80968603Y-122088528D01*
X80955245Y-122088292D01*
X80890333Y-122086323D01*
X80842958Y-122083550D01*
X80809290Y-122079612D01*
X80785498Y-122074151D01*
X80767753Y-122066808D01*
X80752224Y-122057223D01*
X80746381Y-122053113D01*
X80691185Y-121998595D01*
X80659890Y-121929664D01*
X80651165Y-121849928D01*
X80659918Y-121780256D01*
G37*
X80659918Y-121780256D02*
X80687568Y-121724799D01*
X80738480Y-121675852D01*
X80757338Y-121662371D01*
X80782015Y-121647686D01*
X80808816Y-121638158D01*
X80844587Y-121632707D01*
X80896169Y-121630253D01*
X80964267Y-121629714D01*
X81057588Y-121632148D01*
X81127657Y-121640606D01*
X81179931Y-121656826D01*
X81219869Y-121682546D01*
X81252929Y-121719503D01*
X81254886Y-121722218D01*
X81274908Y-121758640D01*
X81284815Y-121802498D01*
X81287257Y-121858276D01*
X81287257Y-121948952D01*
X81375283Y-121948990D01*
X81424308Y-121949834D01*
X81453065Y-121954976D01*
X81470311Y-121968413D01*
X81484808Y-121994142D01*
X81487769Y-122000321D01*
X81501648Y-122029236D01*
X81510414Y-122051624D01*
X81511171Y-122068271D01*
X81501023Y-122079964D01*
X81477073Y-122087490D01*
X81436426Y-122091634D01*
X81376186Y-122093185D01*
X81293455Y-122092929D01*
X81185339Y-122091651D01*
X81153000Y-122091252D01*
X81041524Y-122089815D01*
X80968603Y-122088528D01*
X80968603Y-121949029D01*
X81030499Y-121948245D01*
X81070997Y-121944760D01*
X81097708Y-121936876D01*
X81118244Y-121922895D01*
X81128260Y-121913403D01*
X81157567Y-121874596D01*
X81159952Y-121840237D01*
X81135750Y-121804784D01*
X81134857Y-121803886D01*
X81116153Y-121789461D01*
X81090732Y-121780687D01*
X81051584Y-121776261D01*
X80991697Y-121774882D01*
X80978430Y-121774857D01*
X80895901Y-121778188D01*
X80838691Y-121789031D01*
X80803766Y-121808660D01*
X80788094Y-121838350D01*
X80786514Y-121855509D01*
X80793926Y-121896234D01*
X80818330Y-121924168D01*
X80862980Y-121940983D01*
X80931130Y-121948350D01*
X80968603Y-121949029D01*
X80968603Y-122088528D01*
X80955245Y-122088292D01*
X80890333Y-122086323D01*
X80842958Y-122083550D01*
X80809290Y-122079612D01*
X80785498Y-122074151D01*
X80767753Y-122066808D01*
X80752224Y-122057223D01*
X80746381Y-122053113D01*
X80691185Y-121998595D01*
X80659890Y-121929664D01*
X80651165Y-121849928D01*
X80659918Y-121780256D01*
G36*
X80667780Y-120663907D02*
G01*
X80694723Y-120617328D01*
X80721466Y-120584943D01*
X80749484Y-120561258D01*
X80783748Y-120544941D01*
X80829227Y-120534661D01*
X80890892Y-120529086D01*
X80973711Y-120526884D01*
X81033246Y-120526629D01*
X81252391Y-120526629D01*
X81280044Y-120588314D01*
X81307697Y-120650000D01*
X81067670Y-120657257D01*
X80978028Y-120660256D01*
X80912962Y-120663402D01*
X80868026Y-120667299D01*
X80838770Y-120672553D01*
X80820748Y-120679769D01*
X80809511Y-120689550D01*
X80807079Y-120692688D01*
X80788083Y-120740239D01*
X80795600Y-120788303D01*
X80815543Y-120816914D01*
X80829675Y-120828553D01*
X80848220Y-120836609D01*
X80876334Y-120841729D01*
X80919173Y-120844559D01*
X80981895Y-120845744D01*
X81047261Y-120845943D01*
X81129268Y-120845982D01*
X81187316Y-120847386D01*
X81226465Y-120852086D01*
X81251780Y-120862013D01*
X81268323Y-120879097D01*
X81281156Y-120905268D01*
X81294491Y-120940225D01*
X81309007Y-120978404D01*
X81051389Y-120973859D01*
X80958519Y-120972029D01*
X80889889Y-120969888D01*
X80840711Y-120966819D01*
X80806198Y-120962206D01*
X80781562Y-120955432D01*
X80762016Y-120945881D01*
X80744770Y-120934366D01*
X80689680Y-120878810D01*
X80657822Y-120811020D01*
X80650191Y-120737287D01*
X80667780Y-120663907D01*
G37*
X80667780Y-120663907D02*
X80694723Y-120617328D01*
X80721466Y-120584943D01*
X80749484Y-120561258D01*
X80783748Y-120544941D01*
X80829227Y-120534661D01*
X80890892Y-120529086D01*
X80973711Y-120526884D01*
X81033246Y-120526629D01*
X81252391Y-120526629D01*
X81280044Y-120588314D01*
X81307697Y-120650000D01*
X81067670Y-120657257D01*
X80978028Y-120660256D01*
X80912962Y-120663402D01*
X80868026Y-120667299D01*
X80838770Y-120672553D01*
X80820748Y-120679769D01*
X80809511Y-120689550D01*
X80807079Y-120692688D01*
X80788083Y-120740239D01*
X80795600Y-120788303D01*
X80815543Y-120816914D01*
X80829675Y-120828553D01*
X80848220Y-120836609D01*
X80876334Y-120841729D01*
X80919173Y-120844559D01*
X80981895Y-120845744D01*
X81047261Y-120845943D01*
X81129268Y-120845982D01*
X81187316Y-120847386D01*
X81226465Y-120852086D01*
X81251780Y-120862013D01*
X81268323Y-120879097D01*
X81281156Y-120905268D01*
X81294491Y-120940225D01*
X81309007Y-120978404D01*
X81051389Y-120973859D01*
X80958519Y-120972029D01*
X80889889Y-120969888D01*
X80840711Y-120966819D01*
X80806198Y-120962206D01*
X80781562Y-120955432D01*
X80762016Y-120945881D01*
X80744770Y-120934366D01*
X80689680Y-120878810D01*
X80657822Y-120811020D01*
X80650191Y-120737287D01*
X80667780Y-120663907D01*
G36*
X80661962Y-122338885D02*
G01*
X80697733Y-122270855D01*
X80755301Y-122220649D01*
X80792312Y-122202815D01*
X80847882Y-122188937D01*
X80918096Y-122181833D01*
X80994727Y-122181160D01*
X81069552Y-122186573D01*
X81134342Y-122197730D01*
X81180873Y-122214286D01*
X81188887Y-122219374D01*
X81248707Y-122279645D01*
X81284535Y-122351231D01*
X81295020Y-122428908D01*
X81278810Y-122507452D01*
X81269092Y-122529311D01*
X81239143Y-122571878D01*
X81199433Y-122609237D01*
X81194397Y-122612768D01*
X81170124Y-122627119D01*
X81144178Y-122636606D01*
X81110022Y-122642210D01*
X81061119Y-122644914D01*
X80990935Y-122645701D01*
X80975200Y-122645714D01*
X80970192Y-122645678D01*
X80970192Y-122500571D01*
X81036430Y-122499727D01*
X81080386Y-122496404D01*
X81108779Y-122489417D01*
X81128325Y-122477584D01*
X81134857Y-122471543D01*
X81159680Y-122436814D01*
X81158548Y-122403097D01*
X81137016Y-122369005D01*
X81114029Y-122348671D01*
X81080478Y-122336629D01*
X81027569Y-122329866D01*
X81021399Y-122329402D01*
X80925513Y-122328248D01*
X80854299Y-122340312D01*
X80808194Y-122365430D01*
X80787635Y-122403440D01*
X80786514Y-122417008D01*
X80792152Y-122452636D01*
X80811686Y-122477006D01*
X80849042Y-122491907D01*
X80908150Y-122499125D01*
X80970192Y-122500571D01*
X80970192Y-122645678D01*
X80900413Y-122645174D01*
X80848159Y-122642904D01*
X80811949Y-122637932D01*
X80785299Y-122629287D01*
X80761722Y-122615995D01*
X80757338Y-122613057D01*
X80698249Y-122563687D01*
X80663947Y-122509891D01*
X80650331Y-122444398D01*
X80649665Y-122422158D01*
X80661962Y-122338885D01*
G37*
X80661962Y-122338885D02*
X80697733Y-122270855D01*
X80755301Y-122220649D01*
X80792312Y-122202815D01*
X80847882Y-122188937D01*
X80918096Y-122181833D01*
X80994727Y-122181160D01*
X81069552Y-122186573D01*
X81134342Y-122197730D01*
X81180873Y-122214286D01*
X81188887Y-122219374D01*
X81248707Y-122279645D01*
X81284535Y-122351231D01*
X81295020Y-122428908D01*
X81278810Y-122507452D01*
X81269092Y-122529311D01*
X81239143Y-122571878D01*
X81199433Y-122609237D01*
X81194397Y-122612768D01*
X81170124Y-122627119D01*
X81144178Y-122636606D01*
X81110022Y-122642210D01*
X81061119Y-122644914D01*
X80990935Y-122645701D01*
X80975200Y-122645714D01*
X80970192Y-122645678D01*
X80970192Y-122500571D01*
X81036430Y-122499727D01*
X81080386Y-122496404D01*
X81108779Y-122489417D01*
X81128325Y-122477584D01*
X81134857Y-122471543D01*
X81159680Y-122436814D01*
X81158548Y-122403097D01*
X81137016Y-122369005D01*
X81114029Y-122348671D01*
X81080478Y-122336629D01*
X81027569Y-122329866D01*
X81021399Y-122329402D01*
X80925513Y-122328248D01*
X80854299Y-122340312D01*
X80808194Y-122365430D01*
X80787635Y-122403440D01*
X80786514Y-122417008D01*
X80792152Y-122452636D01*
X80811686Y-122477006D01*
X80849042Y-122491907D01*
X80908150Y-122499125D01*
X80970192Y-122500571D01*
X80970192Y-122645678D01*
X80900413Y-122645174D01*
X80848159Y-122642904D01*
X80811949Y-122637932D01*
X80785299Y-122629287D01*
X80761722Y-122615995D01*
X80757338Y-122613057D01*
X80698249Y-122563687D01*
X80663947Y-122509891D01*
X80650331Y-122444398D01*
X80649665Y-122422158D01*
X80661962Y-122338885D01*
G36*
X80671239Y-121211697D02*
G01*
X80709735Y-121154473D01*
X80765335Y-121110251D01*
X80836086Y-121083833D01*
X80888162Y-121078490D01*
X80909893Y-121079097D01*
X80926531Y-121084178D01*
X80941437Y-121098145D01*
X80957973Y-121125411D01*
X80979498Y-121170388D01*
X81009374Y-121237489D01*
X81009524Y-121237829D01*
X81037813Y-121299593D01*
X81062933Y-121350241D01*
X81082179Y-121384596D01*
X81092848Y-121397482D01*
X81092934Y-121397486D01*
X81116166Y-121386128D01*
X81141774Y-121359569D01*
X81160221Y-121329077D01*
X81163886Y-121313630D01*
X81151212Y-121271485D01*
X81119471Y-121235192D01*
X81084572Y-121217483D01*
X81058845Y-121200448D01*
X81029546Y-121167078D01*
X81004235Y-121127851D01*
X80990471Y-121093244D01*
X80989714Y-121086007D01*
X81002160Y-121077861D01*
X81033972Y-121077370D01*
X81076866Y-121083357D01*
X81122558Y-121094643D01*
X81162761Y-121110050D01*
X81164322Y-121110829D01*
X81229062Y-121157196D01*
X81273097Y-121217289D01*
X81294711Y-121285535D01*
X81292185Y-121356362D01*
X81263804Y-121424196D01*
X81261808Y-121427212D01*
X81213448Y-121480573D01*
X81150352Y-121515660D01*
X81067387Y-121535078D01*
X81044078Y-121537684D01*
X80934055Y-121542299D01*
X80882748Y-121536767D01*
X80882748Y-121397486D01*
X80914753Y-121395676D01*
X80924093Y-121385778D01*
X80917105Y-121361102D01*
X80900587Y-121322205D01*
X80879881Y-121278725D01*
X80879333Y-121277644D01*
X80859949Y-121240791D01*
X80847013Y-121226000D01*
X80833451Y-121229647D01*
X80815632Y-121245005D01*
X80789845Y-121284077D01*
X80787950Y-121326154D01*
X80806717Y-121363897D01*
X80842915Y-121389966D01*
X80882748Y-121397486D01*
X80882748Y-121536767D01*
X80846027Y-121532806D01*
X80776212Y-121508450D01*
X80727302Y-121474544D01*
X80677878Y-121413347D01*
X80653359Y-121345937D01*
X80651797Y-121277120D01*
X80671239Y-121211697D01*
G37*
X80671239Y-121211697D02*
X80709735Y-121154473D01*
X80765335Y-121110251D01*
X80836086Y-121083833D01*
X80888162Y-121078490D01*
X80909893Y-121079097D01*
X80926531Y-121084178D01*
X80941437Y-121098145D01*
X80957973Y-121125411D01*
X80979498Y-121170388D01*
X81009374Y-121237489D01*
X81009524Y-121237829D01*
X81037813Y-121299593D01*
X81062933Y-121350241D01*
X81082179Y-121384596D01*
X81092848Y-121397482D01*
X81092934Y-121397486D01*
X81116166Y-121386128D01*
X81141774Y-121359569D01*
X81160221Y-121329077D01*
X81163886Y-121313630D01*
X81151212Y-121271485D01*
X81119471Y-121235192D01*
X81084572Y-121217483D01*
X81058845Y-121200448D01*
X81029546Y-121167078D01*
X81004235Y-121127851D01*
X80990471Y-121093244D01*
X80989714Y-121086007D01*
X81002160Y-121077861D01*
X81033972Y-121077370D01*
X81076866Y-121083357D01*
X81122558Y-121094643D01*
X81162761Y-121110050D01*
X81164322Y-121110829D01*
X81229062Y-121157196D01*
X81273097Y-121217289D01*
X81294711Y-121285535D01*
X81292185Y-121356362D01*
X81263804Y-121424196D01*
X81261808Y-121427212D01*
X81213448Y-121480573D01*
X81150352Y-121515660D01*
X81067387Y-121535078D01*
X81044078Y-121537684D01*
X80934055Y-121542299D01*
X80882748Y-121536767D01*
X80882748Y-121397486D01*
X80914753Y-121395676D01*
X80924093Y-121385778D01*
X80917105Y-121361102D01*
X80900587Y-121322205D01*
X80879881Y-121278725D01*
X80879333Y-121277644D01*
X80859949Y-121240791D01*
X80847013Y-121226000D01*
X80833451Y-121229647D01*
X80815632Y-121245005D01*
X80789845Y-121284077D01*
X80787950Y-121326154D01*
X80806717Y-121363897D01*
X80842915Y-121389966D01*
X80882748Y-121397486D01*
X80882748Y-121536767D01*
X80846027Y-121532806D01*
X80776212Y-121508450D01*
X80727302Y-121474544D01*
X80677878Y-121413347D01*
X80653359Y-121345937D01*
X80651797Y-121277120D01*
X80671239Y-121211697D01*
G36*
X80591289Y-120004114D02*
G01*
X80650613Y-119999861D01*
X80685572Y-119994975D01*
X80700820Y-119988205D01*
X80701015Y-119978298D01*
X80699195Y-119975086D01*
X80686015Y-119932356D01*
X80686785Y-119876773D01*
X80700333Y-119820263D01*
X80717861Y-119784918D01*
X80745861Y-119748679D01*
X80777549Y-119722187D01*
X80817813Y-119704001D01*
X80871543Y-119692678D01*
X80943626Y-119686778D01*
X81038951Y-119684857D01*
X81057237Y-119684823D01*
X81262646Y-119684800D01*
X81278580Y-119730509D01*
X81289420Y-119762973D01*
X81294468Y-119780785D01*
X81294514Y-119781309D01*
X81280828Y-119783063D01*
X81243076Y-119784556D01*
X81186224Y-119785674D01*
X81115234Y-119786303D01*
X81072073Y-119786400D01*
X80986973Y-119786602D01*
X80925981Y-119787642D01*
X80884177Y-119790169D01*
X80856642Y-119794836D01*
X80838456Y-119802293D01*
X80824698Y-119813189D01*
X80818073Y-119819993D01*
X80791375Y-119866728D01*
X80789375Y-119917728D01*
X80811955Y-119963999D01*
X80820107Y-119972556D01*
X80835436Y-119985107D01*
X80853618Y-119993812D01*
X80879909Y-119999369D01*
X80919562Y-120002474D01*
X80977832Y-120003824D01*
X81058173Y-120004114D01*
X81262646Y-120004114D01*
X81278580Y-120049823D01*
X81289420Y-120082287D01*
X81294468Y-120100099D01*
X81294514Y-120100623D01*
X81280623Y-120101963D01*
X81241439Y-120103172D01*
X81180700Y-120104199D01*
X81102141Y-120104998D01*
X81009498Y-120105519D01*
X80906509Y-120105714D01*
X80509342Y-120105714D01*
X80489444Y-120058543D01*
X80469547Y-120011371D01*
X80591289Y-120004114D01*
G37*
X80591289Y-120004114D02*
X80650613Y-119999861D01*
X80685572Y-119994975D01*
X80700820Y-119988205D01*
X80701015Y-119978298D01*
X80699195Y-119975086D01*
X80686015Y-119932356D01*
X80686785Y-119876773D01*
X80700333Y-119820263D01*
X80717861Y-119784918D01*
X80745861Y-119748679D01*
X80777549Y-119722187D01*
X80817813Y-119704001D01*
X80871543Y-119692678D01*
X80943626Y-119686778D01*
X81038951Y-119684857D01*
X81057237Y-119684823D01*
X81262646Y-119684800D01*
X81278580Y-119730509D01*
X81289420Y-119762973D01*
X81294468Y-119780785D01*
X81294514Y-119781309D01*
X81280828Y-119783063D01*
X81243076Y-119784556D01*
X81186224Y-119785674D01*
X81115234Y-119786303D01*
X81072073Y-119786400D01*
X80986973Y-119786602D01*
X80925981Y-119787642D01*
X80884177Y-119790169D01*
X80856642Y-119794836D01*
X80838456Y-119802293D01*
X80824698Y-119813189D01*
X80818073Y-119819993D01*
X80791375Y-119866728D01*
X80789375Y-119917728D01*
X80811955Y-119963999D01*
X80820107Y-119972556D01*
X80835436Y-119985107D01*
X80853618Y-119993812D01*
X80879909Y-119999369D01*
X80919562Y-120002474D01*
X80977832Y-120003824D01*
X81058173Y-120004114D01*
X81262646Y-120004114D01*
X81278580Y-120049823D01*
X81289420Y-120082287D01*
X81294468Y-120100099D01*
X81294514Y-120100623D01*
X81280623Y-120101963D01*
X81241439Y-120103172D01*
X81180700Y-120104199D01*
X81102141Y-120104998D01*
X81009498Y-120105519D01*
X80906509Y-120105714D01*
X80509342Y-120105714D01*
X80489444Y-120058543D01*
X80469547Y-120011371D01*
X80591289Y-120004114D01*
G36*
X80690968Y-119340256D02*
G01*
X80712087Y-119283384D01*
X80712493Y-119282733D01*
X80738380Y-119247560D01*
X80768633Y-119221593D01*
X80808058Y-119203330D01*
X80861462Y-119191268D01*
X80933651Y-119183904D01*
X81029432Y-119179736D01*
X81043078Y-119179371D01*
X81248842Y-119174124D01*
X81271678Y-119218284D01*
X81287110Y-119250237D01*
X81294423Y-119269530D01*
X81294514Y-119270422D01*
X81281022Y-119273761D01*
X81244626Y-119276413D01*
X81191452Y-119278044D01*
X81148393Y-119278400D01*
X81078641Y-119278408D01*
X81034837Y-119281597D01*
X81013944Y-119292712D01*
X81012925Y-119316499D01*
X81028741Y-119357704D01*
X81057815Y-119419914D01*
X81081963Y-119465659D01*
X81102913Y-119489187D01*
X81125747Y-119496104D01*
X81126877Y-119496114D01*
X81166212Y-119484701D01*
X81187462Y-119450908D01*
X81190539Y-119399191D01*
X81190006Y-119361939D01*
X81200735Y-119342297D01*
X81226505Y-119330048D01*
X81259337Y-119322998D01*
X81277966Y-119333158D01*
X81280632Y-119336983D01*
X81291340Y-119372999D01*
X81292856Y-119423434D01*
X81285759Y-119475374D01*
X81272788Y-119512178D01*
X81229585Y-119563062D01*
X81169446Y-119591986D01*
X81122462Y-119597714D01*
X81080082Y-119593343D01*
X81045488Y-119577525D01*
X81014763Y-119546203D01*
X80983990Y-119495322D01*
X80949252Y-119420824D01*
X80947288Y-119416286D01*
X80916287Y-119349179D01*
X80890862Y-119307768D01*
X80868014Y-119290019D01*
X80844745Y-119293893D01*
X80818056Y-119317357D01*
X80811914Y-119324373D01*
X80788100Y-119371370D01*
X80789103Y-119420067D01*
X80812451Y-119462478D01*
X80855675Y-119490616D01*
X80864160Y-119493231D01*
X80905308Y-119518692D01*
X80925128Y-119550999D01*
X80944770Y-119597714D01*
X80893950Y-119597714D01*
X80820082Y-119583504D01*
X80752327Y-119541325D01*
X80729661Y-119519376D01*
X80700569Y-119469483D01*
X80687400Y-119406033D01*
X80690968Y-119340256D01*
G37*
X80690968Y-119340256D02*
X80712087Y-119283384D01*
X80712493Y-119282733D01*
X80738380Y-119247560D01*
X80768633Y-119221593D01*
X80808058Y-119203330D01*
X80861462Y-119191268D01*
X80933651Y-119183904D01*
X81029432Y-119179736D01*
X81043078Y-119179371D01*
X81248842Y-119174124D01*
X81271678Y-119218284D01*
X81287110Y-119250237D01*
X81294423Y-119269530D01*
X81294514Y-119270422D01*
X81281022Y-119273761D01*
X81244626Y-119276413D01*
X81191452Y-119278044D01*
X81148393Y-119278400D01*
X81078641Y-119278408D01*
X81034837Y-119281597D01*
X81013944Y-119292712D01*
X81012925Y-119316499D01*
X81028741Y-119357704D01*
X81057815Y-119419914D01*
X81081963Y-119465659D01*
X81102913Y-119489187D01*
X81125747Y-119496104D01*
X81126877Y-119496114D01*
X81166212Y-119484701D01*
X81187462Y-119450908D01*
X81190539Y-119399191D01*
X81190006Y-119361939D01*
X81200735Y-119342297D01*
X81226505Y-119330048D01*
X81259337Y-119322998D01*
X81277966Y-119333158D01*
X81280632Y-119336983D01*
X81291340Y-119372999D01*
X81292856Y-119423434D01*
X81285759Y-119475374D01*
X81272788Y-119512178D01*
X81229585Y-119563062D01*
X81169446Y-119591986D01*
X81122462Y-119597714D01*
X81080082Y-119593343D01*
X81045488Y-119577525D01*
X81014763Y-119546203D01*
X80983990Y-119495322D01*
X80949252Y-119420824D01*
X80947288Y-119416286D01*
X80916287Y-119349179D01*
X80890862Y-119307768D01*
X80868014Y-119290019D01*
X80844745Y-119293893D01*
X80818056Y-119317357D01*
X80811914Y-119324373D01*
X80788100Y-119371370D01*
X80789103Y-119420067D01*
X80812451Y-119462478D01*
X80855675Y-119490616D01*
X80864160Y-119493231D01*
X80905308Y-119518692D01*
X80925128Y-119550999D01*
X80944770Y-119597714D01*
X80893950Y-119597714D01*
X80820082Y-119583504D01*
X80752327Y-119541325D01*
X80729661Y-119519376D01*
X80700569Y-119469483D01*
X80687400Y-119406033D01*
X80690968Y-119340256D01*
G36*
X80689755Y-118850074D02*
G01*
X80714084Y-118784142D01*
X80757117Y-118730727D01*
X80787409Y-118709836D01*
X80842994Y-118687061D01*
X80883186Y-118687534D01*
X80910217Y-118711438D01*
X80914813Y-118720283D01*
X80929144Y-118758470D01*
X80925472Y-118777972D01*
X80901407Y-118784578D01*
X80888114Y-118784914D01*
X80839210Y-118797008D01*
X80804999Y-118828529D01*
X80788476Y-118872341D01*
X80792634Y-118921305D01*
X80814227Y-118961106D01*
X80826544Y-118974550D01*
X80841487Y-118984079D01*
X80864075Y-118990515D01*
X80899328Y-118994683D01*
X80952266Y-118997403D01*
X81027907Y-118999498D01*
X81051857Y-119000040D01*
X81133790Y-119002019D01*
X81191455Y-119004269D01*
X81229608Y-119007643D01*
X81253004Y-119012994D01*
X81266398Y-119021176D01*
X81274545Y-119033041D01*
X81278144Y-119040638D01*
X81290452Y-119072898D01*
X81294514Y-119091889D01*
X81280948Y-119098164D01*
X81239934Y-119101994D01*
X81170999Y-119103400D01*
X81073669Y-119102402D01*
X81058657Y-119102092D01*
X80969859Y-119099899D01*
X80905019Y-119097307D01*
X80859067Y-119093618D01*
X80826935Y-119088136D01*
X80803553Y-119080165D01*
X80783852Y-119069007D01*
X80775410Y-119063170D01*
X80738057Y-119029704D01*
X80709003Y-118992273D01*
X80706467Y-118987691D01*
X80686443Y-118920574D01*
X80689755Y-118850074D01*
G37*
X80689755Y-118850074D02*
X80714084Y-118784142D01*
X80757117Y-118730727D01*
X80787409Y-118709836D01*
X80842994Y-118687061D01*
X80883186Y-118687534D01*
X80910217Y-118711438D01*
X80914813Y-118720283D01*
X80929144Y-118758470D01*
X80925472Y-118777972D01*
X80901407Y-118784578D01*
X80888114Y-118784914D01*
X80839210Y-118797008D01*
X80804999Y-118828529D01*
X80788476Y-118872341D01*
X80792634Y-118921305D01*
X80814227Y-118961106D01*
X80826544Y-118974550D01*
X80841487Y-118984079D01*
X80864075Y-118990515D01*
X80899328Y-118994683D01*
X80952266Y-118997403D01*
X81027907Y-118999498D01*
X81051857Y-119000040D01*
X81133790Y-119002019D01*
X81191455Y-119004269D01*
X81229608Y-119007643D01*
X81253004Y-119012994D01*
X81266398Y-119021176D01*
X81274545Y-119033041D01*
X81278144Y-119040638D01*
X81290452Y-119072898D01*
X81294514Y-119091889D01*
X81280948Y-119098164D01*
X81239934Y-119101994D01*
X81170999Y-119103400D01*
X81073669Y-119102402D01*
X81058657Y-119102092D01*
X80969859Y-119099899D01*
X80905019Y-119097307D01*
X80859067Y-119093618D01*
X80826935Y-119088136D01*
X80803553Y-119080165D01*
X80783852Y-119069007D01*
X80775410Y-119063170D01*
X80738057Y-119029704D01*
X80709003Y-118992273D01*
X80706467Y-118987691D01*
X80686443Y-118920574D01*
X80689755Y-118850074D01*
G36*
X80805358Y-118189883D02*
G01*
X80913837Y-118190067D01*
X80997287Y-118190781D01*
X81059704Y-118192325D01*
X81105085Y-118194999D01*
X81137429Y-118199106D01*
X81160733Y-118204945D01*
X81178995Y-118212818D01*
X81189418Y-118218779D01*
X81245945Y-118268145D01*
X81281377Y-118330736D01*
X81294090Y-118399987D01*
X81282463Y-118469332D01*
X81261568Y-118510625D01*
X81225422Y-118553975D01*
X81181276Y-118583519D01*
X81123462Y-118601345D01*
X81046313Y-118609537D01*
X80989714Y-118610698D01*
X80985647Y-118610542D01*
X80985647Y-118509143D01*
X81050550Y-118508524D01*
X81093514Y-118505686D01*
X81121622Y-118499160D01*
X81141953Y-118487477D01*
X81157288Y-118473517D01*
X81186890Y-118426635D01*
X81189419Y-118376299D01*
X81164705Y-118328724D01*
X81161356Y-118325021D01*
X81143935Y-118309217D01*
X81123209Y-118299307D01*
X81092362Y-118293942D01*
X81044577Y-118291772D01*
X80991748Y-118291429D01*
X80925381Y-118292173D01*
X80881106Y-118295252D01*
X80852009Y-118301939D01*
X80831173Y-118313504D01*
X80820107Y-118322987D01*
X80792198Y-118367040D01*
X80788843Y-118417776D01*
X80810159Y-118466204D01*
X80818073Y-118475550D01*
X80835647Y-118491460D01*
X80856587Y-118501390D01*
X80887782Y-118506722D01*
X80936122Y-118508837D01*
X80985647Y-118509143D01*
X80985647Y-118610542D01*
X80898568Y-118607190D01*
X80830086Y-118595274D01*
X80778600Y-118572865D01*
X80738443Y-118537876D01*
X80717861Y-118510625D01*
X80695625Y-118461093D01*
X80685304Y-118403684D01*
X80688067Y-118350318D01*
X80699212Y-118320457D01*
X80702383Y-118308739D01*
X80690557Y-118300963D01*
X80658866Y-118295535D01*
X80610593Y-118291429D01*
X80556829Y-118286933D01*
X80524482Y-118280687D01*
X80505985Y-118269324D01*
X80493770Y-118249472D01*
X80488362Y-118237000D01*
X80468601Y-118189829D01*
X80805358Y-118189883D01*
G37*
X80805358Y-118189883D02*
X80913837Y-118190067D01*
X80997287Y-118190781D01*
X81059704Y-118192325D01*
X81105085Y-118194999D01*
X81137429Y-118199106D01*
X81160733Y-118204945D01*
X81178995Y-118212818D01*
X81189418Y-118218779D01*
X81245945Y-118268145D01*
X81281377Y-118330736D01*
X81294090Y-118399987D01*
X81282463Y-118469332D01*
X81261568Y-118510625D01*
X81225422Y-118553975D01*
X81181276Y-118583519D01*
X81123462Y-118601345D01*
X81046313Y-118609537D01*
X80989714Y-118610698D01*
X80985647Y-118610542D01*
X80985647Y-118509143D01*
X81050550Y-118508524D01*
X81093514Y-118505686D01*
X81121622Y-118499160D01*
X81141953Y-118487477D01*
X81157288Y-118473517D01*
X81186890Y-118426635D01*
X81189419Y-118376299D01*
X81164705Y-118328724D01*
X81161356Y-118325021D01*
X81143935Y-118309217D01*
X81123209Y-118299307D01*
X81092362Y-118293942D01*
X81044577Y-118291772D01*
X80991748Y-118291429D01*
X80925381Y-118292173D01*
X80881106Y-118295252D01*
X80852009Y-118301939D01*
X80831173Y-118313504D01*
X80820107Y-118322987D01*
X80792198Y-118367040D01*
X80788843Y-118417776D01*
X80810159Y-118466204D01*
X80818073Y-118475550D01*
X80835647Y-118491460D01*
X80856587Y-118501390D01*
X80887782Y-118506722D01*
X80936122Y-118508837D01*
X80985647Y-118509143D01*
X80985647Y-118610542D01*
X80898568Y-118607190D01*
X80830086Y-118595274D01*
X80778600Y-118572865D01*
X80738443Y-118537876D01*
X80717861Y-118510625D01*
X80695625Y-118461093D01*
X80685304Y-118403684D01*
X80688067Y-118350318D01*
X80699212Y-118320457D01*
X80702383Y-118308739D01*
X80690557Y-118300963D01*
X80658866Y-118295535D01*
X80610593Y-118291429D01*
X80556829Y-118286933D01*
X80524482Y-118280687D01*
X80505985Y-118269324D01*
X80493770Y-118249472D01*
X80488362Y-118237000D01*
X80468601Y-118189829D01*
X80805358Y-118189883D01*
G36*
X80698663Y-117600167D02*
G01*
X80736850Y-117597952D01*
X80794886Y-117596216D01*
X80868180Y-117595101D01*
X80945055Y-117594743D01*
X81205196Y-117594743D01*
X81251127Y-117640674D01*
X81279429Y-117672325D01*
X81290893Y-117700110D01*
X81290168Y-117738085D01*
X81288321Y-117753160D01*
X81282948Y-117800274D01*
X81279869Y-117839244D01*
X81279585Y-117848743D01*
X81281445Y-117880767D01*
X81286114Y-117926568D01*
X81288321Y-117944326D01*
X81291735Y-117987943D01*
X81284320Y-118017255D01*
X81261427Y-118046320D01*
X81251127Y-118056812D01*
X81205196Y-118102743D01*
X80718602Y-118102743D01*
X80701758Y-118065774D01*
X80689282Y-118033941D01*
X80684914Y-118015317D01*
X80698718Y-118010542D01*
X80737286Y-118006079D01*
X80796356Y-118002225D01*
X80871663Y-117999278D01*
X80935286Y-117997857D01*
X81185657Y-117993886D01*
X81190556Y-117959241D01*
X81187131Y-117927732D01*
X81176041Y-117912292D01*
X81155308Y-117907977D01*
X81111145Y-117904292D01*
X81049146Y-117901531D01*
X80974909Y-117899988D01*
X80936706Y-117899765D01*
X80716783Y-117899543D01*
X80700849Y-117853834D01*
X80690015Y-117821482D01*
X80684962Y-117803885D01*
X80684914Y-117803377D01*
X80698648Y-117801612D01*
X80736730Y-117799671D01*
X80794482Y-117797718D01*
X80867227Y-117795916D01*
X80935286Y-117794657D01*
X81185657Y-117790686D01*
X81185657Y-117703600D01*
X80957240Y-117699604D01*
X80728822Y-117695608D01*
X80706868Y-117653153D01*
X80691793Y-117621808D01*
X80684951Y-117603256D01*
X80684914Y-117602721D01*
X80698663Y-117600167D01*
G37*
X80698663Y-117600167D02*
X80736850Y-117597952D01*
X80794886Y-117596216D01*
X80868180Y-117595101D01*
X80945055Y-117594743D01*
X81205196Y-117594743D01*
X81251127Y-117640674D01*
X81279429Y-117672325D01*
X81290893Y-117700110D01*
X81290168Y-117738085D01*
X81288321Y-117753160D01*
X81282948Y-117800274D01*
X81279869Y-117839244D01*
X81279585Y-117848743D01*
X81281445Y-117880767D01*
X81286114Y-117926568D01*
X81288321Y-117944326D01*
X81291735Y-117987943D01*
X81284320Y-118017255D01*
X81261427Y-118046320D01*
X81251127Y-118056812D01*
X81205196Y-118102743D01*
X80718602Y-118102743D01*
X80701758Y-118065774D01*
X80689282Y-118033941D01*
X80684914Y-118015317D01*
X80698718Y-118010542D01*
X80737286Y-118006079D01*
X80796356Y-118002225D01*
X80871663Y-117999278D01*
X80935286Y-117997857D01*
X81185657Y-117993886D01*
X81190556Y-117959241D01*
X81187131Y-117927732D01*
X81176041Y-117912292D01*
X81155308Y-117907977D01*
X81111145Y-117904292D01*
X81049146Y-117901531D01*
X80974909Y-117899988D01*
X80936706Y-117899765D01*
X80716783Y-117899543D01*
X80700849Y-117853834D01*
X80690015Y-117821482D01*
X80684962Y-117803885D01*
X80684914Y-117803377D01*
X80698648Y-117801612D01*
X80736730Y-117799671D01*
X80794482Y-117797718D01*
X80867227Y-117795916D01*
X80935286Y-117794657D01*
X81185657Y-117790686D01*
X81185657Y-117703600D01*
X80957240Y-117699604D01*
X80728822Y-117695608D01*
X80706868Y-117653153D01*
X80691793Y-117621808D01*
X80684951Y-117603256D01*
X80684914Y-117602721D01*
X80698663Y-117600167D01*
G36*
X80696335Y-117235124D02*
G01*
X80715344Y-117193333D01*
X80738378Y-117160531D01*
X80764133Y-117136497D01*
X80797358Y-117119903D01*
X80842800Y-117109423D01*
X80905207Y-117103729D01*
X80989327Y-117101493D01*
X81044721Y-117101257D01*
X81260826Y-117101257D01*
X81277670Y-117138226D01*
X81289981Y-117167344D01*
X81294514Y-117181769D01*
X81281025Y-117184528D01*
X81244653Y-117186718D01*
X81191542Y-117188058D01*
X81149372Y-117188343D01*
X81088447Y-117189566D01*
X81040115Y-117192864D01*
X81010518Y-117197679D01*
X81004229Y-117201504D01*
X81010652Y-117227217D01*
X81027125Y-117267582D01*
X81049458Y-117314321D01*
X81073457Y-117359155D01*
X81094930Y-117393807D01*
X81109685Y-117409998D01*
X81109845Y-117410062D01*
X81137152Y-117408670D01*
X81163219Y-117396182D01*
X81184392Y-117374257D01*
X81191474Y-117342257D01*
X81190649Y-117314908D01*
X81190042Y-117276174D01*
X81199116Y-117255842D01*
X81223092Y-117243631D01*
X81227613Y-117242091D01*
X81261806Y-117236797D01*
X81282568Y-117250953D01*
X81292462Y-117287852D01*
X81294292Y-117327711D01*
X81280727Y-117399438D01*
X81261355Y-117436568D01*
X81215845Y-117482424D01*
X81159983Y-117506744D01*
X81100957Y-117508927D01*
X81045953Y-117488371D01*
X81011486Y-117457451D01*
X80992189Y-117426580D01*
X80967759Y-117378058D01*
X80942985Y-117321515D01*
X80939199Y-117312090D01*
X80911791Y-117249981D01*
X80887634Y-117214178D01*
X80863619Y-117202663D01*
X80836635Y-117213420D01*
X80815543Y-117231886D01*
X80789572Y-117275531D01*
X80787624Y-117323554D01*
X80807637Y-117367594D01*
X80847551Y-117399291D01*
X80857848Y-117403451D01*
X80895724Y-117427673D01*
X80923842Y-117463035D01*
X80946917Y-117507657D01*
X80881485Y-117507657D01*
X80841506Y-117505031D01*
X80809997Y-117493770D01*
X80776378Y-117468801D01*
X80750484Y-117444831D01*
X80713817Y-117407559D01*
X80694121Y-117378599D01*
X80686220Y-117347495D01*
X80684914Y-117312287D01*
X80696335Y-117235124D01*
G37*
X80696335Y-117235124D02*
X80715344Y-117193333D01*
X80738378Y-117160531D01*
X80764133Y-117136497D01*
X80797358Y-117119903D01*
X80842800Y-117109423D01*
X80905207Y-117103729D01*
X80989327Y-117101493D01*
X81044721Y-117101257D01*
X81260826Y-117101257D01*
X81277670Y-117138226D01*
X81289981Y-117167344D01*
X81294514Y-117181769D01*
X81281025Y-117184528D01*
X81244653Y-117186718D01*
X81191542Y-117188058D01*
X81149372Y-117188343D01*
X81088447Y-117189566D01*
X81040115Y-117192864D01*
X81010518Y-117197679D01*
X81004229Y-117201504D01*
X81010652Y-117227217D01*
X81027125Y-117267582D01*
X81049458Y-117314321D01*
X81073457Y-117359155D01*
X81094930Y-117393807D01*
X81109685Y-117409998D01*
X81109845Y-117410062D01*
X81137152Y-117408670D01*
X81163219Y-117396182D01*
X81184392Y-117374257D01*
X81191474Y-117342257D01*
X81190649Y-117314908D01*
X81190042Y-117276174D01*
X81199116Y-117255842D01*
X81223092Y-117243631D01*
X81227613Y-117242091D01*
X81261806Y-117236797D01*
X81282568Y-117250953D01*
X81292462Y-117287852D01*
X81294292Y-117327711D01*
X81280727Y-117399438D01*
X81261355Y-117436568D01*
X81215845Y-117482424D01*
X81159983Y-117506744D01*
X81100957Y-117508927D01*
X81045953Y-117488371D01*
X81011486Y-117457451D01*
X80992189Y-117426580D01*
X80967759Y-117378058D01*
X80942985Y-117321515D01*
X80939199Y-117312090D01*
X80911791Y-117249981D01*
X80887634Y-117214178D01*
X80863619Y-117202663D01*
X80836635Y-117213420D01*
X80815543Y-117231886D01*
X80789572Y-117275531D01*
X80787624Y-117323554D01*
X80807637Y-117367594D01*
X80847551Y-117399291D01*
X80857848Y-117403451D01*
X80895724Y-117427673D01*
X80923842Y-117463035D01*
X80946917Y-117507657D01*
X80881485Y-117507657D01*
X80841506Y-117505031D01*
X80809997Y-117493770D01*
X80776378Y-117468801D01*
X80750484Y-117444831D01*
X80713817Y-117407559D01*
X80694121Y-117378599D01*
X80686220Y-117347495D01*
X80684914Y-117312287D01*
X80696335Y-117235124D01*
G36*
X80698752Y-116727400D02*
G01*
X80706334Y-116710052D01*
X80739128Y-116668644D01*
X80786547Y-116633235D01*
X80837151Y-116611336D01*
X80862098Y-116607771D01*
X80896927Y-116619721D01*
X80915357Y-116645933D01*
X80926516Y-116674036D01*
X80928572Y-116686905D01*
X80913649Y-116693171D01*
X80881175Y-116705544D01*
X80866502Y-116710972D01*
X80815744Y-116741410D01*
X80790427Y-116785480D01*
X80791206Y-116841990D01*
X80792203Y-116846175D01*
X80806507Y-116876345D01*
X80834393Y-116898524D01*
X80879287Y-116913673D01*
X80944615Y-116922750D01*
X81033804Y-116926714D01*
X81081261Y-116927086D01*
X81156071Y-116927270D01*
X81207069Y-116928478D01*
X81239471Y-116931691D01*
X81258495Y-116937891D01*
X81269356Y-116948060D01*
X81277272Y-116963181D01*
X81277670Y-116964054D01*
X81289981Y-116993172D01*
X81294514Y-117007597D01*
X81280809Y-117009814D01*
X81242925Y-117011711D01*
X81185715Y-117013153D01*
X81114027Y-117014002D01*
X81061565Y-117014171D01*
X80960047Y-117013308D01*
X80883032Y-117009930D01*
X80826023Y-117002858D01*
X80784526Y-116990912D01*
X80754043Y-116972910D01*
X80730080Y-116947673D01*
X80713355Y-116922753D01*
X80691097Y-116862829D01*
X80686076Y-116793089D01*
X80698752Y-116727400D01*
G37*
X80698752Y-116727400D02*
X80706334Y-116710052D01*
X80739128Y-116668644D01*
X80786547Y-116633235D01*
X80837151Y-116611336D01*
X80862098Y-116607771D01*
X80896927Y-116619721D01*
X80915357Y-116645933D01*
X80926516Y-116674036D01*
X80928572Y-116686905D01*
X80913649Y-116693171D01*
X80881175Y-116705544D01*
X80866502Y-116710972D01*
X80815744Y-116741410D01*
X80790427Y-116785480D01*
X80791206Y-116841990D01*
X80792203Y-116846175D01*
X80806507Y-116876345D01*
X80834393Y-116898524D01*
X80879287Y-116913673D01*
X80944615Y-116922750D01*
X81033804Y-116926714D01*
X81081261Y-116927086D01*
X81156071Y-116927270D01*
X81207069Y-116928478D01*
X81239471Y-116931691D01*
X81258495Y-116937891D01*
X81269356Y-116948060D01*
X81277272Y-116963181D01*
X81277670Y-116964054D01*
X81289981Y-116993172D01*
X81294514Y-117007597D01*
X81280809Y-117009814D01*
X81242925Y-117011711D01*
X81185715Y-117013153D01*
X81114027Y-117014002D01*
X81061565Y-117014171D01*
X80960047Y-117013308D01*
X80883032Y-117009930D01*
X80826023Y-117002858D01*
X80784526Y-116990912D01*
X80754043Y-116972910D01*
X80730080Y-116947673D01*
X80713355Y-116922753D01*
X80691097Y-116862829D01*
X80686076Y-116793089D01*
X80698752Y-116727400D01*
G36*
X80706966Y-116226405D02*
G01*
X80744497Y-116168979D01*
X80778096Y-116141281D01*
X80839064Y-116119338D01*
X80887308Y-116117595D01*
X80951816Y-116121543D01*
X81016934Y-116270314D01*
X81050202Y-116342651D01*
X81076964Y-116389916D01*
X81100144Y-116414493D01*
X81122667Y-116418763D01*
X81147455Y-116405111D01*
X81163886Y-116390057D01*
X81190235Y-116346254D01*
X81192081Y-116298611D01*
X81171546Y-116254855D01*
X81130752Y-116222711D01*
X81116347Y-116216962D01*
X81071356Y-116189424D01*
X81052182Y-116157742D01*
X81035779Y-116114286D01*
X81097966Y-116114286D01*
X81140283Y-116118128D01*
X81175969Y-116133177D01*
X81216943Y-116164720D01*
X81222267Y-116169408D01*
X81258720Y-116204494D01*
X81278283Y-116234653D01*
X81287283Y-116272385D01*
X81290230Y-116303665D01*
X81290965Y-116359615D01*
X81281660Y-116399445D01*
X81267846Y-116424292D01*
X81237467Y-116463344D01*
X81204613Y-116490375D01*
X81163294Y-116507483D01*
X81107521Y-116516762D01*
X81031305Y-116520307D01*
X80992622Y-116520590D01*
X80946247Y-116519628D01*
X80946247Y-116431993D01*
X80971126Y-116430977D01*
X80975200Y-116428444D01*
X80969665Y-116411726D01*
X80955017Y-116375751D01*
X80934190Y-116327669D01*
X80929714Y-116317614D01*
X80898814Y-116256848D01*
X80871657Y-116223368D01*
X80846220Y-116216010D01*
X80820481Y-116233609D01*
X80809109Y-116248144D01*
X80786364Y-116300590D01*
X80790122Y-116349678D01*
X80817884Y-116390773D01*
X80867152Y-116419242D01*
X80906257Y-116428369D01*
X80946247Y-116431993D01*
X80946247Y-116519628D01*
X80902249Y-116518715D01*
X80835384Y-116511804D01*
X80786695Y-116498116D01*
X80750849Y-116475904D01*
X80722513Y-116443426D01*
X80713355Y-116429267D01*
X80689507Y-116364947D01*
X80688006Y-116294527D01*
X80706966Y-116226405D01*
G37*
X80706966Y-116226405D02*
X80744497Y-116168979D01*
X80778096Y-116141281D01*
X80839064Y-116119338D01*
X80887308Y-116117595D01*
X80951816Y-116121543D01*
X81016934Y-116270314D01*
X81050202Y-116342651D01*
X81076964Y-116389916D01*
X81100144Y-116414493D01*
X81122667Y-116418763D01*
X81147455Y-116405111D01*
X81163886Y-116390057D01*
X81190235Y-116346254D01*
X81192081Y-116298611D01*
X81171546Y-116254855D01*
X81130752Y-116222711D01*
X81116347Y-116216962D01*
X81071356Y-116189424D01*
X81052182Y-116157742D01*
X81035779Y-116114286D01*
X81097966Y-116114286D01*
X81140283Y-116118128D01*
X81175969Y-116133177D01*
X81216943Y-116164720D01*
X81222267Y-116169408D01*
X81258720Y-116204494D01*
X81278283Y-116234653D01*
X81287283Y-116272385D01*
X81290230Y-116303665D01*
X81290965Y-116359615D01*
X81281660Y-116399445D01*
X81267846Y-116424292D01*
X81237467Y-116463344D01*
X81204613Y-116490375D01*
X81163294Y-116507483D01*
X81107521Y-116516762D01*
X81031305Y-116520307D01*
X80992622Y-116520590D01*
X80946247Y-116519628D01*
X80946247Y-116431993D01*
X80971126Y-116430977D01*
X80975200Y-116428444D01*
X80969665Y-116411726D01*
X80955017Y-116375751D01*
X80934190Y-116327669D01*
X80929714Y-116317614D01*
X80898814Y-116256848D01*
X80871657Y-116223368D01*
X80846220Y-116216010D01*
X80820481Y-116233609D01*
X80809109Y-116248144D01*
X80786364Y-116300590D01*
X80790122Y-116349678D01*
X80817884Y-116390773D01*
X80867152Y-116419242D01*
X80906257Y-116428369D01*
X80946247Y-116431993D01*
X80946247Y-116519628D01*
X80902249Y-116518715D01*
X80835384Y-116511804D01*
X80786695Y-116498116D01*
X80750849Y-116475904D01*
X80722513Y-116443426D01*
X80713355Y-116429267D01*
X80689507Y-116364947D01*
X80688006Y-116294527D01*
X80706966Y-116226405D01*
G36*
X75982348Y-119276090D02*
G01*
X75982778Y-119197546D01*
X75983942Y-119140702D01*
X75986207Y-119101895D01*
X75989940Y-119077462D01*
X75995506Y-119063738D01*
X76003273Y-119057060D01*
X76013605Y-119053764D01*
X76014943Y-119053444D01*
X76039079Y-119048438D01*
X76086701Y-119039171D01*
X76152741Y-119026608D01*
X76232128Y-119011713D01*
X76319796Y-118995449D01*
X76322875Y-118994881D01*
X76408789Y-118978590D01*
X76484696Y-118963348D01*
X76546045Y-118950139D01*
X76588282Y-118939946D01*
X76606855Y-118933752D01*
X76607184Y-118933457D01*
X76616253Y-118915212D01*
X76631367Y-118877595D01*
X76649262Y-118828729D01*
X76649358Y-118828457D01*
X76672493Y-118766907D01*
X76701965Y-118694343D01*
X76731597Y-118625943D01*
X76733062Y-118622706D01*
X76783626Y-118511298D01*
X76615160Y-118264601D01*
X76563803Y-118188923D01*
X76517889Y-118120369D01*
X76480030Y-118062912D01*
X76452837Y-118020524D01*
X76438921Y-117997175D01*
X76437889Y-117994958D01*
X76442484Y-117977990D01*
X76464655Y-117946299D01*
X76505447Y-117898648D01*
X76565905Y-117833802D01*
X76630227Y-117767603D01*
X76693612Y-117703786D01*
X76751451Y-117646671D01*
X76800175Y-117599695D01*
X76836210Y-117566297D01*
X76855984Y-117549915D01*
X76857002Y-117549306D01*
X76870572Y-117547495D01*
X76892733Y-117554317D01*
X76926478Y-117571460D01*
X76974800Y-117600607D01*
X77040692Y-117643445D01*
X77125517Y-117700552D01*
X77200177Y-117751234D01*
X77267140Y-117796539D01*
X77322516Y-117833850D01*
X77362420Y-117860548D01*
X77382962Y-117874015D01*
X77384356Y-117874863D01*
X77404038Y-117873219D01*
X77442293Y-117860755D01*
X77491889Y-117839952D01*
X77507728Y-117832538D01*
X77578290Y-117800186D01*
X77658353Y-117765672D01*
X77727629Y-117737635D01*
X77779045Y-117717432D01*
X77818119Y-117701385D01*
X77838541Y-117692112D01*
X77840114Y-117690959D01*
X77842721Y-117673904D01*
X77849863Y-117633702D01*
X77860523Y-117575698D01*
X77873685Y-117505237D01*
X77888333Y-117427665D01*
X77903449Y-117348328D01*
X77918018Y-117272569D01*
X77931022Y-117205736D01*
X77941445Y-117153172D01*
X77948270Y-117120224D01*
X77950199Y-117112143D01*
X77954962Y-117103795D01*
X77965718Y-117097494D01*
X77986098Y-117092955D01*
X78019734Y-117089896D01*
X78070255Y-117088033D01*
X78141292Y-117087082D01*
X78236476Y-117086760D01*
X78275492Y-117086743D01*
X78592799Y-117086743D01*
X78607839Y-117162943D01*
X78615995Y-117205337D01*
X78627899Y-117268600D01*
X78642116Y-117345038D01*
X78657210Y-117426957D01*
X78661355Y-117449600D01*
X78676053Y-117525194D01*
X78690505Y-117591047D01*
X78703375Y-117641634D01*
X78713322Y-117671426D01*
X78716287Y-117676388D01*
X78737283Y-117688574D01*
X78777967Y-117706047D01*
X78830322Y-117725423D01*
X78841600Y-117729266D01*
X78911523Y-117754661D01*
X78990418Y-117786183D01*
X79061266Y-117817031D01*
X79061595Y-117817183D01*
X79172733Y-117868553D01*
X79421253Y-117699601D01*
X79669772Y-117530648D01*
X79887058Y-117747571D01*
X79951726Y-117813181D01*
X80008733Y-117873021D01*
X80055033Y-117923733D01*
X80087584Y-117961954D01*
X80103343Y-117984325D01*
X80104343Y-117987534D01*
X80096469Y-118006374D01*
X80074578Y-118044820D01*
X80041267Y-118098670D01*
X79999131Y-118163724D01*
X79951943Y-118234060D01*
X79903810Y-118305445D01*
X79861928Y-118369092D01*
X79828871Y-118420959D01*
X79807218Y-118457005D01*
X79799543Y-118473133D01*
X79806037Y-118492811D01*
X79823150Y-118530125D01*
X79847326Y-118577379D01*
X79850013Y-118582388D01*
X79881927Y-118646023D01*
X79897579Y-118689659D01*
X79897745Y-118716798D01*
X79883204Y-118730943D01*
X79883000Y-118731025D01*
X79865779Y-118738095D01*
X79824899Y-118754958D01*
X79763525Y-118780305D01*
X79684819Y-118812829D01*
X79591947Y-118851222D01*
X79488072Y-118894178D01*
X79387502Y-118935778D01*
X79276516Y-118981496D01*
X79173703Y-119023474D01*
X79082215Y-119060452D01*
X79005201Y-119091173D01*
X78945815Y-119114378D01*
X78907209Y-119128810D01*
X78892800Y-119133257D01*
X78876272Y-119122104D01*
X78849930Y-119092931D01*
X78820887Y-119054029D01*
X78729039Y-118943243D01*
X78623759Y-118856649D01*
X78507266Y-118795284D01*
X78381776Y-118760185D01*
X78249507Y-118752392D01*
X78188457Y-118758057D01*
X78061795Y-118788922D01*
X77949941Y-118842080D01*
X77854001Y-118914233D01*
X77775076Y-119002083D01*
X77714270Y-119102335D01*
X77672687Y-119211690D01*
X77651428Y-119326853D01*
X77651599Y-119444525D01*
X77674301Y-119561410D01*
X77720638Y-119674211D01*
X77791713Y-119779631D01*
X77831911Y-119823632D01*
X77935129Y-119908021D01*
X78047925Y-119966778D01*
X78167010Y-120000296D01*
X78289095Y-120008965D01*
X78410893Y-119993177D01*
X78529116Y-119953322D01*
X78640475Y-119889793D01*
X78741684Y-119802979D01*
X78820887Y-119705971D01*
X78851162Y-119665563D01*
X78877219Y-119637018D01*
X78892825Y-119626743D01*
X78909843Y-119632123D01*
X78950500Y-119647425D01*
X79011642Y-119671388D01*
X79090119Y-119702756D01*
X79182780Y-119740268D01*
X79286472Y-119782667D01*
X79387526Y-119824337D01*
X79498607Y-119870310D01*
X79601541Y-119912893D01*
X79693165Y-119950779D01*
X79770316Y-119982660D01*
X79829831Y-120007229D01*
X79868544Y-120023180D01*
X79883000Y-120029090D01*
X79897685Y-120043052D01*
X79897642Y-120070060D01*
X79882099Y-120113587D01*
X79850284Y-120177110D01*
X79850013Y-120177612D01*
X79825323Y-120225440D01*
X79807338Y-120264103D01*
X79799614Y-120285905D01*
X79799543Y-120286867D01*
X79807378Y-120303279D01*
X79829165Y-120339513D01*
X79862328Y-120391526D01*
X79904291Y-120455275D01*
X79951943Y-120525940D01*
X80000191Y-120597884D01*
X80042151Y-120662726D01*
X80075227Y-120716265D01*
X80096821Y-120754303D01*
X80104343Y-120772467D01*
X80094457Y-120789192D01*
X80066826Y-120822820D01*
X80024495Y-120869990D01*
X79970505Y-120927342D01*
X79907899Y-120991516D01*
X79886983Y-121012503D01*
X79669623Y-121229501D01*
X79427220Y-121064332D01*
X79352781Y-121014136D01*
X79285972Y-120970081D01*
X79230665Y-120934638D01*
X79190729Y-120910281D01*
X79170036Y-120899478D01*
X79168563Y-120899162D01*
X79149058Y-120904857D01*
X79109822Y-120920174D01*
X79057430Y-120942463D01*
X79022355Y-120958107D01*
X78955201Y-120987359D01*
X78887358Y-121014906D01*
X78830034Y-121036263D01*
X78812572Y-121042065D01*
X78765938Y-121058548D01*
X78729905Y-121074660D01*
X78716287Y-121083510D01*
X78707952Y-121103040D01*
X78696137Y-121145666D01*
X78682181Y-121205855D01*
X78667422Y-121278078D01*
X78661355Y-121310400D01*
X78646273Y-121392478D01*
X78631669Y-121471205D01*
X78618980Y-121538891D01*
X78609642Y-121587840D01*
X78607839Y-121597057D01*
X78592799Y-121673257D01*
X78275492Y-121673257D01*
X78171154Y-121673086D01*
X78092213Y-121672384D01*
X78035038Y-121670866D01*
X77995999Y-121668251D01*
X77971465Y-121664254D01*
X77957805Y-121658591D01*
X77951389Y-121650980D01*
X77950199Y-121647857D01*
X77945980Y-121629022D01*
X77937562Y-121587412D01*
X77925961Y-121528370D01*
X77912195Y-121457243D01*
X77897280Y-121379375D01*
X77882232Y-121300113D01*
X77868069Y-121224802D01*
X77855806Y-121158787D01*
X77846461Y-121107413D01*
X77841050Y-121076025D01*
X77840114Y-121069041D01*
X77827596Y-121062715D01*
X77794246Y-121048710D01*
X77746377Y-121029645D01*
X77727629Y-121022366D01*
X77655195Y-120993004D01*
X77575170Y-120958429D01*
X77507728Y-120927463D01*
X77456159Y-120904677D01*
X77413785Y-120889518D01*
X77387834Y-120884458D01*
X77384356Y-120885264D01*
X77367936Y-120895959D01*
X77331417Y-120920380D01*
X77278687Y-120955905D01*
X77213635Y-120999913D01*
X77140151Y-121049783D01*
X77125645Y-121059644D01*
X77039704Y-121117508D01*
X76974261Y-121160044D01*
X76926304Y-121188946D01*
X76892820Y-121205910D01*
X76870795Y-121212633D01*
X76857217Y-121210810D01*
X76857131Y-121210764D01*
X76839297Y-121196414D01*
X76804817Y-121164677D01*
X76757268Y-121118990D01*
X76700222Y-121062796D01*
X76637255Y-120999532D01*
X76630227Y-120992398D01*
X76553020Y-120912670D01*
X76496330Y-120851143D01*
X76459110Y-120806579D01*
X76440315Y-120777743D01*
X76437889Y-120765042D01*
X76448471Y-120746506D01*
X76472916Y-120708039D01*
X76508612Y-120653614D01*
X76552947Y-120587202D01*
X76603311Y-120512775D01*
X76615160Y-120495399D01*
X76783626Y-120248703D01*
X76733062Y-120137294D01*
X76703595Y-120069543D01*
X76673959Y-119996817D01*
X76650330Y-119934297D01*
X76649358Y-119931543D01*
X76631457Y-119882640D01*
X76616320Y-119844943D01*
X76607210Y-119826575D01*
X76607184Y-119826544D01*
X76590717Y-119820715D01*
X76550219Y-119810808D01*
X76490242Y-119797805D01*
X76415340Y-119782691D01*
X76330064Y-119766448D01*
X76322875Y-119765119D01*
X76235014Y-119748825D01*
X76155260Y-119733867D01*
X76088681Y-119721209D01*
X76040347Y-119711814D01*
X76015325Y-119706646D01*
X76014943Y-119706556D01*
X76004299Y-119703411D01*
X75996262Y-119697296D01*
X75990467Y-119684547D01*
X75986547Y-119661500D01*
X75984135Y-119624491D01*
X75982865Y-119569856D01*
X75982371Y-119493933D01*
X75982286Y-119393056D01*
X75982286Y-119380000D01*
X75982348Y-119276090D01*
G37*
X75982348Y-119276090D02*
X75982778Y-119197546D01*
X75983942Y-119140702D01*
X75986207Y-119101895D01*
X75989940Y-119077462D01*
X75995506Y-119063738D01*
X76003273Y-119057060D01*
X76013605Y-119053764D01*
X76014943Y-119053444D01*
X76039079Y-119048438D01*
X76086701Y-119039171D01*
X76152741Y-119026608D01*
X76232128Y-119011713D01*
X76319796Y-118995449D01*
X76322875Y-118994881D01*
X76408789Y-118978590D01*
X76484696Y-118963348D01*
X76546045Y-118950139D01*
X76588282Y-118939946D01*
X76606855Y-118933752D01*
X76607184Y-118933457D01*
X76616253Y-118915212D01*
X76631367Y-118877595D01*
X76649262Y-118828729D01*
X76649358Y-118828457D01*
X76672493Y-118766907D01*
X76701965Y-118694343D01*
X76731597Y-118625943D01*
X76733062Y-118622706D01*
X76783626Y-118511298D01*
X76615160Y-118264601D01*
X76563803Y-118188923D01*
X76517889Y-118120369D01*
X76480030Y-118062912D01*
X76452837Y-118020524D01*
X76438921Y-117997175D01*
X76437889Y-117994958D01*
X76442484Y-117977990D01*
X76464655Y-117946299D01*
X76505447Y-117898648D01*
X76565905Y-117833802D01*
X76630227Y-117767603D01*
X76693612Y-117703786D01*
X76751451Y-117646671D01*
X76800175Y-117599695D01*
X76836210Y-117566297D01*
X76855984Y-117549915D01*
X76857002Y-117549306D01*
X76870572Y-117547495D01*
X76892733Y-117554317D01*
X76926478Y-117571460D01*
X76974800Y-117600607D01*
X77040692Y-117643445D01*
X77125517Y-117700552D01*
X77200177Y-117751234D01*
X77267140Y-117796539D01*
X77322516Y-117833850D01*
X77362420Y-117860548D01*
X77382962Y-117874015D01*
X77384356Y-117874863D01*
X77404038Y-117873219D01*
X77442293Y-117860755D01*
X77491889Y-117839952D01*
X77507728Y-117832538D01*
X77578290Y-117800186D01*
X77658353Y-117765672D01*
X77727629Y-117737635D01*
X77779045Y-117717432D01*
X77818119Y-117701385D01*
X77838541Y-117692112D01*
X77840114Y-117690959D01*
X77842721Y-117673904D01*
X77849863Y-117633702D01*
X77860523Y-117575698D01*
X77873685Y-117505237D01*
X77888333Y-117427665D01*
X77903449Y-117348328D01*
X77918018Y-117272569D01*
X77931022Y-117205736D01*
X77941445Y-117153172D01*
X77948270Y-117120224D01*
X77950199Y-117112143D01*
X77954962Y-117103795D01*
X77965718Y-117097494D01*
X77986098Y-117092955D01*
X78019734Y-117089896D01*
X78070255Y-117088033D01*
X78141292Y-117087082D01*
X78236476Y-117086760D01*
X78275492Y-117086743D01*
X78592799Y-117086743D01*
X78607839Y-117162943D01*
X78615995Y-117205337D01*
X78627899Y-117268600D01*
X78642116Y-117345038D01*
X78657210Y-117426957D01*
X78661355Y-117449600D01*
X78676053Y-117525194D01*
X78690505Y-117591047D01*
X78703375Y-117641634D01*
X78713322Y-117671426D01*
X78716287Y-117676388D01*
X78737283Y-117688574D01*
X78777967Y-117706047D01*
X78830322Y-117725423D01*
X78841600Y-117729266D01*
X78911523Y-117754661D01*
X78990418Y-117786183D01*
X79061266Y-117817031D01*
X79061595Y-117817183D01*
X79172733Y-117868553D01*
X79421253Y-117699601D01*
X79669772Y-117530648D01*
X79887058Y-117747571D01*
X79951726Y-117813181D01*
X80008733Y-117873021D01*
X80055033Y-117923733D01*
X80087584Y-117961954D01*
X80103343Y-117984325D01*
X80104343Y-117987534D01*
X80096469Y-118006374D01*
X80074578Y-118044820D01*
X80041267Y-118098670D01*
X79999131Y-118163724D01*
X79951943Y-118234060D01*
X79903810Y-118305445D01*
X79861928Y-118369092D01*
X79828871Y-118420959D01*
X79807218Y-118457005D01*
X79799543Y-118473133D01*
X79806037Y-118492811D01*
X79823150Y-118530125D01*
X79847326Y-118577379D01*
X79850013Y-118582388D01*
X79881927Y-118646023D01*
X79897579Y-118689659D01*
X79897745Y-118716798D01*
X79883204Y-118730943D01*
X79883000Y-118731025D01*
X79865779Y-118738095D01*
X79824899Y-118754958D01*
X79763525Y-118780305D01*
X79684819Y-118812829D01*
X79591947Y-118851222D01*
X79488072Y-118894178D01*
X79387502Y-118935778D01*
X79276516Y-118981496D01*
X79173703Y-119023474D01*
X79082215Y-119060452D01*
X79005201Y-119091173D01*
X78945815Y-119114378D01*
X78907209Y-119128810D01*
X78892800Y-119133257D01*
X78876272Y-119122104D01*
X78849930Y-119092931D01*
X78820887Y-119054029D01*
X78729039Y-118943243D01*
X78623759Y-118856649D01*
X78507266Y-118795284D01*
X78381776Y-118760185D01*
X78249507Y-118752392D01*
X78188457Y-118758057D01*
X78061795Y-118788922D01*
X77949941Y-118842080D01*
X77854001Y-118914233D01*
X77775076Y-119002083D01*
X77714270Y-119102335D01*
X77672687Y-119211690D01*
X77651428Y-119326853D01*
X77651599Y-119444525D01*
X77674301Y-119561410D01*
X77720638Y-119674211D01*
X77791713Y-119779631D01*
X77831911Y-119823632D01*
X77935129Y-119908021D01*
X78047925Y-119966778D01*
X78167010Y-120000296D01*
X78289095Y-120008965D01*
X78410893Y-119993177D01*
X78529116Y-119953322D01*
X78640475Y-119889793D01*
X78741684Y-119802979D01*
X78820887Y-119705971D01*
X78851162Y-119665563D01*
X78877219Y-119637018D01*
X78892825Y-119626743D01*
X78909843Y-119632123D01*
X78950500Y-119647425D01*
X79011642Y-119671388D01*
X79090119Y-119702756D01*
X79182780Y-119740268D01*
X79286472Y-119782667D01*
X79387526Y-119824337D01*
X79498607Y-119870310D01*
X79601541Y-119912893D01*
X79693165Y-119950779D01*
X79770316Y-119982660D01*
X79829831Y-120007229D01*
X79868544Y-120023180D01*
X79883000Y-120029090D01*
X79897685Y-120043052D01*
X79897642Y-120070060D01*
X79882099Y-120113587D01*
X79850284Y-120177110D01*
X79850013Y-120177612D01*
X79825323Y-120225440D01*
X79807338Y-120264103D01*
X79799614Y-120285905D01*
X79799543Y-120286867D01*
X79807378Y-120303279D01*
X79829165Y-120339513D01*
X79862328Y-120391526D01*
X79904291Y-120455275D01*
X79951943Y-120525940D01*
X80000191Y-120597884D01*
X80042151Y-120662726D01*
X80075227Y-120716265D01*
X80096821Y-120754303D01*
X80104343Y-120772467D01*
X80094457Y-120789192D01*
X80066826Y-120822820D01*
X80024495Y-120869990D01*
X79970505Y-120927342D01*
X79907899Y-120991516D01*
X79886983Y-121012503D01*
X79669623Y-121229501D01*
X79427220Y-121064332D01*
X79352781Y-121014136D01*
X79285972Y-120970081D01*
X79230665Y-120934638D01*
X79190729Y-120910281D01*
X79170036Y-120899478D01*
X79168563Y-120899162D01*
X79149058Y-120904857D01*
X79109822Y-120920174D01*
X79057430Y-120942463D01*
X79022355Y-120958107D01*
X78955201Y-120987359D01*
X78887358Y-121014906D01*
X78830034Y-121036263D01*
X78812572Y-121042065D01*
X78765938Y-121058548D01*
X78729905Y-121074660D01*
X78716287Y-121083510D01*
X78707952Y-121103040D01*
X78696137Y-121145666D01*
X78682181Y-121205855D01*
X78667422Y-121278078D01*
X78661355Y-121310400D01*
X78646273Y-121392478D01*
X78631669Y-121471205D01*
X78618980Y-121538891D01*
X78609642Y-121587840D01*
X78607839Y-121597057D01*
X78592799Y-121673257D01*
X78275492Y-121673257D01*
X78171154Y-121673086D01*
X78092213Y-121672384D01*
X78035038Y-121670866D01*
X77995999Y-121668251D01*
X77971465Y-121664254D01*
X77957805Y-121658591D01*
X77951389Y-121650980D01*
X77950199Y-121647857D01*
X77945980Y-121629022D01*
X77937562Y-121587412D01*
X77925961Y-121528370D01*
X77912195Y-121457243D01*
X77897280Y-121379375D01*
X77882232Y-121300113D01*
X77868069Y-121224802D01*
X77855806Y-121158787D01*
X77846461Y-121107413D01*
X77841050Y-121076025D01*
X77840114Y-121069041D01*
X77827596Y-121062715D01*
X77794246Y-121048710D01*
X77746377Y-121029645D01*
X77727629Y-121022366D01*
X77655195Y-120993004D01*
X77575170Y-120958429D01*
X77507728Y-120927463D01*
X77456159Y-120904677D01*
X77413785Y-120889518D01*
X77387834Y-120884458D01*
X77384356Y-120885264D01*
X77367936Y-120895959D01*
X77331417Y-120920380D01*
X77278687Y-120955905D01*
X77213635Y-120999913D01*
X77140151Y-121049783D01*
X77125645Y-121059644D01*
X77039704Y-121117508D01*
X76974261Y-121160044D01*
X76926304Y-121188946D01*
X76892820Y-121205910D01*
X76870795Y-121212633D01*
X76857217Y-121210810D01*
X76857131Y-121210764D01*
X76839297Y-121196414D01*
X76804817Y-121164677D01*
X76757268Y-121118990D01*
X76700222Y-121062796D01*
X76637255Y-120999532D01*
X76630227Y-120992398D01*
X76553020Y-120912670D01*
X76496330Y-120851143D01*
X76459110Y-120806579D01*
X76440315Y-120777743D01*
X76437889Y-120765042D01*
X76448471Y-120746506D01*
X76472916Y-120708039D01*
X76508612Y-120653614D01*
X76552947Y-120587202D01*
X76603311Y-120512775D01*
X76615160Y-120495399D01*
X76783626Y-120248703D01*
X76733062Y-120137294D01*
X76703595Y-120069543D01*
X76673959Y-119996817D01*
X76650330Y-119934297D01*
X76649358Y-119931543D01*
X76631457Y-119882640D01*
X76616320Y-119844943D01*
X76607210Y-119826575D01*
X76607184Y-119826544D01*
X76590717Y-119820715D01*
X76550219Y-119810808D01*
X76490242Y-119797805D01*
X76415340Y-119782691D01*
X76330064Y-119766448D01*
X76322875Y-119765119D01*
X76235014Y-119748825D01*
X76155260Y-119733867D01*
X76088681Y-119721209D01*
X76040347Y-119711814D01*
X76015325Y-119706646D01*
X76014943Y-119706556D01*
X76004299Y-119703411D01*
X75996262Y-119697296D01*
X75990467Y-119684547D01*
X75986547Y-119661500D01*
X75984135Y-119624491D01*
X75982865Y-119569856D01*
X75982371Y-119493933D01*
X75982286Y-119393056D01*
X75982286Y-119380000D01*
X75982348Y-119276090D01*
D12*
%TO.C,A2*%
X182880000Y-104140000D02*
X190500000Y-104140000D01*
X170180000Y-104140000D02*
X162560000Y-104140000D01*
X182880000Y-101600000D02*
X182880000Y-104140000D01*
X181610000Y-101600000D02*
X182880000Y-101600000D01*
X170180000Y-101600000D02*
X181610000Y-101600000D01*
X170180000Y-104140000D02*
X170180000Y-101600000D01*
X189175526Y-101917500D02*
G75*
G03*
X189175526Y-101917500I-898026J0D01*
G01*
X165680526Y-101917500D02*
G75*
G03*
X165680526Y-101917500I-898026J0D01*
G01*
X165680526Y-78105000D02*
G75*
G03*
X165680526Y-78105000I-898026J0D01*
G01*
X189175526Y-78105000D02*
G75*
G03*
X189175526Y-78105000I-898026J0D01*
G01*
X162560000Y-104140000D02*
X162560000Y-76200000D01*
X190500000Y-76200000D02*
X190500000Y-104140000D01*
X162560000Y-76200000D02*
X190500000Y-76200000D01*
D10*
%TO.C,SW1*%
X98980000Y-94590000D02*
X103480000Y-94590000D01*
X84480000Y-90090000D02*
X84480000Y-94590000D01*
X103480000Y-90090000D02*
X103480000Y-94590000D01*
X84480000Y-75590000D02*
X88980000Y-75590000D01*
X84480000Y-75590000D02*
X84480000Y-80090000D01*
X84480000Y-94590000D02*
X88980000Y-94590000D01*
X103480000Y-80090000D02*
X103480000Y-75590000D01*
X103480000Y-75590000D02*
X98980000Y-75590000D01*
X100980000Y-78090000D02*
X100980000Y-92090000D01*
X100980000Y-92090000D02*
X86980000Y-92090000D01*
X86980000Y-92090000D02*
X86980000Y-78090000D01*
X86980000Y-78090000D02*
X100980000Y-78090000D01*
D12*
%TO.C,SW2*%
X203240000Y-111140000D02*
X203240000Y-112140000D01*
X203740000Y-111640000D02*
X202740000Y-111640000D01*
X199740000Y-117740000D02*
X197340000Y-117740000D01*
X204540000Y-117740000D02*
X201940000Y-117740000D01*
X209140000Y-117740000D02*
X206740000Y-117740000D01*
X207340000Y-104440000D02*
X207040000Y-104140000D01*
X207340000Y-103840000D02*
X207340000Y-104440000D01*
X207040000Y-104140000D02*
X207340000Y-103840000D01*
X209140000Y-105540000D02*
X197340000Y-105540000D01*
X209140000Y-109640000D02*
X209140000Y-105540000D01*
X197340000Y-109640000D02*
X197340000Y-105540000D01*
X197340000Y-117740000D02*
X197340000Y-113640000D01*
X209140000Y-113640000D02*
X209140000Y-117740000D01*
X206240000Y-111640000D02*
G75*
G03*
X206240000Y-111640000I-3000000J0D01*
G01*
D10*
%TO.C,SW3*%
X112507000Y-102220000D02*
X126507000Y-102220000D01*
X112507000Y-116220000D02*
X112507000Y-102220000D01*
X126507000Y-116220000D02*
X112507000Y-116220000D01*
X126507000Y-102220000D02*
X126507000Y-116220000D01*
X129007000Y-99720000D02*
X124507000Y-99720000D01*
X129007000Y-104220000D02*
X129007000Y-99720000D01*
X110007000Y-118720000D02*
X114507000Y-118720000D01*
X110007000Y-99720000D02*
X110007000Y-104220000D01*
X110007000Y-99720000D02*
X114507000Y-99720000D01*
X129007000Y-114220000D02*
X129007000Y-118720000D01*
X110007000Y-114220000D02*
X110007000Y-118720000D01*
X124507000Y-118720000D02*
X129007000Y-118720000D01*
%TO.C,SW4*%
X86980000Y-101966000D02*
X100980000Y-101966000D01*
X86980000Y-115966000D02*
X86980000Y-101966000D01*
X100980000Y-115966000D02*
X86980000Y-115966000D01*
X100980000Y-101966000D02*
X100980000Y-115966000D01*
X103480000Y-99466000D02*
X98980000Y-99466000D01*
X103480000Y-103966000D02*
X103480000Y-99466000D01*
X84480000Y-118466000D02*
X88980000Y-118466000D01*
X84480000Y-99466000D02*
X84480000Y-103966000D01*
X84480000Y-99466000D02*
X88980000Y-99466000D01*
X103480000Y-113966000D02*
X103480000Y-118466000D01*
X84480000Y-113966000D02*
X84480000Y-118466000D01*
X98980000Y-118466000D02*
X103480000Y-118466000D01*
%TO.C,SW5*%
X149780000Y-94590000D02*
X154280000Y-94590000D01*
X135280000Y-90090000D02*
X135280000Y-94590000D01*
X154280000Y-90090000D02*
X154280000Y-94590000D01*
X135280000Y-75590000D02*
X139780000Y-75590000D01*
X135280000Y-75590000D02*
X135280000Y-80090000D01*
X135280000Y-94590000D02*
X139780000Y-94590000D01*
X154280000Y-80090000D02*
X154280000Y-75590000D01*
X154280000Y-75590000D02*
X149780000Y-75590000D01*
X151780000Y-78090000D02*
X151780000Y-92090000D01*
X151780000Y-92090000D02*
X137780000Y-92090000D01*
X137780000Y-92090000D02*
X137780000Y-78090000D01*
X137780000Y-78090000D02*
X151780000Y-78090000D01*
%TO.C,SW6*%
X112380000Y-78090000D02*
X126380000Y-78090000D01*
X112380000Y-92090000D02*
X112380000Y-78090000D01*
X126380000Y-92090000D02*
X112380000Y-92090000D01*
X126380000Y-78090000D02*
X126380000Y-92090000D01*
X128880000Y-75590000D02*
X124380000Y-75590000D01*
X128880000Y-80090000D02*
X128880000Y-75590000D01*
X109880000Y-94590000D02*
X114380000Y-94590000D01*
X109880000Y-75590000D02*
X109880000Y-80090000D01*
X109880000Y-75590000D02*
X114380000Y-75590000D01*
X128880000Y-90090000D02*
X128880000Y-94590000D01*
X109880000Y-90090000D02*
X109880000Y-94590000D01*
X124380000Y-94590000D02*
X128880000Y-94590000D01*
%TO.C,SW7*%
X150415000Y-118720000D02*
X154915000Y-118720000D01*
X135915000Y-114220000D02*
X135915000Y-118720000D01*
X154915000Y-114220000D02*
X154915000Y-118720000D01*
X135915000Y-99720000D02*
X140415000Y-99720000D01*
X135915000Y-99720000D02*
X135915000Y-104220000D01*
X135915000Y-118720000D02*
X140415000Y-118720000D01*
X154915000Y-104220000D02*
X154915000Y-99720000D01*
X154915000Y-99720000D02*
X150415000Y-99720000D01*
X152415000Y-102220000D02*
X152415000Y-116220000D01*
X152415000Y-116220000D02*
X138415000Y-116220000D01*
X138415000Y-116220000D02*
X138415000Y-102220000D01*
X138415000Y-102220000D02*
X152415000Y-102220000D01*
%TO.C,A2*%
X175815714Y-84621666D02*
X176291904Y-84621666D01*
X175720476Y-84907380D02*
X176053809Y-83907380D01*
X176387142Y-84907380D01*
X176672857Y-84002619D02*
X176720476Y-83955000D01*
X176815714Y-83907380D01*
X177053809Y-83907380D01*
X177149047Y-83955000D01*
X177196666Y-84002619D01*
X177244285Y-84097857D01*
X177244285Y-84193095D01*
X177196666Y-84335952D01*
X176625238Y-84907380D01*
X177244285Y-84907380D01*
%TO.C,SW1*%
X92646666Y-94384761D02*
X92789523Y-94432380D01*
X93027619Y-94432380D01*
X93122857Y-94384761D01*
X93170476Y-94337142D01*
X93218095Y-94241904D01*
X93218095Y-94146666D01*
X93170476Y-94051428D01*
X93122857Y-94003809D01*
X93027619Y-93956190D01*
X92837142Y-93908571D01*
X92741904Y-93860952D01*
X92694285Y-93813333D01*
X92646666Y-93718095D01*
X92646666Y-93622857D01*
X92694285Y-93527619D01*
X92741904Y-93480000D01*
X92837142Y-93432380D01*
X93075238Y-93432380D01*
X93218095Y-93480000D01*
X93551428Y-93432380D02*
X93789523Y-94432380D01*
X93980000Y-93718095D01*
X94170476Y-94432380D01*
X94408571Y-93432380D01*
X95313333Y-94432380D02*
X94741904Y-94432380D01*
X95027619Y-94432380D02*
X95027619Y-93432380D01*
X94932380Y-93575238D01*
X94837142Y-93670476D01*
X94741904Y-93718095D01*
%TO.C,SW2*%
X210844761Y-108273333D02*
X210892380Y-108130476D01*
X210892380Y-107892380D01*
X210844761Y-107797142D01*
X210797142Y-107749523D01*
X210701904Y-107701904D01*
X210606666Y-107701904D01*
X210511428Y-107749523D01*
X210463809Y-107797142D01*
X210416190Y-107892380D01*
X210368571Y-108082857D01*
X210320952Y-108178095D01*
X210273333Y-108225714D01*
X210178095Y-108273333D01*
X210082857Y-108273333D01*
X209987619Y-108225714D01*
X209940000Y-108178095D01*
X209892380Y-108082857D01*
X209892380Y-107844761D01*
X209940000Y-107701904D01*
X209892380Y-107368571D02*
X210892380Y-107130476D01*
X210178095Y-106940000D01*
X210892380Y-106749523D01*
X209892380Y-106511428D01*
X209987619Y-106178095D02*
X209940000Y-106130476D01*
X209892380Y-106035238D01*
X209892380Y-105797142D01*
X209940000Y-105701904D01*
X209987619Y-105654285D01*
X210082857Y-105606666D01*
X210178095Y-105606666D01*
X210320952Y-105654285D01*
X210892380Y-106225714D01*
X210892380Y-105606666D01*
%TO.C,SW3*%
X118173666Y-118514761D02*
X118316523Y-118562380D01*
X118554619Y-118562380D01*
X118649857Y-118514761D01*
X118697476Y-118467142D01*
X118745095Y-118371904D01*
X118745095Y-118276666D01*
X118697476Y-118181428D01*
X118649857Y-118133809D01*
X118554619Y-118086190D01*
X118364142Y-118038571D01*
X118268904Y-117990952D01*
X118221285Y-117943333D01*
X118173666Y-117848095D01*
X118173666Y-117752857D01*
X118221285Y-117657619D01*
X118268904Y-117610000D01*
X118364142Y-117562380D01*
X118602238Y-117562380D01*
X118745095Y-117610000D01*
X119078428Y-117562380D02*
X119316523Y-118562380D01*
X119507000Y-117848095D01*
X119697476Y-118562380D01*
X119935571Y-117562380D01*
X120221285Y-117562380D02*
X120840333Y-117562380D01*
X120507000Y-117943333D01*
X120649857Y-117943333D01*
X120745095Y-117990952D01*
X120792714Y-118038571D01*
X120840333Y-118133809D01*
X120840333Y-118371904D01*
X120792714Y-118467142D01*
X120745095Y-118514761D01*
X120649857Y-118562380D01*
X120364142Y-118562380D01*
X120268904Y-118514761D01*
X120221285Y-118467142D01*
%TO.C,SW4*%
X92646666Y-118260761D02*
X92789523Y-118308380D01*
X93027619Y-118308380D01*
X93122857Y-118260761D01*
X93170476Y-118213142D01*
X93218095Y-118117904D01*
X93218095Y-118022666D01*
X93170476Y-117927428D01*
X93122857Y-117879809D01*
X93027619Y-117832190D01*
X92837142Y-117784571D01*
X92741904Y-117736952D01*
X92694285Y-117689333D01*
X92646666Y-117594095D01*
X92646666Y-117498857D01*
X92694285Y-117403619D01*
X92741904Y-117356000D01*
X92837142Y-117308380D01*
X93075238Y-117308380D01*
X93218095Y-117356000D01*
X93551428Y-117308380D02*
X93789523Y-118308380D01*
X93980000Y-117594095D01*
X94170476Y-118308380D01*
X94408571Y-117308380D01*
X95218095Y-117641714D02*
X95218095Y-118308380D01*
X94980000Y-117260761D02*
X94741904Y-117975047D01*
X95360952Y-117975047D01*
%TO.C,SW5*%
X143446666Y-94384761D02*
X143589523Y-94432380D01*
X143827619Y-94432380D01*
X143922857Y-94384761D01*
X143970476Y-94337142D01*
X144018095Y-94241904D01*
X144018095Y-94146666D01*
X143970476Y-94051428D01*
X143922857Y-94003809D01*
X143827619Y-93956190D01*
X143637142Y-93908571D01*
X143541904Y-93860952D01*
X143494285Y-93813333D01*
X143446666Y-93718095D01*
X143446666Y-93622857D01*
X143494285Y-93527619D01*
X143541904Y-93480000D01*
X143637142Y-93432380D01*
X143875238Y-93432380D01*
X144018095Y-93480000D01*
X144351428Y-93432380D02*
X144589523Y-94432380D01*
X144780000Y-93718095D01*
X144970476Y-94432380D01*
X145208571Y-93432380D01*
X146065714Y-93432380D02*
X145589523Y-93432380D01*
X145541904Y-93908571D01*
X145589523Y-93860952D01*
X145684761Y-93813333D01*
X145922857Y-93813333D01*
X146018095Y-93860952D01*
X146065714Y-93908571D01*
X146113333Y-94003809D01*
X146113333Y-94241904D01*
X146065714Y-94337142D01*
X146018095Y-94384761D01*
X145922857Y-94432380D01*
X145684761Y-94432380D01*
X145589523Y-94384761D01*
X145541904Y-94337142D01*
%TO.C,SW6*%
X118046666Y-94384761D02*
X118189523Y-94432380D01*
X118427619Y-94432380D01*
X118522857Y-94384761D01*
X118570476Y-94337142D01*
X118618095Y-94241904D01*
X118618095Y-94146666D01*
X118570476Y-94051428D01*
X118522857Y-94003809D01*
X118427619Y-93956190D01*
X118237142Y-93908571D01*
X118141904Y-93860952D01*
X118094285Y-93813333D01*
X118046666Y-93718095D01*
X118046666Y-93622857D01*
X118094285Y-93527619D01*
X118141904Y-93480000D01*
X118237142Y-93432380D01*
X118475238Y-93432380D01*
X118618095Y-93480000D01*
X118951428Y-93432380D02*
X119189523Y-94432380D01*
X119380000Y-93718095D01*
X119570476Y-94432380D01*
X119808571Y-93432380D01*
X120618095Y-93432380D02*
X120427619Y-93432380D01*
X120332380Y-93480000D01*
X120284761Y-93527619D01*
X120189523Y-93670476D01*
X120141904Y-93860952D01*
X120141904Y-94241904D01*
X120189523Y-94337142D01*
X120237142Y-94384761D01*
X120332380Y-94432380D01*
X120522857Y-94432380D01*
X120618095Y-94384761D01*
X120665714Y-94337142D01*
X120713333Y-94241904D01*
X120713333Y-94003809D01*
X120665714Y-93908571D01*
X120618095Y-93860952D01*
X120522857Y-93813333D01*
X120332380Y-93813333D01*
X120237142Y-93860952D01*
X120189523Y-93908571D01*
X120141904Y-94003809D01*
%TO.C,SW7*%
X144081666Y-118514761D02*
X144224523Y-118562380D01*
X144462619Y-118562380D01*
X144557857Y-118514761D01*
X144605476Y-118467142D01*
X144653095Y-118371904D01*
X144653095Y-118276666D01*
X144605476Y-118181428D01*
X144557857Y-118133809D01*
X144462619Y-118086190D01*
X144272142Y-118038571D01*
X144176904Y-117990952D01*
X144129285Y-117943333D01*
X144081666Y-117848095D01*
X144081666Y-117752857D01*
X144129285Y-117657619D01*
X144176904Y-117610000D01*
X144272142Y-117562380D01*
X144510238Y-117562380D01*
X144653095Y-117610000D01*
X144986428Y-117562380D02*
X145224523Y-118562380D01*
X145415000Y-117848095D01*
X145605476Y-118562380D01*
X145843571Y-117562380D01*
X146129285Y-117562380D02*
X146795952Y-117562380D01*
X146367380Y-118562380D01*
%TD*%
M02*
