%TF.GenerationSoftware,KiCad,Pcbnew,(5.1.9-0-10_14)*%
%TF.CreationDate,2021-02-22T19:48:58+01:00*%
%TF.ProjectId,DMXBox PCB,444d5842-6f78-4205-9043-422e6b696361,0.1*%
%TF.SameCoordinates,Original*%
%TF.FileFunction,Copper,L1,Top*%
%TF.FilePolarity,Positive*%
%FSLAX46Y46*%
G04 Gerber Fmt 4.6, Leading zero omitted, Abs format (unit mm)*
G04 Created by KiCad (PCBNEW (5.1.9-0-10_14)) date 2021-02-22 19:48:58*
%MOMM*%
%LPD*%
G01*
G04 APERTURE LIST*
%TA.AperFunction,ComponentPad*%
%ADD10C,1.600000*%
%TD*%
%TA.AperFunction,ComponentPad*%
%ADD11R,1.600000X1.600000*%
%TD*%
%TA.AperFunction,ComponentPad*%
%ADD12R,2.000000X2.600000*%
%TD*%
%TA.AperFunction,ComponentPad*%
%ADD13R,2.600000X2.000000*%
%TD*%
%TA.AperFunction,ComponentPad*%
%ADD14C,1.524000*%
%TD*%
%TA.AperFunction,ComponentPad*%
%ADD15R,1.524000X1.524000*%
%TD*%
%TA.AperFunction,ComponentPad*%
%ADD16O,1.700000X1.950000*%
%TD*%
%TA.AperFunction,ComponentPad*%
%ADD17C,2.540000*%
%TD*%
%TA.AperFunction,ComponentPad*%
%ADD18C,2.000000*%
%TD*%
%TA.AperFunction,ComponentPad*%
%ADD19C,3.200000*%
%TD*%
%TA.AperFunction,ComponentPad*%
%ADD20R,2.000000X2.000000*%
%TD*%
%TA.AperFunction,ComponentPad*%
%ADD21R,2.000000X1.905000*%
%TD*%
%TA.AperFunction,ComponentPad*%
%ADD22O,2.000000X1.905000*%
%TD*%
%TA.AperFunction,ViaPad*%
%ADD23C,0.800000*%
%TD*%
%TA.AperFunction,Conductor*%
%ADD24C,0.400000*%
%TD*%
%TA.AperFunction,Conductor*%
%ADD25C,0.250000*%
%TD*%
%TA.AperFunction,Conductor*%
%ADD26C,0.254000*%
%TD*%
%TA.AperFunction,Conductor*%
%ADD27C,0.100000*%
%TD*%
G04 APERTURE END LIST*
D10*
%TO.P,U1,54*%
%TO.N,Net-(U1-Pad54)*%
X181610000Y-107950000D03*
%TO.P,U1,53*%
%TO.N,GND*%
X181610000Y-105410000D03*
%TO.P,U1,40*%
%TO.N,Net-(U1-Pad40)*%
X181380000Y-116840000D03*
%TO.P,U1,52*%
%TO.N,Net-(U1-Pad52)*%
X181610000Y-102870000D03*
%TO.P,U1,41*%
%TO.N,Net-(U1-Pad41)*%
X184150000Y-107950000D03*
%TO.P,U1,42*%
%TO.N,Net-(U1-Pad42)*%
X184150000Y-105410000D03*
%TO.P,U1,51*%
%TO.N,Net-(U1-Pad51)*%
X181610000Y-100330000D03*
%TO.P,U1,43*%
%TO.N,Net-(U1-Pad43)*%
X184150000Y-102870000D03*
%TO.P,U1,50*%
%TO.N,Net-(U1-Pad50)*%
X181610000Y-97790000D03*
%TO.P,U1,49*%
%TO.N,Net-(U1-Pad49)*%
X181610000Y-95250000D03*
%TO.P,U1,44*%
%TO.N,Net-(U1-Pad44)*%
X184150000Y-100330000D03*
%TO.P,U1,45*%
%TO.N,Net-(U1-Pad45)*%
X184150000Y-97790000D03*
%TO.P,U1,48*%
%TO.N,Net-(U1-Pad48)*%
X181610000Y-92710000D03*
%TO.P,U1,47*%
%TO.N,Net-(U1-Pad47)*%
X184150000Y-92710000D03*
%TO.P,U1,46*%
%TO.N,Net-(U1-Pad46)*%
X184150000Y-95250000D03*
%TO.P,U1,39*%
%TO.N,Net-(U1-Pad39)*%
X183510000Y-121920000D03*
%TO.P,U1,38*%
%TO.N,Net-(U1-Pad38)*%
X181380000Y-121920000D03*
D11*
%TO.P,U1,1*%
%TO.N,GND*%
X173990000Y-123190000D03*
D10*
%TO.P,U1,2*%
%TO.N,Net-(U1-Pad2)*%
X173990000Y-120650000D03*
%TO.P,U1,3*%
%TO.N,Net-(U1-Pad3)*%
X173990000Y-118110000D03*
%TO.P,U1,4*%
%TO.N,ENC-4A*%
X173990000Y-115570000D03*
%TO.P,U1,5*%
%TO.N,ENC-4B*%
X173990000Y-113030000D03*
%TO.P,U1,6*%
%TO.N,ENC-4Btn*%
X173990000Y-110490000D03*
%TO.P,U1,7*%
%TO.N,ENC-1A*%
X173990000Y-107950000D03*
%TO.P,U1,8*%
%TO.N,ENC-1B*%
X173990000Y-105410000D03*
%TO.P,U1,9*%
%TO.N,ENC-2B*%
X173990000Y-102870000D03*
%TO.P,U1,10*%
%TO.N,ENC-2A*%
X173990000Y-100330000D03*
%TO.P,U1,11*%
%TO.N,ENC-3B*%
X173990000Y-97790000D03*
%TO.P,U1,12*%
%TO.N,ENC-3A*%
X173990000Y-95250000D03*
%TO.P,U1,13*%
%TO.N,Btn_1_Min*%
X173990000Y-92710000D03*
%TO.P,U1,37*%
%TO.N,Net-(U1-Pad37)*%
X186690000Y-110490000D03*
%TO.P,U1,36*%
%TO.N,Net-(U1-Pad36)*%
X186690000Y-113030000D03*
%TO.P,U1,35*%
%TO.N,Net-(U1-Pad35)*%
X186690000Y-115570000D03*
%TO.P,U1,34*%
%TO.N,Net-(U1-Pad34)*%
X186690000Y-120650000D03*
%TO.P,U1,33*%
%TO.N,+5V*%
X189230000Y-123190000D03*
%TO.P,U1,32*%
%TO.N,Net-(U1-Pad32)*%
X189230000Y-120650000D03*
%TO.P,U1,31*%
%TO.N,Net-(U1-Pad31)*%
X189230000Y-118110000D03*
%TO.P,U1,30*%
%TO.N,Btn_3_Max*%
X189230000Y-115570000D03*
%TO.P,U1,29*%
%TO.N,Btn_3_Min*%
X189230000Y-113030000D03*
%TO.P,U1,28*%
%TO.N,Btn_2_Max*%
X189230000Y-110490000D03*
%TO.P,U1,27*%
%TO.N,Btn_2_Min*%
X189230000Y-107950000D03*
%TO.P,U1,26*%
%TO.N,SCL*%
X189230000Y-105410000D03*
%TO.P,U1,25*%
%TO.N,SDA*%
X189230000Y-102870000D03*
%TO.P,U1,24*%
%TO.N,Pin17*%
X189230000Y-100330000D03*
%TO.P,U1,23*%
%TO.N,Net-(U1-Pad23)*%
X189230000Y-97790000D03*
%TO.P,U1,22*%
%TO.N,Net-(U1-Pad22)*%
X189230000Y-95250000D03*
%TO.P,U1,21*%
%TO.N,Net-(U1-Pad21)*%
X189230000Y-92710000D03*
%TO.P,U1,14*%
%TO.N,Btn_1_Max*%
X173990000Y-90170000D03*
%TO.P,U1,15*%
%TO.N,Net-(U1-Pad15)*%
X176530000Y-90170000D03*
%TO.P,U1,16*%
%TO.N,Net-(U1-Pad16)*%
X179070000Y-90170000D03*
%TO.P,U1,20*%
%TO.N,Net-(U1-Pad20)*%
X189230000Y-90170000D03*
%TO.P,U1,19*%
%TO.N,Net-(U1-Pad19)*%
X186690000Y-90170000D03*
%TO.P,U1,18*%
%TO.N,Net-(U1-Pad18)*%
X184150000Y-90170000D03*
%TO.P,U1,17*%
%TO.N,GND*%
X181610000Y-90170000D03*
%TD*%
D12*
%TO.P,6-24V1,3*%
%TO.N,Net-(6-24V1-Pad3)*%
X80900000Y-80010000D03*
D13*
%TO.P,6-24V1,1*%
%TO.N,Net-(6-24V1-Pad1)*%
X76200000Y-83010000D03*
%TO.P,6-24V1,2*%
%TO.N,GND*%
X76200000Y-77010000D03*
%TD*%
D14*
%TO.P,A1,8*%
%TO.N,Net-(A1-Pad8)*%
X166370000Y-124460000D03*
%TO.P,A1,7*%
%TO.N,+5V*%
X163830000Y-124460000D03*
%TO.P,A1,6*%
X161290000Y-124460000D03*
%TO.P,A1,5*%
%TO.N,Pin17*%
X158750000Y-124460000D03*
D15*
%TO.P,A1,4*%
%TO.N,GND*%
X158750000Y-83820000D03*
D14*
%TO.P,A1,3*%
%TO.N,Net-(A1-Pad3)*%
X161290000Y-83820000D03*
%TO.P,A1,2*%
%TO.N,Net-(A1-Pad2)*%
X163830000Y-83820000D03*
%TO.P,A1,1*%
%TO.N,+5V*%
X166370000Y-83820000D03*
%TD*%
%TO.P,A2,1*%
%TO.N,GND*%
X172720000Y-77470000D03*
%TO.P,A2,2*%
%TO.N,+5V*%
X175260000Y-77470000D03*
%TO.P,A2,3*%
%TO.N,SCL*%
X177800000Y-77470000D03*
%TO.P,A2,4*%
%TO.N,SDA*%
X180340000Y-77470000D03*
%TD*%
D11*
%TO.P,C3,1*%
%TO.N,Net-(6-24V1-Pad1)*%
X80010000Y-87630000D03*
D10*
%TO.P,C3,2*%
%TO.N,GND*%
X80010000Y-90130000D03*
%TD*%
%TO.P,C4,2*%
%TO.N,GND*%
X80010000Y-94020000D03*
D11*
%TO.P,C4,1*%
%TO.N,+5V*%
X80010000Y-96520000D03*
%TD*%
%TO.P,J1,1*%
%TO.N,GND*%
%TA.AperFunction,ComponentPad*%
G36*
G01*
X117690000Y-123735000D02*
X117690000Y-125185000D01*
G75*
G02*
X117440000Y-125435000I-250000J0D01*
G01*
X116240000Y-125435000D01*
G75*
G02*
X115990000Y-125185000I0J250000D01*
G01*
X115990000Y-123735000D01*
G75*
G02*
X116240000Y-123485000I250000J0D01*
G01*
X117440000Y-123485000D01*
G75*
G02*
X117690000Y-123735000I0J-250000D01*
G01*
G37*
%TD.AperFunction*%
D16*
%TO.P,J1,2*%
X114340000Y-124460000D03*
%TO.P,J1,3*%
%TO.N,+5V*%
X111840000Y-124460000D03*
%TO.P,J1,4*%
%TO.N,ENC-2B*%
X109340000Y-124460000D03*
%TO.P,J1,5*%
%TO.N,ENC-2A*%
X106840000Y-124460000D03*
%TD*%
D14*
%TO.P,J2,2*%
%TO.N,Net-(A1-Pad2)*%
X128270000Y-96520000D03*
%TO.P,J2,1*%
%TO.N,GND*%
X135890000Y-96520000D03*
%TO.P,J2,3*%
%TO.N,Net-(A1-Pad3)*%
X132080000Y-100330000D03*
%TD*%
%TO.P,J3,1*%
%TO.N,GND*%
%TA.AperFunction,ComponentPad*%
G36*
G01*
X97370000Y-123735000D02*
X97370000Y-125185000D01*
G75*
G02*
X97120000Y-125435000I-250000J0D01*
G01*
X95920000Y-125435000D01*
G75*
G02*
X95670000Y-125185000I0J250000D01*
G01*
X95670000Y-123735000D01*
G75*
G02*
X95920000Y-123485000I250000J0D01*
G01*
X97120000Y-123485000D01*
G75*
G02*
X97370000Y-123735000I0J-250000D01*
G01*
G37*
%TD.AperFunction*%
D16*
%TO.P,J3,2*%
X94020000Y-124460000D03*
%TO.P,J3,3*%
%TO.N,+5V*%
X91520000Y-124460000D03*
%TO.P,J3,4*%
%TO.N,ENC-1B*%
X89020000Y-124460000D03*
%TO.P,J3,5*%
%TO.N,ENC-1A*%
X86520000Y-124460000D03*
%TD*%
%TO.P,J4,5*%
%TO.N,ENC-3A*%
X127675000Y-124460000D03*
%TO.P,J4,4*%
%TO.N,ENC-3B*%
X130175000Y-124460000D03*
%TO.P,J4,3*%
%TO.N,+5V*%
X132675000Y-124460000D03*
%TO.P,J4,2*%
%TO.N,GND*%
X135175000Y-124460000D03*
%TO.P,J4,1*%
%TA.AperFunction,ComponentPad*%
G36*
G01*
X138525000Y-123735000D02*
X138525000Y-125185000D01*
G75*
G02*
X138275000Y-125435000I-250000J0D01*
G01*
X137075000Y-125435000D01*
G75*
G02*
X136825000Y-125185000I0J250000D01*
G01*
X136825000Y-123735000D01*
G75*
G02*
X137075000Y-123485000I250000J0D01*
G01*
X138275000Y-123485000D01*
G75*
G02*
X138525000Y-123735000I0J-250000D01*
G01*
G37*
%TD.AperFunction*%
%TD*%
D17*
%TO.P,SW1,2*%
%TO.N,GND*%
X96520000Y-80010000D03*
%TO.P,SW1,1*%
%TO.N,Btn_1_Max*%
X90170000Y-82550000D03*
%TD*%
D18*
%TO.P,SW2,S1*%
%TO.N,GND*%
X200740000Y-118640000D03*
%TO.P,SW2,S2*%
%TO.N,ENC-4Btn*%
X205740000Y-118640000D03*
D19*
%TO.P,SW2,MP*%
%TO.N,N/C*%
X197640000Y-111640000D03*
X208840000Y-111640000D03*
D18*
%TO.P,SW2,B*%
%TO.N,ENC-4B*%
X200740000Y-104140000D03*
%TO.P,SW2,C*%
%TO.N,GND*%
X203240000Y-104140000D03*
D20*
%TO.P,SW2,A*%
%TO.N,ENC-4A*%
X205740000Y-104140000D03*
%TD*%
D17*
%TO.P,SW3,1*%
%TO.N,GND*%
X115697000Y-106680000D03*
%TO.P,SW3,2*%
%TO.N,Btn_2_Min*%
X122047000Y-104140000D03*
%TD*%
%TO.P,SW4,1*%
%TO.N,GND*%
X90170000Y-106426000D03*
%TO.P,SW4,2*%
%TO.N,Btn_1_Min*%
X96520000Y-103886000D03*
%TD*%
%TO.P,SW5,2*%
%TO.N,GND*%
X147320000Y-80010000D03*
%TO.P,SW5,1*%
%TO.N,Btn_3_Max*%
X140970000Y-82550000D03*
%TD*%
%TO.P,SW6,1*%
%TO.N,Btn_2_Max*%
X115570000Y-82550000D03*
%TO.P,SW6,2*%
%TO.N,GND*%
X121920000Y-80010000D03*
%TD*%
%TO.P,SW7,2*%
%TO.N,Btn_3_Min*%
X147955000Y-104140000D03*
%TO.P,SW7,1*%
%TO.N,GND*%
X141605000Y-106680000D03*
%TD*%
D21*
%TO.P,U2,1*%
%TO.N,Net-(6-24V1-Pad1)*%
X72390000Y-90170000D03*
D22*
%TO.P,U2,2*%
%TO.N,GND*%
X72390000Y-92710000D03*
%TO.P,U2,3*%
%TO.N,+5V*%
X72390000Y-95250000D03*
%TD*%
D23*
%TO.N,+5V*%
X202565000Y-93980000D03*
X128905000Y-115570000D03*
X108585000Y-115570000D03*
X87630000Y-115570000D03*
%TO.N,GND*%
X97663000Y-120269000D03*
X95504000Y-121793000D03*
X201168000Y-101600000D03*
X197866000Y-101600000D03*
%TO.N,ENC-2A*%
X151130000Y-112395000D03*
X156845000Y-112395000D03*
%TO.N,Btn_2_Min*%
X177800000Y-101600000D03*
%TO.N,Btn_2_Max*%
X193040000Y-81915000D03*
X193040000Y-88900000D03*
%TO.N,Btn_3_Min*%
X176530000Y-113030000D03*
%TO.N,ENC-2B*%
X151569847Y-113469847D03*
X154940000Y-113665000D03*
%TD*%
D24*
%TO.N,Net-(6-24V1-Pad1)*%
X76200000Y-83820000D02*
X80010000Y-87630000D01*
X76200000Y-83010000D02*
X76200000Y-83820000D01*
X76200000Y-86360000D02*
X72390000Y-90170000D01*
X76200000Y-83010000D02*
X76200000Y-86360000D01*
D25*
%TO.N,GND*%
X97028000Y-120269000D02*
X95504000Y-121793000D01*
X97663000Y-120269000D02*
X97028000Y-120269000D01*
X201168000Y-101600000D02*
X197866000Y-101600000D01*
%TO.N,Pin17*%
X188104999Y-101455001D02*
X189230000Y-100330000D01*
X188104999Y-103120003D02*
X188104999Y-101455001D01*
X181359997Y-106535001D02*
X184690001Y-106535001D01*
X178819997Y-109075001D02*
X181359997Y-106535001D01*
X184690001Y-106535001D02*
X188104999Y-103120003D01*
X173739997Y-109075001D02*
X178819997Y-109075001D01*
X158750000Y-124064998D02*
X173739997Y-109075001D01*
X158750000Y-124460000D02*
X158750000Y-124064998D01*
%TO.N,ENC-2A*%
X151130000Y-112395000D02*
X156845000Y-112395000D01*
%TO.N,ENC-4Btn*%
X204414999Y-119965001D02*
X205740000Y-118640000D01*
X199663997Y-119524999D02*
X200103999Y-119965001D01*
X185730001Y-119524999D02*
X199663997Y-119524999D01*
X200103999Y-119965001D02*
X204414999Y-119965001D01*
X176695002Y-110490000D02*
X185730001Y-119524999D01*
X173990000Y-110490000D02*
X176695002Y-110490000D01*
%TO.N,Btn_2_Min*%
X177800000Y-101600000D02*
X139065000Y-101600000D01*
X136525000Y-104140000D02*
X122047000Y-104140000D01*
X139065000Y-101600000D02*
X136525000Y-104140000D01*
%TO.N,Btn_3_Max*%
X152400000Y-82550000D02*
X140970000Y-82550000D01*
X194310000Y-85090000D02*
X190500000Y-81280000D01*
X190500000Y-81280000D02*
X153670000Y-81280000D01*
X153670000Y-81280000D02*
X152400000Y-82550000D01*
X194310000Y-112395000D02*
X194310000Y-85090000D01*
X191135000Y-115570000D02*
X194310000Y-112395000D01*
X189230000Y-115570000D02*
X191135000Y-115570000D01*
%TO.N,Btn_2_Max*%
X115570000Y-82550000D02*
X137160000Y-82550000D01*
X137160000Y-82550000D02*
X143510000Y-76200000D01*
X187325000Y-76200000D02*
X193040000Y-81915000D01*
X143510000Y-76200000D02*
X187325000Y-76200000D01*
X193040000Y-106680000D02*
X189230000Y-110490000D01*
X193040000Y-88900000D02*
X193040000Y-106680000D01*
%TO.N,Btn_3_Min*%
X147955000Y-104140000D02*
X147955000Y-120015000D01*
X159837001Y-123938239D02*
X169620239Y-114155001D01*
X147955000Y-120015000D02*
X153487001Y-125547001D01*
X159837001Y-124981761D02*
X159837001Y-123938239D01*
X159271761Y-125547001D02*
X159837001Y-124981761D01*
X175404999Y-114155001D02*
X176530000Y-113030000D01*
X169620239Y-114155001D02*
X175404999Y-114155001D01*
X153487001Y-125547001D02*
X159271761Y-125547001D01*
%TO.N,ENC-2B*%
X154744847Y-113469847D02*
X154940000Y-113665000D01*
X151569847Y-113469847D02*
X154744847Y-113469847D01*
%TD*%
D26*
%TO.N,+5V*%
X208767678Y-74600430D02*
X209592275Y-74941989D01*
X210353299Y-75408345D01*
X211031994Y-75988006D01*
X211611655Y-76666701D01*
X212078009Y-77427720D01*
X212419570Y-78252322D01*
X212598000Y-78995536D01*
X212598000Y-125474464D01*
X212419570Y-126217678D01*
X212078009Y-127042280D01*
X211611655Y-127803299D01*
X211031994Y-128481994D01*
X210353299Y-129061655D01*
X209592275Y-129528011D01*
X208767678Y-129869570D01*
X208024466Y-130048000D01*
X73915536Y-130048000D01*
X73172322Y-129869570D01*
X72347720Y-129528009D01*
X71586701Y-129061655D01*
X70908006Y-128481994D01*
X70328345Y-127803299D01*
X69861989Y-127042275D01*
X69520430Y-126217678D01*
X69443327Y-125896521D01*
X73580979Y-125896521D01*
X73580979Y-126343479D01*
X73668176Y-126781849D01*
X73839220Y-127194785D01*
X74087536Y-127566417D01*
X74403583Y-127882464D01*
X74775215Y-128130780D01*
X75188151Y-128301824D01*
X75626521Y-128389021D01*
X76073479Y-128389021D01*
X76511849Y-128301824D01*
X76924785Y-128130780D01*
X77296417Y-127882464D01*
X77612464Y-127566417D01*
X77860780Y-127194785D01*
X78031824Y-126781849D01*
X78119021Y-126343479D01*
X78119021Y-125896521D01*
X78031824Y-125458151D01*
X77860780Y-125045215D01*
X77612464Y-124673583D01*
X77296417Y-124357536D01*
X77153512Y-124262050D01*
X85035000Y-124262050D01*
X85035000Y-124657949D01*
X85056487Y-124876110D01*
X85141401Y-125156033D01*
X85279294Y-125414013D01*
X85464866Y-125640134D01*
X85690986Y-125825706D01*
X85948966Y-125963599D01*
X86228889Y-126048513D01*
X86520000Y-126077185D01*
X86811110Y-126048513D01*
X87091033Y-125963599D01*
X87349013Y-125825706D01*
X87575134Y-125640134D01*
X87760706Y-125414014D01*
X87770000Y-125396626D01*
X87779294Y-125414013D01*
X87964866Y-125640134D01*
X88190986Y-125825706D01*
X88448966Y-125963599D01*
X88728889Y-126048513D01*
X89020000Y-126077185D01*
X89311110Y-126048513D01*
X89591033Y-125963599D01*
X89849013Y-125825706D01*
X90075134Y-125640134D01*
X90260706Y-125414014D01*
X90274462Y-125388278D01*
X90430951Y-125594429D01*
X90648807Y-125787496D01*
X90900142Y-125934352D01*
X91163110Y-126026476D01*
X91393000Y-125905155D01*
X91393000Y-124587000D01*
X91373000Y-124587000D01*
X91373000Y-124333000D01*
X91393000Y-124333000D01*
X91393000Y-123014845D01*
X91647000Y-123014845D01*
X91647000Y-124333000D01*
X91667000Y-124333000D01*
X91667000Y-124587000D01*
X91647000Y-124587000D01*
X91647000Y-125905155D01*
X91876890Y-126026476D01*
X92139858Y-125934352D01*
X92391193Y-125787496D01*
X92609049Y-125594429D01*
X92765538Y-125388278D01*
X92779294Y-125414013D01*
X92964866Y-125640134D01*
X93190986Y-125825706D01*
X93448966Y-125963599D01*
X93728889Y-126048513D01*
X94020000Y-126077185D01*
X94311110Y-126048513D01*
X94591033Y-125963599D01*
X94849013Y-125825706D01*
X95075134Y-125640134D01*
X95127223Y-125576663D01*
X95181595Y-125678386D01*
X95292038Y-125812962D01*
X95426614Y-125923405D01*
X95580150Y-126005472D01*
X95746746Y-126056008D01*
X95920000Y-126073072D01*
X97120000Y-126073072D01*
X97293254Y-126056008D01*
X97459850Y-126005472D01*
X97613386Y-125923405D01*
X97747962Y-125812962D01*
X97858405Y-125678386D01*
X97940472Y-125524850D01*
X97991008Y-125358254D01*
X98008072Y-125185000D01*
X98008072Y-124262050D01*
X105355000Y-124262050D01*
X105355000Y-124657949D01*
X105376487Y-124876110D01*
X105461401Y-125156033D01*
X105599294Y-125414013D01*
X105784866Y-125640134D01*
X106010986Y-125825706D01*
X106268966Y-125963599D01*
X106548889Y-126048513D01*
X106840000Y-126077185D01*
X107131110Y-126048513D01*
X107411033Y-125963599D01*
X107669013Y-125825706D01*
X107895134Y-125640134D01*
X108080706Y-125414014D01*
X108090000Y-125396626D01*
X108099294Y-125414013D01*
X108284866Y-125640134D01*
X108510986Y-125825706D01*
X108768966Y-125963599D01*
X109048889Y-126048513D01*
X109340000Y-126077185D01*
X109631110Y-126048513D01*
X109911033Y-125963599D01*
X110169013Y-125825706D01*
X110395134Y-125640134D01*
X110580706Y-125414014D01*
X110594462Y-125388278D01*
X110750951Y-125594429D01*
X110968807Y-125787496D01*
X111220142Y-125934352D01*
X111483110Y-126026476D01*
X111713000Y-125905155D01*
X111713000Y-124587000D01*
X111693000Y-124587000D01*
X111693000Y-124333000D01*
X111713000Y-124333000D01*
X111713000Y-123014845D01*
X111967000Y-123014845D01*
X111967000Y-124333000D01*
X111987000Y-124333000D01*
X111987000Y-124587000D01*
X111967000Y-124587000D01*
X111967000Y-125905155D01*
X112196890Y-126026476D01*
X112459858Y-125934352D01*
X112711193Y-125787496D01*
X112929049Y-125594429D01*
X113085538Y-125388278D01*
X113099294Y-125414013D01*
X113284866Y-125640134D01*
X113510986Y-125825706D01*
X113768966Y-125963599D01*
X114048889Y-126048513D01*
X114340000Y-126077185D01*
X114631110Y-126048513D01*
X114911033Y-125963599D01*
X115169013Y-125825706D01*
X115395134Y-125640134D01*
X115447223Y-125576663D01*
X115501595Y-125678386D01*
X115612038Y-125812962D01*
X115746614Y-125923405D01*
X115900150Y-126005472D01*
X116066746Y-126056008D01*
X116240000Y-126073072D01*
X117440000Y-126073072D01*
X117613254Y-126056008D01*
X117779850Y-126005472D01*
X117933386Y-125923405D01*
X118067962Y-125812962D01*
X118178405Y-125678386D01*
X118260472Y-125524850D01*
X118311008Y-125358254D01*
X118328072Y-125185000D01*
X118328072Y-124262050D01*
X126190000Y-124262050D01*
X126190000Y-124657949D01*
X126211487Y-124876110D01*
X126296401Y-125156033D01*
X126434294Y-125414013D01*
X126619866Y-125640134D01*
X126845986Y-125825706D01*
X127103966Y-125963599D01*
X127383889Y-126048513D01*
X127675000Y-126077185D01*
X127966110Y-126048513D01*
X128246033Y-125963599D01*
X128504013Y-125825706D01*
X128730134Y-125640134D01*
X128915706Y-125414014D01*
X128925000Y-125396626D01*
X128934294Y-125414013D01*
X129119866Y-125640134D01*
X129345986Y-125825706D01*
X129603966Y-125963599D01*
X129883889Y-126048513D01*
X130175000Y-126077185D01*
X130466110Y-126048513D01*
X130746033Y-125963599D01*
X131004013Y-125825706D01*
X131230134Y-125640134D01*
X131415706Y-125414014D01*
X131429462Y-125388278D01*
X131585951Y-125594429D01*
X131803807Y-125787496D01*
X132055142Y-125934352D01*
X132318110Y-126026476D01*
X132548000Y-125905155D01*
X132548000Y-124587000D01*
X132528000Y-124587000D01*
X132528000Y-124333000D01*
X132548000Y-124333000D01*
X132548000Y-123014845D01*
X132802000Y-123014845D01*
X132802000Y-124333000D01*
X132822000Y-124333000D01*
X132822000Y-124587000D01*
X132802000Y-124587000D01*
X132802000Y-125905155D01*
X133031890Y-126026476D01*
X133294858Y-125934352D01*
X133546193Y-125787496D01*
X133764049Y-125594429D01*
X133920538Y-125388278D01*
X133934294Y-125414013D01*
X134119866Y-125640134D01*
X134345986Y-125825706D01*
X134603966Y-125963599D01*
X134883889Y-126048513D01*
X135175000Y-126077185D01*
X135466110Y-126048513D01*
X135746033Y-125963599D01*
X136004013Y-125825706D01*
X136230134Y-125640134D01*
X136282223Y-125576663D01*
X136336595Y-125678386D01*
X136447038Y-125812962D01*
X136581614Y-125923405D01*
X136735150Y-126005472D01*
X136901746Y-126056008D01*
X137075000Y-126073072D01*
X138275000Y-126073072D01*
X138448254Y-126056008D01*
X138614850Y-126005472D01*
X138768386Y-125923405D01*
X138902962Y-125812962D01*
X139013405Y-125678386D01*
X139095472Y-125524850D01*
X139146008Y-125358254D01*
X139163072Y-125185000D01*
X139163072Y-123735000D01*
X139146008Y-123561746D01*
X139095472Y-123395150D01*
X139013405Y-123241614D01*
X138902962Y-123107038D01*
X138768386Y-122996595D01*
X138614850Y-122914528D01*
X138448254Y-122863992D01*
X138275000Y-122846928D01*
X137075000Y-122846928D01*
X136901746Y-122863992D01*
X136735150Y-122914528D01*
X136581614Y-122996595D01*
X136447038Y-123107038D01*
X136336595Y-123241614D01*
X136282223Y-123343337D01*
X136230134Y-123279866D01*
X136004014Y-123094294D01*
X135746034Y-122956401D01*
X135466111Y-122871487D01*
X135175000Y-122842815D01*
X134883890Y-122871487D01*
X134603967Y-122956401D01*
X134345987Y-123094294D01*
X134119866Y-123279866D01*
X133934294Y-123505986D01*
X133920538Y-123531722D01*
X133764049Y-123325571D01*
X133546193Y-123132504D01*
X133294858Y-122985648D01*
X133031890Y-122893524D01*
X132802000Y-123014845D01*
X132548000Y-123014845D01*
X132318110Y-122893524D01*
X132055142Y-122985648D01*
X131803807Y-123132504D01*
X131585951Y-123325571D01*
X131429462Y-123531722D01*
X131415706Y-123505986D01*
X131230134Y-123279866D01*
X131004014Y-123094294D01*
X130746034Y-122956401D01*
X130466111Y-122871487D01*
X130175000Y-122842815D01*
X129883890Y-122871487D01*
X129603967Y-122956401D01*
X129345987Y-123094294D01*
X129119866Y-123279866D01*
X128934294Y-123505986D01*
X128925000Y-123523374D01*
X128915706Y-123505986D01*
X128730134Y-123279866D01*
X128504014Y-123094294D01*
X128246034Y-122956401D01*
X127966111Y-122871487D01*
X127675000Y-122842815D01*
X127383890Y-122871487D01*
X127103967Y-122956401D01*
X126845987Y-123094294D01*
X126619866Y-123279866D01*
X126434294Y-123505986D01*
X126296401Y-123763966D01*
X126211487Y-124043889D01*
X126190000Y-124262050D01*
X118328072Y-124262050D01*
X118328072Y-123735000D01*
X118311008Y-123561746D01*
X118260472Y-123395150D01*
X118178405Y-123241614D01*
X118067962Y-123107038D01*
X117933386Y-122996595D01*
X117779850Y-122914528D01*
X117613254Y-122863992D01*
X117440000Y-122846928D01*
X116240000Y-122846928D01*
X116066746Y-122863992D01*
X115900150Y-122914528D01*
X115746614Y-122996595D01*
X115612038Y-123107038D01*
X115501595Y-123241614D01*
X115447223Y-123343337D01*
X115395134Y-123279866D01*
X115169014Y-123094294D01*
X114911034Y-122956401D01*
X114631111Y-122871487D01*
X114340000Y-122842815D01*
X114048890Y-122871487D01*
X113768967Y-122956401D01*
X113510987Y-123094294D01*
X113284866Y-123279866D01*
X113099294Y-123505986D01*
X113085538Y-123531722D01*
X112929049Y-123325571D01*
X112711193Y-123132504D01*
X112459858Y-122985648D01*
X112196890Y-122893524D01*
X111967000Y-123014845D01*
X111713000Y-123014845D01*
X111483110Y-122893524D01*
X111220142Y-122985648D01*
X110968807Y-123132504D01*
X110750951Y-123325571D01*
X110594462Y-123531722D01*
X110580706Y-123505986D01*
X110395134Y-123279866D01*
X110169014Y-123094294D01*
X109911034Y-122956401D01*
X109631111Y-122871487D01*
X109340000Y-122842815D01*
X109048890Y-122871487D01*
X108768967Y-122956401D01*
X108510987Y-123094294D01*
X108284866Y-123279866D01*
X108099294Y-123505986D01*
X108090000Y-123523374D01*
X108080706Y-123505986D01*
X107895134Y-123279866D01*
X107669014Y-123094294D01*
X107411034Y-122956401D01*
X107131111Y-122871487D01*
X106840000Y-122842815D01*
X106548890Y-122871487D01*
X106268967Y-122956401D01*
X106010987Y-123094294D01*
X105784866Y-123279866D01*
X105599294Y-123505986D01*
X105461401Y-123763966D01*
X105376487Y-124043889D01*
X105355000Y-124262050D01*
X98008072Y-124262050D01*
X98008072Y-123735000D01*
X97991008Y-123561746D01*
X97940472Y-123395150D01*
X97858405Y-123241614D01*
X97747962Y-123107038D01*
X97613386Y-122996595D01*
X97459850Y-122914528D01*
X97293254Y-122863992D01*
X97120000Y-122846928D01*
X95920000Y-122846928D01*
X95746746Y-122863992D01*
X95580150Y-122914528D01*
X95426614Y-122996595D01*
X95292038Y-123107038D01*
X95181595Y-123241614D01*
X95127223Y-123343337D01*
X95075134Y-123279866D01*
X94849014Y-123094294D01*
X94591034Y-122956401D01*
X94311111Y-122871487D01*
X94020000Y-122842815D01*
X93728890Y-122871487D01*
X93448967Y-122956401D01*
X93190987Y-123094294D01*
X92964866Y-123279866D01*
X92779294Y-123505986D01*
X92765538Y-123531722D01*
X92609049Y-123325571D01*
X92391193Y-123132504D01*
X92139858Y-122985648D01*
X91876890Y-122893524D01*
X91647000Y-123014845D01*
X91393000Y-123014845D01*
X91163110Y-122893524D01*
X90900142Y-122985648D01*
X90648807Y-123132504D01*
X90430951Y-123325571D01*
X90274462Y-123531722D01*
X90260706Y-123505986D01*
X90075134Y-123279866D01*
X89849014Y-123094294D01*
X89591034Y-122956401D01*
X89311111Y-122871487D01*
X89020000Y-122842815D01*
X88728890Y-122871487D01*
X88448967Y-122956401D01*
X88190987Y-123094294D01*
X87964866Y-123279866D01*
X87779294Y-123505986D01*
X87770000Y-123523374D01*
X87760706Y-123505986D01*
X87575134Y-123279866D01*
X87349014Y-123094294D01*
X87091034Y-122956401D01*
X86811111Y-122871487D01*
X86520000Y-122842815D01*
X86228890Y-122871487D01*
X85948967Y-122956401D01*
X85690987Y-123094294D01*
X85464866Y-123279866D01*
X85279294Y-123505986D01*
X85141401Y-123763966D01*
X85056487Y-124043889D01*
X85035000Y-124262050D01*
X77153512Y-124262050D01*
X76924785Y-124109220D01*
X76511849Y-123938176D01*
X76073479Y-123850979D01*
X75626521Y-123850979D01*
X75188151Y-123938176D01*
X74775215Y-124109220D01*
X74403583Y-124357536D01*
X74087536Y-124673583D01*
X73839220Y-125045215D01*
X73668176Y-125458151D01*
X73580979Y-125896521D01*
X69443327Y-125896521D01*
X69342000Y-125474466D01*
X69342000Y-121691061D01*
X94469000Y-121691061D01*
X94469000Y-121894939D01*
X94508774Y-122094898D01*
X94586795Y-122283256D01*
X94700063Y-122452774D01*
X94844226Y-122596937D01*
X95013744Y-122710205D01*
X95202102Y-122788226D01*
X95402061Y-122828000D01*
X95605939Y-122828000D01*
X95805898Y-122788226D01*
X95994256Y-122710205D01*
X96163774Y-122596937D01*
X96307937Y-122452774D01*
X96421205Y-122283256D01*
X96499226Y-122094898D01*
X96539000Y-121894939D01*
X96539000Y-121832802D01*
X97181833Y-121189970D01*
X97361102Y-121264226D01*
X97561061Y-121304000D01*
X97764939Y-121304000D01*
X97964898Y-121264226D01*
X98153256Y-121186205D01*
X98322774Y-121072937D01*
X98466937Y-120928774D01*
X98580205Y-120759256D01*
X98658226Y-120570898D01*
X98698000Y-120370939D01*
X98698000Y-120167061D01*
X98658226Y-119967102D01*
X98580205Y-119778744D01*
X98466937Y-119609226D01*
X98322774Y-119465063D01*
X98153256Y-119351795D01*
X97964898Y-119273774D01*
X97764939Y-119234000D01*
X97561061Y-119234000D01*
X97361102Y-119273774D01*
X97172744Y-119351795D01*
X97003226Y-119465063D01*
X96955861Y-119512428D01*
X96879014Y-119519997D01*
X96735753Y-119563454D01*
X96603724Y-119634026D01*
X96603722Y-119634027D01*
X96603723Y-119634027D01*
X96516996Y-119705201D01*
X96516992Y-119705205D01*
X96487999Y-119728999D01*
X96464205Y-119757992D01*
X95464198Y-120758000D01*
X95402061Y-120758000D01*
X95202102Y-120797774D01*
X95013744Y-120875795D01*
X94844226Y-120989063D01*
X94700063Y-121133226D01*
X94586795Y-121302744D01*
X94508774Y-121491102D01*
X94469000Y-121691061D01*
X69342000Y-121691061D01*
X69342000Y-108819740D01*
X87415000Y-108819740D01*
X87415000Y-109112260D01*
X87472068Y-109399158D01*
X87584010Y-109669411D01*
X87746525Y-109912632D01*
X87953368Y-110119475D01*
X88196589Y-110281990D01*
X88466842Y-110393932D01*
X88753740Y-110451000D01*
X89046260Y-110451000D01*
X89333158Y-110393932D01*
X89603411Y-110281990D01*
X89846632Y-110119475D01*
X90053475Y-109912632D01*
X90215990Y-109669411D01*
X90327932Y-109399158D01*
X90385000Y-109112260D01*
X90385000Y-108819740D01*
X90362471Y-108706475D01*
X91345000Y-108706475D01*
X91345000Y-109225525D01*
X91446261Y-109734601D01*
X91644893Y-110214141D01*
X91933262Y-110645715D01*
X92300285Y-111012738D01*
X92731859Y-111301107D01*
X93211399Y-111499739D01*
X93720475Y-111601000D01*
X94239525Y-111601000D01*
X94748601Y-111499739D01*
X95228141Y-111301107D01*
X95659715Y-111012738D01*
X96026738Y-110645715D01*
X96315107Y-110214141D01*
X96513739Y-109734601D01*
X96615000Y-109225525D01*
X96615000Y-108819740D01*
X97575000Y-108819740D01*
X97575000Y-109112260D01*
X97632068Y-109399158D01*
X97744010Y-109669411D01*
X97906525Y-109912632D01*
X98113368Y-110119475D01*
X98356589Y-110281990D01*
X98626842Y-110393932D01*
X98913740Y-110451000D01*
X99206260Y-110451000D01*
X99493158Y-110393932D01*
X99763411Y-110281990D01*
X100006632Y-110119475D01*
X100213475Y-109912632D01*
X100375990Y-109669411D01*
X100487932Y-109399158D01*
X100545000Y-109112260D01*
X100545000Y-109073740D01*
X112942000Y-109073740D01*
X112942000Y-109366260D01*
X112999068Y-109653158D01*
X113111010Y-109923411D01*
X113273525Y-110166632D01*
X113480368Y-110373475D01*
X113723589Y-110535990D01*
X113993842Y-110647932D01*
X114280740Y-110705000D01*
X114573260Y-110705000D01*
X114860158Y-110647932D01*
X115130411Y-110535990D01*
X115373632Y-110373475D01*
X115580475Y-110166632D01*
X115742990Y-109923411D01*
X115854932Y-109653158D01*
X115912000Y-109366260D01*
X115912000Y-109073740D01*
X115889471Y-108960475D01*
X116872000Y-108960475D01*
X116872000Y-109479525D01*
X116973261Y-109988601D01*
X117171893Y-110468141D01*
X117460262Y-110899715D01*
X117827285Y-111266738D01*
X118258859Y-111555107D01*
X118738399Y-111753739D01*
X119247475Y-111855000D01*
X119766525Y-111855000D01*
X120275601Y-111753739D01*
X120755141Y-111555107D01*
X121186715Y-111266738D01*
X121553738Y-110899715D01*
X121842107Y-110468141D01*
X122040739Y-109988601D01*
X122142000Y-109479525D01*
X122142000Y-109073740D01*
X123102000Y-109073740D01*
X123102000Y-109366260D01*
X123159068Y-109653158D01*
X123271010Y-109923411D01*
X123433525Y-110166632D01*
X123640368Y-110373475D01*
X123883589Y-110535990D01*
X124153842Y-110647932D01*
X124440740Y-110705000D01*
X124733260Y-110705000D01*
X125020158Y-110647932D01*
X125290411Y-110535990D01*
X125533632Y-110373475D01*
X125740475Y-110166632D01*
X125902990Y-109923411D01*
X126014932Y-109653158D01*
X126072000Y-109366260D01*
X126072000Y-109073740D01*
X138850000Y-109073740D01*
X138850000Y-109366260D01*
X138907068Y-109653158D01*
X139019010Y-109923411D01*
X139181525Y-110166632D01*
X139388368Y-110373475D01*
X139631589Y-110535990D01*
X139901842Y-110647932D01*
X140188740Y-110705000D01*
X140481260Y-110705000D01*
X140768158Y-110647932D01*
X141038411Y-110535990D01*
X141281632Y-110373475D01*
X141488475Y-110166632D01*
X141650990Y-109923411D01*
X141762932Y-109653158D01*
X141820000Y-109366260D01*
X141820000Y-109073740D01*
X141762932Y-108786842D01*
X141679327Y-108585000D01*
X141792626Y-108585000D01*
X142160668Y-108511791D01*
X142507356Y-108368189D01*
X142819366Y-108159710D01*
X143084710Y-107894366D01*
X143293189Y-107582356D01*
X143436791Y-107235668D01*
X143510000Y-106867626D01*
X143510000Y-106492374D01*
X143436791Y-106124332D01*
X143293189Y-105777644D01*
X143084710Y-105465634D01*
X142819366Y-105200290D01*
X142507356Y-104991811D01*
X142160668Y-104848209D01*
X141792626Y-104775000D01*
X141417374Y-104775000D01*
X141049332Y-104848209D01*
X140702644Y-104991811D01*
X140390634Y-105200290D01*
X140125290Y-105465634D01*
X139916811Y-105777644D01*
X139773209Y-106124332D01*
X139700000Y-106492374D01*
X139700000Y-106867626D01*
X139773209Y-107235668D01*
X139916811Y-107582356D01*
X140038741Y-107764837D01*
X139901842Y-107792068D01*
X139631589Y-107904010D01*
X139388368Y-108066525D01*
X139181525Y-108273368D01*
X139019010Y-108516589D01*
X138907068Y-108786842D01*
X138850000Y-109073740D01*
X126072000Y-109073740D01*
X126014932Y-108786842D01*
X125902990Y-108516589D01*
X125740475Y-108273368D01*
X125533632Y-108066525D01*
X125290411Y-107904010D01*
X125020158Y-107792068D01*
X124733260Y-107735000D01*
X124440740Y-107735000D01*
X124153842Y-107792068D01*
X123883589Y-107904010D01*
X123640368Y-108066525D01*
X123433525Y-108273368D01*
X123271010Y-108516589D01*
X123159068Y-108786842D01*
X123102000Y-109073740D01*
X122142000Y-109073740D01*
X122142000Y-108960475D01*
X122040739Y-108451399D01*
X121842107Y-107971859D01*
X121553738Y-107540285D01*
X121186715Y-107173262D01*
X120755141Y-106884893D01*
X120275601Y-106686261D01*
X119766525Y-106585000D01*
X119247475Y-106585000D01*
X118738399Y-106686261D01*
X118258859Y-106884893D01*
X117827285Y-107173262D01*
X117460262Y-107540285D01*
X117171893Y-107971859D01*
X116973261Y-108451399D01*
X116872000Y-108960475D01*
X115889471Y-108960475D01*
X115854932Y-108786842D01*
X115771327Y-108585000D01*
X115884626Y-108585000D01*
X116252668Y-108511791D01*
X116599356Y-108368189D01*
X116911366Y-108159710D01*
X117176710Y-107894366D01*
X117385189Y-107582356D01*
X117528791Y-107235668D01*
X117602000Y-106867626D01*
X117602000Y-106492374D01*
X117528791Y-106124332D01*
X117385189Y-105777644D01*
X117176710Y-105465634D01*
X116911366Y-105200290D01*
X116599356Y-104991811D01*
X116252668Y-104848209D01*
X115884626Y-104775000D01*
X115509374Y-104775000D01*
X115141332Y-104848209D01*
X114794644Y-104991811D01*
X114482634Y-105200290D01*
X114217290Y-105465634D01*
X114008811Y-105777644D01*
X113865209Y-106124332D01*
X113792000Y-106492374D01*
X113792000Y-106867626D01*
X113865209Y-107235668D01*
X114008811Y-107582356D01*
X114130741Y-107764837D01*
X113993842Y-107792068D01*
X113723589Y-107904010D01*
X113480368Y-108066525D01*
X113273525Y-108273368D01*
X113111010Y-108516589D01*
X112999068Y-108786842D01*
X112942000Y-109073740D01*
X100545000Y-109073740D01*
X100545000Y-108819740D01*
X100487932Y-108532842D01*
X100375990Y-108262589D01*
X100213475Y-108019368D01*
X100006632Y-107812525D01*
X99763411Y-107650010D01*
X99493158Y-107538068D01*
X99206260Y-107481000D01*
X98913740Y-107481000D01*
X98626842Y-107538068D01*
X98356589Y-107650010D01*
X98113368Y-107812525D01*
X97906525Y-108019368D01*
X97744010Y-108262589D01*
X97632068Y-108532842D01*
X97575000Y-108819740D01*
X96615000Y-108819740D01*
X96615000Y-108706475D01*
X96513739Y-108197399D01*
X96315107Y-107717859D01*
X96026738Y-107286285D01*
X95659715Y-106919262D01*
X95228141Y-106630893D01*
X94748601Y-106432261D01*
X94239525Y-106331000D01*
X93720475Y-106331000D01*
X93211399Y-106432261D01*
X92731859Y-106630893D01*
X92300285Y-106919262D01*
X91933262Y-107286285D01*
X91644893Y-107717859D01*
X91446261Y-108197399D01*
X91345000Y-108706475D01*
X90362471Y-108706475D01*
X90327932Y-108532842D01*
X90244327Y-108331000D01*
X90357626Y-108331000D01*
X90725668Y-108257791D01*
X91072356Y-108114189D01*
X91384366Y-107905710D01*
X91649710Y-107640366D01*
X91858189Y-107328356D01*
X92001791Y-106981668D01*
X92075000Y-106613626D01*
X92075000Y-106238374D01*
X92001791Y-105870332D01*
X91858189Y-105523644D01*
X91649710Y-105211634D01*
X91384366Y-104946290D01*
X91072356Y-104737811D01*
X90725668Y-104594209D01*
X90357626Y-104521000D01*
X89982374Y-104521000D01*
X89614332Y-104594209D01*
X89267644Y-104737811D01*
X88955634Y-104946290D01*
X88690290Y-105211634D01*
X88481811Y-105523644D01*
X88338209Y-105870332D01*
X88265000Y-106238374D01*
X88265000Y-106613626D01*
X88338209Y-106981668D01*
X88481811Y-107328356D01*
X88603741Y-107510837D01*
X88466842Y-107538068D01*
X88196589Y-107650010D01*
X87953368Y-107812525D01*
X87746525Y-108019368D01*
X87584010Y-108262589D01*
X87472068Y-108532842D01*
X87415000Y-108819740D01*
X69342000Y-108819740D01*
X69342000Y-103698374D01*
X94615000Y-103698374D01*
X94615000Y-104073626D01*
X94688209Y-104441668D01*
X94831811Y-104788356D01*
X95040290Y-105100366D01*
X95305634Y-105365710D01*
X95617644Y-105574189D01*
X95964332Y-105717791D01*
X96332374Y-105791000D01*
X96707626Y-105791000D01*
X97075668Y-105717791D01*
X97422356Y-105574189D01*
X97734366Y-105365710D01*
X97999710Y-105100366D01*
X98208189Y-104788356D01*
X98351791Y-104441668D01*
X98425000Y-104073626D01*
X98425000Y-103698374D01*
X98351791Y-103330332D01*
X98208189Y-102983644D01*
X97999710Y-102671634D01*
X97734366Y-102406290D01*
X97422356Y-102197811D01*
X97075668Y-102054209D01*
X96707626Y-101981000D01*
X96332374Y-101981000D01*
X95964332Y-102054209D01*
X95617644Y-102197811D01*
X95305634Y-102406290D01*
X95040290Y-102671634D01*
X94831811Y-102983644D01*
X94688209Y-103330332D01*
X94615000Y-103698374D01*
X69342000Y-103698374D01*
X69342000Y-100192408D01*
X130683000Y-100192408D01*
X130683000Y-100467592D01*
X130736686Y-100737490D01*
X130841995Y-100991727D01*
X130994880Y-101220535D01*
X131189465Y-101415120D01*
X131418273Y-101568005D01*
X131672510Y-101673314D01*
X131942408Y-101727000D01*
X132217592Y-101727000D01*
X132487490Y-101673314D01*
X132741727Y-101568005D01*
X132970535Y-101415120D01*
X133165120Y-101220535D01*
X133318005Y-100991727D01*
X133423314Y-100737490D01*
X133477000Y-100467592D01*
X133477000Y-100192408D01*
X133423314Y-99922510D01*
X133318005Y-99668273D01*
X133165120Y-99439465D01*
X132970535Y-99244880D01*
X132741727Y-99091995D01*
X132487490Y-98986686D01*
X132217592Y-98933000D01*
X131942408Y-98933000D01*
X131672510Y-98986686D01*
X131418273Y-99091995D01*
X131189465Y-99244880D01*
X130994880Y-99439465D01*
X130841995Y-99668273D01*
X130736686Y-99922510D01*
X130683000Y-100192408D01*
X69342000Y-100192408D01*
X69342000Y-97320000D01*
X78571928Y-97320000D01*
X78584188Y-97444482D01*
X78620498Y-97564180D01*
X78679463Y-97674494D01*
X78758815Y-97771185D01*
X78855506Y-97850537D01*
X78965820Y-97909502D01*
X79085518Y-97945812D01*
X79210000Y-97958072D01*
X79724250Y-97955000D01*
X79883000Y-97796250D01*
X79883000Y-96647000D01*
X80137000Y-96647000D01*
X80137000Y-97796250D01*
X80295750Y-97955000D01*
X80810000Y-97958072D01*
X80934482Y-97945812D01*
X81054180Y-97909502D01*
X81164494Y-97850537D01*
X81261185Y-97771185D01*
X81340537Y-97674494D01*
X81399502Y-97564180D01*
X81435812Y-97444482D01*
X81448072Y-97320000D01*
X81445000Y-96805750D01*
X81286250Y-96647000D01*
X80137000Y-96647000D01*
X79883000Y-96647000D01*
X78733750Y-96647000D01*
X78575000Y-96805750D01*
X78571928Y-97320000D01*
X69342000Y-97320000D01*
X69342000Y-95622980D01*
X70799437Y-95622980D01*
X70870429Y-95841094D01*
X71014031Y-96116923D01*
X71208685Y-96359437D01*
X71446911Y-96559316D01*
X71719554Y-96708879D01*
X72016137Y-96802378D01*
X72263000Y-96675570D01*
X72263000Y-95377000D01*
X72517000Y-95377000D01*
X72517000Y-96675570D01*
X72763863Y-96802378D01*
X73060446Y-96708879D01*
X73333089Y-96559316D01*
X73571315Y-96359437D01*
X73765969Y-96116923D01*
X73909571Y-95841094D01*
X73948984Y-95720000D01*
X78571928Y-95720000D01*
X78575000Y-96234250D01*
X78733750Y-96393000D01*
X79883000Y-96393000D01*
X79883000Y-96373000D01*
X80137000Y-96373000D01*
X80137000Y-96393000D01*
X81286250Y-96393000D01*
X81296842Y-96382408D01*
X126873000Y-96382408D01*
X126873000Y-96657592D01*
X126926686Y-96927490D01*
X127031995Y-97181727D01*
X127184880Y-97410535D01*
X127379465Y-97605120D01*
X127608273Y-97758005D01*
X127862510Y-97863314D01*
X128132408Y-97917000D01*
X128407592Y-97917000D01*
X128677490Y-97863314D01*
X128931727Y-97758005D01*
X129160535Y-97605120D01*
X129355120Y-97410535D01*
X129508005Y-97181727D01*
X129613314Y-96927490D01*
X129667000Y-96657592D01*
X129667000Y-96382408D01*
X134493000Y-96382408D01*
X134493000Y-96657592D01*
X134546686Y-96927490D01*
X134651995Y-97181727D01*
X134804880Y-97410535D01*
X134999465Y-97605120D01*
X135228273Y-97758005D01*
X135482510Y-97863314D01*
X135752408Y-97917000D01*
X136027592Y-97917000D01*
X136297490Y-97863314D01*
X136551727Y-97758005D01*
X136780535Y-97605120D01*
X136975120Y-97410535D01*
X137128005Y-97181727D01*
X137233314Y-96927490D01*
X137287000Y-96657592D01*
X137287000Y-96382408D01*
X137233314Y-96112510D01*
X137128005Y-95858273D01*
X136975120Y-95629465D01*
X136780535Y-95434880D01*
X136551727Y-95281995D01*
X136297490Y-95176686D01*
X136027592Y-95123000D01*
X135752408Y-95123000D01*
X135482510Y-95176686D01*
X135228273Y-95281995D01*
X134999465Y-95434880D01*
X134804880Y-95629465D01*
X134651995Y-95858273D01*
X134546686Y-96112510D01*
X134493000Y-96382408D01*
X129667000Y-96382408D01*
X129613314Y-96112510D01*
X129508005Y-95858273D01*
X129355120Y-95629465D01*
X129160535Y-95434880D01*
X128931727Y-95281995D01*
X128677490Y-95176686D01*
X128407592Y-95123000D01*
X128132408Y-95123000D01*
X127862510Y-95176686D01*
X127608273Y-95281995D01*
X127379465Y-95434880D01*
X127184880Y-95629465D01*
X127031995Y-95858273D01*
X126926686Y-96112510D01*
X126873000Y-96382408D01*
X81296842Y-96382408D01*
X81445000Y-96234250D01*
X81448072Y-95720000D01*
X81435812Y-95595518D01*
X81399502Y-95475820D01*
X81340537Y-95365506D01*
X81261185Y-95268815D01*
X81164494Y-95189463D01*
X81054180Y-95130498D01*
X80958057Y-95101339D01*
X81124637Y-94934759D01*
X81281680Y-94699727D01*
X81389853Y-94438574D01*
X81445000Y-94161335D01*
X81445000Y-93878665D01*
X81389853Y-93601426D01*
X81281680Y-93340273D01*
X81124637Y-93105241D01*
X80924759Y-92905363D01*
X80689727Y-92748320D01*
X80428574Y-92640147D01*
X80151335Y-92585000D01*
X79868665Y-92585000D01*
X79591426Y-92640147D01*
X79330273Y-92748320D01*
X79095241Y-92905363D01*
X78895363Y-93105241D01*
X78738320Y-93340273D01*
X78630147Y-93601426D01*
X78575000Y-93878665D01*
X78575000Y-94161335D01*
X78630147Y-94438574D01*
X78738320Y-94699727D01*
X78895363Y-94934759D01*
X79061943Y-95101339D01*
X78965820Y-95130498D01*
X78855506Y-95189463D01*
X78758815Y-95268815D01*
X78679463Y-95365506D01*
X78620498Y-95475820D01*
X78584188Y-95595518D01*
X78571928Y-95720000D01*
X73948984Y-95720000D01*
X73980563Y-95622980D01*
X73860594Y-95377000D01*
X72517000Y-95377000D01*
X72263000Y-95377000D01*
X70919406Y-95377000D01*
X70799437Y-95622980D01*
X69342000Y-95622980D01*
X69342000Y-92710000D01*
X70747319Y-92710000D01*
X70777970Y-93021204D01*
X70868745Y-93320449D01*
X71016155Y-93596235D01*
X71214537Y-93837963D01*
X71393899Y-93985163D01*
X71208685Y-94140563D01*
X71014031Y-94383077D01*
X70870429Y-94658906D01*
X70799437Y-94877020D01*
X70919406Y-95123000D01*
X72263000Y-95123000D01*
X72263000Y-95103000D01*
X72517000Y-95103000D01*
X72517000Y-95123000D01*
X73860594Y-95123000D01*
X73980563Y-94877020D01*
X73909571Y-94658906D01*
X73765969Y-94383077D01*
X73571315Y-94140563D01*
X73386101Y-93985163D01*
X73565463Y-93837963D01*
X73763845Y-93596235D01*
X73911255Y-93320449D01*
X74002030Y-93021204D01*
X74032681Y-92710000D01*
X74002030Y-92398796D01*
X73911255Y-92099551D01*
X73763845Y-91823765D01*
X73660554Y-91697905D01*
X73744494Y-91653037D01*
X73841185Y-91573685D01*
X73920537Y-91476994D01*
X73979502Y-91366680D01*
X74015812Y-91246982D01*
X74028072Y-91122500D01*
X74028072Y-89712796D01*
X76761432Y-86979437D01*
X76793291Y-86953291D01*
X76897636Y-86826146D01*
X76975172Y-86681087D01*
X77022918Y-86523689D01*
X77035000Y-86401019D01*
X77035000Y-86401018D01*
X77039040Y-86360000D01*
X77035000Y-86318982D01*
X77035000Y-85835868D01*
X78571928Y-87372797D01*
X78571928Y-88430000D01*
X78584188Y-88554482D01*
X78620498Y-88674180D01*
X78679463Y-88784494D01*
X78758815Y-88881185D01*
X78855506Y-88960537D01*
X78965820Y-89019502D01*
X79061943Y-89048661D01*
X78895363Y-89215241D01*
X78738320Y-89450273D01*
X78630147Y-89711426D01*
X78575000Y-89988665D01*
X78575000Y-90271335D01*
X78630147Y-90548574D01*
X78738320Y-90809727D01*
X78895363Y-91044759D01*
X79095241Y-91244637D01*
X79330273Y-91401680D01*
X79591426Y-91509853D01*
X79868665Y-91565000D01*
X80151335Y-91565000D01*
X80428574Y-91509853D01*
X80689727Y-91401680D01*
X80924759Y-91244637D01*
X81124637Y-91044759D01*
X81281680Y-90809727D01*
X81389853Y-90548574D01*
X81445000Y-90271335D01*
X81445000Y-89988665D01*
X81389853Y-89711426D01*
X81281680Y-89450273D01*
X81124637Y-89215241D01*
X80958057Y-89048661D01*
X81054180Y-89019502D01*
X81164494Y-88960537D01*
X81261185Y-88881185D01*
X81340537Y-88784494D01*
X81399502Y-88674180D01*
X81435812Y-88554482D01*
X81448072Y-88430000D01*
X81448072Y-86830000D01*
X81435812Y-86705518D01*
X81399502Y-86585820D01*
X81340537Y-86475506D01*
X81261185Y-86378815D01*
X81164494Y-86299463D01*
X81054180Y-86240498D01*
X80934482Y-86204188D01*
X80810000Y-86191928D01*
X79752797Y-86191928D01*
X78504609Y-84943740D01*
X87415000Y-84943740D01*
X87415000Y-85236260D01*
X87472068Y-85523158D01*
X87584010Y-85793411D01*
X87746525Y-86036632D01*
X87953368Y-86243475D01*
X88196589Y-86405990D01*
X88466842Y-86517932D01*
X88753740Y-86575000D01*
X89046260Y-86575000D01*
X89333158Y-86517932D01*
X89603411Y-86405990D01*
X89846632Y-86243475D01*
X90053475Y-86036632D01*
X90215990Y-85793411D01*
X90327932Y-85523158D01*
X90385000Y-85236260D01*
X90385000Y-84943740D01*
X90362471Y-84830475D01*
X91345000Y-84830475D01*
X91345000Y-85349525D01*
X91446261Y-85858601D01*
X91644893Y-86338141D01*
X91933262Y-86769715D01*
X92300285Y-87136738D01*
X92731859Y-87425107D01*
X93211399Y-87623739D01*
X93720475Y-87725000D01*
X94239525Y-87725000D01*
X94748601Y-87623739D01*
X95228141Y-87425107D01*
X95659715Y-87136738D01*
X96026738Y-86769715D01*
X96315107Y-86338141D01*
X96513739Y-85858601D01*
X96615000Y-85349525D01*
X96615000Y-84943740D01*
X97575000Y-84943740D01*
X97575000Y-85236260D01*
X97632068Y-85523158D01*
X97744010Y-85793411D01*
X97906525Y-86036632D01*
X98113368Y-86243475D01*
X98356589Y-86405990D01*
X98626842Y-86517932D01*
X98913740Y-86575000D01*
X99206260Y-86575000D01*
X99493158Y-86517932D01*
X99763411Y-86405990D01*
X100006632Y-86243475D01*
X100213475Y-86036632D01*
X100375990Y-85793411D01*
X100487932Y-85523158D01*
X100545000Y-85236260D01*
X100545000Y-84943740D01*
X112815000Y-84943740D01*
X112815000Y-85236260D01*
X112872068Y-85523158D01*
X112984010Y-85793411D01*
X113146525Y-86036632D01*
X113353368Y-86243475D01*
X113596589Y-86405990D01*
X113866842Y-86517932D01*
X114153740Y-86575000D01*
X114446260Y-86575000D01*
X114733158Y-86517932D01*
X115003411Y-86405990D01*
X115246632Y-86243475D01*
X115453475Y-86036632D01*
X115615990Y-85793411D01*
X115727932Y-85523158D01*
X115785000Y-85236260D01*
X115785000Y-84943740D01*
X115727932Y-84656842D01*
X115644327Y-84455000D01*
X115757626Y-84455000D01*
X116125668Y-84381791D01*
X116472356Y-84238189D01*
X116784366Y-84029710D01*
X117049710Y-83764366D01*
X117258189Y-83452356D01*
X117317154Y-83310000D01*
X117433547Y-83310000D01*
X117333262Y-83410285D01*
X117044893Y-83841859D01*
X116846261Y-84321399D01*
X116745000Y-84830475D01*
X116745000Y-85349525D01*
X116846261Y-85858601D01*
X117044893Y-86338141D01*
X117333262Y-86769715D01*
X117700285Y-87136738D01*
X118131859Y-87425107D01*
X118611399Y-87623739D01*
X119120475Y-87725000D01*
X119639525Y-87725000D01*
X120148601Y-87623739D01*
X120628141Y-87425107D01*
X121059715Y-87136738D01*
X121426738Y-86769715D01*
X121715107Y-86338141D01*
X121913739Y-85858601D01*
X122015000Y-85349525D01*
X122015000Y-84943740D01*
X122975000Y-84943740D01*
X122975000Y-85236260D01*
X123032068Y-85523158D01*
X123144010Y-85793411D01*
X123306525Y-86036632D01*
X123513368Y-86243475D01*
X123756589Y-86405990D01*
X124026842Y-86517932D01*
X124313740Y-86575000D01*
X124606260Y-86575000D01*
X124893158Y-86517932D01*
X125163411Y-86405990D01*
X125406632Y-86243475D01*
X125613475Y-86036632D01*
X125775990Y-85793411D01*
X125887932Y-85523158D01*
X125945000Y-85236260D01*
X125945000Y-84943740D01*
X125887932Y-84656842D01*
X125775990Y-84386589D01*
X125613475Y-84143368D01*
X125406632Y-83936525D01*
X125163411Y-83774010D01*
X124893158Y-83662068D01*
X124606260Y-83605000D01*
X124313740Y-83605000D01*
X124026842Y-83662068D01*
X123756589Y-83774010D01*
X123513368Y-83936525D01*
X123306525Y-84143368D01*
X123144010Y-84386589D01*
X123032068Y-84656842D01*
X122975000Y-84943740D01*
X122015000Y-84943740D01*
X122015000Y-84830475D01*
X121913739Y-84321399D01*
X121715107Y-83841859D01*
X121426738Y-83410285D01*
X121326453Y-83310000D01*
X137122678Y-83310000D01*
X137160000Y-83313676D01*
X137197322Y-83310000D01*
X137197333Y-83310000D01*
X137308986Y-83299003D01*
X137452247Y-83255546D01*
X137584276Y-83184974D01*
X137700001Y-83090001D01*
X137723804Y-83060997D01*
X143824802Y-76960000D01*
X171419147Y-76960000D01*
X171376686Y-77062510D01*
X171323000Y-77332408D01*
X171323000Y-77607592D01*
X171376686Y-77877490D01*
X171481995Y-78131727D01*
X171634880Y-78360535D01*
X171829465Y-78555120D01*
X172058273Y-78708005D01*
X172312510Y-78813314D01*
X172582408Y-78867000D01*
X172857592Y-78867000D01*
X173127490Y-78813314D01*
X173381727Y-78708005D01*
X173610535Y-78555120D01*
X173730090Y-78435565D01*
X174474040Y-78435565D01*
X174541020Y-78675656D01*
X174790048Y-78792756D01*
X175057135Y-78859023D01*
X175332017Y-78871910D01*
X175604133Y-78830922D01*
X175863023Y-78737636D01*
X175978980Y-78675656D01*
X176045960Y-78435565D01*
X175260000Y-77649605D01*
X174474040Y-78435565D01*
X173730090Y-78435565D01*
X173805120Y-78360535D01*
X173958005Y-78131727D01*
X173987692Y-78060057D01*
X173992364Y-78073023D01*
X174054344Y-78188980D01*
X174294435Y-78255960D01*
X175080395Y-77470000D01*
X175066253Y-77455858D01*
X175245858Y-77276253D01*
X175260000Y-77290395D01*
X175274143Y-77276253D01*
X175453748Y-77455858D01*
X175439605Y-77470000D01*
X176225565Y-78255960D01*
X176465656Y-78188980D01*
X176529485Y-78053240D01*
X176561995Y-78131727D01*
X176714880Y-78360535D01*
X176909465Y-78555120D01*
X177138273Y-78708005D01*
X177392510Y-78813314D01*
X177662408Y-78867000D01*
X177937592Y-78867000D01*
X178207490Y-78813314D01*
X178461727Y-78708005D01*
X178690535Y-78555120D01*
X178885120Y-78360535D01*
X179038005Y-78131727D01*
X179070000Y-78054485D01*
X179101995Y-78131727D01*
X179254880Y-78360535D01*
X179449465Y-78555120D01*
X179678273Y-78708005D01*
X179932510Y-78813314D01*
X180202408Y-78867000D01*
X180477592Y-78867000D01*
X180747490Y-78813314D01*
X181001727Y-78708005D01*
X181230535Y-78555120D01*
X181425120Y-78360535D01*
X181578005Y-78131727D01*
X181683314Y-77877490D01*
X181737000Y-77607592D01*
X181737000Y-77332408D01*
X181683314Y-77062510D01*
X181640853Y-76960000D01*
X187010199Y-76960000D01*
X190573789Y-80523591D01*
X190537333Y-80520000D01*
X190537322Y-80520000D01*
X190500000Y-80516324D01*
X190462678Y-80520000D01*
X153707322Y-80520000D01*
X153669999Y-80516324D01*
X153632676Y-80520000D01*
X153632667Y-80520000D01*
X153521014Y-80530997D01*
X153377753Y-80574454D01*
X153245724Y-80645026D01*
X153129999Y-80739999D01*
X153106201Y-80768997D01*
X152085199Y-81790000D01*
X148000703Y-81790000D01*
X148222356Y-81698189D01*
X148534366Y-81489710D01*
X148799710Y-81224366D01*
X149008189Y-80912356D01*
X149151791Y-80565668D01*
X149225000Y-80197626D01*
X149225000Y-79822374D01*
X149151791Y-79454332D01*
X149008189Y-79107644D01*
X148799710Y-78795634D01*
X148534366Y-78530290D01*
X148222356Y-78321811D01*
X147875668Y-78178209D01*
X147507626Y-78105000D01*
X147132374Y-78105000D01*
X146764332Y-78178209D01*
X146417644Y-78321811D01*
X146105634Y-78530290D01*
X145840290Y-78795634D01*
X145631811Y-79107644D01*
X145488209Y-79454332D01*
X145415000Y-79822374D01*
X145415000Y-80197626D01*
X145488209Y-80565668D01*
X145631811Y-80912356D01*
X145840290Y-81224366D01*
X146105634Y-81489710D01*
X146417644Y-81698189D01*
X146639297Y-81790000D01*
X142717154Y-81790000D01*
X142658189Y-81647644D01*
X142449710Y-81335634D01*
X142184366Y-81070290D01*
X141872356Y-80861811D01*
X141525668Y-80718209D01*
X141157626Y-80645000D01*
X140782374Y-80645000D01*
X140414332Y-80718209D01*
X140067644Y-80861811D01*
X139755634Y-81070290D01*
X139490290Y-81335634D01*
X139281811Y-81647644D01*
X139138209Y-81994332D01*
X139065000Y-82362374D01*
X139065000Y-82737626D01*
X139138209Y-83105668D01*
X139281811Y-83452356D01*
X139403741Y-83634837D01*
X139266842Y-83662068D01*
X138996589Y-83774010D01*
X138753368Y-83936525D01*
X138546525Y-84143368D01*
X138384010Y-84386589D01*
X138272068Y-84656842D01*
X138215000Y-84943740D01*
X138215000Y-85236260D01*
X138272068Y-85523158D01*
X138384010Y-85793411D01*
X138546525Y-86036632D01*
X138753368Y-86243475D01*
X138996589Y-86405990D01*
X139266842Y-86517932D01*
X139553740Y-86575000D01*
X139846260Y-86575000D01*
X140133158Y-86517932D01*
X140403411Y-86405990D01*
X140646632Y-86243475D01*
X140853475Y-86036632D01*
X141015990Y-85793411D01*
X141127932Y-85523158D01*
X141185000Y-85236260D01*
X141185000Y-84943740D01*
X141127932Y-84656842D01*
X141044327Y-84455000D01*
X141157626Y-84455000D01*
X141525668Y-84381791D01*
X141872356Y-84238189D01*
X142184366Y-84029710D01*
X142449710Y-83764366D01*
X142658189Y-83452356D01*
X142717154Y-83310000D01*
X142833547Y-83310000D01*
X142733262Y-83410285D01*
X142444893Y-83841859D01*
X142246261Y-84321399D01*
X142145000Y-84830475D01*
X142145000Y-85349525D01*
X142246261Y-85858601D01*
X142444893Y-86338141D01*
X142733262Y-86769715D01*
X143100285Y-87136738D01*
X143531859Y-87425107D01*
X144011399Y-87623739D01*
X144520475Y-87725000D01*
X145039525Y-87725000D01*
X145548601Y-87623739D01*
X146028141Y-87425107D01*
X146459715Y-87136738D01*
X146826738Y-86769715D01*
X147115107Y-86338141D01*
X147313739Y-85858601D01*
X147415000Y-85349525D01*
X147415000Y-84943740D01*
X148375000Y-84943740D01*
X148375000Y-85236260D01*
X148432068Y-85523158D01*
X148544010Y-85793411D01*
X148706525Y-86036632D01*
X148913368Y-86243475D01*
X149156589Y-86405990D01*
X149426842Y-86517932D01*
X149713740Y-86575000D01*
X150006260Y-86575000D01*
X150293158Y-86517932D01*
X150563411Y-86405990D01*
X150806632Y-86243475D01*
X151013475Y-86036632D01*
X151175990Y-85793411D01*
X151287932Y-85523158D01*
X151345000Y-85236260D01*
X151345000Y-84943740D01*
X151287932Y-84656842D01*
X151175990Y-84386589D01*
X151013475Y-84143368D01*
X150806632Y-83936525D01*
X150563411Y-83774010D01*
X150293158Y-83662068D01*
X150006260Y-83605000D01*
X149713740Y-83605000D01*
X149426842Y-83662068D01*
X149156589Y-83774010D01*
X148913368Y-83936525D01*
X148706525Y-84143368D01*
X148544010Y-84386589D01*
X148432068Y-84656842D01*
X148375000Y-84943740D01*
X147415000Y-84943740D01*
X147415000Y-84830475D01*
X147313739Y-84321399D01*
X147115107Y-83841859D01*
X146826738Y-83410285D01*
X146726453Y-83310000D01*
X152362678Y-83310000D01*
X152400000Y-83313676D01*
X152437322Y-83310000D01*
X152437333Y-83310000D01*
X152548986Y-83299003D01*
X152692247Y-83255546D01*
X152824276Y-83184974D01*
X152940001Y-83090001D01*
X152963804Y-83060997D01*
X152966801Y-83058000D01*
X157349928Y-83058000D01*
X157349928Y-84582000D01*
X157362188Y-84706482D01*
X157398498Y-84826180D01*
X157457463Y-84936494D01*
X157536815Y-85033185D01*
X157633506Y-85112537D01*
X157743820Y-85171502D01*
X157863518Y-85207812D01*
X157988000Y-85220072D01*
X159512000Y-85220072D01*
X159636482Y-85207812D01*
X159756180Y-85171502D01*
X159866494Y-85112537D01*
X159963185Y-85033185D01*
X160042537Y-84936494D01*
X160101502Y-84826180D01*
X160137812Y-84706482D01*
X160146080Y-84622535D01*
X160204880Y-84710535D01*
X160399465Y-84905120D01*
X160628273Y-85058005D01*
X160882510Y-85163314D01*
X161152408Y-85217000D01*
X161427592Y-85217000D01*
X161697490Y-85163314D01*
X161951727Y-85058005D01*
X162180535Y-84905120D01*
X162375120Y-84710535D01*
X162528005Y-84481727D01*
X162560000Y-84404485D01*
X162591995Y-84481727D01*
X162744880Y-84710535D01*
X162939465Y-84905120D01*
X163168273Y-85058005D01*
X163422510Y-85163314D01*
X163692408Y-85217000D01*
X163967592Y-85217000D01*
X164237490Y-85163314D01*
X164491727Y-85058005D01*
X164720535Y-84905120D01*
X164840090Y-84785565D01*
X165584040Y-84785565D01*
X165651020Y-85025656D01*
X165900048Y-85142756D01*
X166167135Y-85209023D01*
X166442017Y-85221910D01*
X166714133Y-85180922D01*
X166973023Y-85087636D01*
X167088980Y-85025656D01*
X167155960Y-84785565D01*
X166370000Y-83999605D01*
X165584040Y-84785565D01*
X164840090Y-84785565D01*
X164915120Y-84710535D01*
X165068005Y-84481727D01*
X165097692Y-84410057D01*
X165102364Y-84423023D01*
X165164344Y-84538980D01*
X165404435Y-84605960D01*
X166190395Y-83820000D01*
X166549605Y-83820000D01*
X167335565Y-84605960D01*
X167575656Y-84538980D01*
X167692756Y-84289952D01*
X167759023Y-84022865D01*
X167771910Y-83747983D01*
X167730922Y-83475867D01*
X167637636Y-83216977D01*
X167575656Y-83101020D01*
X167335565Y-83034040D01*
X166549605Y-83820000D01*
X166190395Y-83820000D01*
X165404435Y-83034040D01*
X165164344Y-83101020D01*
X165100515Y-83236760D01*
X165068005Y-83158273D01*
X164915120Y-82929465D01*
X164840090Y-82854435D01*
X165584040Y-82854435D01*
X166370000Y-83640395D01*
X167155960Y-82854435D01*
X167088980Y-82614344D01*
X166839952Y-82497244D01*
X166572865Y-82430977D01*
X166297983Y-82418090D01*
X166025867Y-82459078D01*
X165766977Y-82552364D01*
X165651020Y-82614344D01*
X165584040Y-82854435D01*
X164840090Y-82854435D01*
X164720535Y-82734880D01*
X164491727Y-82581995D01*
X164237490Y-82476686D01*
X163967592Y-82423000D01*
X163692408Y-82423000D01*
X163422510Y-82476686D01*
X163168273Y-82581995D01*
X162939465Y-82734880D01*
X162744880Y-82929465D01*
X162591995Y-83158273D01*
X162560000Y-83235515D01*
X162528005Y-83158273D01*
X162375120Y-82929465D01*
X162180535Y-82734880D01*
X161951727Y-82581995D01*
X161697490Y-82476686D01*
X161427592Y-82423000D01*
X161152408Y-82423000D01*
X160882510Y-82476686D01*
X160628273Y-82581995D01*
X160399465Y-82734880D01*
X160204880Y-82929465D01*
X160146080Y-83017465D01*
X160137812Y-82933518D01*
X160101502Y-82813820D01*
X160042537Y-82703506D01*
X159963185Y-82606815D01*
X159866494Y-82527463D01*
X159756180Y-82468498D01*
X159636482Y-82432188D01*
X159512000Y-82419928D01*
X157988000Y-82419928D01*
X157863518Y-82432188D01*
X157743820Y-82468498D01*
X157633506Y-82527463D01*
X157536815Y-82606815D01*
X157457463Y-82703506D01*
X157398498Y-82813820D01*
X157362188Y-82933518D01*
X157349928Y-83058000D01*
X152966801Y-83058000D01*
X153984802Y-82040000D01*
X190185199Y-82040000D01*
X193550001Y-85404803D01*
X193550001Y-87995988D01*
X193530256Y-87982795D01*
X193341898Y-87904774D01*
X193141939Y-87865000D01*
X192938061Y-87865000D01*
X192738102Y-87904774D01*
X192549744Y-87982795D01*
X192380226Y-88096063D01*
X192236063Y-88240226D01*
X192122795Y-88409744D01*
X192044774Y-88598102D01*
X192005000Y-88798061D01*
X192005000Y-89001939D01*
X192044774Y-89201898D01*
X192122795Y-89390256D01*
X192236063Y-89559774D01*
X192280000Y-89603711D01*
X192280001Y-106365197D01*
X190665000Y-107980198D01*
X190665000Y-107808665D01*
X190609853Y-107531426D01*
X190501680Y-107270273D01*
X190344637Y-107035241D01*
X190144759Y-106835363D01*
X189912241Y-106680000D01*
X190144759Y-106524637D01*
X190344637Y-106324759D01*
X190501680Y-106089727D01*
X190609853Y-105828574D01*
X190665000Y-105551335D01*
X190665000Y-105268665D01*
X190609853Y-104991426D01*
X190501680Y-104730273D01*
X190344637Y-104495241D01*
X190144759Y-104295363D01*
X189912241Y-104140000D01*
X190144759Y-103984637D01*
X190344637Y-103784759D01*
X190501680Y-103549727D01*
X190609853Y-103288574D01*
X190665000Y-103011335D01*
X190665000Y-102728665D01*
X190609853Y-102451426D01*
X190501680Y-102190273D01*
X190344637Y-101955241D01*
X190144759Y-101755363D01*
X189912241Y-101600000D01*
X190144759Y-101444637D01*
X190344637Y-101244759D01*
X190501680Y-101009727D01*
X190609853Y-100748574D01*
X190665000Y-100471335D01*
X190665000Y-100188665D01*
X190609853Y-99911426D01*
X190501680Y-99650273D01*
X190344637Y-99415241D01*
X190144759Y-99215363D01*
X189912241Y-99060000D01*
X190144759Y-98904637D01*
X190344637Y-98704759D01*
X190501680Y-98469727D01*
X190609853Y-98208574D01*
X190665000Y-97931335D01*
X190665000Y-97648665D01*
X190609853Y-97371426D01*
X190501680Y-97110273D01*
X190344637Y-96875241D01*
X190144759Y-96675363D01*
X189912241Y-96520000D01*
X190144759Y-96364637D01*
X190344637Y-96164759D01*
X190501680Y-95929727D01*
X190609853Y-95668574D01*
X190665000Y-95391335D01*
X190665000Y-95108665D01*
X190609853Y-94831426D01*
X190501680Y-94570273D01*
X190344637Y-94335241D01*
X190144759Y-94135363D01*
X189912241Y-93980000D01*
X190144759Y-93824637D01*
X190344637Y-93624759D01*
X190501680Y-93389727D01*
X190609853Y-93128574D01*
X190665000Y-92851335D01*
X190665000Y-92568665D01*
X190609853Y-92291426D01*
X190501680Y-92030273D01*
X190344637Y-91795241D01*
X190144759Y-91595363D01*
X189912241Y-91440000D01*
X190144759Y-91284637D01*
X190344637Y-91084759D01*
X190501680Y-90849727D01*
X190609853Y-90588574D01*
X190665000Y-90311335D01*
X190665000Y-90028665D01*
X190609853Y-89751426D01*
X190501680Y-89490273D01*
X190344637Y-89255241D01*
X190144759Y-89055363D01*
X189909727Y-88898320D01*
X189648574Y-88790147D01*
X189371335Y-88735000D01*
X189088665Y-88735000D01*
X188811426Y-88790147D01*
X188550273Y-88898320D01*
X188315241Y-89055363D01*
X188115363Y-89255241D01*
X187960000Y-89487759D01*
X187804637Y-89255241D01*
X187604759Y-89055363D01*
X187369727Y-88898320D01*
X187108574Y-88790147D01*
X186831335Y-88735000D01*
X186548665Y-88735000D01*
X186271426Y-88790147D01*
X186010273Y-88898320D01*
X185775241Y-89055363D01*
X185575363Y-89255241D01*
X185420000Y-89487759D01*
X185264637Y-89255241D01*
X185064759Y-89055363D01*
X184829727Y-88898320D01*
X184568574Y-88790147D01*
X184291335Y-88735000D01*
X184008665Y-88735000D01*
X183731426Y-88790147D01*
X183470273Y-88898320D01*
X183235241Y-89055363D01*
X183035363Y-89255241D01*
X182880000Y-89487759D01*
X182724637Y-89255241D01*
X182524759Y-89055363D01*
X182289727Y-88898320D01*
X182028574Y-88790147D01*
X181751335Y-88735000D01*
X181468665Y-88735000D01*
X181191426Y-88790147D01*
X180930273Y-88898320D01*
X180695241Y-89055363D01*
X180495363Y-89255241D01*
X180340000Y-89487759D01*
X180184637Y-89255241D01*
X179984759Y-89055363D01*
X179749727Y-88898320D01*
X179488574Y-88790147D01*
X179211335Y-88735000D01*
X178928665Y-88735000D01*
X178651426Y-88790147D01*
X178390273Y-88898320D01*
X178155241Y-89055363D01*
X177955363Y-89255241D01*
X177800000Y-89487759D01*
X177644637Y-89255241D01*
X177444759Y-89055363D01*
X177209727Y-88898320D01*
X176948574Y-88790147D01*
X176671335Y-88735000D01*
X176388665Y-88735000D01*
X176111426Y-88790147D01*
X175850273Y-88898320D01*
X175615241Y-89055363D01*
X175415363Y-89255241D01*
X175260000Y-89487759D01*
X175104637Y-89255241D01*
X174904759Y-89055363D01*
X174669727Y-88898320D01*
X174408574Y-88790147D01*
X174131335Y-88735000D01*
X173848665Y-88735000D01*
X173571426Y-88790147D01*
X173310273Y-88898320D01*
X173075241Y-89055363D01*
X172875363Y-89255241D01*
X172718320Y-89490273D01*
X172610147Y-89751426D01*
X172555000Y-90028665D01*
X172555000Y-90311335D01*
X172610147Y-90588574D01*
X172718320Y-90849727D01*
X172875363Y-91084759D01*
X173075241Y-91284637D01*
X173307759Y-91440000D01*
X173075241Y-91595363D01*
X172875363Y-91795241D01*
X172718320Y-92030273D01*
X172610147Y-92291426D01*
X172555000Y-92568665D01*
X172555000Y-92851335D01*
X172610147Y-93128574D01*
X172718320Y-93389727D01*
X172875363Y-93624759D01*
X173075241Y-93824637D01*
X173307759Y-93980000D01*
X173075241Y-94135363D01*
X172875363Y-94335241D01*
X172718320Y-94570273D01*
X172610147Y-94831426D01*
X172555000Y-95108665D01*
X172555000Y-95391335D01*
X172610147Y-95668574D01*
X172718320Y-95929727D01*
X172875363Y-96164759D01*
X173075241Y-96364637D01*
X173307759Y-96520000D01*
X173075241Y-96675363D01*
X172875363Y-96875241D01*
X172718320Y-97110273D01*
X172610147Y-97371426D01*
X172555000Y-97648665D01*
X172555000Y-97931335D01*
X172610147Y-98208574D01*
X172718320Y-98469727D01*
X172875363Y-98704759D01*
X173075241Y-98904637D01*
X173307759Y-99060000D01*
X173075241Y-99215363D01*
X172875363Y-99415241D01*
X172718320Y-99650273D01*
X172610147Y-99911426D01*
X172555000Y-100188665D01*
X172555000Y-100471335D01*
X172610147Y-100748574D01*
X172648017Y-100840000D01*
X139102322Y-100840000D01*
X139064999Y-100836324D01*
X139027676Y-100840000D01*
X139027667Y-100840000D01*
X138916014Y-100850997D01*
X138772753Y-100894454D01*
X138640724Y-100965026D01*
X138640722Y-100965027D01*
X138640723Y-100965027D01*
X138553996Y-101036201D01*
X138553992Y-101036205D01*
X138524999Y-101059999D01*
X138501205Y-101088992D01*
X136210199Y-103380000D01*
X123794154Y-103380000D01*
X123735189Y-103237644D01*
X123526710Y-102925634D01*
X123261366Y-102660290D01*
X122949356Y-102451811D01*
X122602668Y-102308209D01*
X122234626Y-102235000D01*
X121859374Y-102235000D01*
X121491332Y-102308209D01*
X121144644Y-102451811D01*
X120832634Y-102660290D01*
X120567290Y-102925634D01*
X120358811Y-103237644D01*
X120215209Y-103584332D01*
X120142000Y-103952374D01*
X120142000Y-104327626D01*
X120215209Y-104695668D01*
X120358811Y-105042356D01*
X120567290Y-105354366D01*
X120832634Y-105619710D01*
X121144644Y-105828189D01*
X121491332Y-105971791D01*
X121859374Y-106045000D01*
X122234626Y-106045000D01*
X122602668Y-105971791D01*
X122949356Y-105828189D01*
X123261366Y-105619710D01*
X123526710Y-105354366D01*
X123735189Y-105042356D01*
X123794154Y-104900000D01*
X136487678Y-104900000D01*
X136525000Y-104903676D01*
X136562322Y-104900000D01*
X136562333Y-104900000D01*
X136673986Y-104889003D01*
X136817247Y-104845546D01*
X136949276Y-104774974D01*
X137065001Y-104680001D01*
X137088804Y-104650997D01*
X139379803Y-102360000D01*
X147274297Y-102360000D01*
X147052644Y-102451811D01*
X146740634Y-102660290D01*
X146475290Y-102925634D01*
X146266811Y-103237644D01*
X146123209Y-103584332D01*
X146050000Y-103952374D01*
X146050000Y-104327626D01*
X146123209Y-104695668D01*
X146266811Y-105042356D01*
X146475290Y-105354366D01*
X146740634Y-105619710D01*
X147052644Y-105828189D01*
X147195000Y-105887154D01*
X147195000Y-107273547D01*
X147094715Y-107173262D01*
X146663141Y-106884893D01*
X146183601Y-106686261D01*
X145674525Y-106585000D01*
X145155475Y-106585000D01*
X144646399Y-106686261D01*
X144166859Y-106884893D01*
X143735285Y-107173262D01*
X143368262Y-107540285D01*
X143079893Y-107971859D01*
X142881261Y-108451399D01*
X142780000Y-108960475D01*
X142780000Y-109479525D01*
X142881261Y-109988601D01*
X143079893Y-110468141D01*
X143368262Y-110899715D01*
X143735285Y-111266738D01*
X144166859Y-111555107D01*
X144646399Y-111753739D01*
X145155475Y-111855000D01*
X145674525Y-111855000D01*
X146183601Y-111753739D01*
X146663141Y-111555107D01*
X147094715Y-111266738D01*
X147195000Y-111166453D01*
X147195001Y-119977667D01*
X147191324Y-120015000D01*
X147195001Y-120052333D01*
X147201074Y-120113987D01*
X147205998Y-120163985D01*
X147249454Y-120307246D01*
X147320026Y-120439276D01*
X147373967Y-120505002D01*
X147415000Y-120555001D01*
X147443998Y-120578799D01*
X152923202Y-126058004D01*
X152947000Y-126087002D01*
X153062725Y-126181975D01*
X153194754Y-126252547D01*
X153338015Y-126296004D01*
X153449668Y-126307001D01*
X153449678Y-126307001D01*
X153487001Y-126310677D01*
X153524324Y-126307001D01*
X159234439Y-126307001D01*
X159271761Y-126310677D01*
X159309083Y-126307001D01*
X159309094Y-126307001D01*
X159420747Y-126296004D01*
X159564008Y-126252547D01*
X159696037Y-126181975D01*
X159811762Y-126087002D01*
X159835564Y-126057999D01*
X159997042Y-125896521D01*
X203580979Y-125896521D01*
X203580979Y-126343479D01*
X203668176Y-126781849D01*
X203839220Y-127194785D01*
X204087536Y-127566417D01*
X204403583Y-127882464D01*
X204775215Y-128130780D01*
X205188151Y-128301824D01*
X205626521Y-128389021D01*
X206073479Y-128389021D01*
X206511849Y-128301824D01*
X206924785Y-128130780D01*
X207296417Y-127882464D01*
X207612464Y-127566417D01*
X207860780Y-127194785D01*
X208031824Y-126781849D01*
X208119021Y-126343479D01*
X208119021Y-125896521D01*
X208031824Y-125458151D01*
X207860780Y-125045215D01*
X207612464Y-124673583D01*
X207296417Y-124357536D01*
X206924785Y-124109220D01*
X206511849Y-123938176D01*
X206073479Y-123850979D01*
X205626521Y-123850979D01*
X205188151Y-123938176D01*
X204775215Y-124109220D01*
X204403583Y-124357536D01*
X204087536Y-124673583D01*
X203839220Y-125045215D01*
X203668176Y-125458151D01*
X203580979Y-125896521D01*
X159997042Y-125896521D01*
X160348005Y-125545559D01*
X160371737Y-125526083D01*
X160387631Y-125541977D01*
X160504041Y-125425567D01*
X160571020Y-125665656D01*
X160820048Y-125782756D01*
X161087135Y-125849023D01*
X161362017Y-125861910D01*
X161634133Y-125820922D01*
X161893023Y-125727636D01*
X162008980Y-125665656D01*
X162075960Y-125425565D01*
X163044040Y-125425565D01*
X163111020Y-125665656D01*
X163360048Y-125782756D01*
X163627135Y-125849023D01*
X163902017Y-125861910D01*
X164174133Y-125820922D01*
X164433023Y-125727636D01*
X164548980Y-125665656D01*
X164615960Y-125425565D01*
X163830000Y-124639605D01*
X163044040Y-125425565D01*
X162075960Y-125425565D01*
X161290000Y-124639605D01*
X161275858Y-124653748D01*
X161096253Y-124474143D01*
X161110395Y-124460000D01*
X161469605Y-124460000D01*
X162255565Y-125245960D01*
X162495656Y-125178980D01*
X162557079Y-125048356D01*
X162562364Y-125063023D01*
X162624344Y-125178980D01*
X162864435Y-125245960D01*
X163650395Y-124460000D01*
X164009605Y-124460000D01*
X164795565Y-125245960D01*
X165035656Y-125178980D01*
X165099485Y-125043240D01*
X165131995Y-125121727D01*
X165284880Y-125350535D01*
X165479465Y-125545120D01*
X165708273Y-125698005D01*
X165962510Y-125803314D01*
X166232408Y-125857000D01*
X166507592Y-125857000D01*
X166777490Y-125803314D01*
X167031727Y-125698005D01*
X167260535Y-125545120D01*
X167455120Y-125350535D01*
X167608005Y-125121727D01*
X167713314Y-124867490D01*
X167767000Y-124597592D01*
X167767000Y-124322408D01*
X167713314Y-124052510D01*
X167608005Y-123798273D01*
X167455120Y-123569465D01*
X167260535Y-123374880D01*
X167031727Y-123221995D01*
X166777490Y-123116686D01*
X166507592Y-123063000D01*
X166232408Y-123063000D01*
X165962510Y-123116686D01*
X165708273Y-123221995D01*
X165479465Y-123374880D01*
X165284880Y-123569465D01*
X165131995Y-123798273D01*
X165102308Y-123869943D01*
X165097636Y-123856977D01*
X165035656Y-123741020D01*
X164795565Y-123674040D01*
X164009605Y-124460000D01*
X163650395Y-124460000D01*
X162864435Y-123674040D01*
X162624344Y-123741020D01*
X162562921Y-123871644D01*
X162557636Y-123856977D01*
X162495656Y-123741020D01*
X162255565Y-123674040D01*
X161469605Y-124460000D01*
X161110395Y-124460000D01*
X161096253Y-124445858D01*
X161275858Y-124266253D01*
X161290000Y-124280395D01*
X162075960Y-123494435D01*
X163044040Y-123494435D01*
X163830000Y-124280395D01*
X164615960Y-123494435D01*
X164548980Y-123254344D01*
X164299952Y-123137244D01*
X164032865Y-123070977D01*
X163757983Y-123058090D01*
X163485867Y-123099078D01*
X163226977Y-123192364D01*
X163111020Y-123254344D01*
X163044040Y-123494435D01*
X162075960Y-123494435D01*
X162008980Y-123254344D01*
X161759952Y-123137244D01*
X161722171Y-123127870D01*
X169935041Y-114915001D01*
X172708077Y-114915001D01*
X172610147Y-115151426D01*
X172555000Y-115428665D01*
X172555000Y-115711335D01*
X172610147Y-115988574D01*
X172718320Y-116249727D01*
X172875363Y-116484759D01*
X173075241Y-116684637D01*
X173307759Y-116840000D01*
X173075241Y-116995363D01*
X172875363Y-117195241D01*
X172718320Y-117430273D01*
X172610147Y-117691426D01*
X172555000Y-117968665D01*
X172555000Y-118251335D01*
X172610147Y-118528574D01*
X172718320Y-118789727D01*
X172875363Y-119024759D01*
X173075241Y-119224637D01*
X173307759Y-119380000D01*
X173075241Y-119535363D01*
X172875363Y-119735241D01*
X172718320Y-119970273D01*
X172610147Y-120231426D01*
X172555000Y-120508665D01*
X172555000Y-120791335D01*
X172610147Y-121068574D01*
X172718320Y-121329727D01*
X172875363Y-121564759D01*
X173073961Y-121763357D01*
X173065518Y-121764188D01*
X172945820Y-121800498D01*
X172835506Y-121859463D01*
X172738815Y-121938815D01*
X172659463Y-122035506D01*
X172600498Y-122145820D01*
X172564188Y-122265518D01*
X172551928Y-122390000D01*
X172551928Y-123990000D01*
X172564188Y-124114482D01*
X172600498Y-124234180D01*
X172659463Y-124344494D01*
X172738815Y-124441185D01*
X172835506Y-124520537D01*
X172945820Y-124579502D01*
X173065518Y-124615812D01*
X173190000Y-124628072D01*
X174790000Y-124628072D01*
X174914482Y-124615812D01*
X175034180Y-124579502D01*
X175144494Y-124520537D01*
X175241185Y-124441185D01*
X175320537Y-124344494D01*
X175379502Y-124234180D01*
X175395117Y-124182702D01*
X188416903Y-124182702D01*
X188488486Y-124426671D01*
X188743996Y-124547571D01*
X189018184Y-124616300D01*
X189300512Y-124630217D01*
X189580130Y-124588787D01*
X189846292Y-124493603D01*
X189971514Y-124426671D01*
X190043097Y-124182702D01*
X189230000Y-123369605D01*
X188416903Y-124182702D01*
X175395117Y-124182702D01*
X175415812Y-124114482D01*
X175428072Y-123990000D01*
X175428072Y-122390000D01*
X175415812Y-122265518D01*
X175379502Y-122145820D01*
X175320537Y-122035506D01*
X175241185Y-121938815D01*
X175144494Y-121859463D01*
X175034180Y-121800498D01*
X174962207Y-121778665D01*
X179945000Y-121778665D01*
X179945000Y-122061335D01*
X180000147Y-122338574D01*
X180108320Y-122599727D01*
X180265363Y-122834759D01*
X180465241Y-123034637D01*
X180700273Y-123191680D01*
X180961426Y-123299853D01*
X181238665Y-123355000D01*
X181521335Y-123355000D01*
X181798574Y-123299853D01*
X182059727Y-123191680D01*
X182294759Y-123034637D01*
X182445000Y-122884396D01*
X182595241Y-123034637D01*
X182830273Y-123191680D01*
X183091426Y-123299853D01*
X183368665Y-123355000D01*
X183651335Y-123355000D01*
X183928574Y-123299853D01*
X184023551Y-123260512D01*
X187789783Y-123260512D01*
X187831213Y-123540130D01*
X187926397Y-123806292D01*
X187993329Y-123931514D01*
X188237298Y-124003097D01*
X189050395Y-123190000D01*
X189409605Y-123190000D01*
X190222702Y-124003097D01*
X190466671Y-123931514D01*
X190587571Y-123676004D01*
X190656300Y-123401816D01*
X190670217Y-123119488D01*
X190628787Y-122839870D01*
X190533603Y-122573708D01*
X190466671Y-122448486D01*
X190222702Y-122376903D01*
X189409605Y-123190000D01*
X189050395Y-123190000D01*
X188237298Y-122376903D01*
X187993329Y-122448486D01*
X187872429Y-122703996D01*
X187803700Y-122978184D01*
X187789783Y-123260512D01*
X184023551Y-123260512D01*
X184189727Y-123191680D01*
X184424759Y-123034637D01*
X184624637Y-122834759D01*
X184781680Y-122599727D01*
X184889853Y-122338574D01*
X184945000Y-122061335D01*
X184945000Y-121778665D01*
X184889853Y-121501426D01*
X184781680Y-121240273D01*
X184624637Y-121005241D01*
X184424759Y-120805363D01*
X184189727Y-120648320D01*
X183928574Y-120540147D01*
X183651335Y-120485000D01*
X183368665Y-120485000D01*
X183091426Y-120540147D01*
X182830273Y-120648320D01*
X182595241Y-120805363D01*
X182445000Y-120955604D01*
X182294759Y-120805363D01*
X182059727Y-120648320D01*
X181798574Y-120540147D01*
X181521335Y-120485000D01*
X181238665Y-120485000D01*
X180961426Y-120540147D01*
X180700273Y-120648320D01*
X180465241Y-120805363D01*
X180265363Y-121005241D01*
X180108320Y-121240273D01*
X180000147Y-121501426D01*
X179945000Y-121778665D01*
X174962207Y-121778665D01*
X174914482Y-121764188D01*
X174906039Y-121763357D01*
X175104637Y-121564759D01*
X175261680Y-121329727D01*
X175369853Y-121068574D01*
X175425000Y-120791335D01*
X175425000Y-120508665D01*
X175369853Y-120231426D01*
X175261680Y-119970273D01*
X175104637Y-119735241D01*
X174904759Y-119535363D01*
X174672241Y-119380000D01*
X174904759Y-119224637D01*
X175104637Y-119024759D01*
X175261680Y-118789727D01*
X175369853Y-118528574D01*
X175425000Y-118251335D01*
X175425000Y-117968665D01*
X175369853Y-117691426D01*
X175261680Y-117430273D01*
X175104637Y-117195241D01*
X174904759Y-116995363D01*
X174672241Y-116840000D01*
X174904759Y-116684637D01*
X175104637Y-116484759D01*
X175261680Y-116249727D01*
X175369853Y-115988574D01*
X175425000Y-115711335D01*
X175425000Y-115428665D01*
X175369853Y-115151426D01*
X175271923Y-114915001D01*
X175367677Y-114915001D01*
X175404999Y-114918677D01*
X175442321Y-114915001D01*
X175442332Y-114915001D01*
X175553985Y-114904004D01*
X175697246Y-114860547D01*
X175829275Y-114789975D01*
X175945000Y-114695002D01*
X175968803Y-114665999D01*
X176569802Y-114065000D01*
X176631939Y-114065000D01*
X176831898Y-114025226D01*
X177020256Y-113947205D01*
X177189774Y-113833937D01*
X177333937Y-113689774D01*
X177447205Y-113520256D01*
X177525226Y-113331898D01*
X177565000Y-113131939D01*
X177565000Y-112928061D01*
X177525226Y-112728102D01*
X177447205Y-112539744D01*
X177333937Y-112370226D01*
X177189774Y-112226063D01*
X177020256Y-112112795D01*
X176831898Y-112034774D01*
X176631939Y-111995000D01*
X176428061Y-111995000D01*
X176228102Y-112034774D01*
X176039744Y-112112795D01*
X175870226Y-112226063D01*
X175726063Y-112370226D01*
X175612795Y-112539744D01*
X175534774Y-112728102D01*
X175495000Y-112928061D01*
X175495000Y-112990198D01*
X175425000Y-113060199D01*
X175425000Y-112888665D01*
X175369853Y-112611426D01*
X175261680Y-112350273D01*
X175104637Y-112115241D01*
X174904759Y-111915363D01*
X174672241Y-111760000D01*
X174904759Y-111604637D01*
X175104637Y-111404759D01*
X175208043Y-111250000D01*
X176380201Y-111250000D01*
X180699222Y-115569022D01*
X180465241Y-115725363D01*
X180265363Y-115925241D01*
X180108320Y-116160273D01*
X180000147Y-116421426D01*
X179945000Y-116698665D01*
X179945000Y-116981335D01*
X180000147Y-117258574D01*
X180108320Y-117519727D01*
X180265363Y-117754759D01*
X180465241Y-117954637D01*
X180700273Y-118111680D01*
X180961426Y-118219853D01*
X181238665Y-118275000D01*
X181521335Y-118275000D01*
X181798574Y-118219853D01*
X182059727Y-118111680D01*
X182294759Y-117954637D01*
X182494637Y-117754759D01*
X182650978Y-117520778D01*
X185166201Y-120036001D01*
X185190000Y-120065000D01*
X185218998Y-120088798D01*
X185305724Y-120159973D01*
X185333577Y-120174861D01*
X185310147Y-120231426D01*
X185255000Y-120508665D01*
X185255000Y-120791335D01*
X185310147Y-121068574D01*
X185418320Y-121329727D01*
X185575363Y-121564759D01*
X185775241Y-121764637D01*
X186010273Y-121921680D01*
X186271426Y-122029853D01*
X186548665Y-122085000D01*
X186831335Y-122085000D01*
X187108574Y-122029853D01*
X187369727Y-121921680D01*
X187604759Y-121764637D01*
X187804637Y-121564759D01*
X187960000Y-121332241D01*
X188115363Y-121564759D01*
X188315241Y-121764637D01*
X188549128Y-121920915D01*
X188488486Y-121953329D01*
X188416903Y-122197298D01*
X189230000Y-123010395D01*
X190043097Y-122197298D01*
X189971514Y-121953329D01*
X189907008Y-121922806D01*
X189909727Y-121921680D01*
X190144759Y-121764637D01*
X190344637Y-121564759D01*
X190501680Y-121329727D01*
X190609853Y-121068574D01*
X190665000Y-120791335D01*
X190665000Y-120508665D01*
X190620509Y-120284999D01*
X199349196Y-120284999D01*
X199540195Y-120475998D01*
X199563998Y-120505002D01*
X199679723Y-120599975D01*
X199811752Y-120670547D01*
X199955013Y-120714004D01*
X200066666Y-120725001D01*
X200066674Y-120725001D01*
X200103999Y-120728677D01*
X200141324Y-120725001D01*
X204377677Y-120725001D01*
X204414999Y-120728677D01*
X204452321Y-120725001D01*
X204452332Y-120725001D01*
X204563985Y-120714004D01*
X204707246Y-120670547D01*
X204839275Y-120599975D01*
X204955000Y-120505002D01*
X204978802Y-120475999D01*
X205248624Y-120206177D01*
X205263088Y-120212168D01*
X205578967Y-120275000D01*
X205901033Y-120275000D01*
X206216912Y-120212168D01*
X206514463Y-120088918D01*
X206782252Y-119909987D01*
X207009987Y-119682252D01*
X207188918Y-119414463D01*
X207312168Y-119116912D01*
X207375000Y-118801033D01*
X207375000Y-118478967D01*
X207312168Y-118163088D01*
X207188918Y-117865537D01*
X207009987Y-117597748D01*
X206782252Y-117370013D01*
X206514463Y-117191082D01*
X206216912Y-117067832D01*
X205901033Y-117005000D01*
X205578967Y-117005000D01*
X205263088Y-117067832D01*
X204965537Y-117191082D01*
X204697748Y-117370013D01*
X204470013Y-117597748D01*
X204291082Y-117865537D01*
X204167832Y-118163088D01*
X204105000Y-118478967D01*
X204105000Y-118801033D01*
X204167832Y-119116912D01*
X204173823Y-119131376D01*
X204100198Y-119205001D01*
X202275680Y-119205001D01*
X202312168Y-119116912D01*
X202375000Y-118801033D01*
X202375000Y-118478967D01*
X202312168Y-118163088D01*
X202188918Y-117865537D01*
X202009987Y-117597748D01*
X201782252Y-117370013D01*
X201514463Y-117191082D01*
X201216912Y-117067832D01*
X200901033Y-117005000D01*
X200578967Y-117005000D01*
X200263088Y-117067832D01*
X199965537Y-117191082D01*
X199697748Y-117370013D01*
X199470013Y-117597748D01*
X199291082Y-117865537D01*
X199167832Y-118163088D01*
X199105000Y-118478967D01*
X199105000Y-118764999D01*
X190511923Y-118764999D01*
X190609853Y-118528574D01*
X190665000Y-118251335D01*
X190665000Y-117968665D01*
X190609853Y-117691426D01*
X190501680Y-117430273D01*
X190344637Y-117195241D01*
X190144759Y-116995363D01*
X189912241Y-116840000D01*
X190144759Y-116684637D01*
X190344637Y-116484759D01*
X190448043Y-116330000D01*
X191097678Y-116330000D01*
X191135000Y-116333676D01*
X191172322Y-116330000D01*
X191172333Y-116330000D01*
X191283986Y-116319003D01*
X191427247Y-116275546D01*
X191559276Y-116204974D01*
X191675001Y-116110001D01*
X191698804Y-116080997D01*
X194821004Y-112958798D01*
X194850001Y-112935001D01*
X194894307Y-112881014D01*
X194944974Y-112819277D01*
X195015546Y-112687247D01*
X195032911Y-112630000D01*
X195059003Y-112543986D01*
X195070000Y-112432333D01*
X195070000Y-112432324D01*
X195073676Y-112395001D01*
X195070000Y-112357678D01*
X195070000Y-111419872D01*
X195405000Y-111419872D01*
X195405000Y-111860128D01*
X195490890Y-112291925D01*
X195659369Y-112698669D01*
X195903962Y-113064729D01*
X196215271Y-113376038D01*
X196581331Y-113620631D01*
X196988075Y-113789110D01*
X197419872Y-113875000D01*
X197860128Y-113875000D01*
X198291925Y-113789110D01*
X198698669Y-113620631D01*
X199064729Y-113376038D01*
X199376038Y-113064729D01*
X199620631Y-112698669D01*
X199789110Y-112291925D01*
X199875000Y-111860128D01*
X199875000Y-111419872D01*
X206605000Y-111419872D01*
X206605000Y-111860128D01*
X206690890Y-112291925D01*
X206859369Y-112698669D01*
X207103962Y-113064729D01*
X207415271Y-113376038D01*
X207781331Y-113620631D01*
X208188075Y-113789110D01*
X208619872Y-113875000D01*
X209060128Y-113875000D01*
X209491925Y-113789110D01*
X209898669Y-113620631D01*
X210264729Y-113376038D01*
X210576038Y-113064729D01*
X210820631Y-112698669D01*
X210989110Y-112291925D01*
X211075000Y-111860128D01*
X211075000Y-111419872D01*
X210989110Y-110988075D01*
X210820631Y-110581331D01*
X210576038Y-110215271D01*
X210264729Y-109903962D01*
X209898669Y-109659369D01*
X209491925Y-109490890D01*
X209060128Y-109405000D01*
X208619872Y-109405000D01*
X208188075Y-109490890D01*
X207781331Y-109659369D01*
X207415271Y-109903962D01*
X207103962Y-110215271D01*
X206859369Y-110581331D01*
X206690890Y-110988075D01*
X206605000Y-111419872D01*
X199875000Y-111419872D01*
X199789110Y-110988075D01*
X199620631Y-110581331D01*
X199376038Y-110215271D01*
X199064729Y-109903962D01*
X198698669Y-109659369D01*
X198291925Y-109490890D01*
X197860128Y-109405000D01*
X197419872Y-109405000D01*
X196988075Y-109490890D01*
X196581331Y-109659369D01*
X196215271Y-109903962D01*
X195903962Y-110215271D01*
X195659369Y-110581331D01*
X195490890Y-110988075D01*
X195405000Y-111419872D01*
X195070000Y-111419872D01*
X195070000Y-101498061D01*
X196831000Y-101498061D01*
X196831000Y-101701939D01*
X196870774Y-101901898D01*
X196948795Y-102090256D01*
X197062063Y-102259774D01*
X197206226Y-102403937D01*
X197375744Y-102517205D01*
X197564102Y-102595226D01*
X197764061Y-102635000D01*
X197967939Y-102635000D01*
X198167898Y-102595226D01*
X198356256Y-102517205D01*
X198525774Y-102403937D01*
X198569711Y-102360000D01*
X200464289Y-102360000D01*
X200508226Y-102403937D01*
X200659478Y-102505000D01*
X200578967Y-102505000D01*
X200263088Y-102567832D01*
X199965537Y-102691082D01*
X199697748Y-102870013D01*
X199470013Y-103097748D01*
X199291082Y-103365537D01*
X199167832Y-103663088D01*
X199105000Y-103978967D01*
X199105000Y-104301033D01*
X199167832Y-104616912D01*
X199291082Y-104914463D01*
X199470013Y-105182252D01*
X199697748Y-105409987D01*
X199965537Y-105588918D01*
X200263088Y-105712168D01*
X200578967Y-105775000D01*
X200901033Y-105775000D01*
X201216912Y-105712168D01*
X201514463Y-105588918D01*
X201782252Y-105409987D01*
X201990000Y-105202239D01*
X202197748Y-105409987D01*
X202465537Y-105588918D01*
X202763088Y-105712168D01*
X203078967Y-105775000D01*
X203401033Y-105775000D01*
X203716912Y-105712168D01*
X204014463Y-105588918D01*
X204195335Y-105468063D01*
X204209463Y-105494494D01*
X204288815Y-105591185D01*
X204385506Y-105670537D01*
X204495820Y-105729502D01*
X204615518Y-105765812D01*
X204740000Y-105778072D01*
X206740000Y-105778072D01*
X206864482Y-105765812D01*
X206984180Y-105729502D01*
X207094494Y-105670537D01*
X207191185Y-105591185D01*
X207270537Y-105494494D01*
X207329502Y-105384180D01*
X207365812Y-105264482D01*
X207378072Y-105140000D01*
X207378072Y-103140000D01*
X207365812Y-103015518D01*
X207329502Y-102895820D01*
X207270537Y-102785506D01*
X207191185Y-102688815D01*
X207094494Y-102609463D01*
X206984180Y-102550498D01*
X206864482Y-102514188D01*
X206740000Y-102501928D01*
X204740000Y-102501928D01*
X204615518Y-102514188D01*
X204495820Y-102550498D01*
X204385506Y-102609463D01*
X204288815Y-102688815D01*
X204209463Y-102785506D01*
X204195335Y-102811937D01*
X204014463Y-102691082D01*
X203716912Y-102567832D01*
X203401033Y-102505000D01*
X203078967Y-102505000D01*
X202763088Y-102567832D01*
X202465537Y-102691082D01*
X202197748Y-102870013D01*
X201990000Y-103077761D01*
X201782252Y-102870013D01*
X201514463Y-102691082D01*
X201343665Y-102620335D01*
X201469898Y-102595226D01*
X201658256Y-102517205D01*
X201827774Y-102403937D01*
X201971937Y-102259774D01*
X202085205Y-102090256D01*
X202163226Y-101901898D01*
X202203000Y-101701939D01*
X202203000Y-101498061D01*
X202163226Y-101298102D01*
X202085205Y-101109744D01*
X201971937Y-100940226D01*
X201827774Y-100796063D01*
X201658256Y-100682795D01*
X201469898Y-100604774D01*
X201269939Y-100565000D01*
X201066061Y-100565000D01*
X200866102Y-100604774D01*
X200677744Y-100682795D01*
X200508226Y-100796063D01*
X200464289Y-100840000D01*
X198569711Y-100840000D01*
X198525774Y-100796063D01*
X198356256Y-100682795D01*
X198167898Y-100604774D01*
X197967939Y-100565000D01*
X197764061Y-100565000D01*
X197564102Y-100604774D01*
X197375744Y-100682795D01*
X197206226Y-100796063D01*
X197062063Y-100940226D01*
X196948795Y-101109744D01*
X196870774Y-101298102D01*
X196831000Y-101498061D01*
X195070000Y-101498061D01*
X195070000Y-85127325D01*
X195073676Y-85090000D01*
X195070000Y-85052675D01*
X195070000Y-85052667D01*
X195059003Y-84941014D01*
X195015546Y-84797753D01*
X194944974Y-84665724D01*
X194850001Y-84549999D01*
X194821003Y-84526201D01*
X193227736Y-82932934D01*
X193341898Y-82910226D01*
X193530256Y-82832205D01*
X193699774Y-82718937D01*
X193843937Y-82574774D01*
X193957205Y-82405256D01*
X194035226Y-82216898D01*
X194075000Y-82016939D01*
X194075000Y-81813061D01*
X194035226Y-81613102D01*
X193957205Y-81424744D01*
X193843937Y-81255226D01*
X193699774Y-81111063D01*
X193530256Y-80997795D01*
X193341898Y-80919774D01*
X193224997Y-80896521D01*
X203580979Y-80896521D01*
X203580979Y-81343479D01*
X203668176Y-81781849D01*
X203839220Y-82194785D01*
X204087536Y-82566417D01*
X204403583Y-82882464D01*
X204775215Y-83130780D01*
X205188151Y-83301824D01*
X205626521Y-83389021D01*
X206073479Y-83389021D01*
X206511849Y-83301824D01*
X206924785Y-83130780D01*
X207296417Y-82882464D01*
X207612464Y-82566417D01*
X207860780Y-82194785D01*
X208031824Y-81781849D01*
X208119021Y-81343479D01*
X208119021Y-80896521D01*
X208031824Y-80458151D01*
X207860780Y-80045215D01*
X207612464Y-79673583D01*
X207296417Y-79357536D01*
X206924785Y-79109220D01*
X206511849Y-78938176D01*
X206073479Y-78850979D01*
X205626521Y-78850979D01*
X205188151Y-78938176D01*
X204775215Y-79109220D01*
X204403583Y-79357536D01*
X204087536Y-79673583D01*
X203839220Y-80045215D01*
X203668176Y-80458151D01*
X203580979Y-80896521D01*
X193224997Y-80896521D01*
X193141939Y-80880000D01*
X193079802Y-80880000D01*
X187888804Y-75689003D01*
X187865001Y-75659999D01*
X187749276Y-75565026D01*
X187617247Y-75494454D01*
X187473986Y-75450997D01*
X187362333Y-75440000D01*
X187362322Y-75440000D01*
X187325000Y-75436324D01*
X187287678Y-75440000D01*
X143547322Y-75440000D01*
X143509999Y-75436324D01*
X143472676Y-75440000D01*
X143472667Y-75440000D01*
X143361014Y-75450997D01*
X143257151Y-75482503D01*
X143217753Y-75494454D01*
X143085723Y-75565026D01*
X143007279Y-75629404D01*
X142969999Y-75659999D01*
X142946201Y-75688997D01*
X136845199Y-81790000D01*
X122600703Y-81790000D01*
X122822356Y-81698189D01*
X123134366Y-81489710D01*
X123399710Y-81224366D01*
X123608189Y-80912356D01*
X123751791Y-80565668D01*
X123825000Y-80197626D01*
X123825000Y-79822374D01*
X123751791Y-79454332D01*
X123608189Y-79107644D01*
X123399710Y-78795634D01*
X123134366Y-78530290D01*
X122822356Y-78321811D01*
X122475668Y-78178209D01*
X122107626Y-78105000D01*
X121732374Y-78105000D01*
X121364332Y-78178209D01*
X121017644Y-78321811D01*
X120705634Y-78530290D01*
X120440290Y-78795634D01*
X120231811Y-79107644D01*
X120088209Y-79454332D01*
X120015000Y-79822374D01*
X120015000Y-80197626D01*
X120088209Y-80565668D01*
X120231811Y-80912356D01*
X120440290Y-81224366D01*
X120705634Y-81489710D01*
X121017644Y-81698189D01*
X121239297Y-81790000D01*
X117317154Y-81790000D01*
X117258189Y-81647644D01*
X117049710Y-81335634D01*
X116784366Y-81070290D01*
X116472356Y-80861811D01*
X116125668Y-80718209D01*
X115757626Y-80645000D01*
X115382374Y-80645000D01*
X115014332Y-80718209D01*
X114667644Y-80861811D01*
X114355634Y-81070290D01*
X114090290Y-81335634D01*
X113881811Y-81647644D01*
X113738209Y-81994332D01*
X113665000Y-82362374D01*
X113665000Y-82737626D01*
X113738209Y-83105668D01*
X113881811Y-83452356D01*
X114003741Y-83634837D01*
X113866842Y-83662068D01*
X113596589Y-83774010D01*
X113353368Y-83936525D01*
X113146525Y-84143368D01*
X112984010Y-84386589D01*
X112872068Y-84656842D01*
X112815000Y-84943740D01*
X100545000Y-84943740D01*
X100487932Y-84656842D01*
X100375990Y-84386589D01*
X100213475Y-84143368D01*
X100006632Y-83936525D01*
X99763411Y-83774010D01*
X99493158Y-83662068D01*
X99206260Y-83605000D01*
X98913740Y-83605000D01*
X98626842Y-83662068D01*
X98356589Y-83774010D01*
X98113368Y-83936525D01*
X97906525Y-84143368D01*
X97744010Y-84386589D01*
X97632068Y-84656842D01*
X97575000Y-84943740D01*
X96615000Y-84943740D01*
X96615000Y-84830475D01*
X96513739Y-84321399D01*
X96315107Y-83841859D01*
X96026738Y-83410285D01*
X95659715Y-83043262D01*
X95228141Y-82754893D01*
X94748601Y-82556261D01*
X94239525Y-82455000D01*
X93720475Y-82455000D01*
X93211399Y-82556261D01*
X92731859Y-82754893D01*
X92300285Y-83043262D01*
X91933262Y-83410285D01*
X91644893Y-83841859D01*
X91446261Y-84321399D01*
X91345000Y-84830475D01*
X90362471Y-84830475D01*
X90327932Y-84656842D01*
X90244327Y-84455000D01*
X90357626Y-84455000D01*
X90725668Y-84381791D01*
X91072356Y-84238189D01*
X91384366Y-84029710D01*
X91649710Y-83764366D01*
X91858189Y-83452356D01*
X92001791Y-83105668D01*
X92075000Y-82737626D01*
X92075000Y-82362374D01*
X92001791Y-81994332D01*
X91858189Y-81647644D01*
X91649710Y-81335634D01*
X91384366Y-81070290D01*
X91072356Y-80861811D01*
X90725668Y-80718209D01*
X90357626Y-80645000D01*
X89982374Y-80645000D01*
X89614332Y-80718209D01*
X89267644Y-80861811D01*
X88955634Y-81070290D01*
X88690290Y-81335634D01*
X88481811Y-81647644D01*
X88338209Y-81994332D01*
X88265000Y-82362374D01*
X88265000Y-82737626D01*
X88338209Y-83105668D01*
X88481811Y-83452356D01*
X88603741Y-83634837D01*
X88466842Y-83662068D01*
X88196589Y-83774010D01*
X87953368Y-83936525D01*
X87746525Y-84143368D01*
X87584010Y-84386589D01*
X87472068Y-84656842D01*
X87415000Y-84943740D01*
X78504609Y-84943740D01*
X77983129Y-84422261D01*
X78030537Y-84364494D01*
X78089502Y-84254180D01*
X78125812Y-84134482D01*
X78138072Y-84010000D01*
X78138072Y-82010000D01*
X78125812Y-81885518D01*
X78089502Y-81765820D01*
X78030537Y-81655506D01*
X77951185Y-81558815D01*
X77854494Y-81479463D01*
X77744180Y-81420498D01*
X77624482Y-81384188D01*
X77500000Y-81371928D01*
X74900000Y-81371928D01*
X74775518Y-81384188D01*
X74655820Y-81420498D01*
X74545506Y-81479463D01*
X74448815Y-81558815D01*
X74369463Y-81655506D01*
X74310498Y-81765820D01*
X74274188Y-81885518D01*
X74261928Y-82010000D01*
X74261928Y-84010000D01*
X74274188Y-84134482D01*
X74310498Y-84254180D01*
X74369463Y-84364494D01*
X74448815Y-84461185D01*
X74545506Y-84540537D01*
X74655820Y-84599502D01*
X74775518Y-84635812D01*
X74900000Y-84648072D01*
X75365000Y-84648072D01*
X75365001Y-86014130D01*
X72799704Y-88579428D01*
X71390000Y-88579428D01*
X71265518Y-88591688D01*
X71145820Y-88627998D01*
X71035506Y-88686963D01*
X70938815Y-88766315D01*
X70859463Y-88863006D01*
X70800498Y-88973320D01*
X70764188Y-89093018D01*
X70751928Y-89217500D01*
X70751928Y-91122500D01*
X70764188Y-91246982D01*
X70800498Y-91366680D01*
X70859463Y-91476994D01*
X70938815Y-91573685D01*
X71035506Y-91653037D01*
X71119446Y-91697905D01*
X71016155Y-91823765D01*
X70868745Y-92099551D01*
X70777970Y-92398796D01*
X70747319Y-92710000D01*
X69342000Y-92710000D01*
X69342000Y-78710000D01*
X79261928Y-78710000D01*
X79261928Y-81310000D01*
X79274188Y-81434482D01*
X79310498Y-81554180D01*
X79369463Y-81664494D01*
X79448815Y-81761185D01*
X79545506Y-81840537D01*
X79655820Y-81899502D01*
X79775518Y-81935812D01*
X79900000Y-81948072D01*
X81900000Y-81948072D01*
X82024482Y-81935812D01*
X82144180Y-81899502D01*
X82254494Y-81840537D01*
X82351185Y-81761185D01*
X82430537Y-81664494D01*
X82489502Y-81554180D01*
X82525812Y-81434482D01*
X82538072Y-81310000D01*
X82538072Y-79822374D01*
X94615000Y-79822374D01*
X94615000Y-80197626D01*
X94688209Y-80565668D01*
X94831811Y-80912356D01*
X95040290Y-81224366D01*
X95305634Y-81489710D01*
X95617644Y-81698189D01*
X95964332Y-81841791D01*
X96332374Y-81915000D01*
X96707626Y-81915000D01*
X97075668Y-81841791D01*
X97422356Y-81698189D01*
X97734366Y-81489710D01*
X97999710Y-81224366D01*
X98208189Y-80912356D01*
X98351791Y-80565668D01*
X98425000Y-80197626D01*
X98425000Y-79822374D01*
X98351791Y-79454332D01*
X98208189Y-79107644D01*
X97999710Y-78795634D01*
X97734366Y-78530290D01*
X97422356Y-78321811D01*
X97075668Y-78178209D01*
X96707626Y-78105000D01*
X96332374Y-78105000D01*
X95964332Y-78178209D01*
X95617644Y-78321811D01*
X95305634Y-78530290D01*
X95040290Y-78795634D01*
X94831811Y-79107644D01*
X94688209Y-79454332D01*
X94615000Y-79822374D01*
X82538072Y-79822374D01*
X82538072Y-78710000D01*
X82525812Y-78585518D01*
X82489502Y-78465820D01*
X82430537Y-78355506D01*
X82351185Y-78258815D01*
X82254494Y-78179463D01*
X82144180Y-78120498D01*
X82024482Y-78084188D01*
X81900000Y-78071928D01*
X79900000Y-78071928D01*
X79775518Y-78084188D01*
X79655820Y-78120498D01*
X79545506Y-78179463D01*
X79448815Y-78258815D01*
X79369463Y-78355506D01*
X79310498Y-78465820D01*
X79274188Y-78585518D01*
X79261928Y-78710000D01*
X69342000Y-78710000D01*
X69342000Y-76010000D01*
X74261928Y-76010000D01*
X74261928Y-78010000D01*
X74274188Y-78134482D01*
X74310498Y-78254180D01*
X74369463Y-78364494D01*
X74448815Y-78461185D01*
X74545506Y-78540537D01*
X74655820Y-78599502D01*
X74775518Y-78635812D01*
X74900000Y-78648072D01*
X77500000Y-78648072D01*
X77624482Y-78635812D01*
X77744180Y-78599502D01*
X77854494Y-78540537D01*
X77951185Y-78461185D01*
X78030537Y-78364494D01*
X78089502Y-78254180D01*
X78125812Y-78134482D01*
X78138072Y-78010000D01*
X78138072Y-76010000D01*
X78125812Y-75885518D01*
X78089502Y-75765820D01*
X78030537Y-75655506D01*
X77951185Y-75558815D01*
X77854494Y-75479463D01*
X77744180Y-75420498D01*
X77624482Y-75384188D01*
X77500000Y-75371928D01*
X74900000Y-75371928D01*
X74775518Y-75384188D01*
X74655820Y-75420498D01*
X74545506Y-75479463D01*
X74448815Y-75558815D01*
X74369463Y-75655506D01*
X74310498Y-75765820D01*
X74274188Y-75885518D01*
X74261928Y-76010000D01*
X69342000Y-76010000D01*
X69342000Y-75082120D01*
X69450650Y-74877778D01*
X69603832Y-74689959D01*
X69790577Y-74535470D01*
X70000438Y-74422000D01*
X208024466Y-74422000D01*
X208767678Y-74600430D01*
%TA.AperFunction,Conductor*%
D27*
G36*
X208767678Y-74600430D02*
G01*
X209592275Y-74941989D01*
X210353299Y-75408345D01*
X211031994Y-75988006D01*
X211611655Y-76666701D01*
X212078009Y-77427720D01*
X212419570Y-78252322D01*
X212598000Y-78995536D01*
X212598000Y-125474464D01*
X212419570Y-126217678D01*
X212078009Y-127042280D01*
X211611655Y-127803299D01*
X211031994Y-128481994D01*
X210353299Y-129061655D01*
X209592275Y-129528011D01*
X208767678Y-129869570D01*
X208024466Y-130048000D01*
X73915536Y-130048000D01*
X73172322Y-129869570D01*
X72347720Y-129528009D01*
X71586701Y-129061655D01*
X70908006Y-128481994D01*
X70328345Y-127803299D01*
X69861989Y-127042275D01*
X69520430Y-126217678D01*
X69443327Y-125896521D01*
X73580979Y-125896521D01*
X73580979Y-126343479D01*
X73668176Y-126781849D01*
X73839220Y-127194785D01*
X74087536Y-127566417D01*
X74403583Y-127882464D01*
X74775215Y-128130780D01*
X75188151Y-128301824D01*
X75626521Y-128389021D01*
X76073479Y-128389021D01*
X76511849Y-128301824D01*
X76924785Y-128130780D01*
X77296417Y-127882464D01*
X77612464Y-127566417D01*
X77860780Y-127194785D01*
X78031824Y-126781849D01*
X78119021Y-126343479D01*
X78119021Y-125896521D01*
X78031824Y-125458151D01*
X77860780Y-125045215D01*
X77612464Y-124673583D01*
X77296417Y-124357536D01*
X77153512Y-124262050D01*
X85035000Y-124262050D01*
X85035000Y-124657949D01*
X85056487Y-124876110D01*
X85141401Y-125156033D01*
X85279294Y-125414013D01*
X85464866Y-125640134D01*
X85690986Y-125825706D01*
X85948966Y-125963599D01*
X86228889Y-126048513D01*
X86520000Y-126077185D01*
X86811110Y-126048513D01*
X87091033Y-125963599D01*
X87349013Y-125825706D01*
X87575134Y-125640134D01*
X87760706Y-125414014D01*
X87770000Y-125396626D01*
X87779294Y-125414013D01*
X87964866Y-125640134D01*
X88190986Y-125825706D01*
X88448966Y-125963599D01*
X88728889Y-126048513D01*
X89020000Y-126077185D01*
X89311110Y-126048513D01*
X89591033Y-125963599D01*
X89849013Y-125825706D01*
X90075134Y-125640134D01*
X90260706Y-125414014D01*
X90274462Y-125388278D01*
X90430951Y-125594429D01*
X90648807Y-125787496D01*
X90900142Y-125934352D01*
X91163110Y-126026476D01*
X91393000Y-125905155D01*
X91393000Y-124587000D01*
X91373000Y-124587000D01*
X91373000Y-124333000D01*
X91393000Y-124333000D01*
X91393000Y-123014845D01*
X91647000Y-123014845D01*
X91647000Y-124333000D01*
X91667000Y-124333000D01*
X91667000Y-124587000D01*
X91647000Y-124587000D01*
X91647000Y-125905155D01*
X91876890Y-126026476D01*
X92139858Y-125934352D01*
X92391193Y-125787496D01*
X92609049Y-125594429D01*
X92765538Y-125388278D01*
X92779294Y-125414013D01*
X92964866Y-125640134D01*
X93190986Y-125825706D01*
X93448966Y-125963599D01*
X93728889Y-126048513D01*
X94020000Y-126077185D01*
X94311110Y-126048513D01*
X94591033Y-125963599D01*
X94849013Y-125825706D01*
X95075134Y-125640134D01*
X95127223Y-125576663D01*
X95181595Y-125678386D01*
X95292038Y-125812962D01*
X95426614Y-125923405D01*
X95580150Y-126005472D01*
X95746746Y-126056008D01*
X95920000Y-126073072D01*
X97120000Y-126073072D01*
X97293254Y-126056008D01*
X97459850Y-126005472D01*
X97613386Y-125923405D01*
X97747962Y-125812962D01*
X97858405Y-125678386D01*
X97940472Y-125524850D01*
X97991008Y-125358254D01*
X98008072Y-125185000D01*
X98008072Y-124262050D01*
X105355000Y-124262050D01*
X105355000Y-124657949D01*
X105376487Y-124876110D01*
X105461401Y-125156033D01*
X105599294Y-125414013D01*
X105784866Y-125640134D01*
X106010986Y-125825706D01*
X106268966Y-125963599D01*
X106548889Y-126048513D01*
X106840000Y-126077185D01*
X107131110Y-126048513D01*
X107411033Y-125963599D01*
X107669013Y-125825706D01*
X107895134Y-125640134D01*
X108080706Y-125414014D01*
X108090000Y-125396626D01*
X108099294Y-125414013D01*
X108284866Y-125640134D01*
X108510986Y-125825706D01*
X108768966Y-125963599D01*
X109048889Y-126048513D01*
X109340000Y-126077185D01*
X109631110Y-126048513D01*
X109911033Y-125963599D01*
X110169013Y-125825706D01*
X110395134Y-125640134D01*
X110580706Y-125414014D01*
X110594462Y-125388278D01*
X110750951Y-125594429D01*
X110968807Y-125787496D01*
X111220142Y-125934352D01*
X111483110Y-126026476D01*
X111713000Y-125905155D01*
X111713000Y-124587000D01*
X111693000Y-124587000D01*
X111693000Y-124333000D01*
X111713000Y-124333000D01*
X111713000Y-123014845D01*
X111967000Y-123014845D01*
X111967000Y-124333000D01*
X111987000Y-124333000D01*
X111987000Y-124587000D01*
X111967000Y-124587000D01*
X111967000Y-125905155D01*
X112196890Y-126026476D01*
X112459858Y-125934352D01*
X112711193Y-125787496D01*
X112929049Y-125594429D01*
X113085538Y-125388278D01*
X113099294Y-125414013D01*
X113284866Y-125640134D01*
X113510986Y-125825706D01*
X113768966Y-125963599D01*
X114048889Y-126048513D01*
X114340000Y-126077185D01*
X114631110Y-126048513D01*
X114911033Y-125963599D01*
X115169013Y-125825706D01*
X115395134Y-125640134D01*
X115447223Y-125576663D01*
X115501595Y-125678386D01*
X115612038Y-125812962D01*
X115746614Y-125923405D01*
X115900150Y-126005472D01*
X116066746Y-126056008D01*
X116240000Y-126073072D01*
X117440000Y-126073072D01*
X117613254Y-126056008D01*
X117779850Y-126005472D01*
X117933386Y-125923405D01*
X118067962Y-125812962D01*
X118178405Y-125678386D01*
X118260472Y-125524850D01*
X118311008Y-125358254D01*
X118328072Y-125185000D01*
X118328072Y-124262050D01*
X126190000Y-124262050D01*
X126190000Y-124657949D01*
X126211487Y-124876110D01*
X126296401Y-125156033D01*
X126434294Y-125414013D01*
X126619866Y-125640134D01*
X126845986Y-125825706D01*
X127103966Y-125963599D01*
X127383889Y-126048513D01*
X127675000Y-126077185D01*
X127966110Y-126048513D01*
X128246033Y-125963599D01*
X128504013Y-125825706D01*
X128730134Y-125640134D01*
X128915706Y-125414014D01*
X128925000Y-125396626D01*
X128934294Y-125414013D01*
X129119866Y-125640134D01*
X129345986Y-125825706D01*
X129603966Y-125963599D01*
X129883889Y-126048513D01*
X130175000Y-126077185D01*
X130466110Y-126048513D01*
X130746033Y-125963599D01*
X131004013Y-125825706D01*
X131230134Y-125640134D01*
X131415706Y-125414014D01*
X131429462Y-125388278D01*
X131585951Y-125594429D01*
X131803807Y-125787496D01*
X132055142Y-125934352D01*
X132318110Y-126026476D01*
X132548000Y-125905155D01*
X132548000Y-124587000D01*
X132528000Y-124587000D01*
X132528000Y-124333000D01*
X132548000Y-124333000D01*
X132548000Y-123014845D01*
X132802000Y-123014845D01*
X132802000Y-124333000D01*
X132822000Y-124333000D01*
X132822000Y-124587000D01*
X132802000Y-124587000D01*
X132802000Y-125905155D01*
X133031890Y-126026476D01*
X133294858Y-125934352D01*
X133546193Y-125787496D01*
X133764049Y-125594429D01*
X133920538Y-125388278D01*
X133934294Y-125414013D01*
X134119866Y-125640134D01*
X134345986Y-125825706D01*
X134603966Y-125963599D01*
X134883889Y-126048513D01*
X135175000Y-126077185D01*
X135466110Y-126048513D01*
X135746033Y-125963599D01*
X136004013Y-125825706D01*
X136230134Y-125640134D01*
X136282223Y-125576663D01*
X136336595Y-125678386D01*
X136447038Y-125812962D01*
X136581614Y-125923405D01*
X136735150Y-126005472D01*
X136901746Y-126056008D01*
X137075000Y-126073072D01*
X138275000Y-126073072D01*
X138448254Y-126056008D01*
X138614850Y-126005472D01*
X138768386Y-125923405D01*
X138902962Y-125812962D01*
X139013405Y-125678386D01*
X139095472Y-125524850D01*
X139146008Y-125358254D01*
X139163072Y-125185000D01*
X139163072Y-123735000D01*
X139146008Y-123561746D01*
X139095472Y-123395150D01*
X139013405Y-123241614D01*
X138902962Y-123107038D01*
X138768386Y-122996595D01*
X138614850Y-122914528D01*
X138448254Y-122863992D01*
X138275000Y-122846928D01*
X137075000Y-122846928D01*
X136901746Y-122863992D01*
X136735150Y-122914528D01*
X136581614Y-122996595D01*
X136447038Y-123107038D01*
X136336595Y-123241614D01*
X136282223Y-123343337D01*
X136230134Y-123279866D01*
X136004014Y-123094294D01*
X135746034Y-122956401D01*
X135466111Y-122871487D01*
X135175000Y-122842815D01*
X134883890Y-122871487D01*
X134603967Y-122956401D01*
X134345987Y-123094294D01*
X134119866Y-123279866D01*
X133934294Y-123505986D01*
X133920538Y-123531722D01*
X133764049Y-123325571D01*
X133546193Y-123132504D01*
X133294858Y-122985648D01*
X133031890Y-122893524D01*
X132802000Y-123014845D01*
X132548000Y-123014845D01*
X132318110Y-122893524D01*
X132055142Y-122985648D01*
X131803807Y-123132504D01*
X131585951Y-123325571D01*
X131429462Y-123531722D01*
X131415706Y-123505986D01*
X131230134Y-123279866D01*
X131004014Y-123094294D01*
X130746034Y-122956401D01*
X130466111Y-122871487D01*
X130175000Y-122842815D01*
X129883890Y-122871487D01*
X129603967Y-122956401D01*
X129345987Y-123094294D01*
X129119866Y-123279866D01*
X128934294Y-123505986D01*
X128925000Y-123523374D01*
X128915706Y-123505986D01*
X128730134Y-123279866D01*
X128504014Y-123094294D01*
X128246034Y-122956401D01*
X127966111Y-122871487D01*
X127675000Y-122842815D01*
X127383890Y-122871487D01*
X127103967Y-122956401D01*
X126845987Y-123094294D01*
X126619866Y-123279866D01*
X126434294Y-123505986D01*
X126296401Y-123763966D01*
X126211487Y-124043889D01*
X126190000Y-124262050D01*
X118328072Y-124262050D01*
X118328072Y-123735000D01*
X118311008Y-123561746D01*
X118260472Y-123395150D01*
X118178405Y-123241614D01*
X118067962Y-123107038D01*
X117933386Y-122996595D01*
X117779850Y-122914528D01*
X117613254Y-122863992D01*
X117440000Y-122846928D01*
X116240000Y-122846928D01*
X116066746Y-122863992D01*
X115900150Y-122914528D01*
X115746614Y-122996595D01*
X115612038Y-123107038D01*
X115501595Y-123241614D01*
X115447223Y-123343337D01*
X115395134Y-123279866D01*
X115169014Y-123094294D01*
X114911034Y-122956401D01*
X114631111Y-122871487D01*
X114340000Y-122842815D01*
X114048890Y-122871487D01*
X113768967Y-122956401D01*
X113510987Y-123094294D01*
X113284866Y-123279866D01*
X113099294Y-123505986D01*
X113085538Y-123531722D01*
X112929049Y-123325571D01*
X112711193Y-123132504D01*
X112459858Y-122985648D01*
X112196890Y-122893524D01*
X111967000Y-123014845D01*
X111713000Y-123014845D01*
X111483110Y-122893524D01*
X111220142Y-122985648D01*
X110968807Y-123132504D01*
X110750951Y-123325571D01*
X110594462Y-123531722D01*
X110580706Y-123505986D01*
X110395134Y-123279866D01*
X110169014Y-123094294D01*
X109911034Y-122956401D01*
X109631111Y-122871487D01*
X109340000Y-122842815D01*
X109048890Y-122871487D01*
X108768967Y-122956401D01*
X108510987Y-123094294D01*
X108284866Y-123279866D01*
X108099294Y-123505986D01*
X108090000Y-123523374D01*
X108080706Y-123505986D01*
X107895134Y-123279866D01*
X107669014Y-123094294D01*
X107411034Y-122956401D01*
X107131111Y-122871487D01*
X106840000Y-122842815D01*
X106548890Y-122871487D01*
X106268967Y-122956401D01*
X106010987Y-123094294D01*
X105784866Y-123279866D01*
X105599294Y-123505986D01*
X105461401Y-123763966D01*
X105376487Y-124043889D01*
X105355000Y-124262050D01*
X98008072Y-124262050D01*
X98008072Y-123735000D01*
X97991008Y-123561746D01*
X97940472Y-123395150D01*
X97858405Y-123241614D01*
X97747962Y-123107038D01*
X97613386Y-122996595D01*
X97459850Y-122914528D01*
X97293254Y-122863992D01*
X97120000Y-122846928D01*
X95920000Y-122846928D01*
X95746746Y-122863992D01*
X95580150Y-122914528D01*
X95426614Y-122996595D01*
X95292038Y-123107038D01*
X95181595Y-123241614D01*
X95127223Y-123343337D01*
X95075134Y-123279866D01*
X94849014Y-123094294D01*
X94591034Y-122956401D01*
X94311111Y-122871487D01*
X94020000Y-122842815D01*
X93728890Y-122871487D01*
X93448967Y-122956401D01*
X93190987Y-123094294D01*
X92964866Y-123279866D01*
X92779294Y-123505986D01*
X92765538Y-123531722D01*
X92609049Y-123325571D01*
X92391193Y-123132504D01*
X92139858Y-122985648D01*
X91876890Y-122893524D01*
X91647000Y-123014845D01*
X91393000Y-123014845D01*
X91163110Y-122893524D01*
X90900142Y-122985648D01*
X90648807Y-123132504D01*
X90430951Y-123325571D01*
X90274462Y-123531722D01*
X90260706Y-123505986D01*
X90075134Y-123279866D01*
X89849014Y-123094294D01*
X89591034Y-122956401D01*
X89311111Y-122871487D01*
X89020000Y-122842815D01*
X88728890Y-122871487D01*
X88448967Y-122956401D01*
X88190987Y-123094294D01*
X87964866Y-123279866D01*
X87779294Y-123505986D01*
X87770000Y-123523374D01*
X87760706Y-123505986D01*
X87575134Y-123279866D01*
X87349014Y-123094294D01*
X87091034Y-122956401D01*
X86811111Y-122871487D01*
X86520000Y-122842815D01*
X86228890Y-122871487D01*
X85948967Y-122956401D01*
X85690987Y-123094294D01*
X85464866Y-123279866D01*
X85279294Y-123505986D01*
X85141401Y-123763966D01*
X85056487Y-124043889D01*
X85035000Y-124262050D01*
X77153512Y-124262050D01*
X76924785Y-124109220D01*
X76511849Y-123938176D01*
X76073479Y-123850979D01*
X75626521Y-123850979D01*
X75188151Y-123938176D01*
X74775215Y-124109220D01*
X74403583Y-124357536D01*
X74087536Y-124673583D01*
X73839220Y-125045215D01*
X73668176Y-125458151D01*
X73580979Y-125896521D01*
X69443327Y-125896521D01*
X69342000Y-125474466D01*
X69342000Y-121691061D01*
X94469000Y-121691061D01*
X94469000Y-121894939D01*
X94508774Y-122094898D01*
X94586795Y-122283256D01*
X94700063Y-122452774D01*
X94844226Y-122596937D01*
X95013744Y-122710205D01*
X95202102Y-122788226D01*
X95402061Y-122828000D01*
X95605939Y-122828000D01*
X95805898Y-122788226D01*
X95994256Y-122710205D01*
X96163774Y-122596937D01*
X96307937Y-122452774D01*
X96421205Y-122283256D01*
X96499226Y-122094898D01*
X96539000Y-121894939D01*
X96539000Y-121832802D01*
X97181833Y-121189970D01*
X97361102Y-121264226D01*
X97561061Y-121304000D01*
X97764939Y-121304000D01*
X97964898Y-121264226D01*
X98153256Y-121186205D01*
X98322774Y-121072937D01*
X98466937Y-120928774D01*
X98580205Y-120759256D01*
X98658226Y-120570898D01*
X98698000Y-120370939D01*
X98698000Y-120167061D01*
X98658226Y-119967102D01*
X98580205Y-119778744D01*
X98466937Y-119609226D01*
X98322774Y-119465063D01*
X98153256Y-119351795D01*
X97964898Y-119273774D01*
X97764939Y-119234000D01*
X97561061Y-119234000D01*
X97361102Y-119273774D01*
X97172744Y-119351795D01*
X97003226Y-119465063D01*
X96955861Y-119512428D01*
X96879014Y-119519997D01*
X96735753Y-119563454D01*
X96603724Y-119634026D01*
X96603722Y-119634027D01*
X96603723Y-119634027D01*
X96516996Y-119705201D01*
X96516992Y-119705205D01*
X96487999Y-119728999D01*
X96464205Y-119757992D01*
X95464198Y-120758000D01*
X95402061Y-120758000D01*
X95202102Y-120797774D01*
X95013744Y-120875795D01*
X94844226Y-120989063D01*
X94700063Y-121133226D01*
X94586795Y-121302744D01*
X94508774Y-121491102D01*
X94469000Y-121691061D01*
X69342000Y-121691061D01*
X69342000Y-108819740D01*
X87415000Y-108819740D01*
X87415000Y-109112260D01*
X87472068Y-109399158D01*
X87584010Y-109669411D01*
X87746525Y-109912632D01*
X87953368Y-110119475D01*
X88196589Y-110281990D01*
X88466842Y-110393932D01*
X88753740Y-110451000D01*
X89046260Y-110451000D01*
X89333158Y-110393932D01*
X89603411Y-110281990D01*
X89846632Y-110119475D01*
X90053475Y-109912632D01*
X90215990Y-109669411D01*
X90327932Y-109399158D01*
X90385000Y-109112260D01*
X90385000Y-108819740D01*
X90362471Y-108706475D01*
X91345000Y-108706475D01*
X91345000Y-109225525D01*
X91446261Y-109734601D01*
X91644893Y-110214141D01*
X91933262Y-110645715D01*
X92300285Y-111012738D01*
X92731859Y-111301107D01*
X93211399Y-111499739D01*
X93720475Y-111601000D01*
X94239525Y-111601000D01*
X94748601Y-111499739D01*
X95228141Y-111301107D01*
X95659715Y-111012738D01*
X96026738Y-110645715D01*
X96315107Y-110214141D01*
X96513739Y-109734601D01*
X96615000Y-109225525D01*
X96615000Y-108819740D01*
X97575000Y-108819740D01*
X97575000Y-109112260D01*
X97632068Y-109399158D01*
X97744010Y-109669411D01*
X97906525Y-109912632D01*
X98113368Y-110119475D01*
X98356589Y-110281990D01*
X98626842Y-110393932D01*
X98913740Y-110451000D01*
X99206260Y-110451000D01*
X99493158Y-110393932D01*
X99763411Y-110281990D01*
X100006632Y-110119475D01*
X100213475Y-109912632D01*
X100375990Y-109669411D01*
X100487932Y-109399158D01*
X100545000Y-109112260D01*
X100545000Y-109073740D01*
X112942000Y-109073740D01*
X112942000Y-109366260D01*
X112999068Y-109653158D01*
X113111010Y-109923411D01*
X113273525Y-110166632D01*
X113480368Y-110373475D01*
X113723589Y-110535990D01*
X113993842Y-110647932D01*
X114280740Y-110705000D01*
X114573260Y-110705000D01*
X114860158Y-110647932D01*
X115130411Y-110535990D01*
X115373632Y-110373475D01*
X115580475Y-110166632D01*
X115742990Y-109923411D01*
X115854932Y-109653158D01*
X115912000Y-109366260D01*
X115912000Y-109073740D01*
X115889471Y-108960475D01*
X116872000Y-108960475D01*
X116872000Y-109479525D01*
X116973261Y-109988601D01*
X117171893Y-110468141D01*
X117460262Y-110899715D01*
X117827285Y-111266738D01*
X118258859Y-111555107D01*
X118738399Y-111753739D01*
X119247475Y-111855000D01*
X119766525Y-111855000D01*
X120275601Y-111753739D01*
X120755141Y-111555107D01*
X121186715Y-111266738D01*
X121553738Y-110899715D01*
X121842107Y-110468141D01*
X122040739Y-109988601D01*
X122142000Y-109479525D01*
X122142000Y-109073740D01*
X123102000Y-109073740D01*
X123102000Y-109366260D01*
X123159068Y-109653158D01*
X123271010Y-109923411D01*
X123433525Y-110166632D01*
X123640368Y-110373475D01*
X123883589Y-110535990D01*
X124153842Y-110647932D01*
X124440740Y-110705000D01*
X124733260Y-110705000D01*
X125020158Y-110647932D01*
X125290411Y-110535990D01*
X125533632Y-110373475D01*
X125740475Y-110166632D01*
X125902990Y-109923411D01*
X126014932Y-109653158D01*
X126072000Y-109366260D01*
X126072000Y-109073740D01*
X138850000Y-109073740D01*
X138850000Y-109366260D01*
X138907068Y-109653158D01*
X139019010Y-109923411D01*
X139181525Y-110166632D01*
X139388368Y-110373475D01*
X139631589Y-110535990D01*
X139901842Y-110647932D01*
X140188740Y-110705000D01*
X140481260Y-110705000D01*
X140768158Y-110647932D01*
X141038411Y-110535990D01*
X141281632Y-110373475D01*
X141488475Y-110166632D01*
X141650990Y-109923411D01*
X141762932Y-109653158D01*
X141820000Y-109366260D01*
X141820000Y-109073740D01*
X141762932Y-108786842D01*
X141679327Y-108585000D01*
X141792626Y-108585000D01*
X142160668Y-108511791D01*
X142507356Y-108368189D01*
X142819366Y-108159710D01*
X143084710Y-107894366D01*
X143293189Y-107582356D01*
X143436791Y-107235668D01*
X143510000Y-106867626D01*
X143510000Y-106492374D01*
X143436791Y-106124332D01*
X143293189Y-105777644D01*
X143084710Y-105465634D01*
X142819366Y-105200290D01*
X142507356Y-104991811D01*
X142160668Y-104848209D01*
X141792626Y-104775000D01*
X141417374Y-104775000D01*
X141049332Y-104848209D01*
X140702644Y-104991811D01*
X140390634Y-105200290D01*
X140125290Y-105465634D01*
X139916811Y-105777644D01*
X139773209Y-106124332D01*
X139700000Y-106492374D01*
X139700000Y-106867626D01*
X139773209Y-107235668D01*
X139916811Y-107582356D01*
X140038741Y-107764837D01*
X139901842Y-107792068D01*
X139631589Y-107904010D01*
X139388368Y-108066525D01*
X139181525Y-108273368D01*
X139019010Y-108516589D01*
X138907068Y-108786842D01*
X138850000Y-109073740D01*
X126072000Y-109073740D01*
X126014932Y-108786842D01*
X125902990Y-108516589D01*
X125740475Y-108273368D01*
X125533632Y-108066525D01*
X125290411Y-107904010D01*
X125020158Y-107792068D01*
X124733260Y-107735000D01*
X124440740Y-107735000D01*
X124153842Y-107792068D01*
X123883589Y-107904010D01*
X123640368Y-108066525D01*
X123433525Y-108273368D01*
X123271010Y-108516589D01*
X123159068Y-108786842D01*
X123102000Y-109073740D01*
X122142000Y-109073740D01*
X122142000Y-108960475D01*
X122040739Y-108451399D01*
X121842107Y-107971859D01*
X121553738Y-107540285D01*
X121186715Y-107173262D01*
X120755141Y-106884893D01*
X120275601Y-106686261D01*
X119766525Y-106585000D01*
X119247475Y-106585000D01*
X118738399Y-106686261D01*
X118258859Y-106884893D01*
X117827285Y-107173262D01*
X117460262Y-107540285D01*
X117171893Y-107971859D01*
X116973261Y-108451399D01*
X116872000Y-108960475D01*
X115889471Y-108960475D01*
X115854932Y-108786842D01*
X115771327Y-108585000D01*
X115884626Y-108585000D01*
X116252668Y-108511791D01*
X116599356Y-108368189D01*
X116911366Y-108159710D01*
X117176710Y-107894366D01*
X117385189Y-107582356D01*
X117528791Y-107235668D01*
X117602000Y-106867626D01*
X117602000Y-106492374D01*
X117528791Y-106124332D01*
X117385189Y-105777644D01*
X117176710Y-105465634D01*
X116911366Y-105200290D01*
X116599356Y-104991811D01*
X116252668Y-104848209D01*
X115884626Y-104775000D01*
X115509374Y-104775000D01*
X115141332Y-104848209D01*
X114794644Y-104991811D01*
X114482634Y-105200290D01*
X114217290Y-105465634D01*
X114008811Y-105777644D01*
X113865209Y-106124332D01*
X113792000Y-106492374D01*
X113792000Y-106867626D01*
X113865209Y-107235668D01*
X114008811Y-107582356D01*
X114130741Y-107764837D01*
X113993842Y-107792068D01*
X113723589Y-107904010D01*
X113480368Y-108066525D01*
X113273525Y-108273368D01*
X113111010Y-108516589D01*
X112999068Y-108786842D01*
X112942000Y-109073740D01*
X100545000Y-109073740D01*
X100545000Y-108819740D01*
X100487932Y-108532842D01*
X100375990Y-108262589D01*
X100213475Y-108019368D01*
X100006632Y-107812525D01*
X99763411Y-107650010D01*
X99493158Y-107538068D01*
X99206260Y-107481000D01*
X98913740Y-107481000D01*
X98626842Y-107538068D01*
X98356589Y-107650010D01*
X98113368Y-107812525D01*
X97906525Y-108019368D01*
X97744010Y-108262589D01*
X97632068Y-108532842D01*
X97575000Y-108819740D01*
X96615000Y-108819740D01*
X96615000Y-108706475D01*
X96513739Y-108197399D01*
X96315107Y-107717859D01*
X96026738Y-107286285D01*
X95659715Y-106919262D01*
X95228141Y-106630893D01*
X94748601Y-106432261D01*
X94239525Y-106331000D01*
X93720475Y-106331000D01*
X93211399Y-106432261D01*
X92731859Y-106630893D01*
X92300285Y-106919262D01*
X91933262Y-107286285D01*
X91644893Y-107717859D01*
X91446261Y-108197399D01*
X91345000Y-108706475D01*
X90362471Y-108706475D01*
X90327932Y-108532842D01*
X90244327Y-108331000D01*
X90357626Y-108331000D01*
X90725668Y-108257791D01*
X91072356Y-108114189D01*
X91384366Y-107905710D01*
X91649710Y-107640366D01*
X91858189Y-107328356D01*
X92001791Y-106981668D01*
X92075000Y-106613626D01*
X92075000Y-106238374D01*
X92001791Y-105870332D01*
X91858189Y-105523644D01*
X91649710Y-105211634D01*
X91384366Y-104946290D01*
X91072356Y-104737811D01*
X90725668Y-104594209D01*
X90357626Y-104521000D01*
X89982374Y-104521000D01*
X89614332Y-104594209D01*
X89267644Y-104737811D01*
X88955634Y-104946290D01*
X88690290Y-105211634D01*
X88481811Y-105523644D01*
X88338209Y-105870332D01*
X88265000Y-106238374D01*
X88265000Y-106613626D01*
X88338209Y-106981668D01*
X88481811Y-107328356D01*
X88603741Y-107510837D01*
X88466842Y-107538068D01*
X88196589Y-107650010D01*
X87953368Y-107812525D01*
X87746525Y-108019368D01*
X87584010Y-108262589D01*
X87472068Y-108532842D01*
X87415000Y-108819740D01*
X69342000Y-108819740D01*
X69342000Y-103698374D01*
X94615000Y-103698374D01*
X94615000Y-104073626D01*
X94688209Y-104441668D01*
X94831811Y-104788356D01*
X95040290Y-105100366D01*
X95305634Y-105365710D01*
X95617644Y-105574189D01*
X95964332Y-105717791D01*
X96332374Y-105791000D01*
X96707626Y-105791000D01*
X97075668Y-105717791D01*
X97422356Y-105574189D01*
X97734366Y-105365710D01*
X97999710Y-105100366D01*
X98208189Y-104788356D01*
X98351791Y-104441668D01*
X98425000Y-104073626D01*
X98425000Y-103698374D01*
X98351791Y-103330332D01*
X98208189Y-102983644D01*
X97999710Y-102671634D01*
X97734366Y-102406290D01*
X97422356Y-102197811D01*
X97075668Y-102054209D01*
X96707626Y-101981000D01*
X96332374Y-101981000D01*
X95964332Y-102054209D01*
X95617644Y-102197811D01*
X95305634Y-102406290D01*
X95040290Y-102671634D01*
X94831811Y-102983644D01*
X94688209Y-103330332D01*
X94615000Y-103698374D01*
X69342000Y-103698374D01*
X69342000Y-100192408D01*
X130683000Y-100192408D01*
X130683000Y-100467592D01*
X130736686Y-100737490D01*
X130841995Y-100991727D01*
X130994880Y-101220535D01*
X131189465Y-101415120D01*
X131418273Y-101568005D01*
X131672510Y-101673314D01*
X131942408Y-101727000D01*
X132217592Y-101727000D01*
X132487490Y-101673314D01*
X132741727Y-101568005D01*
X132970535Y-101415120D01*
X133165120Y-101220535D01*
X133318005Y-100991727D01*
X133423314Y-100737490D01*
X133477000Y-100467592D01*
X133477000Y-100192408D01*
X133423314Y-99922510D01*
X133318005Y-99668273D01*
X133165120Y-99439465D01*
X132970535Y-99244880D01*
X132741727Y-99091995D01*
X132487490Y-98986686D01*
X132217592Y-98933000D01*
X131942408Y-98933000D01*
X131672510Y-98986686D01*
X131418273Y-99091995D01*
X131189465Y-99244880D01*
X130994880Y-99439465D01*
X130841995Y-99668273D01*
X130736686Y-99922510D01*
X130683000Y-100192408D01*
X69342000Y-100192408D01*
X69342000Y-97320000D01*
X78571928Y-97320000D01*
X78584188Y-97444482D01*
X78620498Y-97564180D01*
X78679463Y-97674494D01*
X78758815Y-97771185D01*
X78855506Y-97850537D01*
X78965820Y-97909502D01*
X79085518Y-97945812D01*
X79210000Y-97958072D01*
X79724250Y-97955000D01*
X79883000Y-97796250D01*
X79883000Y-96647000D01*
X80137000Y-96647000D01*
X80137000Y-97796250D01*
X80295750Y-97955000D01*
X80810000Y-97958072D01*
X80934482Y-97945812D01*
X81054180Y-97909502D01*
X81164494Y-97850537D01*
X81261185Y-97771185D01*
X81340537Y-97674494D01*
X81399502Y-97564180D01*
X81435812Y-97444482D01*
X81448072Y-97320000D01*
X81445000Y-96805750D01*
X81286250Y-96647000D01*
X80137000Y-96647000D01*
X79883000Y-96647000D01*
X78733750Y-96647000D01*
X78575000Y-96805750D01*
X78571928Y-97320000D01*
X69342000Y-97320000D01*
X69342000Y-95622980D01*
X70799437Y-95622980D01*
X70870429Y-95841094D01*
X71014031Y-96116923D01*
X71208685Y-96359437D01*
X71446911Y-96559316D01*
X71719554Y-96708879D01*
X72016137Y-96802378D01*
X72263000Y-96675570D01*
X72263000Y-95377000D01*
X72517000Y-95377000D01*
X72517000Y-96675570D01*
X72763863Y-96802378D01*
X73060446Y-96708879D01*
X73333089Y-96559316D01*
X73571315Y-96359437D01*
X73765969Y-96116923D01*
X73909571Y-95841094D01*
X73948984Y-95720000D01*
X78571928Y-95720000D01*
X78575000Y-96234250D01*
X78733750Y-96393000D01*
X79883000Y-96393000D01*
X79883000Y-96373000D01*
X80137000Y-96373000D01*
X80137000Y-96393000D01*
X81286250Y-96393000D01*
X81296842Y-96382408D01*
X126873000Y-96382408D01*
X126873000Y-96657592D01*
X126926686Y-96927490D01*
X127031995Y-97181727D01*
X127184880Y-97410535D01*
X127379465Y-97605120D01*
X127608273Y-97758005D01*
X127862510Y-97863314D01*
X128132408Y-97917000D01*
X128407592Y-97917000D01*
X128677490Y-97863314D01*
X128931727Y-97758005D01*
X129160535Y-97605120D01*
X129355120Y-97410535D01*
X129508005Y-97181727D01*
X129613314Y-96927490D01*
X129667000Y-96657592D01*
X129667000Y-96382408D01*
X134493000Y-96382408D01*
X134493000Y-96657592D01*
X134546686Y-96927490D01*
X134651995Y-97181727D01*
X134804880Y-97410535D01*
X134999465Y-97605120D01*
X135228273Y-97758005D01*
X135482510Y-97863314D01*
X135752408Y-97917000D01*
X136027592Y-97917000D01*
X136297490Y-97863314D01*
X136551727Y-97758005D01*
X136780535Y-97605120D01*
X136975120Y-97410535D01*
X137128005Y-97181727D01*
X137233314Y-96927490D01*
X137287000Y-96657592D01*
X137287000Y-96382408D01*
X137233314Y-96112510D01*
X137128005Y-95858273D01*
X136975120Y-95629465D01*
X136780535Y-95434880D01*
X136551727Y-95281995D01*
X136297490Y-95176686D01*
X136027592Y-95123000D01*
X135752408Y-95123000D01*
X135482510Y-95176686D01*
X135228273Y-95281995D01*
X134999465Y-95434880D01*
X134804880Y-95629465D01*
X134651995Y-95858273D01*
X134546686Y-96112510D01*
X134493000Y-96382408D01*
X129667000Y-96382408D01*
X129613314Y-96112510D01*
X129508005Y-95858273D01*
X129355120Y-95629465D01*
X129160535Y-95434880D01*
X128931727Y-95281995D01*
X128677490Y-95176686D01*
X128407592Y-95123000D01*
X128132408Y-95123000D01*
X127862510Y-95176686D01*
X127608273Y-95281995D01*
X127379465Y-95434880D01*
X127184880Y-95629465D01*
X127031995Y-95858273D01*
X126926686Y-96112510D01*
X126873000Y-96382408D01*
X81296842Y-96382408D01*
X81445000Y-96234250D01*
X81448072Y-95720000D01*
X81435812Y-95595518D01*
X81399502Y-95475820D01*
X81340537Y-95365506D01*
X81261185Y-95268815D01*
X81164494Y-95189463D01*
X81054180Y-95130498D01*
X80958057Y-95101339D01*
X81124637Y-94934759D01*
X81281680Y-94699727D01*
X81389853Y-94438574D01*
X81445000Y-94161335D01*
X81445000Y-93878665D01*
X81389853Y-93601426D01*
X81281680Y-93340273D01*
X81124637Y-93105241D01*
X80924759Y-92905363D01*
X80689727Y-92748320D01*
X80428574Y-92640147D01*
X80151335Y-92585000D01*
X79868665Y-92585000D01*
X79591426Y-92640147D01*
X79330273Y-92748320D01*
X79095241Y-92905363D01*
X78895363Y-93105241D01*
X78738320Y-93340273D01*
X78630147Y-93601426D01*
X78575000Y-93878665D01*
X78575000Y-94161335D01*
X78630147Y-94438574D01*
X78738320Y-94699727D01*
X78895363Y-94934759D01*
X79061943Y-95101339D01*
X78965820Y-95130498D01*
X78855506Y-95189463D01*
X78758815Y-95268815D01*
X78679463Y-95365506D01*
X78620498Y-95475820D01*
X78584188Y-95595518D01*
X78571928Y-95720000D01*
X73948984Y-95720000D01*
X73980563Y-95622980D01*
X73860594Y-95377000D01*
X72517000Y-95377000D01*
X72263000Y-95377000D01*
X70919406Y-95377000D01*
X70799437Y-95622980D01*
X69342000Y-95622980D01*
X69342000Y-92710000D01*
X70747319Y-92710000D01*
X70777970Y-93021204D01*
X70868745Y-93320449D01*
X71016155Y-93596235D01*
X71214537Y-93837963D01*
X71393899Y-93985163D01*
X71208685Y-94140563D01*
X71014031Y-94383077D01*
X70870429Y-94658906D01*
X70799437Y-94877020D01*
X70919406Y-95123000D01*
X72263000Y-95123000D01*
X72263000Y-95103000D01*
X72517000Y-95103000D01*
X72517000Y-95123000D01*
X73860594Y-95123000D01*
X73980563Y-94877020D01*
X73909571Y-94658906D01*
X73765969Y-94383077D01*
X73571315Y-94140563D01*
X73386101Y-93985163D01*
X73565463Y-93837963D01*
X73763845Y-93596235D01*
X73911255Y-93320449D01*
X74002030Y-93021204D01*
X74032681Y-92710000D01*
X74002030Y-92398796D01*
X73911255Y-92099551D01*
X73763845Y-91823765D01*
X73660554Y-91697905D01*
X73744494Y-91653037D01*
X73841185Y-91573685D01*
X73920537Y-91476994D01*
X73979502Y-91366680D01*
X74015812Y-91246982D01*
X74028072Y-91122500D01*
X74028072Y-89712796D01*
X76761432Y-86979437D01*
X76793291Y-86953291D01*
X76897636Y-86826146D01*
X76975172Y-86681087D01*
X77022918Y-86523689D01*
X77035000Y-86401019D01*
X77035000Y-86401018D01*
X77039040Y-86360000D01*
X77035000Y-86318982D01*
X77035000Y-85835868D01*
X78571928Y-87372797D01*
X78571928Y-88430000D01*
X78584188Y-88554482D01*
X78620498Y-88674180D01*
X78679463Y-88784494D01*
X78758815Y-88881185D01*
X78855506Y-88960537D01*
X78965820Y-89019502D01*
X79061943Y-89048661D01*
X78895363Y-89215241D01*
X78738320Y-89450273D01*
X78630147Y-89711426D01*
X78575000Y-89988665D01*
X78575000Y-90271335D01*
X78630147Y-90548574D01*
X78738320Y-90809727D01*
X78895363Y-91044759D01*
X79095241Y-91244637D01*
X79330273Y-91401680D01*
X79591426Y-91509853D01*
X79868665Y-91565000D01*
X80151335Y-91565000D01*
X80428574Y-91509853D01*
X80689727Y-91401680D01*
X80924759Y-91244637D01*
X81124637Y-91044759D01*
X81281680Y-90809727D01*
X81389853Y-90548574D01*
X81445000Y-90271335D01*
X81445000Y-89988665D01*
X81389853Y-89711426D01*
X81281680Y-89450273D01*
X81124637Y-89215241D01*
X80958057Y-89048661D01*
X81054180Y-89019502D01*
X81164494Y-88960537D01*
X81261185Y-88881185D01*
X81340537Y-88784494D01*
X81399502Y-88674180D01*
X81435812Y-88554482D01*
X81448072Y-88430000D01*
X81448072Y-86830000D01*
X81435812Y-86705518D01*
X81399502Y-86585820D01*
X81340537Y-86475506D01*
X81261185Y-86378815D01*
X81164494Y-86299463D01*
X81054180Y-86240498D01*
X80934482Y-86204188D01*
X80810000Y-86191928D01*
X79752797Y-86191928D01*
X78504609Y-84943740D01*
X87415000Y-84943740D01*
X87415000Y-85236260D01*
X87472068Y-85523158D01*
X87584010Y-85793411D01*
X87746525Y-86036632D01*
X87953368Y-86243475D01*
X88196589Y-86405990D01*
X88466842Y-86517932D01*
X88753740Y-86575000D01*
X89046260Y-86575000D01*
X89333158Y-86517932D01*
X89603411Y-86405990D01*
X89846632Y-86243475D01*
X90053475Y-86036632D01*
X90215990Y-85793411D01*
X90327932Y-85523158D01*
X90385000Y-85236260D01*
X90385000Y-84943740D01*
X90362471Y-84830475D01*
X91345000Y-84830475D01*
X91345000Y-85349525D01*
X91446261Y-85858601D01*
X91644893Y-86338141D01*
X91933262Y-86769715D01*
X92300285Y-87136738D01*
X92731859Y-87425107D01*
X93211399Y-87623739D01*
X93720475Y-87725000D01*
X94239525Y-87725000D01*
X94748601Y-87623739D01*
X95228141Y-87425107D01*
X95659715Y-87136738D01*
X96026738Y-86769715D01*
X96315107Y-86338141D01*
X96513739Y-85858601D01*
X96615000Y-85349525D01*
X96615000Y-84943740D01*
X97575000Y-84943740D01*
X97575000Y-85236260D01*
X97632068Y-85523158D01*
X97744010Y-85793411D01*
X97906525Y-86036632D01*
X98113368Y-86243475D01*
X98356589Y-86405990D01*
X98626842Y-86517932D01*
X98913740Y-86575000D01*
X99206260Y-86575000D01*
X99493158Y-86517932D01*
X99763411Y-86405990D01*
X100006632Y-86243475D01*
X100213475Y-86036632D01*
X100375990Y-85793411D01*
X100487932Y-85523158D01*
X100545000Y-85236260D01*
X100545000Y-84943740D01*
X112815000Y-84943740D01*
X112815000Y-85236260D01*
X112872068Y-85523158D01*
X112984010Y-85793411D01*
X113146525Y-86036632D01*
X113353368Y-86243475D01*
X113596589Y-86405990D01*
X113866842Y-86517932D01*
X114153740Y-86575000D01*
X114446260Y-86575000D01*
X114733158Y-86517932D01*
X115003411Y-86405990D01*
X115246632Y-86243475D01*
X115453475Y-86036632D01*
X115615990Y-85793411D01*
X115727932Y-85523158D01*
X115785000Y-85236260D01*
X115785000Y-84943740D01*
X115727932Y-84656842D01*
X115644327Y-84455000D01*
X115757626Y-84455000D01*
X116125668Y-84381791D01*
X116472356Y-84238189D01*
X116784366Y-84029710D01*
X117049710Y-83764366D01*
X117258189Y-83452356D01*
X117317154Y-83310000D01*
X117433547Y-83310000D01*
X117333262Y-83410285D01*
X117044893Y-83841859D01*
X116846261Y-84321399D01*
X116745000Y-84830475D01*
X116745000Y-85349525D01*
X116846261Y-85858601D01*
X117044893Y-86338141D01*
X117333262Y-86769715D01*
X117700285Y-87136738D01*
X118131859Y-87425107D01*
X118611399Y-87623739D01*
X119120475Y-87725000D01*
X119639525Y-87725000D01*
X120148601Y-87623739D01*
X120628141Y-87425107D01*
X121059715Y-87136738D01*
X121426738Y-86769715D01*
X121715107Y-86338141D01*
X121913739Y-85858601D01*
X122015000Y-85349525D01*
X122015000Y-84943740D01*
X122975000Y-84943740D01*
X122975000Y-85236260D01*
X123032068Y-85523158D01*
X123144010Y-85793411D01*
X123306525Y-86036632D01*
X123513368Y-86243475D01*
X123756589Y-86405990D01*
X124026842Y-86517932D01*
X124313740Y-86575000D01*
X124606260Y-86575000D01*
X124893158Y-86517932D01*
X125163411Y-86405990D01*
X125406632Y-86243475D01*
X125613475Y-86036632D01*
X125775990Y-85793411D01*
X125887932Y-85523158D01*
X125945000Y-85236260D01*
X125945000Y-84943740D01*
X125887932Y-84656842D01*
X125775990Y-84386589D01*
X125613475Y-84143368D01*
X125406632Y-83936525D01*
X125163411Y-83774010D01*
X124893158Y-83662068D01*
X124606260Y-83605000D01*
X124313740Y-83605000D01*
X124026842Y-83662068D01*
X123756589Y-83774010D01*
X123513368Y-83936525D01*
X123306525Y-84143368D01*
X123144010Y-84386589D01*
X123032068Y-84656842D01*
X122975000Y-84943740D01*
X122015000Y-84943740D01*
X122015000Y-84830475D01*
X121913739Y-84321399D01*
X121715107Y-83841859D01*
X121426738Y-83410285D01*
X121326453Y-83310000D01*
X137122678Y-83310000D01*
X137160000Y-83313676D01*
X137197322Y-83310000D01*
X137197333Y-83310000D01*
X137308986Y-83299003D01*
X137452247Y-83255546D01*
X137584276Y-83184974D01*
X137700001Y-83090001D01*
X137723804Y-83060997D01*
X143824802Y-76960000D01*
X171419147Y-76960000D01*
X171376686Y-77062510D01*
X171323000Y-77332408D01*
X171323000Y-77607592D01*
X171376686Y-77877490D01*
X171481995Y-78131727D01*
X171634880Y-78360535D01*
X171829465Y-78555120D01*
X172058273Y-78708005D01*
X172312510Y-78813314D01*
X172582408Y-78867000D01*
X172857592Y-78867000D01*
X173127490Y-78813314D01*
X173381727Y-78708005D01*
X173610535Y-78555120D01*
X173730090Y-78435565D01*
X174474040Y-78435565D01*
X174541020Y-78675656D01*
X174790048Y-78792756D01*
X175057135Y-78859023D01*
X175332017Y-78871910D01*
X175604133Y-78830922D01*
X175863023Y-78737636D01*
X175978980Y-78675656D01*
X176045960Y-78435565D01*
X175260000Y-77649605D01*
X174474040Y-78435565D01*
X173730090Y-78435565D01*
X173805120Y-78360535D01*
X173958005Y-78131727D01*
X173987692Y-78060057D01*
X173992364Y-78073023D01*
X174054344Y-78188980D01*
X174294435Y-78255960D01*
X175080395Y-77470000D01*
X175066253Y-77455858D01*
X175245858Y-77276253D01*
X175260000Y-77290395D01*
X175274143Y-77276253D01*
X175453748Y-77455858D01*
X175439605Y-77470000D01*
X176225565Y-78255960D01*
X176465656Y-78188980D01*
X176529485Y-78053240D01*
X176561995Y-78131727D01*
X176714880Y-78360535D01*
X176909465Y-78555120D01*
X177138273Y-78708005D01*
X177392510Y-78813314D01*
X177662408Y-78867000D01*
X177937592Y-78867000D01*
X178207490Y-78813314D01*
X178461727Y-78708005D01*
X178690535Y-78555120D01*
X178885120Y-78360535D01*
X179038005Y-78131727D01*
X179070000Y-78054485D01*
X179101995Y-78131727D01*
X179254880Y-78360535D01*
X179449465Y-78555120D01*
X179678273Y-78708005D01*
X179932510Y-78813314D01*
X180202408Y-78867000D01*
X180477592Y-78867000D01*
X180747490Y-78813314D01*
X181001727Y-78708005D01*
X181230535Y-78555120D01*
X181425120Y-78360535D01*
X181578005Y-78131727D01*
X181683314Y-77877490D01*
X181737000Y-77607592D01*
X181737000Y-77332408D01*
X181683314Y-77062510D01*
X181640853Y-76960000D01*
X187010199Y-76960000D01*
X190573789Y-80523591D01*
X190537333Y-80520000D01*
X190537322Y-80520000D01*
X190500000Y-80516324D01*
X190462678Y-80520000D01*
X153707322Y-80520000D01*
X153669999Y-80516324D01*
X153632676Y-80520000D01*
X153632667Y-80520000D01*
X153521014Y-80530997D01*
X153377753Y-80574454D01*
X153245724Y-80645026D01*
X153129999Y-80739999D01*
X153106201Y-80768997D01*
X152085199Y-81790000D01*
X148000703Y-81790000D01*
X148222356Y-81698189D01*
X148534366Y-81489710D01*
X148799710Y-81224366D01*
X149008189Y-80912356D01*
X149151791Y-80565668D01*
X149225000Y-80197626D01*
X149225000Y-79822374D01*
X149151791Y-79454332D01*
X149008189Y-79107644D01*
X148799710Y-78795634D01*
X148534366Y-78530290D01*
X148222356Y-78321811D01*
X147875668Y-78178209D01*
X147507626Y-78105000D01*
X147132374Y-78105000D01*
X146764332Y-78178209D01*
X146417644Y-78321811D01*
X146105634Y-78530290D01*
X145840290Y-78795634D01*
X145631811Y-79107644D01*
X145488209Y-79454332D01*
X145415000Y-79822374D01*
X145415000Y-80197626D01*
X145488209Y-80565668D01*
X145631811Y-80912356D01*
X145840290Y-81224366D01*
X146105634Y-81489710D01*
X146417644Y-81698189D01*
X146639297Y-81790000D01*
X142717154Y-81790000D01*
X142658189Y-81647644D01*
X142449710Y-81335634D01*
X142184366Y-81070290D01*
X141872356Y-80861811D01*
X141525668Y-80718209D01*
X141157626Y-80645000D01*
X140782374Y-80645000D01*
X140414332Y-80718209D01*
X140067644Y-80861811D01*
X139755634Y-81070290D01*
X139490290Y-81335634D01*
X139281811Y-81647644D01*
X139138209Y-81994332D01*
X139065000Y-82362374D01*
X139065000Y-82737626D01*
X139138209Y-83105668D01*
X139281811Y-83452356D01*
X139403741Y-83634837D01*
X139266842Y-83662068D01*
X138996589Y-83774010D01*
X138753368Y-83936525D01*
X138546525Y-84143368D01*
X138384010Y-84386589D01*
X138272068Y-84656842D01*
X138215000Y-84943740D01*
X138215000Y-85236260D01*
X138272068Y-85523158D01*
X138384010Y-85793411D01*
X138546525Y-86036632D01*
X138753368Y-86243475D01*
X138996589Y-86405990D01*
X139266842Y-86517932D01*
X139553740Y-86575000D01*
X139846260Y-86575000D01*
X140133158Y-86517932D01*
X140403411Y-86405990D01*
X140646632Y-86243475D01*
X140853475Y-86036632D01*
X141015990Y-85793411D01*
X141127932Y-85523158D01*
X141185000Y-85236260D01*
X141185000Y-84943740D01*
X141127932Y-84656842D01*
X141044327Y-84455000D01*
X141157626Y-84455000D01*
X141525668Y-84381791D01*
X141872356Y-84238189D01*
X142184366Y-84029710D01*
X142449710Y-83764366D01*
X142658189Y-83452356D01*
X142717154Y-83310000D01*
X142833547Y-83310000D01*
X142733262Y-83410285D01*
X142444893Y-83841859D01*
X142246261Y-84321399D01*
X142145000Y-84830475D01*
X142145000Y-85349525D01*
X142246261Y-85858601D01*
X142444893Y-86338141D01*
X142733262Y-86769715D01*
X143100285Y-87136738D01*
X143531859Y-87425107D01*
X144011399Y-87623739D01*
X144520475Y-87725000D01*
X145039525Y-87725000D01*
X145548601Y-87623739D01*
X146028141Y-87425107D01*
X146459715Y-87136738D01*
X146826738Y-86769715D01*
X147115107Y-86338141D01*
X147313739Y-85858601D01*
X147415000Y-85349525D01*
X147415000Y-84943740D01*
X148375000Y-84943740D01*
X148375000Y-85236260D01*
X148432068Y-85523158D01*
X148544010Y-85793411D01*
X148706525Y-86036632D01*
X148913368Y-86243475D01*
X149156589Y-86405990D01*
X149426842Y-86517932D01*
X149713740Y-86575000D01*
X150006260Y-86575000D01*
X150293158Y-86517932D01*
X150563411Y-86405990D01*
X150806632Y-86243475D01*
X151013475Y-86036632D01*
X151175990Y-85793411D01*
X151287932Y-85523158D01*
X151345000Y-85236260D01*
X151345000Y-84943740D01*
X151287932Y-84656842D01*
X151175990Y-84386589D01*
X151013475Y-84143368D01*
X150806632Y-83936525D01*
X150563411Y-83774010D01*
X150293158Y-83662068D01*
X150006260Y-83605000D01*
X149713740Y-83605000D01*
X149426842Y-83662068D01*
X149156589Y-83774010D01*
X148913368Y-83936525D01*
X148706525Y-84143368D01*
X148544010Y-84386589D01*
X148432068Y-84656842D01*
X148375000Y-84943740D01*
X147415000Y-84943740D01*
X147415000Y-84830475D01*
X147313739Y-84321399D01*
X147115107Y-83841859D01*
X146826738Y-83410285D01*
X146726453Y-83310000D01*
X152362678Y-83310000D01*
X152400000Y-83313676D01*
X152437322Y-83310000D01*
X152437333Y-83310000D01*
X152548986Y-83299003D01*
X152692247Y-83255546D01*
X152824276Y-83184974D01*
X152940001Y-83090001D01*
X152963804Y-83060997D01*
X152966801Y-83058000D01*
X157349928Y-83058000D01*
X157349928Y-84582000D01*
X157362188Y-84706482D01*
X157398498Y-84826180D01*
X157457463Y-84936494D01*
X157536815Y-85033185D01*
X157633506Y-85112537D01*
X157743820Y-85171502D01*
X157863518Y-85207812D01*
X157988000Y-85220072D01*
X159512000Y-85220072D01*
X159636482Y-85207812D01*
X159756180Y-85171502D01*
X159866494Y-85112537D01*
X159963185Y-85033185D01*
X160042537Y-84936494D01*
X160101502Y-84826180D01*
X160137812Y-84706482D01*
X160146080Y-84622535D01*
X160204880Y-84710535D01*
X160399465Y-84905120D01*
X160628273Y-85058005D01*
X160882510Y-85163314D01*
X161152408Y-85217000D01*
X161427592Y-85217000D01*
X161697490Y-85163314D01*
X161951727Y-85058005D01*
X162180535Y-84905120D01*
X162375120Y-84710535D01*
X162528005Y-84481727D01*
X162560000Y-84404485D01*
X162591995Y-84481727D01*
X162744880Y-84710535D01*
X162939465Y-84905120D01*
X163168273Y-85058005D01*
X163422510Y-85163314D01*
X163692408Y-85217000D01*
X163967592Y-85217000D01*
X164237490Y-85163314D01*
X164491727Y-85058005D01*
X164720535Y-84905120D01*
X164840090Y-84785565D01*
X165584040Y-84785565D01*
X165651020Y-85025656D01*
X165900048Y-85142756D01*
X166167135Y-85209023D01*
X166442017Y-85221910D01*
X166714133Y-85180922D01*
X166973023Y-85087636D01*
X167088980Y-85025656D01*
X167155960Y-84785565D01*
X166370000Y-83999605D01*
X165584040Y-84785565D01*
X164840090Y-84785565D01*
X164915120Y-84710535D01*
X165068005Y-84481727D01*
X165097692Y-84410057D01*
X165102364Y-84423023D01*
X165164344Y-84538980D01*
X165404435Y-84605960D01*
X166190395Y-83820000D01*
X166549605Y-83820000D01*
X167335565Y-84605960D01*
X167575656Y-84538980D01*
X167692756Y-84289952D01*
X167759023Y-84022865D01*
X167771910Y-83747983D01*
X167730922Y-83475867D01*
X167637636Y-83216977D01*
X167575656Y-83101020D01*
X167335565Y-83034040D01*
X166549605Y-83820000D01*
X166190395Y-83820000D01*
X165404435Y-83034040D01*
X165164344Y-83101020D01*
X165100515Y-83236760D01*
X165068005Y-83158273D01*
X164915120Y-82929465D01*
X164840090Y-82854435D01*
X165584040Y-82854435D01*
X166370000Y-83640395D01*
X167155960Y-82854435D01*
X167088980Y-82614344D01*
X166839952Y-82497244D01*
X166572865Y-82430977D01*
X166297983Y-82418090D01*
X166025867Y-82459078D01*
X165766977Y-82552364D01*
X165651020Y-82614344D01*
X165584040Y-82854435D01*
X164840090Y-82854435D01*
X164720535Y-82734880D01*
X164491727Y-82581995D01*
X164237490Y-82476686D01*
X163967592Y-82423000D01*
X163692408Y-82423000D01*
X163422510Y-82476686D01*
X163168273Y-82581995D01*
X162939465Y-82734880D01*
X162744880Y-82929465D01*
X162591995Y-83158273D01*
X162560000Y-83235515D01*
X162528005Y-83158273D01*
X162375120Y-82929465D01*
X162180535Y-82734880D01*
X161951727Y-82581995D01*
X161697490Y-82476686D01*
X161427592Y-82423000D01*
X161152408Y-82423000D01*
X160882510Y-82476686D01*
X160628273Y-82581995D01*
X160399465Y-82734880D01*
X160204880Y-82929465D01*
X160146080Y-83017465D01*
X160137812Y-82933518D01*
X160101502Y-82813820D01*
X160042537Y-82703506D01*
X159963185Y-82606815D01*
X159866494Y-82527463D01*
X159756180Y-82468498D01*
X159636482Y-82432188D01*
X159512000Y-82419928D01*
X157988000Y-82419928D01*
X157863518Y-82432188D01*
X157743820Y-82468498D01*
X157633506Y-82527463D01*
X157536815Y-82606815D01*
X157457463Y-82703506D01*
X157398498Y-82813820D01*
X157362188Y-82933518D01*
X157349928Y-83058000D01*
X152966801Y-83058000D01*
X153984802Y-82040000D01*
X190185199Y-82040000D01*
X193550001Y-85404803D01*
X193550001Y-87995988D01*
X193530256Y-87982795D01*
X193341898Y-87904774D01*
X193141939Y-87865000D01*
X192938061Y-87865000D01*
X192738102Y-87904774D01*
X192549744Y-87982795D01*
X192380226Y-88096063D01*
X192236063Y-88240226D01*
X192122795Y-88409744D01*
X192044774Y-88598102D01*
X192005000Y-88798061D01*
X192005000Y-89001939D01*
X192044774Y-89201898D01*
X192122795Y-89390256D01*
X192236063Y-89559774D01*
X192280000Y-89603711D01*
X192280001Y-106365197D01*
X190665000Y-107980198D01*
X190665000Y-107808665D01*
X190609853Y-107531426D01*
X190501680Y-107270273D01*
X190344637Y-107035241D01*
X190144759Y-106835363D01*
X189912241Y-106680000D01*
X190144759Y-106524637D01*
X190344637Y-106324759D01*
X190501680Y-106089727D01*
X190609853Y-105828574D01*
X190665000Y-105551335D01*
X190665000Y-105268665D01*
X190609853Y-104991426D01*
X190501680Y-104730273D01*
X190344637Y-104495241D01*
X190144759Y-104295363D01*
X189912241Y-104140000D01*
X190144759Y-103984637D01*
X190344637Y-103784759D01*
X190501680Y-103549727D01*
X190609853Y-103288574D01*
X190665000Y-103011335D01*
X190665000Y-102728665D01*
X190609853Y-102451426D01*
X190501680Y-102190273D01*
X190344637Y-101955241D01*
X190144759Y-101755363D01*
X189912241Y-101600000D01*
X190144759Y-101444637D01*
X190344637Y-101244759D01*
X190501680Y-101009727D01*
X190609853Y-100748574D01*
X190665000Y-100471335D01*
X190665000Y-100188665D01*
X190609853Y-99911426D01*
X190501680Y-99650273D01*
X190344637Y-99415241D01*
X190144759Y-99215363D01*
X189912241Y-99060000D01*
X190144759Y-98904637D01*
X190344637Y-98704759D01*
X190501680Y-98469727D01*
X190609853Y-98208574D01*
X190665000Y-97931335D01*
X190665000Y-97648665D01*
X190609853Y-97371426D01*
X190501680Y-97110273D01*
X190344637Y-96875241D01*
X190144759Y-96675363D01*
X189912241Y-96520000D01*
X190144759Y-96364637D01*
X190344637Y-96164759D01*
X190501680Y-95929727D01*
X190609853Y-95668574D01*
X190665000Y-95391335D01*
X190665000Y-95108665D01*
X190609853Y-94831426D01*
X190501680Y-94570273D01*
X190344637Y-94335241D01*
X190144759Y-94135363D01*
X189912241Y-93980000D01*
X190144759Y-93824637D01*
X190344637Y-93624759D01*
X190501680Y-93389727D01*
X190609853Y-93128574D01*
X190665000Y-92851335D01*
X190665000Y-92568665D01*
X190609853Y-92291426D01*
X190501680Y-92030273D01*
X190344637Y-91795241D01*
X190144759Y-91595363D01*
X189912241Y-91440000D01*
X190144759Y-91284637D01*
X190344637Y-91084759D01*
X190501680Y-90849727D01*
X190609853Y-90588574D01*
X190665000Y-90311335D01*
X190665000Y-90028665D01*
X190609853Y-89751426D01*
X190501680Y-89490273D01*
X190344637Y-89255241D01*
X190144759Y-89055363D01*
X189909727Y-88898320D01*
X189648574Y-88790147D01*
X189371335Y-88735000D01*
X189088665Y-88735000D01*
X188811426Y-88790147D01*
X188550273Y-88898320D01*
X188315241Y-89055363D01*
X188115363Y-89255241D01*
X187960000Y-89487759D01*
X187804637Y-89255241D01*
X187604759Y-89055363D01*
X187369727Y-88898320D01*
X187108574Y-88790147D01*
X186831335Y-88735000D01*
X186548665Y-88735000D01*
X186271426Y-88790147D01*
X186010273Y-88898320D01*
X185775241Y-89055363D01*
X185575363Y-89255241D01*
X185420000Y-89487759D01*
X185264637Y-89255241D01*
X185064759Y-89055363D01*
X184829727Y-88898320D01*
X184568574Y-88790147D01*
X184291335Y-88735000D01*
X184008665Y-88735000D01*
X183731426Y-88790147D01*
X183470273Y-88898320D01*
X183235241Y-89055363D01*
X183035363Y-89255241D01*
X182880000Y-89487759D01*
X182724637Y-89255241D01*
X182524759Y-89055363D01*
X182289727Y-88898320D01*
X182028574Y-88790147D01*
X181751335Y-88735000D01*
X181468665Y-88735000D01*
X181191426Y-88790147D01*
X180930273Y-88898320D01*
X180695241Y-89055363D01*
X180495363Y-89255241D01*
X180340000Y-89487759D01*
X180184637Y-89255241D01*
X179984759Y-89055363D01*
X179749727Y-88898320D01*
X179488574Y-88790147D01*
X179211335Y-88735000D01*
X178928665Y-88735000D01*
X178651426Y-88790147D01*
X178390273Y-88898320D01*
X178155241Y-89055363D01*
X177955363Y-89255241D01*
X177800000Y-89487759D01*
X177644637Y-89255241D01*
X177444759Y-89055363D01*
X177209727Y-88898320D01*
X176948574Y-88790147D01*
X176671335Y-88735000D01*
X176388665Y-88735000D01*
X176111426Y-88790147D01*
X175850273Y-88898320D01*
X175615241Y-89055363D01*
X175415363Y-89255241D01*
X175260000Y-89487759D01*
X175104637Y-89255241D01*
X174904759Y-89055363D01*
X174669727Y-88898320D01*
X174408574Y-88790147D01*
X174131335Y-88735000D01*
X173848665Y-88735000D01*
X173571426Y-88790147D01*
X173310273Y-88898320D01*
X173075241Y-89055363D01*
X172875363Y-89255241D01*
X172718320Y-89490273D01*
X172610147Y-89751426D01*
X172555000Y-90028665D01*
X172555000Y-90311335D01*
X172610147Y-90588574D01*
X172718320Y-90849727D01*
X172875363Y-91084759D01*
X173075241Y-91284637D01*
X173307759Y-91440000D01*
X173075241Y-91595363D01*
X172875363Y-91795241D01*
X172718320Y-92030273D01*
X172610147Y-92291426D01*
X172555000Y-92568665D01*
X172555000Y-92851335D01*
X172610147Y-93128574D01*
X172718320Y-93389727D01*
X172875363Y-93624759D01*
X173075241Y-93824637D01*
X173307759Y-93980000D01*
X173075241Y-94135363D01*
X172875363Y-94335241D01*
X172718320Y-94570273D01*
X172610147Y-94831426D01*
X172555000Y-95108665D01*
X172555000Y-95391335D01*
X172610147Y-95668574D01*
X172718320Y-95929727D01*
X172875363Y-96164759D01*
X173075241Y-96364637D01*
X173307759Y-96520000D01*
X173075241Y-96675363D01*
X172875363Y-96875241D01*
X172718320Y-97110273D01*
X172610147Y-97371426D01*
X172555000Y-97648665D01*
X172555000Y-97931335D01*
X172610147Y-98208574D01*
X172718320Y-98469727D01*
X172875363Y-98704759D01*
X173075241Y-98904637D01*
X173307759Y-99060000D01*
X173075241Y-99215363D01*
X172875363Y-99415241D01*
X172718320Y-99650273D01*
X172610147Y-99911426D01*
X172555000Y-100188665D01*
X172555000Y-100471335D01*
X172610147Y-100748574D01*
X172648017Y-100840000D01*
X139102322Y-100840000D01*
X139064999Y-100836324D01*
X139027676Y-100840000D01*
X139027667Y-100840000D01*
X138916014Y-100850997D01*
X138772753Y-100894454D01*
X138640724Y-100965026D01*
X138640722Y-100965027D01*
X138640723Y-100965027D01*
X138553996Y-101036201D01*
X138553992Y-101036205D01*
X138524999Y-101059999D01*
X138501205Y-101088992D01*
X136210199Y-103380000D01*
X123794154Y-103380000D01*
X123735189Y-103237644D01*
X123526710Y-102925634D01*
X123261366Y-102660290D01*
X122949356Y-102451811D01*
X122602668Y-102308209D01*
X122234626Y-102235000D01*
X121859374Y-102235000D01*
X121491332Y-102308209D01*
X121144644Y-102451811D01*
X120832634Y-102660290D01*
X120567290Y-102925634D01*
X120358811Y-103237644D01*
X120215209Y-103584332D01*
X120142000Y-103952374D01*
X120142000Y-104327626D01*
X120215209Y-104695668D01*
X120358811Y-105042356D01*
X120567290Y-105354366D01*
X120832634Y-105619710D01*
X121144644Y-105828189D01*
X121491332Y-105971791D01*
X121859374Y-106045000D01*
X122234626Y-106045000D01*
X122602668Y-105971791D01*
X122949356Y-105828189D01*
X123261366Y-105619710D01*
X123526710Y-105354366D01*
X123735189Y-105042356D01*
X123794154Y-104900000D01*
X136487678Y-104900000D01*
X136525000Y-104903676D01*
X136562322Y-104900000D01*
X136562333Y-104900000D01*
X136673986Y-104889003D01*
X136817247Y-104845546D01*
X136949276Y-104774974D01*
X137065001Y-104680001D01*
X137088804Y-104650997D01*
X139379803Y-102360000D01*
X147274297Y-102360000D01*
X147052644Y-102451811D01*
X146740634Y-102660290D01*
X146475290Y-102925634D01*
X146266811Y-103237644D01*
X146123209Y-103584332D01*
X146050000Y-103952374D01*
X146050000Y-104327626D01*
X146123209Y-104695668D01*
X146266811Y-105042356D01*
X146475290Y-105354366D01*
X146740634Y-105619710D01*
X147052644Y-105828189D01*
X147195000Y-105887154D01*
X147195000Y-107273547D01*
X147094715Y-107173262D01*
X146663141Y-106884893D01*
X146183601Y-106686261D01*
X145674525Y-106585000D01*
X145155475Y-106585000D01*
X144646399Y-106686261D01*
X144166859Y-106884893D01*
X143735285Y-107173262D01*
X143368262Y-107540285D01*
X143079893Y-107971859D01*
X142881261Y-108451399D01*
X142780000Y-108960475D01*
X142780000Y-109479525D01*
X142881261Y-109988601D01*
X143079893Y-110468141D01*
X143368262Y-110899715D01*
X143735285Y-111266738D01*
X144166859Y-111555107D01*
X144646399Y-111753739D01*
X145155475Y-111855000D01*
X145674525Y-111855000D01*
X146183601Y-111753739D01*
X146663141Y-111555107D01*
X147094715Y-111266738D01*
X147195000Y-111166453D01*
X147195001Y-119977667D01*
X147191324Y-120015000D01*
X147195001Y-120052333D01*
X147201074Y-120113987D01*
X147205998Y-120163985D01*
X147249454Y-120307246D01*
X147320026Y-120439276D01*
X147373967Y-120505002D01*
X147415000Y-120555001D01*
X147443998Y-120578799D01*
X152923202Y-126058004D01*
X152947000Y-126087002D01*
X153062725Y-126181975D01*
X153194754Y-126252547D01*
X153338015Y-126296004D01*
X153449668Y-126307001D01*
X153449678Y-126307001D01*
X153487001Y-126310677D01*
X153524324Y-126307001D01*
X159234439Y-126307001D01*
X159271761Y-126310677D01*
X159309083Y-126307001D01*
X159309094Y-126307001D01*
X159420747Y-126296004D01*
X159564008Y-126252547D01*
X159696037Y-126181975D01*
X159811762Y-126087002D01*
X159835564Y-126057999D01*
X159997042Y-125896521D01*
X203580979Y-125896521D01*
X203580979Y-126343479D01*
X203668176Y-126781849D01*
X203839220Y-127194785D01*
X204087536Y-127566417D01*
X204403583Y-127882464D01*
X204775215Y-128130780D01*
X205188151Y-128301824D01*
X205626521Y-128389021D01*
X206073479Y-128389021D01*
X206511849Y-128301824D01*
X206924785Y-128130780D01*
X207296417Y-127882464D01*
X207612464Y-127566417D01*
X207860780Y-127194785D01*
X208031824Y-126781849D01*
X208119021Y-126343479D01*
X208119021Y-125896521D01*
X208031824Y-125458151D01*
X207860780Y-125045215D01*
X207612464Y-124673583D01*
X207296417Y-124357536D01*
X206924785Y-124109220D01*
X206511849Y-123938176D01*
X206073479Y-123850979D01*
X205626521Y-123850979D01*
X205188151Y-123938176D01*
X204775215Y-124109220D01*
X204403583Y-124357536D01*
X204087536Y-124673583D01*
X203839220Y-125045215D01*
X203668176Y-125458151D01*
X203580979Y-125896521D01*
X159997042Y-125896521D01*
X160348005Y-125545559D01*
X160371737Y-125526083D01*
X160387631Y-125541977D01*
X160504041Y-125425567D01*
X160571020Y-125665656D01*
X160820048Y-125782756D01*
X161087135Y-125849023D01*
X161362017Y-125861910D01*
X161634133Y-125820922D01*
X161893023Y-125727636D01*
X162008980Y-125665656D01*
X162075960Y-125425565D01*
X163044040Y-125425565D01*
X163111020Y-125665656D01*
X163360048Y-125782756D01*
X163627135Y-125849023D01*
X163902017Y-125861910D01*
X164174133Y-125820922D01*
X164433023Y-125727636D01*
X164548980Y-125665656D01*
X164615960Y-125425565D01*
X163830000Y-124639605D01*
X163044040Y-125425565D01*
X162075960Y-125425565D01*
X161290000Y-124639605D01*
X161275858Y-124653748D01*
X161096253Y-124474143D01*
X161110395Y-124460000D01*
X161469605Y-124460000D01*
X162255565Y-125245960D01*
X162495656Y-125178980D01*
X162557079Y-125048356D01*
X162562364Y-125063023D01*
X162624344Y-125178980D01*
X162864435Y-125245960D01*
X163650395Y-124460000D01*
X164009605Y-124460000D01*
X164795565Y-125245960D01*
X165035656Y-125178980D01*
X165099485Y-125043240D01*
X165131995Y-125121727D01*
X165284880Y-125350535D01*
X165479465Y-125545120D01*
X165708273Y-125698005D01*
X165962510Y-125803314D01*
X166232408Y-125857000D01*
X166507592Y-125857000D01*
X166777490Y-125803314D01*
X167031727Y-125698005D01*
X167260535Y-125545120D01*
X167455120Y-125350535D01*
X167608005Y-125121727D01*
X167713314Y-124867490D01*
X167767000Y-124597592D01*
X167767000Y-124322408D01*
X167713314Y-124052510D01*
X167608005Y-123798273D01*
X167455120Y-123569465D01*
X167260535Y-123374880D01*
X167031727Y-123221995D01*
X166777490Y-123116686D01*
X166507592Y-123063000D01*
X166232408Y-123063000D01*
X165962510Y-123116686D01*
X165708273Y-123221995D01*
X165479465Y-123374880D01*
X165284880Y-123569465D01*
X165131995Y-123798273D01*
X165102308Y-123869943D01*
X165097636Y-123856977D01*
X165035656Y-123741020D01*
X164795565Y-123674040D01*
X164009605Y-124460000D01*
X163650395Y-124460000D01*
X162864435Y-123674040D01*
X162624344Y-123741020D01*
X162562921Y-123871644D01*
X162557636Y-123856977D01*
X162495656Y-123741020D01*
X162255565Y-123674040D01*
X161469605Y-124460000D01*
X161110395Y-124460000D01*
X161096253Y-124445858D01*
X161275858Y-124266253D01*
X161290000Y-124280395D01*
X162075960Y-123494435D01*
X163044040Y-123494435D01*
X163830000Y-124280395D01*
X164615960Y-123494435D01*
X164548980Y-123254344D01*
X164299952Y-123137244D01*
X164032865Y-123070977D01*
X163757983Y-123058090D01*
X163485867Y-123099078D01*
X163226977Y-123192364D01*
X163111020Y-123254344D01*
X163044040Y-123494435D01*
X162075960Y-123494435D01*
X162008980Y-123254344D01*
X161759952Y-123137244D01*
X161722171Y-123127870D01*
X169935041Y-114915001D01*
X172708077Y-114915001D01*
X172610147Y-115151426D01*
X172555000Y-115428665D01*
X172555000Y-115711335D01*
X172610147Y-115988574D01*
X172718320Y-116249727D01*
X172875363Y-116484759D01*
X173075241Y-116684637D01*
X173307759Y-116840000D01*
X173075241Y-116995363D01*
X172875363Y-117195241D01*
X172718320Y-117430273D01*
X172610147Y-117691426D01*
X172555000Y-117968665D01*
X172555000Y-118251335D01*
X172610147Y-118528574D01*
X172718320Y-118789727D01*
X172875363Y-119024759D01*
X173075241Y-119224637D01*
X173307759Y-119380000D01*
X173075241Y-119535363D01*
X172875363Y-119735241D01*
X172718320Y-119970273D01*
X172610147Y-120231426D01*
X172555000Y-120508665D01*
X172555000Y-120791335D01*
X172610147Y-121068574D01*
X172718320Y-121329727D01*
X172875363Y-121564759D01*
X173073961Y-121763357D01*
X173065518Y-121764188D01*
X172945820Y-121800498D01*
X172835506Y-121859463D01*
X172738815Y-121938815D01*
X172659463Y-122035506D01*
X172600498Y-122145820D01*
X172564188Y-122265518D01*
X172551928Y-122390000D01*
X172551928Y-123990000D01*
X172564188Y-124114482D01*
X172600498Y-124234180D01*
X172659463Y-124344494D01*
X172738815Y-124441185D01*
X172835506Y-124520537D01*
X172945820Y-124579502D01*
X173065518Y-124615812D01*
X173190000Y-124628072D01*
X174790000Y-124628072D01*
X174914482Y-124615812D01*
X175034180Y-124579502D01*
X175144494Y-124520537D01*
X175241185Y-124441185D01*
X175320537Y-124344494D01*
X175379502Y-124234180D01*
X175395117Y-124182702D01*
X188416903Y-124182702D01*
X188488486Y-124426671D01*
X188743996Y-124547571D01*
X189018184Y-124616300D01*
X189300512Y-124630217D01*
X189580130Y-124588787D01*
X189846292Y-124493603D01*
X189971514Y-124426671D01*
X190043097Y-124182702D01*
X189230000Y-123369605D01*
X188416903Y-124182702D01*
X175395117Y-124182702D01*
X175415812Y-124114482D01*
X175428072Y-123990000D01*
X175428072Y-122390000D01*
X175415812Y-122265518D01*
X175379502Y-122145820D01*
X175320537Y-122035506D01*
X175241185Y-121938815D01*
X175144494Y-121859463D01*
X175034180Y-121800498D01*
X174962207Y-121778665D01*
X179945000Y-121778665D01*
X179945000Y-122061335D01*
X180000147Y-122338574D01*
X180108320Y-122599727D01*
X180265363Y-122834759D01*
X180465241Y-123034637D01*
X180700273Y-123191680D01*
X180961426Y-123299853D01*
X181238665Y-123355000D01*
X181521335Y-123355000D01*
X181798574Y-123299853D01*
X182059727Y-123191680D01*
X182294759Y-123034637D01*
X182445000Y-122884396D01*
X182595241Y-123034637D01*
X182830273Y-123191680D01*
X183091426Y-123299853D01*
X183368665Y-123355000D01*
X183651335Y-123355000D01*
X183928574Y-123299853D01*
X184023551Y-123260512D01*
X187789783Y-123260512D01*
X187831213Y-123540130D01*
X187926397Y-123806292D01*
X187993329Y-123931514D01*
X188237298Y-124003097D01*
X189050395Y-123190000D01*
X189409605Y-123190000D01*
X190222702Y-124003097D01*
X190466671Y-123931514D01*
X190587571Y-123676004D01*
X190656300Y-123401816D01*
X190670217Y-123119488D01*
X190628787Y-122839870D01*
X190533603Y-122573708D01*
X190466671Y-122448486D01*
X190222702Y-122376903D01*
X189409605Y-123190000D01*
X189050395Y-123190000D01*
X188237298Y-122376903D01*
X187993329Y-122448486D01*
X187872429Y-122703996D01*
X187803700Y-122978184D01*
X187789783Y-123260512D01*
X184023551Y-123260512D01*
X184189727Y-123191680D01*
X184424759Y-123034637D01*
X184624637Y-122834759D01*
X184781680Y-122599727D01*
X184889853Y-122338574D01*
X184945000Y-122061335D01*
X184945000Y-121778665D01*
X184889853Y-121501426D01*
X184781680Y-121240273D01*
X184624637Y-121005241D01*
X184424759Y-120805363D01*
X184189727Y-120648320D01*
X183928574Y-120540147D01*
X183651335Y-120485000D01*
X183368665Y-120485000D01*
X183091426Y-120540147D01*
X182830273Y-120648320D01*
X182595241Y-120805363D01*
X182445000Y-120955604D01*
X182294759Y-120805363D01*
X182059727Y-120648320D01*
X181798574Y-120540147D01*
X181521335Y-120485000D01*
X181238665Y-120485000D01*
X180961426Y-120540147D01*
X180700273Y-120648320D01*
X180465241Y-120805363D01*
X180265363Y-121005241D01*
X180108320Y-121240273D01*
X180000147Y-121501426D01*
X179945000Y-121778665D01*
X174962207Y-121778665D01*
X174914482Y-121764188D01*
X174906039Y-121763357D01*
X175104637Y-121564759D01*
X175261680Y-121329727D01*
X175369853Y-121068574D01*
X175425000Y-120791335D01*
X175425000Y-120508665D01*
X175369853Y-120231426D01*
X175261680Y-119970273D01*
X175104637Y-119735241D01*
X174904759Y-119535363D01*
X174672241Y-119380000D01*
X174904759Y-119224637D01*
X175104637Y-119024759D01*
X175261680Y-118789727D01*
X175369853Y-118528574D01*
X175425000Y-118251335D01*
X175425000Y-117968665D01*
X175369853Y-117691426D01*
X175261680Y-117430273D01*
X175104637Y-117195241D01*
X174904759Y-116995363D01*
X174672241Y-116840000D01*
X174904759Y-116684637D01*
X175104637Y-116484759D01*
X175261680Y-116249727D01*
X175369853Y-115988574D01*
X175425000Y-115711335D01*
X175425000Y-115428665D01*
X175369853Y-115151426D01*
X175271923Y-114915001D01*
X175367677Y-114915001D01*
X175404999Y-114918677D01*
X175442321Y-114915001D01*
X175442332Y-114915001D01*
X175553985Y-114904004D01*
X175697246Y-114860547D01*
X175829275Y-114789975D01*
X175945000Y-114695002D01*
X175968803Y-114665999D01*
X176569802Y-114065000D01*
X176631939Y-114065000D01*
X176831898Y-114025226D01*
X177020256Y-113947205D01*
X177189774Y-113833937D01*
X177333937Y-113689774D01*
X177447205Y-113520256D01*
X177525226Y-113331898D01*
X177565000Y-113131939D01*
X177565000Y-112928061D01*
X177525226Y-112728102D01*
X177447205Y-112539744D01*
X177333937Y-112370226D01*
X177189774Y-112226063D01*
X177020256Y-112112795D01*
X176831898Y-112034774D01*
X176631939Y-111995000D01*
X176428061Y-111995000D01*
X176228102Y-112034774D01*
X176039744Y-112112795D01*
X175870226Y-112226063D01*
X175726063Y-112370226D01*
X175612795Y-112539744D01*
X175534774Y-112728102D01*
X175495000Y-112928061D01*
X175495000Y-112990198D01*
X175425000Y-113060199D01*
X175425000Y-112888665D01*
X175369853Y-112611426D01*
X175261680Y-112350273D01*
X175104637Y-112115241D01*
X174904759Y-111915363D01*
X174672241Y-111760000D01*
X174904759Y-111604637D01*
X175104637Y-111404759D01*
X175208043Y-111250000D01*
X176380201Y-111250000D01*
X180699222Y-115569022D01*
X180465241Y-115725363D01*
X180265363Y-115925241D01*
X180108320Y-116160273D01*
X180000147Y-116421426D01*
X179945000Y-116698665D01*
X179945000Y-116981335D01*
X180000147Y-117258574D01*
X180108320Y-117519727D01*
X180265363Y-117754759D01*
X180465241Y-117954637D01*
X180700273Y-118111680D01*
X180961426Y-118219853D01*
X181238665Y-118275000D01*
X181521335Y-118275000D01*
X181798574Y-118219853D01*
X182059727Y-118111680D01*
X182294759Y-117954637D01*
X182494637Y-117754759D01*
X182650978Y-117520778D01*
X185166201Y-120036001D01*
X185190000Y-120065000D01*
X185218998Y-120088798D01*
X185305724Y-120159973D01*
X185333577Y-120174861D01*
X185310147Y-120231426D01*
X185255000Y-120508665D01*
X185255000Y-120791335D01*
X185310147Y-121068574D01*
X185418320Y-121329727D01*
X185575363Y-121564759D01*
X185775241Y-121764637D01*
X186010273Y-121921680D01*
X186271426Y-122029853D01*
X186548665Y-122085000D01*
X186831335Y-122085000D01*
X187108574Y-122029853D01*
X187369727Y-121921680D01*
X187604759Y-121764637D01*
X187804637Y-121564759D01*
X187960000Y-121332241D01*
X188115363Y-121564759D01*
X188315241Y-121764637D01*
X188549128Y-121920915D01*
X188488486Y-121953329D01*
X188416903Y-122197298D01*
X189230000Y-123010395D01*
X190043097Y-122197298D01*
X189971514Y-121953329D01*
X189907008Y-121922806D01*
X189909727Y-121921680D01*
X190144759Y-121764637D01*
X190344637Y-121564759D01*
X190501680Y-121329727D01*
X190609853Y-121068574D01*
X190665000Y-120791335D01*
X190665000Y-120508665D01*
X190620509Y-120284999D01*
X199349196Y-120284999D01*
X199540195Y-120475998D01*
X199563998Y-120505002D01*
X199679723Y-120599975D01*
X199811752Y-120670547D01*
X199955013Y-120714004D01*
X200066666Y-120725001D01*
X200066674Y-120725001D01*
X200103999Y-120728677D01*
X200141324Y-120725001D01*
X204377677Y-120725001D01*
X204414999Y-120728677D01*
X204452321Y-120725001D01*
X204452332Y-120725001D01*
X204563985Y-120714004D01*
X204707246Y-120670547D01*
X204839275Y-120599975D01*
X204955000Y-120505002D01*
X204978802Y-120475999D01*
X205248624Y-120206177D01*
X205263088Y-120212168D01*
X205578967Y-120275000D01*
X205901033Y-120275000D01*
X206216912Y-120212168D01*
X206514463Y-120088918D01*
X206782252Y-119909987D01*
X207009987Y-119682252D01*
X207188918Y-119414463D01*
X207312168Y-119116912D01*
X207375000Y-118801033D01*
X207375000Y-118478967D01*
X207312168Y-118163088D01*
X207188918Y-117865537D01*
X207009987Y-117597748D01*
X206782252Y-117370013D01*
X206514463Y-117191082D01*
X206216912Y-117067832D01*
X205901033Y-117005000D01*
X205578967Y-117005000D01*
X205263088Y-117067832D01*
X204965537Y-117191082D01*
X204697748Y-117370013D01*
X204470013Y-117597748D01*
X204291082Y-117865537D01*
X204167832Y-118163088D01*
X204105000Y-118478967D01*
X204105000Y-118801033D01*
X204167832Y-119116912D01*
X204173823Y-119131376D01*
X204100198Y-119205001D01*
X202275680Y-119205001D01*
X202312168Y-119116912D01*
X202375000Y-118801033D01*
X202375000Y-118478967D01*
X202312168Y-118163088D01*
X202188918Y-117865537D01*
X202009987Y-117597748D01*
X201782252Y-117370013D01*
X201514463Y-117191082D01*
X201216912Y-117067832D01*
X200901033Y-117005000D01*
X200578967Y-117005000D01*
X200263088Y-117067832D01*
X199965537Y-117191082D01*
X199697748Y-117370013D01*
X199470013Y-117597748D01*
X199291082Y-117865537D01*
X199167832Y-118163088D01*
X199105000Y-118478967D01*
X199105000Y-118764999D01*
X190511923Y-118764999D01*
X190609853Y-118528574D01*
X190665000Y-118251335D01*
X190665000Y-117968665D01*
X190609853Y-117691426D01*
X190501680Y-117430273D01*
X190344637Y-117195241D01*
X190144759Y-116995363D01*
X189912241Y-116840000D01*
X190144759Y-116684637D01*
X190344637Y-116484759D01*
X190448043Y-116330000D01*
X191097678Y-116330000D01*
X191135000Y-116333676D01*
X191172322Y-116330000D01*
X191172333Y-116330000D01*
X191283986Y-116319003D01*
X191427247Y-116275546D01*
X191559276Y-116204974D01*
X191675001Y-116110001D01*
X191698804Y-116080997D01*
X194821004Y-112958798D01*
X194850001Y-112935001D01*
X194894307Y-112881014D01*
X194944974Y-112819277D01*
X195015546Y-112687247D01*
X195032911Y-112630000D01*
X195059003Y-112543986D01*
X195070000Y-112432333D01*
X195070000Y-112432324D01*
X195073676Y-112395001D01*
X195070000Y-112357678D01*
X195070000Y-111419872D01*
X195405000Y-111419872D01*
X195405000Y-111860128D01*
X195490890Y-112291925D01*
X195659369Y-112698669D01*
X195903962Y-113064729D01*
X196215271Y-113376038D01*
X196581331Y-113620631D01*
X196988075Y-113789110D01*
X197419872Y-113875000D01*
X197860128Y-113875000D01*
X198291925Y-113789110D01*
X198698669Y-113620631D01*
X199064729Y-113376038D01*
X199376038Y-113064729D01*
X199620631Y-112698669D01*
X199789110Y-112291925D01*
X199875000Y-111860128D01*
X199875000Y-111419872D01*
X206605000Y-111419872D01*
X206605000Y-111860128D01*
X206690890Y-112291925D01*
X206859369Y-112698669D01*
X207103962Y-113064729D01*
X207415271Y-113376038D01*
X207781331Y-113620631D01*
X208188075Y-113789110D01*
X208619872Y-113875000D01*
X209060128Y-113875000D01*
X209491925Y-113789110D01*
X209898669Y-113620631D01*
X210264729Y-113376038D01*
X210576038Y-113064729D01*
X210820631Y-112698669D01*
X210989110Y-112291925D01*
X211075000Y-111860128D01*
X211075000Y-111419872D01*
X210989110Y-110988075D01*
X210820631Y-110581331D01*
X210576038Y-110215271D01*
X210264729Y-109903962D01*
X209898669Y-109659369D01*
X209491925Y-109490890D01*
X209060128Y-109405000D01*
X208619872Y-109405000D01*
X208188075Y-109490890D01*
X207781331Y-109659369D01*
X207415271Y-109903962D01*
X207103962Y-110215271D01*
X206859369Y-110581331D01*
X206690890Y-110988075D01*
X206605000Y-111419872D01*
X199875000Y-111419872D01*
X199789110Y-110988075D01*
X199620631Y-110581331D01*
X199376038Y-110215271D01*
X199064729Y-109903962D01*
X198698669Y-109659369D01*
X198291925Y-109490890D01*
X197860128Y-109405000D01*
X197419872Y-109405000D01*
X196988075Y-109490890D01*
X196581331Y-109659369D01*
X196215271Y-109903962D01*
X195903962Y-110215271D01*
X195659369Y-110581331D01*
X195490890Y-110988075D01*
X195405000Y-111419872D01*
X195070000Y-111419872D01*
X195070000Y-101498061D01*
X196831000Y-101498061D01*
X196831000Y-101701939D01*
X196870774Y-101901898D01*
X196948795Y-102090256D01*
X197062063Y-102259774D01*
X197206226Y-102403937D01*
X197375744Y-102517205D01*
X197564102Y-102595226D01*
X197764061Y-102635000D01*
X197967939Y-102635000D01*
X198167898Y-102595226D01*
X198356256Y-102517205D01*
X198525774Y-102403937D01*
X198569711Y-102360000D01*
X200464289Y-102360000D01*
X200508226Y-102403937D01*
X200659478Y-102505000D01*
X200578967Y-102505000D01*
X200263088Y-102567832D01*
X199965537Y-102691082D01*
X199697748Y-102870013D01*
X199470013Y-103097748D01*
X199291082Y-103365537D01*
X199167832Y-103663088D01*
X199105000Y-103978967D01*
X199105000Y-104301033D01*
X199167832Y-104616912D01*
X199291082Y-104914463D01*
X199470013Y-105182252D01*
X199697748Y-105409987D01*
X199965537Y-105588918D01*
X200263088Y-105712168D01*
X200578967Y-105775000D01*
X200901033Y-105775000D01*
X201216912Y-105712168D01*
X201514463Y-105588918D01*
X201782252Y-105409987D01*
X201990000Y-105202239D01*
X202197748Y-105409987D01*
X202465537Y-105588918D01*
X202763088Y-105712168D01*
X203078967Y-105775000D01*
X203401033Y-105775000D01*
X203716912Y-105712168D01*
X204014463Y-105588918D01*
X204195335Y-105468063D01*
X204209463Y-105494494D01*
X204288815Y-105591185D01*
X204385506Y-105670537D01*
X204495820Y-105729502D01*
X204615518Y-105765812D01*
X204740000Y-105778072D01*
X206740000Y-105778072D01*
X206864482Y-105765812D01*
X206984180Y-105729502D01*
X207094494Y-105670537D01*
X207191185Y-105591185D01*
X207270537Y-105494494D01*
X207329502Y-105384180D01*
X207365812Y-105264482D01*
X207378072Y-105140000D01*
X207378072Y-103140000D01*
X207365812Y-103015518D01*
X207329502Y-102895820D01*
X207270537Y-102785506D01*
X207191185Y-102688815D01*
X207094494Y-102609463D01*
X206984180Y-102550498D01*
X206864482Y-102514188D01*
X206740000Y-102501928D01*
X204740000Y-102501928D01*
X204615518Y-102514188D01*
X204495820Y-102550498D01*
X204385506Y-102609463D01*
X204288815Y-102688815D01*
X204209463Y-102785506D01*
X204195335Y-102811937D01*
X204014463Y-102691082D01*
X203716912Y-102567832D01*
X203401033Y-102505000D01*
X203078967Y-102505000D01*
X202763088Y-102567832D01*
X202465537Y-102691082D01*
X202197748Y-102870013D01*
X201990000Y-103077761D01*
X201782252Y-102870013D01*
X201514463Y-102691082D01*
X201343665Y-102620335D01*
X201469898Y-102595226D01*
X201658256Y-102517205D01*
X201827774Y-102403937D01*
X201971937Y-102259774D01*
X202085205Y-102090256D01*
X202163226Y-101901898D01*
X202203000Y-101701939D01*
X202203000Y-101498061D01*
X202163226Y-101298102D01*
X202085205Y-101109744D01*
X201971937Y-100940226D01*
X201827774Y-100796063D01*
X201658256Y-100682795D01*
X201469898Y-100604774D01*
X201269939Y-100565000D01*
X201066061Y-100565000D01*
X200866102Y-100604774D01*
X200677744Y-100682795D01*
X200508226Y-100796063D01*
X200464289Y-100840000D01*
X198569711Y-100840000D01*
X198525774Y-100796063D01*
X198356256Y-100682795D01*
X198167898Y-100604774D01*
X197967939Y-100565000D01*
X197764061Y-100565000D01*
X197564102Y-100604774D01*
X197375744Y-100682795D01*
X197206226Y-100796063D01*
X197062063Y-100940226D01*
X196948795Y-101109744D01*
X196870774Y-101298102D01*
X196831000Y-101498061D01*
X195070000Y-101498061D01*
X195070000Y-85127325D01*
X195073676Y-85090000D01*
X195070000Y-85052675D01*
X195070000Y-85052667D01*
X195059003Y-84941014D01*
X195015546Y-84797753D01*
X194944974Y-84665724D01*
X194850001Y-84549999D01*
X194821003Y-84526201D01*
X193227736Y-82932934D01*
X193341898Y-82910226D01*
X193530256Y-82832205D01*
X193699774Y-82718937D01*
X193843937Y-82574774D01*
X193957205Y-82405256D01*
X194035226Y-82216898D01*
X194075000Y-82016939D01*
X194075000Y-81813061D01*
X194035226Y-81613102D01*
X193957205Y-81424744D01*
X193843937Y-81255226D01*
X193699774Y-81111063D01*
X193530256Y-80997795D01*
X193341898Y-80919774D01*
X193224997Y-80896521D01*
X203580979Y-80896521D01*
X203580979Y-81343479D01*
X203668176Y-81781849D01*
X203839220Y-82194785D01*
X204087536Y-82566417D01*
X204403583Y-82882464D01*
X204775215Y-83130780D01*
X205188151Y-83301824D01*
X205626521Y-83389021D01*
X206073479Y-83389021D01*
X206511849Y-83301824D01*
X206924785Y-83130780D01*
X207296417Y-82882464D01*
X207612464Y-82566417D01*
X207860780Y-82194785D01*
X208031824Y-81781849D01*
X208119021Y-81343479D01*
X208119021Y-80896521D01*
X208031824Y-80458151D01*
X207860780Y-80045215D01*
X207612464Y-79673583D01*
X207296417Y-79357536D01*
X206924785Y-79109220D01*
X206511849Y-78938176D01*
X206073479Y-78850979D01*
X205626521Y-78850979D01*
X205188151Y-78938176D01*
X204775215Y-79109220D01*
X204403583Y-79357536D01*
X204087536Y-79673583D01*
X203839220Y-80045215D01*
X203668176Y-80458151D01*
X203580979Y-80896521D01*
X193224997Y-80896521D01*
X193141939Y-80880000D01*
X193079802Y-80880000D01*
X187888804Y-75689003D01*
X187865001Y-75659999D01*
X187749276Y-75565026D01*
X187617247Y-75494454D01*
X187473986Y-75450997D01*
X187362333Y-75440000D01*
X187362322Y-75440000D01*
X187325000Y-75436324D01*
X187287678Y-75440000D01*
X143547322Y-75440000D01*
X143509999Y-75436324D01*
X143472676Y-75440000D01*
X143472667Y-75440000D01*
X143361014Y-75450997D01*
X143257151Y-75482503D01*
X143217753Y-75494454D01*
X143085723Y-75565026D01*
X143007279Y-75629404D01*
X142969999Y-75659999D01*
X142946201Y-75688997D01*
X136845199Y-81790000D01*
X122600703Y-81790000D01*
X122822356Y-81698189D01*
X123134366Y-81489710D01*
X123399710Y-81224366D01*
X123608189Y-80912356D01*
X123751791Y-80565668D01*
X123825000Y-80197626D01*
X123825000Y-79822374D01*
X123751791Y-79454332D01*
X123608189Y-79107644D01*
X123399710Y-78795634D01*
X123134366Y-78530290D01*
X122822356Y-78321811D01*
X122475668Y-78178209D01*
X122107626Y-78105000D01*
X121732374Y-78105000D01*
X121364332Y-78178209D01*
X121017644Y-78321811D01*
X120705634Y-78530290D01*
X120440290Y-78795634D01*
X120231811Y-79107644D01*
X120088209Y-79454332D01*
X120015000Y-79822374D01*
X120015000Y-80197626D01*
X120088209Y-80565668D01*
X120231811Y-80912356D01*
X120440290Y-81224366D01*
X120705634Y-81489710D01*
X121017644Y-81698189D01*
X121239297Y-81790000D01*
X117317154Y-81790000D01*
X117258189Y-81647644D01*
X117049710Y-81335634D01*
X116784366Y-81070290D01*
X116472356Y-80861811D01*
X116125668Y-80718209D01*
X115757626Y-80645000D01*
X115382374Y-80645000D01*
X115014332Y-80718209D01*
X114667644Y-80861811D01*
X114355634Y-81070290D01*
X114090290Y-81335634D01*
X113881811Y-81647644D01*
X113738209Y-81994332D01*
X113665000Y-82362374D01*
X113665000Y-82737626D01*
X113738209Y-83105668D01*
X113881811Y-83452356D01*
X114003741Y-83634837D01*
X113866842Y-83662068D01*
X113596589Y-83774010D01*
X113353368Y-83936525D01*
X113146525Y-84143368D01*
X112984010Y-84386589D01*
X112872068Y-84656842D01*
X112815000Y-84943740D01*
X100545000Y-84943740D01*
X100487932Y-84656842D01*
X100375990Y-84386589D01*
X100213475Y-84143368D01*
X100006632Y-83936525D01*
X99763411Y-83774010D01*
X99493158Y-83662068D01*
X99206260Y-83605000D01*
X98913740Y-83605000D01*
X98626842Y-83662068D01*
X98356589Y-83774010D01*
X98113368Y-83936525D01*
X97906525Y-84143368D01*
X97744010Y-84386589D01*
X97632068Y-84656842D01*
X97575000Y-84943740D01*
X96615000Y-84943740D01*
X96615000Y-84830475D01*
X96513739Y-84321399D01*
X96315107Y-83841859D01*
X96026738Y-83410285D01*
X95659715Y-83043262D01*
X95228141Y-82754893D01*
X94748601Y-82556261D01*
X94239525Y-82455000D01*
X93720475Y-82455000D01*
X93211399Y-82556261D01*
X92731859Y-82754893D01*
X92300285Y-83043262D01*
X91933262Y-83410285D01*
X91644893Y-83841859D01*
X91446261Y-84321399D01*
X91345000Y-84830475D01*
X90362471Y-84830475D01*
X90327932Y-84656842D01*
X90244327Y-84455000D01*
X90357626Y-84455000D01*
X90725668Y-84381791D01*
X91072356Y-84238189D01*
X91384366Y-84029710D01*
X91649710Y-83764366D01*
X91858189Y-83452356D01*
X92001791Y-83105668D01*
X92075000Y-82737626D01*
X92075000Y-82362374D01*
X92001791Y-81994332D01*
X91858189Y-81647644D01*
X91649710Y-81335634D01*
X91384366Y-81070290D01*
X91072356Y-80861811D01*
X90725668Y-80718209D01*
X90357626Y-80645000D01*
X89982374Y-80645000D01*
X89614332Y-80718209D01*
X89267644Y-80861811D01*
X88955634Y-81070290D01*
X88690290Y-81335634D01*
X88481811Y-81647644D01*
X88338209Y-81994332D01*
X88265000Y-82362374D01*
X88265000Y-82737626D01*
X88338209Y-83105668D01*
X88481811Y-83452356D01*
X88603741Y-83634837D01*
X88466842Y-83662068D01*
X88196589Y-83774010D01*
X87953368Y-83936525D01*
X87746525Y-84143368D01*
X87584010Y-84386589D01*
X87472068Y-84656842D01*
X87415000Y-84943740D01*
X78504609Y-84943740D01*
X77983129Y-84422261D01*
X78030537Y-84364494D01*
X78089502Y-84254180D01*
X78125812Y-84134482D01*
X78138072Y-84010000D01*
X78138072Y-82010000D01*
X78125812Y-81885518D01*
X78089502Y-81765820D01*
X78030537Y-81655506D01*
X77951185Y-81558815D01*
X77854494Y-81479463D01*
X77744180Y-81420498D01*
X77624482Y-81384188D01*
X77500000Y-81371928D01*
X74900000Y-81371928D01*
X74775518Y-81384188D01*
X74655820Y-81420498D01*
X74545506Y-81479463D01*
X74448815Y-81558815D01*
X74369463Y-81655506D01*
X74310498Y-81765820D01*
X74274188Y-81885518D01*
X74261928Y-82010000D01*
X74261928Y-84010000D01*
X74274188Y-84134482D01*
X74310498Y-84254180D01*
X74369463Y-84364494D01*
X74448815Y-84461185D01*
X74545506Y-84540537D01*
X74655820Y-84599502D01*
X74775518Y-84635812D01*
X74900000Y-84648072D01*
X75365000Y-84648072D01*
X75365001Y-86014130D01*
X72799704Y-88579428D01*
X71390000Y-88579428D01*
X71265518Y-88591688D01*
X71145820Y-88627998D01*
X71035506Y-88686963D01*
X70938815Y-88766315D01*
X70859463Y-88863006D01*
X70800498Y-88973320D01*
X70764188Y-89093018D01*
X70751928Y-89217500D01*
X70751928Y-91122500D01*
X70764188Y-91246982D01*
X70800498Y-91366680D01*
X70859463Y-91476994D01*
X70938815Y-91573685D01*
X71035506Y-91653037D01*
X71119446Y-91697905D01*
X71016155Y-91823765D01*
X70868745Y-92099551D01*
X70777970Y-92398796D01*
X70747319Y-92710000D01*
X69342000Y-92710000D01*
X69342000Y-78710000D01*
X79261928Y-78710000D01*
X79261928Y-81310000D01*
X79274188Y-81434482D01*
X79310498Y-81554180D01*
X79369463Y-81664494D01*
X79448815Y-81761185D01*
X79545506Y-81840537D01*
X79655820Y-81899502D01*
X79775518Y-81935812D01*
X79900000Y-81948072D01*
X81900000Y-81948072D01*
X82024482Y-81935812D01*
X82144180Y-81899502D01*
X82254494Y-81840537D01*
X82351185Y-81761185D01*
X82430537Y-81664494D01*
X82489502Y-81554180D01*
X82525812Y-81434482D01*
X82538072Y-81310000D01*
X82538072Y-79822374D01*
X94615000Y-79822374D01*
X94615000Y-80197626D01*
X94688209Y-80565668D01*
X94831811Y-80912356D01*
X95040290Y-81224366D01*
X95305634Y-81489710D01*
X95617644Y-81698189D01*
X95964332Y-81841791D01*
X96332374Y-81915000D01*
X96707626Y-81915000D01*
X97075668Y-81841791D01*
X97422356Y-81698189D01*
X97734366Y-81489710D01*
X97999710Y-81224366D01*
X98208189Y-80912356D01*
X98351791Y-80565668D01*
X98425000Y-80197626D01*
X98425000Y-79822374D01*
X98351791Y-79454332D01*
X98208189Y-79107644D01*
X97999710Y-78795634D01*
X97734366Y-78530290D01*
X97422356Y-78321811D01*
X97075668Y-78178209D01*
X96707626Y-78105000D01*
X96332374Y-78105000D01*
X95964332Y-78178209D01*
X95617644Y-78321811D01*
X95305634Y-78530290D01*
X95040290Y-78795634D01*
X94831811Y-79107644D01*
X94688209Y-79454332D01*
X94615000Y-79822374D01*
X82538072Y-79822374D01*
X82538072Y-78710000D01*
X82525812Y-78585518D01*
X82489502Y-78465820D01*
X82430537Y-78355506D01*
X82351185Y-78258815D01*
X82254494Y-78179463D01*
X82144180Y-78120498D01*
X82024482Y-78084188D01*
X81900000Y-78071928D01*
X79900000Y-78071928D01*
X79775518Y-78084188D01*
X79655820Y-78120498D01*
X79545506Y-78179463D01*
X79448815Y-78258815D01*
X79369463Y-78355506D01*
X79310498Y-78465820D01*
X79274188Y-78585518D01*
X79261928Y-78710000D01*
X69342000Y-78710000D01*
X69342000Y-76010000D01*
X74261928Y-76010000D01*
X74261928Y-78010000D01*
X74274188Y-78134482D01*
X74310498Y-78254180D01*
X74369463Y-78364494D01*
X74448815Y-78461185D01*
X74545506Y-78540537D01*
X74655820Y-78599502D01*
X74775518Y-78635812D01*
X74900000Y-78648072D01*
X77500000Y-78648072D01*
X77624482Y-78635812D01*
X77744180Y-78599502D01*
X77854494Y-78540537D01*
X77951185Y-78461185D01*
X78030537Y-78364494D01*
X78089502Y-78254180D01*
X78125812Y-78134482D01*
X78138072Y-78010000D01*
X78138072Y-76010000D01*
X78125812Y-75885518D01*
X78089502Y-75765820D01*
X78030537Y-75655506D01*
X77951185Y-75558815D01*
X77854494Y-75479463D01*
X77744180Y-75420498D01*
X77624482Y-75384188D01*
X77500000Y-75371928D01*
X74900000Y-75371928D01*
X74775518Y-75384188D01*
X74655820Y-75420498D01*
X74545506Y-75479463D01*
X74448815Y-75558815D01*
X74369463Y-75655506D01*
X74310498Y-75765820D01*
X74274188Y-75885518D01*
X74261928Y-76010000D01*
X69342000Y-76010000D01*
X69342000Y-75082120D01*
X69450650Y-74877778D01*
X69603832Y-74689959D01*
X69790577Y-74535470D01*
X70000438Y-74422000D01*
X208024466Y-74422000D01*
X208767678Y-74600430D01*
G37*
%TD.AperFunction*%
%TD*%
M02*
