M48
; DRILL file {KiCad (5.1.9-0-10_14)} date Monday, February 22, 2021 at 07:48:53 PM
; FORMAT={-:-/ absolute / metric / decimal}
; #@! TF.CreationDate,2021-02-22T19:48:53+01:00
; #@! TF.GenerationSoftware,Kicad,Pcbnew,(5.1.9-0-10_14)
; #@! TF.FileFunction,Plated,1,2,PTH
FMAT,2
METRIC
T1C0.400
T2C0.762
T3C0.800
T4C0.950
T5C1.000
T6C1.100
T7C1.500
T8C2.600
%
G90
G05
T1
X87.63Y-115.57
X95.504Y-121.793
X97.663Y-120.269
X108.585Y-115.57
X128.905Y-115.57
X151.13Y-112.395
X151.57Y-113.47
X154.94Y-113.665
X156.845Y-112.395
X176.53Y-113.03
X177.8Y-101.6
X193.04Y-81.915
X193.04Y-88.9
X197.866Y-101.6
X201.168Y-101.6
X202.565Y-93.98
T2
X128.27Y-96.52
X132.08Y-100.33
X135.89Y-96.52
X158.75Y-83.82
X158.75Y-124.46
X161.29Y-83.82
X161.29Y-124.46
X163.83Y-83.82
X163.83Y-124.46
X166.37Y-83.82
X166.37Y-124.46
X172.72Y-77.47
X175.26Y-77.47
X177.8Y-77.47
X180.34Y-77.47
T3
X80.01Y-87.63
X80.01Y-90.13
X80.01Y-94.02
X80.01Y-96.52
T4
X86.52Y-124.46
X89.02Y-124.46
X91.52Y-124.46
X94.02Y-124.46
X96.52Y-124.46
X106.84Y-124.46
X109.34Y-124.46
X111.84Y-124.46
X114.34Y-124.46
X116.84Y-124.46
X127.675Y-124.46
X130.175Y-124.46
X132.675Y-124.46
X135.175Y-124.46
X137.675Y-124.46
T5
X200.74Y-104.14
X200.74Y-118.64
X203.24Y-104.14
X205.74Y-104.14
X205.74Y-118.64
T6
X72.39Y-90.17
X72.39Y-92.71
X72.39Y-95.25
X173.99Y-90.17
X173.99Y-92.71
X173.99Y-95.25
X173.99Y-97.79
X173.99Y-100.33
X173.99Y-102.87
X173.99Y-105.41
X173.99Y-107.95
X173.99Y-110.49
X173.99Y-113.03
X173.99Y-115.57
X173.99Y-118.11
X173.99Y-120.65
X173.99Y-123.19
X176.53Y-90.17
X179.07Y-90.17
X181.38Y-116.84
X181.38Y-121.92
X181.61Y-90.17
X181.61Y-92.71
X181.61Y-95.25
X181.61Y-97.79
X181.61Y-100.33
X181.61Y-102.87
X181.61Y-105.41
X181.61Y-107.95
X183.51Y-121.92
X184.15Y-90.17
X184.15Y-92.71
X184.15Y-95.25
X184.15Y-97.79
X184.15Y-100.33
X184.15Y-102.87
X184.15Y-105.41
X184.15Y-107.95
X186.69Y-90.17
X186.69Y-110.49
X186.69Y-113.03
X186.69Y-115.57
X186.69Y-120.65
X189.23Y-90.17
X189.23Y-92.71
X189.23Y-95.25
X189.23Y-97.79
X189.23Y-100.33
X189.23Y-102.87
X189.23Y-105.41
X189.23Y-107.95
X189.23Y-110.49
X189.23Y-113.03
X189.23Y-115.57
X189.23Y-118.11
X189.23Y-120.65
X189.23Y-123.19
T7
X90.17Y-82.55
X90.17Y-106.426
X96.52Y-80.01
X96.52Y-103.886
X115.57Y-82.55
X115.697Y-106.68
X121.92Y-80.01
X122.047Y-104.14
X140.97Y-82.55
X141.605Y-106.68
X147.32Y-80.01
X147.955Y-104.14
T8
X197.64Y-111.64
X208.84Y-111.64
T5
G00X76.5Y-77.01
M15
G01X75.9Y-77.01
M16
G05
G00X76.5Y-83.01
M15
G01X75.9Y-83.01
M16
G05
G00X80.9Y-80.31
M15
G01X80.9Y-79.71
M16
G05
T0
M30
