%TF.GenerationSoftware,KiCad,Pcbnew,(5.1.9-0-10_14)*%
%TF.CreationDate,2021-02-22T19:48:58+01:00*%
%TF.ProjectId,DMXBox PCB,444d5842-6f78-4205-9043-422e6b696361,0.1*%
%TF.SameCoordinates,Original*%
%TF.FileFunction,Soldermask,Bot*%
%TF.FilePolarity,Negative*%
%FSLAX46Y46*%
G04 Gerber Fmt 4.6, Leading zero omitted, Abs format (unit mm)*
G04 Created by KiCad (PCBNEW (5.1.9-0-10_14)) date 2021-02-22 19:48:58*
%MOMM*%
%LPD*%
G01*
G04 APERTURE LIST*
%ADD10C,1.600000*%
%ADD11R,1.600000X1.600000*%
%ADD12R,2.000000X2.600000*%
%ADD13R,2.600000X2.000000*%
%ADD14C,1.524000*%
%ADD15R,1.524000X1.524000*%
%ADD16O,1.700000X1.950000*%
%ADD17C,1.700000*%
%ADD18C,4.000000*%
%ADD19C,2.540000*%
%ADD20C,2.000000*%
%ADD21C,3.200000*%
%ADD22R,2.000000X2.000000*%
%ADD23R,2.000000X1.905000*%
%ADD24O,2.000000X1.905000*%
G04 APERTURE END LIST*
D10*
%TO.C,U1*%
X181610000Y-107950000D03*
X181610000Y-105410000D03*
X181380000Y-116840000D03*
X181610000Y-102870000D03*
X184150000Y-107950000D03*
X184150000Y-105410000D03*
X181610000Y-100330000D03*
X184150000Y-102870000D03*
X181610000Y-97790000D03*
X181610000Y-95250000D03*
X184150000Y-100330000D03*
X184150000Y-97790000D03*
X181610000Y-92710000D03*
X184150000Y-92710000D03*
X184150000Y-95250000D03*
X183510000Y-121920000D03*
X181380000Y-121920000D03*
D11*
X173990000Y-123190000D03*
D10*
X173990000Y-120650000D03*
X173990000Y-118110000D03*
X173990000Y-115570000D03*
X173990000Y-113030000D03*
X173990000Y-110490000D03*
X173990000Y-107950000D03*
X173990000Y-105410000D03*
X173990000Y-102870000D03*
X173990000Y-100330000D03*
X173990000Y-97790000D03*
X173990000Y-95250000D03*
X173990000Y-92710000D03*
X186690000Y-110490000D03*
X186690000Y-113030000D03*
X186690000Y-115570000D03*
X186690000Y-120650000D03*
X189230000Y-123190000D03*
X189230000Y-120650000D03*
X189230000Y-118110000D03*
X189230000Y-115570000D03*
X189230000Y-113030000D03*
X189230000Y-110490000D03*
X189230000Y-107950000D03*
X189230000Y-105410000D03*
X189230000Y-102870000D03*
X189230000Y-100330000D03*
X189230000Y-97790000D03*
X189230000Y-95250000D03*
X189230000Y-92710000D03*
X173990000Y-90170000D03*
X176530000Y-90170000D03*
X179070000Y-90170000D03*
X189230000Y-90170000D03*
X186690000Y-90170000D03*
X184150000Y-90170000D03*
X181610000Y-90170000D03*
%TD*%
D12*
%TO.C,6-24V1*%
X80900000Y-80010000D03*
D13*
X76200000Y-83010000D03*
X76200000Y-77010000D03*
%TD*%
D14*
%TO.C,A1*%
X166370000Y-124460000D03*
X163830000Y-124460000D03*
X161290000Y-124460000D03*
X158750000Y-124460000D03*
D15*
X158750000Y-83820000D03*
D14*
X161290000Y-83820000D03*
X163830000Y-83820000D03*
X166370000Y-83820000D03*
%TD*%
%TO.C,A2*%
X172720000Y-77470000D03*
X175260000Y-77470000D03*
X177800000Y-77470000D03*
X180340000Y-77470000D03*
%TD*%
%TO.C,C1*%
G36*
G01*
X205202500Y-99932500D02*
X205202500Y-99457500D01*
G75*
G02*
X205440000Y-99220000I237500J0D01*
G01*
X206040000Y-99220000D01*
G75*
G02*
X206277500Y-99457500I0J-237500D01*
G01*
X206277500Y-99932500D01*
G75*
G02*
X206040000Y-100170000I-237500J0D01*
G01*
X205440000Y-100170000D01*
G75*
G02*
X205202500Y-99932500I0J237500D01*
G01*
G37*
G36*
G01*
X203477500Y-99932500D02*
X203477500Y-99457500D01*
G75*
G02*
X203715000Y-99220000I237500J0D01*
G01*
X204315000Y-99220000D01*
G75*
G02*
X204552500Y-99457500I0J-237500D01*
G01*
X204552500Y-99932500D01*
G75*
G02*
X204315000Y-100170000I-237500J0D01*
G01*
X203715000Y-100170000D01*
G75*
G02*
X203477500Y-99932500I0J237500D01*
G01*
G37*
%TD*%
%TO.C,C2*%
G36*
G01*
X199032500Y-99932500D02*
X199032500Y-99457500D01*
G75*
G02*
X199270000Y-99220000I237500J0D01*
G01*
X199870000Y-99220000D01*
G75*
G02*
X200107500Y-99457500I0J-237500D01*
G01*
X200107500Y-99932500D01*
G75*
G02*
X199870000Y-100170000I-237500J0D01*
G01*
X199270000Y-100170000D01*
G75*
G02*
X199032500Y-99932500I0J237500D01*
G01*
G37*
G36*
G01*
X200757500Y-99932500D02*
X200757500Y-99457500D01*
G75*
G02*
X200995000Y-99220000I237500J0D01*
G01*
X201595000Y-99220000D01*
G75*
G02*
X201832500Y-99457500I0J-237500D01*
G01*
X201832500Y-99932500D01*
G75*
G02*
X201595000Y-100170000I-237500J0D01*
G01*
X200995000Y-100170000D01*
G75*
G02*
X200757500Y-99932500I0J237500D01*
G01*
G37*
%TD*%
D11*
%TO.C,C3*%
X80010000Y-87630000D03*
D10*
X80010000Y-90130000D03*
%TD*%
%TO.C,C4*%
X80010000Y-94020000D03*
D11*
X80010000Y-96520000D03*
%TD*%
%TO.C,C5*%
G36*
G01*
X86050000Y-119617500D02*
X86050000Y-119142500D01*
G75*
G02*
X86287500Y-118905000I237500J0D01*
G01*
X86887500Y-118905000D01*
G75*
G02*
X87125000Y-119142500I0J-237500D01*
G01*
X87125000Y-119617500D01*
G75*
G02*
X86887500Y-119855000I-237500J0D01*
G01*
X86287500Y-119855000D01*
G75*
G02*
X86050000Y-119617500I0J237500D01*
G01*
G37*
G36*
G01*
X84325000Y-119617500D02*
X84325000Y-119142500D01*
G75*
G02*
X84562500Y-118905000I237500J0D01*
G01*
X85162500Y-118905000D01*
G75*
G02*
X85400000Y-119142500I0J-237500D01*
G01*
X85400000Y-119617500D01*
G75*
G02*
X85162500Y-119855000I-237500J0D01*
G01*
X84562500Y-119855000D01*
G75*
G02*
X84325000Y-119617500I0J237500D01*
G01*
G37*
%TD*%
%TO.C,C6*%
G36*
G01*
X106597500Y-119617500D02*
X106597500Y-119142500D01*
G75*
G02*
X106835000Y-118905000I237500J0D01*
G01*
X107435000Y-118905000D01*
G75*
G02*
X107672500Y-119142500I0J-237500D01*
G01*
X107672500Y-119617500D01*
G75*
G02*
X107435000Y-119855000I-237500J0D01*
G01*
X106835000Y-119855000D01*
G75*
G02*
X106597500Y-119617500I0J237500D01*
G01*
G37*
G36*
G01*
X104872500Y-119617500D02*
X104872500Y-119142500D01*
G75*
G02*
X105110000Y-118905000I237500J0D01*
G01*
X105710000Y-118905000D01*
G75*
G02*
X105947500Y-119142500I0J-237500D01*
G01*
X105947500Y-119617500D01*
G75*
G02*
X105710000Y-119855000I-237500J0D01*
G01*
X105110000Y-119855000D01*
G75*
G02*
X104872500Y-119617500I0J237500D01*
G01*
G37*
%TD*%
%TO.C,C7*%
G36*
G01*
X126917500Y-119617500D02*
X126917500Y-119142500D01*
G75*
G02*
X127155000Y-118905000I237500J0D01*
G01*
X127755000Y-118905000D01*
G75*
G02*
X127992500Y-119142500I0J-237500D01*
G01*
X127992500Y-119617500D01*
G75*
G02*
X127755000Y-119855000I-237500J0D01*
G01*
X127155000Y-119855000D01*
G75*
G02*
X126917500Y-119617500I0J237500D01*
G01*
G37*
G36*
G01*
X125192500Y-119617500D02*
X125192500Y-119142500D01*
G75*
G02*
X125430000Y-118905000I237500J0D01*
G01*
X126030000Y-118905000D01*
G75*
G02*
X126267500Y-119142500I0J-237500D01*
G01*
X126267500Y-119617500D01*
G75*
G02*
X126030000Y-119855000I-237500J0D01*
G01*
X125430000Y-119855000D01*
G75*
G02*
X125192500Y-119617500I0J237500D01*
G01*
G37*
%TD*%
%TO.C,C8*%
G36*
G01*
X91570000Y-119142500D02*
X91570000Y-119617500D01*
G75*
G02*
X91332500Y-119855000I-237500J0D01*
G01*
X90732500Y-119855000D01*
G75*
G02*
X90495000Y-119617500I0J237500D01*
G01*
X90495000Y-119142500D01*
G75*
G02*
X90732500Y-118905000I237500J0D01*
G01*
X91332500Y-118905000D01*
G75*
G02*
X91570000Y-119142500I0J-237500D01*
G01*
G37*
G36*
G01*
X89845000Y-119142500D02*
X89845000Y-119617500D01*
G75*
G02*
X89607500Y-119855000I-237500J0D01*
G01*
X89007500Y-119855000D01*
G75*
G02*
X88770000Y-119617500I0J237500D01*
G01*
X88770000Y-119142500D01*
G75*
G02*
X89007500Y-118905000I237500J0D01*
G01*
X89607500Y-118905000D01*
G75*
G02*
X89845000Y-119142500I0J-237500D01*
G01*
G37*
%TD*%
%TO.C,C9*%
G36*
G01*
X112117500Y-119142500D02*
X112117500Y-119617500D01*
G75*
G02*
X111880000Y-119855000I-237500J0D01*
G01*
X111280000Y-119855000D01*
G75*
G02*
X111042500Y-119617500I0J237500D01*
G01*
X111042500Y-119142500D01*
G75*
G02*
X111280000Y-118905000I237500J0D01*
G01*
X111880000Y-118905000D01*
G75*
G02*
X112117500Y-119142500I0J-237500D01*
G01*
G37*
G36*
G01*
X110392500Y-119142500D02*
X110392500Y-119617500D01*
G75*
G02*
X110155000Y-119855000I-237500J0D01*
G01*
X109555000Y-119855000D01*
G75*
G02*
X109317500Y-119617500I0J237500D01*
G01*
X109317500Y-119142500D01*
G75*
G02*
X109555000Y-118905000I237500J0D01*
G01*
X110155000Y-118905000D01*
G75*
G02*
X110392500Y-119142500I0J-237500D01*
G01*
G37*
%TD*%
%TO.C,C10*%
G36*
G01*
X132437500Y-119142500D02*
X132437500Y-119617500D01*
G75*
G02*
X132200000Y-119855000I-237500J0D01*
G01*
X131600000Y-119855000D01*
G75*
G02*
X131362500Y-119617500I0J237500D01*
G01*
X131362500Y-119142500D01*
G75*
G02*
X131600000Y-118905000I237500J0D01*
G01*
X132200000Y-118905000D01*
G75*
G02*
X132437500Y-119142500I0J-237500D01*
G01*
G37*
G36*
G01*
X130712500Y-119142500D02*
X130712500Y-119617500D01*
G75*
G02*
X130475000Y-119855000I-237500J0D01*
G01*
X129875000Y-119855000D01*
G75*
G02*
X129637500Y-119617500I0J237500D01*
G01*
X129637500Y-119142500D01*
G75*
G02*
X129875000Y-118905000I237500J0D01*
G01*
X130475000Y-118905000D01*
G75*
G02*
X130712500Y-119142500I0J-237500D01*
G01*
G37*
%TD*%
%TO.C,J1*%
G36*
G01*
X117690000Y-123735000D02*
X117690000Y-125185000D01*
G75*
G02*
X117440000Y-125435000I-250000J0D01*
G01*
X116240000Y-125435000D01*
G75*
G02*
X115990000Y-125185000I0J250000D01*
G01*
X115990000Y-123735000D01*
G75*
G02*
X116240000Y-123485000I250000J0D01*
G01*
X117440000Y-123485000D01*
G75*
G02*
X117690000Y-123735000I0J-250000D01*
G01*
G37*
D16*
X114340000Y-124460000D03*
X111840000Y-124460000D03*
X109340000Y-124460000D03*
X106840000Y-124460000D03*
%TD*%
D14*
%TO.C,J2*%
X128270000Y-96520000D03*
X135890000Y-96520000D03*
X132080000Y-100330000D03*
%TD*%
%TO.C,J3*%
G36*
G01*
X97370000Y-123735000D02*
X97370000Y-125185000D01*
G75*
G02*
X97120000Y-125435000I-250000J0D01*
G01*
X95920000Y-125435000D01*
G75*
G02*
X95670000Y-125185000I0J250000D01*
G01*
X95670000Y-123735000D01*
G75*
G02*
X95920000Y-123485000I250000J0D01*
G01*
X97120000Y-123485000D01*
G75*
G02*
X97370000Y-123735000I0J-250000D01*
G01*
G37*
D16*
X94020000Y-124460000D03*
X91520000Y-124460000D03*
X89020000Y-124460000D03*
X86520000Y-124460000D03*
%TD*%
%TO.C,J4*%
X127675000Y-124460000D03*
X130175000Y-124460000D03*
X132675000Y-124460000D03*
X135175000Y-124460000D03*
G36*
G01*
X138525000Y-123735000D02*
X138525000Y-125185000D01*
G75*
G02*
X138275000Y-125435000I-250000J0D01*
G01*
X137075000Y-125435000D01*
G75*
G02*
X136825000Y-125185000I0J250000D01*
G01*
X136825000Y-123735000D01*
G75*
G02*
X137075000Y-123485000I250000J0D01*
G01*
X138275000Y-123485000D01*
G75*
G02*
X138525000Y-123735000I0J-250000D01*
G01*
G37*
%TD*%
%TO.C,R1*%
G36*
G01*
X205252500Y-96122500D02*
X205252500Y-95647500D01*
G75*
G02*
X205490000Y-95410000I237500J0D01*
G01*
X205990000Y-95410000D01*
G75*
G02*
X206227500Y-95647500I0J-237500D01*
G01*
X206227500Y-96122500D01*
G75*
G02*
X205990000Y-96360000I-237500J0D01*
G01*
X205490000Y-96360000D01*
G75*
G02*
X205252500Y-96122500I0J237500D01*
G01*
G37*
G36*
G01*
X203427500Y-96122500D02*
X203427500Y-95647500D01*
G75*
G02*
X203665000Y-95410000I237500J0D01*
G01*
X204165000Y-95410000D01*
G75*
G02*
X204402500Y-95647500I0J-237500D01*
G01*
X204402500Y-96122500D01*
G75*
G02*
X204165000Y-96360000I-237500J0D01*
G01*
X203665000Y-96360000D01*
G75*
G02*
X203427500Y-96122500I0J237500D01*
G01*
G37*
%TD*%
%TO.C,R2*%
G36*
G01*
X198902500Y-96122500D02*
X198902500Y-95647500D01*
G75*
G02*
X199140000Y-95410000I237500J0D01*
G01*
X199640000Y-95410000D01*
G75*
G02*
X199877500Y-95647500I0J-237500D01*
G01*
X199877500Y-96122500D01*
G75*
G02*
X199640000Y-96360000I-237500J0D01*
G01*
X199140000Y-96360000D01*
G75*
G02*
X198902500Y-96122500I0J237500D01*
G01*
G37*
G36*
G01*
X200727500Y-96122500D02*
X200727500Y-95647500D01*
G75*
G02*
X200965000Y-95410000I237500J0D01*
G01*
X201465000Y-95410000D01*
G75*
G02*
X201702500Y-95647500I0J-237500D01*
G01*
X201702500Y-96122500D01*
G75*
G02*
X201465000Y-96360000I-237500J0D01*
G01*
X200965000Y-96360000D01*
G75*
G02*
X200727500Y-96122500I0J237500D01*
G01*
G37*
%TD*%
%TO.C,R3*%
G36*
G01*
X85300000Y-116602500D02*
X85300000Y-117077500D01*
G75*
G02*
X85062500Y-117315000I-237500J0D01*
G01*
X84562500Y-117315000D01*
G75*
G02*
X84325000Y-117077500I0J237500D01*
G01*
X84325000Y-116602500D01*
G75*
G02*
X84562500Y-116365000I237500J0D01*
G01*
X85062500Y-116365000D01*
G75*
G02*
X85300000Y-116602500I0J-237500D01*
G01*
G37*
G36*
G01*
X87125000Y-116602500D02*
X87125000Y-117077500D01*
G75*
G02*
X86887500Y-117315000I-237500J0D01*
G01*
X86387500Y-117315000D01*
G75*
G02*
X86150000Y-117077500I0J237500D01*
G01*
X86150000Y-116602500D01*
G75*
G02*
X86387500Y-116365000I237500J0D01*
G01*
X86887500Y-116365000D01*
G75*
G02*
X87125000Y-116602500I0J-237500D01*
G01*
G37*
%TD*%
%TO.C,R4*%
G36*
G01*
X91570000Y-116602500D02*
X91570000Y-117077500D01*
G75*
G02*
X91332500Y-117315000I-237500J0D01*
G01*
X90832500Y-117315000D01*
G75*
G02*
X90595000Y-117077500I0J237500D01*
G01*
X90595000Y-116602500D01*
G75*
G02*
X90832500Y-116365000I237500J0D01*
G01*
X91332500Y-116365000D01*
G75*
G02*
X91570000Y-116602500I0J-237500D01*
G01*
G37*
G36*
G01*
X89745000Y-116602500D02*
X89745000Y-117077500D01*
G75*
G02*
X89507500Y-117315000I-237500J0D01*
G01*
X89007500Y-117315000D01*
G75*
G02*
X88770000Y-117077500I0J237500D01*
G01*
X88770000Y-116602500D01*
G75*
G02*
X89007500Y-116365000I237500J0D01*
G01*
X89507500Y-116365000D01*
G75*
G02*
X89745000Y-116602500I0J-237500D01*
G01*
G37*
%TD*%
%TO.C,R5*%
G36*
G01*
X105620000Y-116602500D02*
X105620000Y-117077500D01*
G75*
G02*
X105382500Y-117315000I-237500J0D01*
G01*
X104882500Y-117315000D01*
G75*
G02*
X104645000Y-117077500I0J237500D01*
G01*
X104645000Y-116602500D01*
G75*
G02*
X104882500Y-116365000I237500J0D01*
G01*
X105382500Y-116365000D01*
G75*
G02*
X105620000Y-116602500I0J-237500D01*
G01*
G37*
G36*
G01*
X107445000Y-116602500D02*
X107445000Y-117077500D01*
G75*
G02*
X107207500Y-117315000I-237500J0D01*
G01*
X106707500Y-117315000D01*
G75*
G02*
X106470000Y-117077500I0J237500D01*
G01*
X106470000Y-116602500D01*
G75*
G02*
X106707500Y-116365000I237500J0D01*
G01*
X107207500Y-116365000D01*
G75*
G02*
X107445000Y-116602500I0J-237500D01*
G01*
G37*
%TD*%
%TO.C,R6*%
G36*
G01*
X111890000Y-116602500D02*
X111890000Y-117077500D01*
G75*
G02*
X111652500Y-117315000I-237500J0D01*
G01*
X111152500Y-117315000D01*
G75*
G02*
X110915000Y-117077500I0J237500D01*
G01*
X110915000Y-116602500D01*
G75*
G02*
X111152500Y-116365000I237500J0D01*
G01*
X111652500Y-116365000D01*
G75*
G02*
X111890000Y-116602500I0J-237500D01*
G01*
G37*
G36*
G01*
X110065000Y-116602500D02*
X110065000Y-117077500D01*
G75*
G02*
X109827500Y-117315000I-237500J0D01*
G01*
X109327500Y-117315000D01*
G75*
G02*
X109090000Y-117077500I0J237500D01*
G01*
X109090000Y-116602500D01*
G75*
G02*
X109327500Y-116365000I237500J0D01*
G01*
X109827500Y-116365000D01*
G75*
G02*
X110065000Y-116602500I0J-237500D01*
G01*
G37*
%TD*%
%TO.C,R7*%
G36*
G01*
X126217500Y-116602500D02*
X126217500Y-117077500D01*
G75*
G02*
X125980000Y-117315000I-237500J0D01*
G01*
X125480000Y-117315000D01*
G75*
G02*
X125242500Y-117077500I0J237500D01*
G01*
X125242500Y-116602500D01*
G75*
G02*
X125480000Y-116365000I237500J0D01*
G01*
X125980000Y-116365000D01*
G75*
G02*
X126217500Y-116602500I0J-237500D01*
G01*
G37*
G36*
G01*
X128042500Y-116602500D02*
X128042500Y-117077500D01*
G75*
G02*
X127805000Y-117315000I-237500J0D01*
G01*
X127305000Y-117315000D01*
G75*
G02*
X127067500Y-117077500I0J237500D01*
G01*
X127067500Y-116602500D01*
G75*
G02*
X127305000Y-116365000I237500J0D01*
G01*
X127805000Y-116365000D01*
G75*
G02*
X128042500Y-116602500I0J-237500D01*
G01*
G37*
%TD*%
%TO.C,R8*%
G36*
G01*
X132567500Y-116602500D02*
X132567500Y-117077500D01*
G75*
G02*
X132330000Y-117315000I-237500J0D01*
G01*
X131830000Y-117315000D01*
G75*
G02*
X131592500Y-117077500I0J237500D01*
G01*
X131592500Y-116602500D01*
G75*
G02*
X131830000Y-116365000I237500J0D01*
G01*
X132330000Y-116365000D01*
G75*
G02*
X132567500Y-116602500I0J-237500D01*
G01*
G37*
G36*
G01*
X130742500Y-116602500D02*
X130742500Y-117077500D01*
G75*
G02*
X130505000Y-117315000I-237500J0D01*
G01*
X130005000Y-117315000D01*
G75*
G02*
X129767500Y-117077500I0J237500D01*
G01*
X129767500Y-116602500D01*
G75*
G02*
X130005000Y-116365000I237500J0D01*
G01*
X130505000Y-116365000D01*
G75*
G02*
X130742500Y-116602500I0J-237500D01*
G01*
G37*
%TD*%
D17*
%TO.C,SW1*%
X99060000Y-85090000D03*
X88900000Y-85090000D03*
D18*
X93980000Y-85090000D03*
D19*
X96520000Y-80010000D03*
X90170000Y-82550000D03*
%TD*%
D20*
%TO.C,SW2*%
X200740000Y-118640000D03*
X205740000Y-118640000D03*
D21*
X197640000Y-111640000D03*
X208840000Y-111640000D03*
D20*
X200740000Y-104140000D03*
X203240000Y-104140000D03*
D22*
X205740000Y-104140000D03*
%TD*%
D19*
%TO.C,SW3*%
X115697000Y-106680000D03*
X122047000Y-104140000D03*
D18*
X119507000Y-109220000D03*
D17*
X114427000Y-109220000D03*
X124587000Y-109220000D03*
%TD*%
D19*
%TO.C,SW4*%
X90170000Y-106426000D03*
X96520000Y-103886000D03*
D18*
X93980000Y-108966000D03*
D17*
X88900000Y-108966000D03*
X99060000Y-108966000D03*
%TD*%
%TO.C,SW5*%
X149860000Y-85090000D03*
X139700000Y-85090000D03*
D18*
X144780000Y-85090000D03*
D19*
X147320000Y-80010000D03*
X140970000Y-82550000D03*
%TD*%
%TO.C,SW6*%
X115570000Y-82550000D03*
X121920000Y-80010000D03*
D18*
X119380000Y-85090000D03*
D17*
X114300000Y-85090000D03*
X124460000Y-85090000D03*
%TD*%
%TO.C,SW7*%
X150495000Y-109220000D03*
X140335000Y-109220000D03*
D18*
X145415000Y-109220000D03*
D19*
X147955000Y-104140000D03*
X141605000Y-106680000D03*
%TD*%
D23*
%TO.C,U2*%
X72390000Y-90170000D03*
D24*
X72390000Y-92710000D03*
X72390000Y-95250000D03*
%TD*%
M02*
